<svg xmlns="http://www.w3.org/2000/svg" width="20" height="20" viewBox="0 0 20 20">
  <g id="Group_207221" data-name="Group 207221" transform="translate(-111 -442.492)">
    <circle id="Ellipse_1300" data-name="Ellipse 1300" cx="10" cy="10" r="10" transform="translate(111 442.492)" fill="#cfe0ff"/>
    <path id="Path_70995" data-name="Path 70995" d="M305.7,162.4a.781.781,0,1,0,.781.781A.781.781,0,0,0,305.7,162.4Zm-.841,1.951a.586.586,0,1,0,.061,1.171h.39v3.9h-.39a.572.572,0,0,0-.061,0,.586.586,0,1,0,.061,1.171h1.951a.586.586,0,1,0,0-1.171h-.39v-4.488a.586.586,0,0,0-.585-.585h-1.037Z" transform="translate(-184.633 285.404)" fill="#202124"/>
  </g>
</svg>