<svg xmlns="http://www.w3.org/2000/svg" width="289.65" height="302.816" viewBox="0 0 289.65 302.816">
  <g id="analytics-funnel-svgrepo-com" transform="translate(-11.13)">
    <path id="Path_70243" data-name="Path 70243" d="M299.767,18.2l-36.03,87.128-32.667,79-27.223,65.829-18.415,44.531a13.158,13.158,0,0,1-12.159,8.133H138.639a13.158,13.158,0,0,1-12.16-8.133l-18.416-44.531L80.841,184.323l-32.667-79L12.143,18.2A13.166,13.166,0,0,1,24.3,0h263.3A13.166,13.166,0,0,1,299.767,18.2Z" fill="#fa9e2d"/>
    <path id="Path_70244" data-name="Path 70244" d="M259.56,464.067A4.936,4.936,0,0,1,254.625,469h-13.16a4.937,4.937,0,0,1,0-9.875h13.16A4.936,4.936,0,0,1,259.56,464.067Z" transform="translate(-92.09 -187.584)" opacity="0.1"/>
    <path id="Path_70245" data-name="Path 70245" d="M299.767,18.2l-36.03,87.128-32.667,79-27.223,65.829H108.063L80.84,184.323l-32.666-79L12.143,18.2A13.166,13.166,0,0,1,24.3,0h263.3A13.166,13.166,0,0,1,299.767,18.2Z" fill="#e46179"/>
    <path id="Path_70246" data-name="Path 70246" d="M262.612,363.893a4.936,4.936,0,0,1-4.935,4.937h-32.9a4.937,4.937,0,0,1,0-9.875h32.9A4.936,4.936,0,0,1,262.612,363.893Z" transform="translate(-85.272 -146.656)" opacity="0.1"/>
    <path id="Path_70247" data-name="Path 70247" d="M299.767,18.2l-36.03,87.128-32.667,79H80.84l-32.666-79L12.143,18.2A13.166,13.166,0,0,1,24.3,0h263.3A13.166,13.166,0,0,1,299.767,18.2Z" fill="#4482ff"/>
    <path id="Path_70248" data-name="Path 70248" d="M267.7,224.763a4.936,4.936,0,0,1-4.936,4.937h-65.8a4.937,4.937,0,0,1,0-9.875h65.8A4.936,4.936,0,0,1,267.7,224.763ZM249.6,239.575H210.124a4.937,4.937,0,0,0,0,9.875H249.6a4.937,4.937,0,0,0,0-9.875Z" transform="translate(-73.908 -89.813)" opacity="0.1"/>
    <path id="Path_70249" data-name="Path 70249" d="M24.3,0h263.3a13.165,13.165,0,0,1,12.16,18.2l-36.03,87.128H48.174L12.143,18.2A13.166,13.166,0,0,1,24.3,0Z" fill="#80cc8c"/>
    <path id="Path_70250" data-name="Path 70250" d="M269.734,68.937a4.936,4.936,0,0,1-4.936,4.937H185.84a4.937,4.937,0,0,1,0-9.875H264.8A4.935,4.935,0,0,1,269.734,68.937Zm-18.1,14.811H199a4.937,4.937,0,0,0,0,9.875h52.639a4.937,4.937,0,0,0,0-9.875Z" transform="translate(-69.364 -26.148)" opacity="0.1"/>
  </g>
</svg>
