<svg xmlns="http://www.w3.org/2000/svg" width="636" height="298" viewBox="0 0 636 298">
  <g id="Group_42771" data-name="Group 42771" transform="translate(-150.271 -147.849)">
    <g id="Rectangle_10101" data-name="Rectangle 10101" transform="translate(150.271 147.849)" fill="#ffe3c2" stroke="#fff" stroke-width="1">
      <rect width="128" height="61" stroke="none"/>
      <rect x="0.5" y="0.5" width="127" height="60" fill="none"/>
    </g>
    <g id="Rectangle_10106" data-name="Rectangle 10106" transform="translate(150.271 206.849)" fill="#ffe3c2" stroke="#fff" stroke-width="1">
      <rect width="128" height="61" stroke="none"/>
      <rect x="0.5" y="0.5" width="127" height="60" fill="none"/>
    </g>
    <g id="Rectangle_10111" data-name="Rectangle 10111" transform="translate(150.271 266.849)" fill="#ffe3c2" stroke="#fff" stroke-width="1">
      <rect width="128" height="60" stroke="none"/>
      <rect x="0.5" y="0.5" width="127" height="59" fill="none"/>
    </g>
    <g id="Rectangle_10116" data-name="Rectangle 10116" transform="translate(150.271 325.849)" fill="#ffe3c2" stroke="#fff" stroke-width="1">
      <rect width="128" height="61" stroke="none"/>
      <rect x="0.5" y="0.5" width="127" height="60" fill="none"/>
    </g>
    <g id="Rectangle_10121" data-name="Rectangle 10121" transform="translate(150.271 384.849)" fill="#ffe3c2" stroke="#fff" stroke-width="1">
      <rect width="128" height="61" stroke="none"/>
      <rect x="0.5" y="0.5" width="127" height="60" fill="none"/>
    </g>
    <g id="Rectangle_10102" data-name="Rectangle 10102" transform="translate(277.271 147.849)" fill="#ffe3c2" stroke="#fff" stroke-width="1">
      <rect width="128" height="61" stroke="none"/>
      <rect x="0.5" y="0.5" width="127" height="60" fill="none"/>
    </g>
    <g id="Rectangle_10107" data-name="Rectangle 10107" transform="translate(277.271 206.849)" fill="#ffe3c2" stroke="#fff" stroke-width="1">
      <rect width="128" height="61" stroke="none"/>
      <rect x="0.5" y="0.5" width="127" height="60" fill="none"/>
    </g>
    <g id="Rectangle_10112" data-name="Rectangle 10112" transform="translate(277.271 266.849)" fill="#ffe3c2" stroke="#fff" stroke-width="1">
      <rect width="128" height="60" stroke="none"/>
      <rect x="0.5" y="0.5" width="127" height="59" fill="none"/>
    </g>
    <g id="Rectangle_10117" data-name="Rectangle 10117" transform="translate(277.271 325.849)" fill="#ffc37e" stroke="#fff" stroke-width="1">
      <rect width="128" height="61" stroke="none"/>
      <rect x="0.5" y="0.5" width="127" height="60" fill="none"/>
    </g>
    <g id="Rectangle_10122" data-name="Rectangle 10122" transform="translate(277.271 384.849)" fill="#ffc37e" stroke="#fff" stroke-width="1">
      <rect width="128" height="61" stroke="none"/>
      <rect x="0.5" y="0.5" width="127" height="60" fill="none"/>
    </g>
    <g id="Rectangle_10103" data-name="Rectangle 10103" transform="translate(404.271 147.849)" fill="#ffe3c2" stroke="#fff" stroke-width="1">
      <rect width="128" height="61" stroke="none"/>
      <rect x="0.5" y="0.5" width="127" height="60" fill="none"/>
    </g>
    <g id="Rectangle_10108" data-name="Rectangle 10108" transform="translate(404.271 206.849)" fill="#ffe3c2" stroke="#fff" stroke-width="1">
      <rect width="128" height="61" stroke="none"/>
      <rect x="0.5" y="0.5" width="127" height="60" fill="none"/>
    </g>
    <g id="Rectangle_10114" data-name="Rectangle 10114" transform="translate(404.271 266.849)" fill="#ffc37e" stroke="#fff" stroke-width="1">
      <rect width="128" height="60" stroke="none"/>
      <rect x="0.5" y="0.5" width="127" height="59" fill="none"/>
    </g>
    <g id="Rectangle_10118" data-name="Rectangle 10118" transform="translate(404.271 325.849)" fill="#ffc37e" stroke="#fff" stroke-width="1">
      <rect width="128" height="61" stroke="none"/>
      <rect x="0.5" y="0.5" width="127" height="60" fill="none"/>
    </g>
    <g id="Rectangle_10123" data-name="Rectangle 10123" transform="translate(404.271 384.849)" fill="#fa9e2d" stroke="#fff" stroke-width="1">
      <rect width="128" height="61" stroke="none"/>
      <rect x="0.5" y="0.5" width="127" height="60" fill="none"/>
    </g>
    <g id="Rectangle_10104" data-name="Rectangle 10104" transform="translate(531.271 147.849)" fill="#ffe3c2" stroke="#fff" stroke-width="1">
      <rect width="128" height="61" stroke="none"/>
      <rect x="0.5" y="0.5" width="127" height="60" fill="none"/>
    </g>
    <g id="Rectangle_10110" data-name="Rectangle 10110" transform="translate(531.271 206.849)" fill="#ffc37e" stroke="#fff" stroke-width="1">
      <rect width="128" height="61" stroke="none"/>
      <rect x="0.5" y="0.5" width="127" height="60" fill="none"/>
    </g>
    <g id="Rectangle_10113" data-name="Rectangle 10113" transform="translate(531.271 266.849)" fill="#fa9e2d" stroke="#fff" stroke-width="1">
      <rect width="128" height="60" stroke="none"/>
      <rect x="0.5" y="0.5" width="127" height="59" fill="none"/>
    </g>
    <g id="Rectangle_10119" data-name="Rectangle 10119" transform="translate(531.271 325.849)" fill="#fa9e2d" stroke="#fff" stroke-width="1">
      <rect width="128" height="61" stroke="none"/>
      <rect x="0.5" y="0.5" width="127" height="60" fill="none"/>
    </g>
    <g id="Rectangle_10124" data-name="Rectangle 10124" transform="translate(531.271 384.849)" fill="#fa9e2d" stroke="#fff" stroke-width="1">
      <rect width="128" height="61" stroke="none"/>
      <rect x="0.5" y="0.5" width="127" height="60" fill="none"/>
    </g>
    <g id="Rectangle_10105" data-name="Rectangle 10105" transform="translate(658.271 147.849)" fill="#ffe3c2" stroke="#fff" stroke-width="1">
      <rect width="128" height="61" stroke="none"/>
      <rect x="0.5" y="0.5" width="127" height="60" fill="none"/>
    </g>
    <g id="Rectangle_10109" data-name="Rectangle 10109" transform="translate(658.271 206.849)" fill="#ffc37e" stroke="#fff" stroke-width="1">
      <rect width="128" height="61" stroke="none"/>
      <rect x="0.5" y="0.5" width="127" height="60" fill="none"/>
    </g>
    <g id="Rectangle_10115" data-name="Rectangle 10115" transform="translate(658.271 266.849)" fill="#fa9e2d" stroke="#fff" stroke-width="1">
      <rect width="128" height="60" stroke="none"/>
      <rect x="0.5" y="0.5" width="127" height="59" fill="none"/>
    </g>
    <g id="Rectangle_10120" data-name="Rectangle 10120" transform="translate(658.271 325.849)" fill="#fa9e2d" stroke="#fff" stroke-width="1">
      <rect width="128" height="61" stroke="none"/>
      <rect x="0.5" y="0.5" width="127" height="60" fill="none"/>
    </g>
    <g id="Rectangle_10125" data-name="Rectangle 10125" transform="translate(658.271 384.849)" fill="#e46179" stroke="#fff" stroke-width="1">
      <rect width="128" height="61" stroke="none"/>
      <rect x="0.5" y="0.5" width="127" height="60" fill="none"/>
    </g>
    <path id="Path_70256" data-name="Path 70256" d="M224.905,68.937c0,2.727-1.094,4.937-2.445,4.937H183.349c-1.35,0-2.444-2.21-2.444-4.937S182,64,183.349,64h39.111C223.811,64,224.905,66.21,224.905,68.937Z" transform="translate(11.367 109.849)" opacity="0.1"/>
    <path id="Path_70262" data-name="Path 70262" d="M224.905,68.937c0,2.727-1.094,4.937-2.445,4.937H183.349c-1.35,0-2.444-2.21-2.444-4.937S182,64,183.349,64h39.111C223.811,64,224.905,66.21,224.905,68.937Z" transform="translate(138.367 109.849)" opacity="0.1"/>
    <path id="Path_70267" data-name="Path 70267" d="M224.905,68.937c0,2.727-1.094,4.937-2.445,4.937H183.349c-1.35,0-2.444-2.21-2.444-4.937S182,64,183.349,64h39.111C223.811,64,224.905,66.21,224.905,68.937Z" transform="translate(265.367 109.849)" opacity="0.1"/>
    <path id="Path_70272" data-name="Path 70272" d="M224.905,68.937c0,2.727-1.094,4.937-2.445,4.937H183.349c-1.35,0-2.444-2.21-2.444-4.937S182,64,183.349,64h39.111C223.811,64,224.905,66.21,224.905,68.937Z" transform="translate(392.367 109.849)" opacity="0.1"/>
    <path id="Path_70277" data-name="Path 70277" d="M224.905,68.937c0,2.727-1.094,4.937-2.445,4.937H183.349c-1.35,0-2.444-2.21-2.444-4.937S182,64,183.349,64h39.111C223.811,64,224.905,66.21,224.905,68.937Z" transform="translate(519.367 109.849)" opacity="0.1"/>
    <path id="Path_70257" data-name="Path 70257" d="M224.905,68.937c0,2.727-1.094,4.937-2.445,4.937H183.349c-1.35,0-2.444-2.21-2.444-4.937S182,64,183.349,64h39.111C223.811,64,224.905,66.21,224.905,68.937Z" transform="translate(11.367 168.849)" opacity="0.1"/>
    <path id="Path_70261" data-name="Path 70261" d="M224.905,68.937c0,2.727-1.094,4.937-2.445,4.937H183.349c-1.35,0-2.444-2.21-2.444-4.937S182,64,183.349,64h39.111C223.811,64,224.905,66.21,224.905,68.937Z" transform="translate(138.367 168.849)" opacity="0.1"/>
    <path id="Path_70266" data-name="Path 70266" d="M224.905,68.937c0,2.727-1.094,4.937-2.445,4.937H183.349c-1.35,0-2.444-2.21-2.444-4.937S182,64,183.349,64h39.111C223.811,64,224.905,66.21,224.905,68.937Z" transform="translate(265.367 168.849)" opacity="0.1"/>
    <path id="Path_70271" data-name="Path 70271" d="M224.905,68.937c0,2.727-1.094,4.937-2.445,4.937H183.349c-1.35,0-2.444-2.21-2.444-4.937S182,64,183.349,64h39.111C223.811,64,224.905,66.21,224.905,68.937Z" transform="translate(392.367 168.849)" opacity="0.1"/>
    <path id="Path_70276" data-name="Path 70276" d="M224.905,68.937c0,2.727-1.094,4.937-2.445,4.937H183.349c-1.35,0-2.444-2.21-2.444-4.937S182,64,183.349,64h39.111C223.811,64,224.905,66.21,224.905,68.937Z" transform="translate(519.367 168.849)" opacity="0.1"/>
    <path id="Path_70258" data-name="Path 70258" d="M224.905,68.937c0,2.727-1.094,4.937-2.445,4.937H183.349c-1.35,0-2.444-2.21-2.444-4.937S182,64,183.349,64h39.111C223.811,64,224.905,66.21,224.905,68.937Z" transform="translate(11.367 227.849)" opacity="0.1"/>
    <path id="Path_70263" data-name="Path 70263" d="M224.905,68.937c0,2.727-1.094,4.937-2.445,4.937H183.349c-1.35,0-2.444-2.21-2.444-4.937S182,64,183.349,64h39.111C223.811,64,224.905,66.21,224.905,68.937Z" transform="translate(138.367 227.849)" opacity="0.1"/>
    <path id="Path_70268" data-name="Path 70268" d="M224.905,68.937c0,2.727-1.094,4.937-2.445,4.937H183.349c-1.35,0-2.444-2.21-2.444-4.937S182,64,183.349,64h39.111C223.811,64,224.905,66.21,224.905,68.937Z" transform="translate(265.367 227.849)" opacity="0.1"/>
    <path id="Path_70273" data-name="Path 70273" d="M224.905,68.937c0,2.727-1.094,4.937-2.445,4.937H183.349c-1.35,0-2.444-2.21-2.444-4.937S182,64,183.349,64h39.111C223.811,64,224.905,66.21,224.905,68.937Z" transform="translate(392.367 227.849)" opacity="0.1"/>
    <path id="Path_70278" data-name="Path 70278" d="M224.905,68.937c0,2.727-1.094,4.937-2.445,4.937H183.349c-1.35,0-2.444-2.21-2.444-4.937S182,64,183.349,64h39.111C223.811,64,224.905,66.21,224.905,68.937Z" transform="translate(519.367 227.849)" opacity="0.1"/>
    <path id="Path_70259" data-name="Path 70259" d="M224.905,68.937c0,2.727-1.094,4.937-2.445,4.937H183.349c-1.35,0-2.444-2.21-2.444-4.937S182,64,183.349,64h39.111C223.811,64,224.905,66.21,224.905,68.937Z" transform="translate(11.367 287.849)" opacity="0.1"/>
    <path id="Path_70264" data-name="Path 70264" d="M224.905,68.937c0,2.727-1.094,4.937-2.445,4.937H183.349c-1.35,0-2.444-2.21-2.444-4.937S182,64,183.349,64h39.111C223.811,64,224.905,66.21,224.905,68.937Z" transform="translate(138.367 287.849)" opacity="0.1"/>
    <path id="Path_70269" data-name="Path 70269" d="M224.905,68.937c0,2.727-1.094,4.937-2.445,4.937H183.349c-1.35,0-2.444-2.21-2.444-4.937S182,64,183.349,64h39.111C223.811,64,224.905,66.21,224.905,68.937Z" transform="translate(265.367 287.849)" opacity="0.1"/>
    <path id="Path_70274" data-name="Path 70274" d="M224.905,68.937c0,2.727-1.094,4.937-2.445,4.937H183.349c-1.35,0-2.444-2.21-2.444-4.937S182,64,183.349,64h39.111C223.811,64,224.905,66.21,224.905,68.937Z" transform="translate(392.367 287.849)" opacity="0.1"/>
    <path id="Path_70279" data-name="Path 70279" d="M224.905,68.937c0,2.727-1.094,4.937-2.445,4.937H183.349c-1.35,0-2.444-2.21-2.444-4.937S182,64,183.349,64h39.111C223.811,64,224.905,66.21,224.905,68.937Z" transform="translate(519.367 287.849)" opacity="0.1"/>
    <path id="Path_70260" data-name="Path 70260" d="M224.905,68.937c0,2.727-1.094,4.937-2.445,4.937H183.349c-1.35,0-2.444-2.21-2.444-4.937S182,64,183.349,64h39.111C223.811,64,224.905,66.21,224.905,68.937Z" transform="translate(11.367 346.849)" opacity="0.1"/>
    <path id="Path_70265" data-name="Path 70265" d="M224.905,68.937c0,2.727-1.094,4.937-2.445,4.937H183.349c-1.35,0-2.444-2.21-2.444-4.937S182,64,183.349,64h39.111C223.811,64,224.905,66.21,224.905,68.937Z" transform="translate(138.367 346.849)" opacity="0.1"/>
    <path id="Path_70270" data-name="Path 70270" d="M224.905,68.937c0,2.727-1.094,4.937-2.445,4.937H183.349c-1.35,0-2.444-2.21-2.444-4.937S182,64,183.349,64h39.111C223.811,64,224.905,66.21,224.905,68.937Z" transform="translate(265.367 346.849)" opacity="0.1"/>
    <path id="Path_70275" data-name="Path 70275" d="M224.905,68.937c0,2.727-1.094,4.937-2.445,4.937H183.349c-1.35,0-2.444-2.21-2.444-4.937S182,64,183.349,64h39.111C223.811,64,224.905,66.21,224.905,68.937Z" transform="translate(392.367 346.849)" opacity="0.1"/>
    <path id="Path_70280" data-name="Path 70280" d="M224.905,68.937c0,2.727-1.094,4.937-2.445,4.937H183.349c-1.35,0-2.444-2.21-2.444-4.937S182,64,183.349,64h39.111C223.811,64,224.905,66.21,224.905,68.937Z" transform="translate(519.367 346.849)" opacity="0.1"/>
  </g>
</svg>
