<svg xmlns="http://www.w3.org/2000/svg" width="510.749" height="311.97" viewBox="0 0 510.749 311.97">
  <g id="Class_Scheduled_for_Today" data-name="Class Scheduled for Today" transform="translate(-75.5 0.747)">
    <g id="Table" transform="translate(0 0)">
      <g id="Line" transform="translate(76 -0.247)">
        <path id="potrait_line_01" data-name="potrait line 01" d="M0,37V347.682" transform="translate(0 -36.712)" fill="none" stroke="#e6e6e6" stroke-linecap="square" stroke-width="1"/>
        <path id="potrait_line_02" data-name="potrait line 02" d="M0,80V390.682" transform="translate(509.749 -80)" fill="none" stroke="#e6e6e6" stroke-linecap="square" stroke-width="1"/>
        <path id="Landscape_line_02" data-name="Landscape line 02" d="M0,0H459.942" transform="translate(0 310.682)" fill="none" stroke="#e6e6e6" stroke-linecap="square" stroke-width="1"/>
        <path id="Landscape_line_03" data-name="Landscape line 03" d="M0,0H509.134" transform="translate(0 254.112)" fill="none" stroke="#e6e6e6" stroke-linecap="square" stroke-width="1"/>
        <path id="Landscape_line_04" data-name="Landscape line 04" d="M0,0H509.134" transform="translate(0 197.541)" fill="none" stroke="#e6e6e6" stroke-linecap="square" stroke-width="1"/>
        <path id="Landscape_line_05" data-name="Landscape line 05" d="M0,0H509.134" transform="translate(0 140.971)" fill="none" stroke="#e6e6e6" stroke-linecap="square" stroke-width="1"/>
        <path id="Landscape_line_06" data-name="Landscape line 06" d="M0,0H509.134" transform="translate(0 84.4)" fill="none" stroke="#e6e6e6" stroke-linecap="square" stroke-width="1"/>
        <path id="Landscape_line_07" data-name="Landscape line 07" d="M0,0H509.134" transform="translate(0 27.83)" fill="none" stroke="#e6e6e6" stroke-linecap="square" stroke-width="1"/>
        <path id="Landscape_line_02-2" data-name="Landscape line 02" d="M0,0H509.134" transform="translate(0.615 310.682)" fill="none" stroke="#e6e6e6" stroke-linecap="square" stroke-width="1"/>
      </g>
      <g id="VI" transform="translate(95.131 70.519)">
        <g id="Group_19888" data-name="Group 19888" transform="translate(21.721 83.626)">
          <path id="Rectangle_9653" data-name="Rectangle 9653" d="M3,0H37a3,3,0,0,1,3,3V139a0,0,0,0,1,0,0H0a0,0,0,0,1,0,0V3A3,3,0,0,1,3,0Z" transform="translate(-22.852 17.608)" fill="#4482ff"/>
        </g>
        <g id="Group_37747" data-name="Group 37747" transform="translate(33.442 136.507)">
          <path id="Rectangle_9653-2" data-name="Rectangle 9653" d="M3,0H37a3,3,0,0,1,3,3V84a0,0,0,0,1,0,0H0a0,0,0,0,1,0,0V3A3,3,0,0,1,3,0Z" transform="translate(5.426 19.727)" fill="#e46179"/>
        </g>
      </g>
      <g id="VI-2" data-name="VI" transform="translate(174.205 105.821)">
        <g id="Group_19888-2" data-name="Group 19888" transform="translate(24.994 0)">
          <path id="Rectangle_9653-3" data-name="Rectangle 9653" d="M3,0H37a3,3,0,0,1,3,3V186a0,0,0,0,1,0,0H0a0,0,0,0,1,0,0V3A3,3,0,0,1,3,0Z" transform="translate(-26.2 18.932)" fill="#4482ff"/>
        </g>
        <g id="Group_37747-2" data-name="Group 37747" transform="translate(46.715 76.609)">
          <path id="Rectangle_9653-4" data-name="Rectangle 9653" d="M3,0H37a3,3,0,0,1,3,3V105a0,0,0,0,1,0,0H0a0,0,0,0,1,0,0V3A3,3,0,0,1,3,0Z" transform="translate(-7.921 23.323)" fill="#e46179"/>
        </g>
      </g>
      <g id="VI-3" data-name="VI" transform="translate(257.949 154.145)">
        <g id="Group_19888-3" data-name="Group 19888" transform="translate(24.44 99.613)">
          <path id="Rectangle_9653-5" data-name="Rectangle 9653" d="M3,0H37a3,3,0,0,1,3,3V38a0,0,0,0,1,0,0H0a0,0,0,0,1,0,0V3A3,3,0,0,1,3,0Z" transform="translate(-29.389 18.995)" fill="#4482ff"/>
        </g>
        <g id="Group_37747-3" data-name="Group 37747" transform="translate(48.442 65.179)">
          <path id="Rectangle_9653-6" data-name="Rectangle 9653" d="M3,0H37a3,3,0,0,1,3,3V70a0,0,0,0,1,0,0H0a0,0,0,0,1,0,0V3A3,3,0,0,1,3,0Z" transform="translate(-13.391 21.429)" fill="#e46179"/>
        </g>
      </g>
      <g id="VI-4" data-name="VI" transform="translate(338.151 64.37)">
        <g id="Group_19888-4" data-name="Group 19888" transform="translate(24.867 88.545)">
          <path id="Rectangle_9653-7" data-name="Rectangle 9653" d="M3,0H37a3,3,0,0,1,3,3V139a0,0,0,0,1,0,0H0a0,0,0,0,1,0,0V3A3,3,0,0,1,3,0Z" transform="translate(-30.017 18.838)" fill="#4482ff"/>
        </g>
        <g id="Group_37747-4" data-name="Group 37747" transform="translate(50.587 51.981)">
          <path id="Rectangle_9653-8" data-name="Rectangle 9653" d="M3,0H37a3,3,0,0,1,3,3V175a0,0,0,0,1,0,0H0a0,0,0,0,1,0,0V3A3,3,0,0,1,3,0Z" transform="translate(-15.738 19.402)" fill="#e46179"/>
        </g>
      </g>
      <g id="VI-5" data-name="VI" transform="translate(418.151 64.37)">
        <g id="Group_19888-5" data-name="Group 19888" transform="translate(24.867 88.545)">
          <path id="Rectangle_9653-9" data-name="Rectangle 9653" d="M3,0H37a3,3,0,0,1,3,3V139a0,0,0,0,1,0,0H0a0,0,0,0,1,0,0V3A3,3,0,0,1,3,0Z" transform="translate(-30.017 18.838)" fill="#4482ff"/>
        </g>
        <g id="Group_37747-5" data-name="Group 37747" transform="translate(50.587 14.846)">
          <path id="Rectangle_9653-10" data-name="Rectangle 9653" d="M3,0H37a3,3,0,0,1,3,3V212a0,0,0,0,1,0,0H0a0,0,0,0,1,0,0V3A3,3,0,0,1,3,0Z" transform="translate(-15.738 19.537)" fill="#e46179"/>
        </g>
      </g>
      <g id="VI-6" data-name="VI" transform="translate(498.151 64.37)">
        <g id="Group_19888-6" data-name="Group 19888" transform="translate(24.867 88.545)">
          <path id="Rectangle_9653-11" data-name="Rectangle 9653" d="M3,0H37a3,3,0,0,1,3,3V139a0,0,0,0,1,0,0H0a0,0,0,0,1,0,0V3A3,3,0,0,1,3,0Z" transform="translate(-30.017 18.838)" fill="#4482ff"/>
        </g>
        <g id="Group_37747-6" data-name="Group 37747" transform="translate(50.587 119.884)">
          <path id="Rectangle_9653-12" data-name="Rectangle 9653" d="M3,0H37a3,3,0,0,1,3,3V107a0,0,0,0,1,0,0H0a0,0,0,0,1,0,0V3A3,3,0,0,1,3,0Z" transform="translate(-15.738 19.499)" fill="#e46179"/>
        </g>
      </g>
    </g>
  </g>
</svg>
