<svg xmlns="http://www.w3.org/2000/svg" width="433" height="290" viewBox="0 0 433 290">
  <g id="Group_47087" data-name="Group 47087" transform="translate(-26 -33)">
    <g id="Group_47083" data-name="Group 47083">
      <g id="Group_19888" data-name="Group 19888" transform="translate(297 291) rotate(90)">
        <path id="Rectangle_9653" data-name="Rectangle 9653" d="M3,0h8a3,3,0,0,1,3,3V271a0,0,0,0,1,0,0H0a0,0,0,0,1,0,0V3A3,3,0,0,1,3,0Z" transform="translate(0)" fill="#4482ff"/>
      </g>
      <g id="Group_19889" data-name="Group 19889" transform="translate(180 273) rotate(90)">
        <path id="Rectangle_9652" data-name="Rectangle 9652" d="M3,0h8a3,3,0,0,1,3,3V154a0,0,0,0,1,0,0H0a0,0,0,0,1,0,0V3A3,3,0,0,1,3,0Z" transform="translate(0)" fill="#e46179"/>
      </g>
      <g id="Group_37747" data-name="Group 37747" transform="translate(459 309) rotate(90)">
        <path id="Rectangle_9653-2" data-name="Rectangle 9653" d="M3,0h8a3,3,0,0,1,3,3V433a0,0,0,0,1,0,0H0a0,0,0,0,1,0,0V3A3,3,0,0,1,3,0Z" transform="translate(0)" fill="#fa9e2d"/>
      </g>
    </g>
    <g id="Group_47084" data-name="Group 47084" transform="translate(0 -2)">
      <g id="Group_19888-2" data-name="Group 19888" transform="translate(352 213) rotate(90)">
        <path id="Rectangle_9653-3" data-name="Rectangle 9653" d="M3,0h8a3,3,0,0,1,3,3V326a0,0,0,0,1,0,0H0a0,0,0,0,1,0,0V3A3,3,0,0,1,3,0Z" transform="translate(0 0)" fill="#4482ff"/>
      </g>
      <g id="Group_19889-2" data-name="Group 19889" transform="translate(163.944 195) rotate(90)">
        <path id="Rectangle_9652-2" data-name="Rectangle 9652" d="M3,0h8a3,3,0,0,1,3,3V137a0,0,0,0,1,0,0H0a0,0,0,0,1,0,0V3A3,3,0,0,1,3,0Z" transform="translate(0 0.944)" fill="#e46179"/>
      </g>
      <g id="Group_37747-2" data-name="Group 37747" transform="translate(108 231) rotate(90)">
        <path id="Rectangle_9653-4" data-name="Rectangle 9653" d="M3,0h8a3,3,0,0,1,3,3V82a0,0,0,0,1,0,0H0a0,0,0,0,1,0,0V3A3,3,0,0,1,3,0Z" fill="#fa9e2d"/>
      </g>
    </g>
    <g id="Group_47085" data-name="Group 47085" transform="translate(0 -6)">
      <g id="Group_19888-3" data-name="Group 19888" transform="translate(102 137) rotate(90)">
        <path id="Rectangle_9653-5" data-name="Rectangle 9653" d="M3,0h8a3,3,0,0,1,3,3V76a0,0,0,0,1,0,0H0a0,0,0,0,1,0,0V3A3,3,0,0,1,3,0Z" fill="#4482ff"/>
      </g>
      <g id="Group_19889-3" data-name="Group 19889" transform="translate(152 119) rotate(90)">
        <path id="Rectangle_9652-3" data-name="Rectangle 9652" d="M3,0h8a3,3,0,0,1,3,3V126a0,0,0,0,1,0,0H0a0,0,0,0,1,0,0V3A3,3,0,0,1,3,0Z" transform="translate(0 0)" fill="#e46179"/>
      </g>
      <g id="Group_37747-3" data-name="Group 37747" transform="translate(261 155) rotate(90)">
        <path id="Rectangle_9653-6" data-name="Rectangle 9653" d="M3,0h8a3,3,0,0,1,3,3V235a0,0,0,0,1,0,0H0a0,0,0,0,1,0,0V3A3,3,0,0,1,3,0Z" transform="translate(0)" fill="#fa9e2d"/>
      </g>
    </g>
    <g id="Group_47086" data-name="Group 47086" transform="translate(0 -5)">
      <g id="Group_19888-4" data-name="Group 19888" transform="translate(294 56) rotate(90)">
        <path id="Rectangle_9653-7" data-name="Rectangle 9653" d="M3,0h8a3,3,0,0,1,3,3V268a0,0,0,0,1,0,0H0a0,0,0,0,1,0,0V3A3,3,0,0,1,3,0Z" transform="translate(0)" fill="#4482ff"/>
      </g>
      <g id="Group_19889-4" data-name="Group 19889" transform="translate(437 38) rotate(90)">
        <path id="Rectangle_9652-4" data-name="Rectangle 9652" d="M3,0h8a3,3,0,0,1,3,3V411a0,0,0,0,1,0,0H0a0,0,0,0,1,0,0V3A3,3,0,0,1,3,0Z" transform="translate(0)" fill="#e46179"/>
      </g>
      <g id="Group_37747-4" data-name="Group 37747" transform="translate(189 74) rotate(90)">
        <path id="Rectangle_9653-8" data-name="Rectangle 9653" d="M3,0h8a3,3,0,0,1,3,3V163a0,0,0,0,1,0,0H0a0,0,0,0,1,0,0V3A3,3,0,0,1,3,0Z" transform="translate(0)" fill="#fa9e2d"/>
      </g>
    </g>
  </g>
</svg>
