<svg xmlns="http://www.w3.org/2000/svg" width="60" height="60" viewBox="0 0 60 60">
  <g id="Group_164496" data-name="Group 164496" transform="translate(-607 -1581)">
    <g id="Ellipse_1897" data-name="Ellipse 1897" transform="translate(607 1581)" fill="#ffcb7e" stroke="#f3b85c" stroke-width="2">
      <circle cx="30" cy="30" r="30" stroke="none"/>
      <circle cx="30" cy="30" r="29" fill="none"/>
    </g>
    <g id="Icon_feather-package" data-name="Icon feather-package" transform="translate(619.5 1592.997)">
      <path id="Path_82286" data-name="Path 82286" d="M24.75,14.1,11.25,6.315" fill="none" stroke="#fff" stroke-linecap="round" stroke-linejoin="round" stroke-width="2"/>
      <path id="Path_82287" data-name="Path 82287" d="M31.5,24V12A3,3,0,0,0,30,9.4l-10.5-6a3,3,0,0,0-3,0L6,9.4A3,3,0,0,0,4.5,12V24A3,3,0,0,0,6,26.595l10.5,6a3,3,0,0,0,3,0l10.5-6A3,3,0,0,0,31.5,24Z" fill="none" stroke="#fff" stroke-linecap="round" stroke-linejoin="round" stroke-width="2"/>
      <path id="Path_82288" data-name="Path 82288" d="M4.905,10.44,18,18.015,31.095,10.44" fill="none" stroke="#fff" stroke-linecap="round" stroke-linejoin="round" stroke-width="2"/>
      <path id="Path_82289" data-name="Path 82289" d="M18,33.12V18" fill="none" stroke="#fff" stroke-linecap="round" stroke-linejoin="round" stroke-width="2"/>
    </g>
  </g>
</svg>
