<svg xmlns="http://www.w3.org/2000/svg" width="18.153" height="18.15" viewBox="0 0 18.153 18.15">
  <g id="Refresh" transform="translate(-403.9 -210.9)">
    <g id="refresh-2" data-name="refresh" transform="translate(427.4 234.706) rotate(180)">
      <g id="refresh-3" data-name="refresh" transform="translate(5.45 5.756)">
        <g id="Group_37789" data-name="Group 37789" transform="translate(0.991)">
          <g id="Group_37788" data-name="Group 37788">
            <path id="Path_52897" data-name="Path 52897" d="M44.56,2.476a.7.7,0,0,0-.762.635L43.7,4.13a8.851,8.851,0,0,0-15.391.738.7.7,0,0,0,1.249.638,7.454,7.454,0,0,1,12.968-.618l-1-.714a.7.7,0,0,0-.815,1.141L43.748,7.48a.7.7,0,0,0,1.106-.507l.34-3.735A.7.7,0,0,0,44.56,2.476Z" transform="translate(-28.237)" fill="#f45e29" stroke="#fff" stroke-width="0.2"/>
          </g>
        </g>
        <g id="Group_37791" data-name="Group 37791" transform="translate(0.001 10.339)">
          <g id="Group_37790" data-name="Group 37790">
            <path id="Path_52898" data-name="Path 52898" d="M16.578,296.712a.7.7,0,0,0-.943.306,7.454,7.454,0,0,1-12.968.618l1,.714a.7.7,0,0,0,.815-1.141L1.45,295.044a.7.7,0,0,0-1.106.507L0,299.285a.7.7,0,1,0,1.4.127l.093-1.019a8.851,8.851,0,0,0,15.391-.738A.7.7,0,0,0,16.578,296.712Z" transform="translate(-0.001 -294.913)" fill="#f45e29" stroke="#fff" stroke-width="0.2"/>
          </g>
        </g>
      </g>
    </g>
  </g>
</svg>
