<svg xmlns="http://www.w3.org/2000/svg" width="23.004" height="17.581" viewBox="0 0 23.004 17.581">
  <g id="Group_51911" data-name="Group 51911" transform="translate(0 0.633)">
    <path id="Path_72299" data-name="Path 72299" d="M184.79,102.548l-3.482-3.39v14.613a.622.622,0,1,1-1.243,0V99.158l-3.482,3.39a.622.622,0,0,1-.868-.891l4.538-4.418.006,0h0a.621.621,0,0,1,.2-.127.046.046,0,0,0,.014,0,.617.617,0,0,1,.2-.041h.029a.612.612,0,0,1,.2.041.041.041,0,0,1,.015,0l.011,0a.618.618,0,0,1,.186.124s0,0,.006,0l4.537,4.418h0a.622.622,0,0,1-.868.891Z" transform="translate(-163.012 -97.571)" fill="#202124" stroke="#202124" stroke-width="0.25"/>
    <g id="Group_51912" data-name="Group 51912" transform="translate(-4)">
      <path id="Path_72308" data-name="Path 72308" d="M341.606,484.09h9.016a.945.945,0,0,1,0,1.89h-9.016a.945.945,0,0,1,0-1.89Z" transform="translate(-336.669 -469.158)" fill="#202124"/>
      <path id="Path_72306" data-name="Path 72306" d="M341.551,332.89h6.792a.947.947,0,0,1,0,1.89h-6.792a.947.947,0,0,1,0-1.89Z" transform="translate(-334.335 -322.958)" fill="#202124"/>
      <path id="Path_72307" data-name="Path 72307" d="M341.544,182.31H346.6a.948.948,0,0,1,0,1.89h-5.055a.948.948,0,0,1,0-1.89Z" transform="translate(-332.586 -177.378)" fill="#202124"/>
      <path id="Path_72309" data-name="Path 72309" d="M341.487,31.109h3.163a.954.954,0,0,1,0,1.89h-3.163a.954.954,0,0,1,0-1.89Z" transform="translate(-330.582 -31.177)" fill="#202124"/>
    </g>
  </g>
</svg>
