<svg xmlns="http://www.w3.org/2000/svg" width="60" height="60" viewBox="0 0 60 60">
  <g id="Group_164491" data-name="Group 164491" transform="translate(-607 -1066)">
    <g id="Ellipse_1892" data-name="Ellipse 1892" transform="translate(607 1066)" fill="#8cde99" stroke="#80cc8c" stroke-width="2">
      <circle cx="30" cy="30" r="30" stroke="none"/>
      <circle cx="30" cy="30" r="29" fill="none"/>
    </g>
    <path id="Icon_feather-phone-call" data-name="Icon feather-phone-call" d="M16.71,5.687a5.234,5.234,0,0,1,4.135,4.135M16.71,1.5a9.42,9.42,0,0,1,8.321,8.311m-1.047,8.353V21.3A2.093,2.093,0,0,1,21.7,23.4a20.715,20.715,0,0,1-9.033-3.213A20.411,20.411,0,0,1,6.39,13.9,20.715,20.715,0,0,1,3.176,4.829,2.093,2.093,0,0,1,5.259,2.547H8.4a2.093,2.093,0,0,1,2.093,1.8,13.44,13.44,0,0,0,.733,2.941A2.093,2.093,0,0,1,10.755,9.5L9.425,10.826a16.748,16.748,0,0,0,6.28,6.28l1.329-1.329a2.093,2.093,0,0,1,2.209-.471,13.44,13.44,0,0,0,2.941.733A2.093,2.093,0,0,1,23.985,18.164Z" transform="translate(623.332 1084)" fill="none" stroke="#fff" stroke-linecap="round" stroke-linejoin="round" stroke-width="2"/>
  </g>
</svg>
