<svg xmlns="http://www.w3.org/2000/svg" xmlns:xlink="http://www.w3.org/1999/xlink" width="74" height="74" viewBox="0 0 74 74">
  <defs>
    <filter id="Ellipse_1354" x="0" y="0" width="74" height="74" filterUnits="userSpaceOnUse">
      <feOffset input="SourceAlpha"/>
      <feGaussianBlur stdDeviation="4" result="blur"/>
      <feFlood flood-opacity="0.161"/>
      <feComposite operator="in" in2="blur"/>
      <feComposite in="SourceGraphic"/>
    </filter>
    <clipPath id="clip-path">
      <rect id="Rectangle_32259" data-name="Rectangle 32259" width="27.028" height="27.03" fill="#fff"/>
    </clipPath>
  </defs>
  <g id="Add" transform="translate(12 12)">
    <g transform="matrix(1, 0, 0, 1, -12, -12)" filter="url(#Ellipse_1354)">
      <circle id="Ellipse_1354-2" data-name="Ellipse 1354" cx="25" cy="25" r="25" transform="translate(12 12)" fill="#f45e29"/>
    </g>
    <g id="Group_209855" data-name="Group 209855" transform="translate(12 11)">
      <g id="Group_209854" data-name="Group 209854" clip-path="url(#clip-path)">
        <path id="Path_181981" data-name="Path 181981" d="M12.672,0a1.162,1.162,0,0,1,.848,1.317c-.018.27,0,.543,0,.8.641.118,1.272.189,1.877.354a12.238,12.238,0,0,1,9.2,9.309,14.741,14.741,0,0,1,.319,2.453,1.04,1.04,0,0,1-1.027,1.184A1.063,1.063,0,0,1,22.806,14.3,10.348,10.348,0,1,0,9.375,24.448a10.52,10.52,0,0,0,3.671.463,1.042,1.042,0,0,1,1.1.693,1.016,1.016,0,0,1-.828,1.376,12.312,12.312,0,0,1-2.132-.018,11.9,11.9,0,0,1-6.033-2.305A12.265,12.265,0,0,1,.1,16.092c-.032-.243-.065-.485-.1-.728V13.781c.015-.068.035-.135.045-.2.09-.59.127-1.192.274-1.767A12.264,12.264,0,0,1,9.455,2.487c.628-.176,1.286-.247,1.95-.371,0-.259.015-.531,0-.8A1.16,1.16,0,0,1,12.249,0Z" fill="#fff"/>
        <path id="Path_181982" data-name="Path 181982" d="M197.225,183.914c0-1.443,0-2.885,0-4.328a1.895,1.895,0,0,1,2.947-1.666q3.591,2.188,7.185,4.371a1.887,1.887,0,0,1,0,3.281l-5.518,3.357c-.586.356-1.165.723-1.759,1.065a1.876,1.876,0,0,1-2.827-1.331,2.375,2.375,0,0,1-.021-.394q0-2.177,0-4.354m8.763.016-6.635-4.034v8.069l6.635-4.035" transform="translate(-181.28 -163.233)" fill="#fff"/>
        <path id="Path_181983" data-name="Path 181983" d="M130.192,103.685c.2.081.325-.067.46-.235q1.518-1.894,3.049-3.777a1.042,1.042,0,0,1,1.251-.34,1,1,0,0,1,.635,1.05,1.548,1.548,0,0,1-.306.68c-1,1.262-2.014,2.511-3.029,3.759a.443.443,0,0,0-.1.447,2.109,2.109,0,1,1-4.144.7,2.128,2.128,0,0,1,2.188-2.286" transform="translate(-117.65 -91.223)" fill="#fff"/>
        <path id="Path_181984" data-name="Path 181984" d="M239.45,8.415a3.4,3.4,0,0,1,.666.332c.945.761,1.877,1.539,2.806,2.321a1.055,1.055,0,1,1-1.358,1.614q-1.407-1.156-2.8-2.326a1.048,1.048,0,0,1-.337-1.188,1.22,1.22,0,0,1,1.025-.753" transform="translate(-219.09 -7.735)" fill="#fff"/>
        <path id="Path_181985" data-name="Path 181985" d="M13.508,10.13a1.065,1.065,0,0,1-.389.825c-.96.786-1.918,1.574-2.885,2.35a1.054,1.054,0,1,1-1.323-1.64q1.417-1.164,2.842-2.319a1.018,1.018,0,0,1,1.158-.152,1.03,1.03,0,0,1,.6.936" transform="translate(-7.803 -8.344)" fill="#fff"/>
      </g>
    </g>
  </g>
</svg>
