<svg xmlns="http://www.w3.org/2000/svg" width="60" height="60" viewBox="0 0 60 60">
  <g id="Group_164493" data-name="Group 164493" transform="translate(-607 -1272)">
    <g id="Ellipse_1894" data-name="Ellipse 1894" transform="translate(607 1272)" fill="#a9bccb" stroke="#97a9b7" stroke-width="2">
      <circle cx="30" cy="30" r="30" stroke="none"/>
      <circle cx="30" cy="30" r="29" fill="none"/>
    </g>
    <g id="noun-demo-1568660" transform="translate(551.991 1261.746)">
      <path id="Path_82290" data-name="Path 82290" d="M90.558,282.573a1.785,1.785,0,0,0-1.358.649l-1.947,2.507c-.225-.371-1.923-3.471-2.969-4.3a5.955,5.955,0,0,0-1.694-.885,4.37,4.37,0,0,1-.9.732,5.739,5.739,0,0,1,1.993.91c.351.278,3.468,5.242,3.468,5.242l.861-1.109,1.929-2.483a.813.813,0,0,1,.614-.3.694.694,0,0,1,.472.18.976.976,0,0,1-.061,1.3l-.019.022-.018.023-3.389,4.449a.905.905,0,0,1-.691.374.69.69,0,0,1-.429-.153l-2.817-4.768v7.453a1.086,1.086,0,0,1-1.077,1.091H76.273a1.07,1.07,0,0,1-.77-.315.971.971,0,0,1-.283-.7l.023-7.8-2.675,6.387a1.127,1.127,0,0,1-.934.717.557.557,0,0,1-.226-.047,1.086,1.086,0,0,1-.331-1.377l.733-1.844,1.7-4.281a5.486,5.486,0,0,1,3.574-3.012,4.355,4.355,0,0,1-.861-.729,6.458,6.458,0,0,0-3.6,3.346c0,.008-1.5,3.778-2.449,6.163a2.01,2.01,0,0,0,.837,2.616,1.518,1.518,0,0,0,.617.13,2.082,2.082,0,0,0,1.82-1.3l.81-1.935-.009,2.959a1.986,1.986,0,0,0,2.018,1.987h6.256a2.049,2.049,0,0,0,2.043-2.056v-3.922l1.1,1.854a1.669,1.669,0,0,0,1.186.5,1.86,1.86,0,0,0,1.454-.748l3.394-4.456a1.928,1.928,0,0,0-.011-2.63,1.662,1.662,0,0,0-1.132-.441Z" transform="translate(0 -240.222)" fill="#fff" stroke="#fff" stroke-width="0.5"/>
      <path id="Path_82291" data-name="Path 82291" d="M222.97,26.254H203.181a1.936,1.936,0,0,0-1.931,1.931V33.6a4.313,4.313,0,0,1,.965-.416v-5a.966.966,0,0,1,.965-.965H222.97a.966.966,0,0,1,.965.965v14.48a.966.966,0,0,1-.965.965h-5.828a2.972,2.972,0,0,1-.016.965h5.844a1.936,1.936,0,0,0,1.931-1.931V28.185a1.936,1.936,0,0,0-1.931-1.931Z" transform="translate(-124.002 0)" fill="#fff" stroke="#fff" stroke-width="0.5"/>
      <path id="Path_82292" data-name="Path 82292" d="M182.889,173.007a3.379,3.379,0,1,0-3.379-3.379A3.379,3.379,0,0,0,182.889,173.007Zm0-5.792a2.413,2.413,0,1,1-2.413,2.413A2.416,2.416,0,0,1,182.889,167.215Z" transform="translate(-103.461 -132.274)" fill="#fff" stroke="#fff" stroke-width="0.5"/>
    </g>
  </g>
</svg>
