<svg viewBox="0 0 40 40" xmlns="http://www.w3.org/2000/svg"><g fill="none" fill-rule="evenodd"><path d="m39.486 23.829-19.486-2.4-19.486 2.4 19.486 15.257z" fill="#fbbf93"/><path d="m.514 23.829 19.486 5.828v9.429l-19.486-9.772z" fill="#9d5025"/><path d="m39.486 23.829-19.486 5.828v9.429l19.486-9.772z" fill="#f58536"/><path d="m3.029 15.543h-2.515v5.543l2.515.457 2.8-2.972z" fill="#9d5025"/><path d="m5.829 21.314-2.8.229v-6h2.8z" fill="#f58536"/><path d="m7.714 8.629-3.314.628v12.573l3.314.685 3.029-6.971z" fill="#9d5025"/><path d="m10.743 22.171-3.029.343v-13.884l3.029.342z" fill="#f58536"/><path d="m14.171 11.429-4.571.457v11.028l4.571.915 4.859-6.229z" fill="#9d5025"/><path d="m17.257 23.314-3.086.515v-12.4l3.086.228z" fill="#f58536"/><g fill="#9d5025"><path d="m20 1.429-3.086.971v21.943l3.086.627 3.086-11.77z"/><path d="m22.857 23.314 2.972.515 4.571-8.286-4.571-8.229-2.972.457z"/><path d="m30.4 15.543-4.571-8.229-2.972.457"/><path d="m29.2 22.171 3.086.343 3.314-10.457-3.314-10.4-3.086.743z"/><path d="m34.171 21.314 2.8.229 2.515-10.343-2.516-10.686-2.8.686z"/></g><path d="m20 1.429 3.086.971v21.943l-3.086.627zm10.4 6.8-4.571-.915v16.516l4.571-.915zm5.2-5.258-3.314-1.314v20.857l3.314-.685zm3.886-1.2-2.516-1.257v21.029l2.515-.457z" fill="#f58536"/></g></svg>