<svg xmlns="http://www.w3.org/2000/svg" width="60" height="60" viewBox="0 0 60 60">
  <g id="Group_164487" data-name="Group 164487" transform="translate(-607 -654)">
    <g id="Ellipse_1250" data-name="Ellipse 1250" transform="translate(607 654)" fill="#ff7240" stroke="#f45e29" stroke-width="2">
      <circle cx="30" cy="30" r="30" stroke="none"/>
      <circle cx="30" cy="30" r="29" fill="none"/>
    </g>
    <g id="noun-link-5103488" transform="translate(547.082 612.157)">
      <path id="Path_82273" data-name="Path 82273" d="M87.977,77.415l.172.118-3.392,3.392A5.182,5.182,0,0,1,77.43,73.6l7.639-7.64A5.182,5.182,0,0,1,92.4,73.285l-1.4,1.4-.087-.014h0a2.019,2.019,0,0,1-1.691-1.748l-.01-.084,1.369-1.369h0a2.612,2.612,0,1,0-3.694-3.694l-7.641,7.641a2.612,2.612,0,0,0,3.694,3.694l3.4-3.4.118.175a5.78,5.78,0,0,0,1.52,1.532Zm14.562-16.056a5.188,5.188,0,0,0-7.329,0L91.82,64.75l.172.118a5.78,5.78,0,0,1,1.52,1.533l.118.175,3.4-3.4a2.612,2.612,0,1,1,3.695,3.694L93.083,74.51a2.612,2.612,0,0,1-3.694-3.694l1.368-1.369-.01-.084h0a2.025,2.025,0,0,0-1.69-1.749L88.97,67.6l-1.4,1.4A5.182,5.182,0,1,0,94.9,76.328l7.639-7.64a5.2,5.2,0,0,0,0-7.329Z" fill="#fff"/>
    </g>
  </g>
</svg>
