<svg xmlns="http://www.w3.org/2000/svg" xmlns:xlink="http://www.w3.org/1999/xlink" width="335" height="158" viewBox="0 0 335 158">
  <defs>
    <linearGradient id="linear-gradient" x1="0.241" y1="0.253" x2="1" y2="1.039" gradientUnits="objectBoundingBox">
      <stop offset="0" stop-color="#f2f6ff"/>
      <stop offset="1" stop-color="#d6e4ff"/>
    </linearGradient>
    <clipPath id="clip-path">
      <rect id="Rectangle_23875" data-name="Rectangle 23875" width="335" height="158" rx="8" transform="translate(-30 -38)" fill="url(#linear-gradient)"/>
    </clipPath>
    <clipPath id="clip-path-2">
      <rect id="Rectangle_23874" data-name="Rectangle 23874" width="509.716" height="334.117" fill="#85b5d5"/>
    </clipPath>
  </defs>
  <g id="Mask_Group_76463" data-name="Mask Group 76463" transform="translate(30 38)" clip-path="url(#clip-path)">
    <g id="Group_192154" data-name="Group 192154" transform="translate(-112.361 -105.483)" opacity="0.2">
      <g id="Group_192153" data-name="Group 192153" clip-path="url(#clip-path-2)">
        <path id="Path_146873" data-name="Path 146873" d="M1229.334,0h-1.168q.6,2.636,1.168,5.281Z" transform="translate(-719.618)" fill="#85b5d5"/>
        <path id="Path_146874" data-name="Path 146874" d="M1098.252,396.654a362.028,362.028,0,0,1-22.928,70.662,373.3,373.3,0,0,1-70.875,106.249h2.225a374.746,374.746,0,0,0,70.175-105.632,364.128,364.128,0,0,0,21.4-63.735Z" transform="translate(-588.536 -239.448)" fill="#85b5d5"/>
        <path id="Path_146875" data-name="Path 146875" d="M1078.025,53.189A387.332,387.332,0,0,0,1070.84,0h-2.109a389.248,389.248,0,0,1,8.042,73.113,388.646,388.646,0,0,1-2.712,55.445,328.929,328.929,0,0,1-43.519,126.213c-14.082,23.656-31.009,46.468-51.749,69.739q-4.386,4.922-8.866,9.608h2.808q3.851-4.078,7.633-8.322c20.825-23.366,37.826-46.278,51.973-70.044A330.874,330.874,0,0,0,1076.115,128.8c.817-6.443,1.452-13.052,1.909-19.88Z" transform="translate(-568.308)" fill="#85b5d5"/>
        <path id="Path_146876" data-name="Path 146876" d="M940.574,334.117q8.72-9.156,17.117-19.308c14.846-17.949,34.019-42.078,50.646-69.584a301.343,301.343,0,0,0,41.608-125.709c1.85-19.437,1.557-38.5,1.027-54.588A428.454,428.454,0,0,0,1043.96,0h-2.1a426.435,426.435,0,0,1,7.046,64.991h0c.528,16.026.82,35.015-1.02,54.344a299.406,299.406,0,0,1-41.339,124.9c-16.56,27.394-35.675,51.45-50.477,69.346q-8.98,10.857-18.3,20.538Z" transform="translate(-549.466)" fill="#85b5d5"/>
        <path id="Path_146877" data-name="Path 146877" d="M909.949,334.117a341.152,341.152,0,0,0,25.786-30.179l3-3.923c15.709-20.546,31.953-41.791,46.332-65.215a273.784,273.784,0,0,0,39.467-124.554c1.124-17.988.211-36.032-.671-53.482A483.532,483.532,0,0,0,1017.714,0H1015.2a480.925,480.925,0,0,1,6.181,56.88c.879,17.387,1.788,35.365.673,53.222a271.47,271.47,0,0,1-39.131,123.5c-14.314,23.319-30.521,44.515-46.194,65.014l-3,3.924a335.234,335.234,0,0,1-27.178,31.582Z" transform="translate(-531.174)" fill="#85b5d5"/>
        <path id="Path_146878" data-name="Path 146878" d="M880.663,334.117c11.676-11.625,22.672-24.968,34.043-41.176,4.983-7.1,10.224-14.311,15.292-21.282,10.93-15.033,22.232-30.577,32.708-47.384a251.47,251.47,0,0,0,37.3-123.319c.4-14.253-.619-28.243-1.7-43.053q-.337-4.607-.667-9.3C996.452,31.446,994.683,15.309,992.3,0h-2.513c2.4,15.348,4.186,31.536,5.373,48.763q.323,4.7.668,9.306c1.079,14.751,2.1,28.684,1.7,42.819a249.168,249.168,0,0,1-36.95,122.171c-10.43,16.733-21.707,32.242-32.612,47.241-5.074,6.979-10.321,14.195-15.316,21.315-11.828,16.861-23.242,30.591-35.443,42.5Z" transform="translate(-513.977)" fill="#85b5d5"/>
        <path id="Path_146879" data-name="Path 146879" d="M851.531,334.117c18.659-17.341,31.64-35.843,42.026-52.071,6.846-10.7,14.108-20.93,21.8-31.763,8.235-11.6,16.75-23.6,24.871-36.43a231.18,231.18,0,0,0,35.16-122.189c-.085-12-1.292-23.663-2.571-36.011-.513-4.945-1.042-10.059-1.5-15.221-1.278-14.49-2.805-27.877-4.624-40.431h-2.926c1.836,12.614,3.375,26.077,4.662,40.664.457,5.182.987,10.307,1.5,15.262,1.272,12.282,2.474,23.883,2.557,35.75a228.449,228.449,0,0,1-34.743,120.742c-8.079,12.765-16.573,24.732-24.787,36.305-7.709,10.861-14.99,21.12-21.871,31.872-10.686,16.7-24.139,35.821-43.747,53.521Z" transform="translate(-496.48)" fill="#85b5d5"/>
        <path id="Path_146880" data-name="Path 146880" d="M821.564,334.117q1.4-1.162,2.776-2.347c20.73-17.887,34.05-37.216,47.673-60.735,7.627-13.167,16.31-25.526,25.5-38.611,6.527-9.29,13.276-18.9,19.831-29.1A211.8,211.8,0,0,0,943.2,144.543a205.679,205.679,0,0,0,7.137-62.177c-.435-10.508-1.851-20.64-3.349-31.367-.847-6.063-1.723-12.333-2.417-18.733-1.2-11.09-2.5-21.837-3.963-32.267h-2.924c1.478,10.516,2.792,21.358,4,32.553.7,6.44,1.576,12.731,2.426,18.814,1.49,10.661,2.9,20.73,3.326,31.109a203.046,203.046,0,0,1-7.047,61.373,209.1,209.1,0,0,1-25.518,58.03c-6.522,10.147-13.254,19.73-19.764,29-9.228,13.136-17.945,25.543-25.632,38.814C856,292.966,842.831,312.081,822.4,329.709q-2.613,2.252-5.3,4.408Z" transform="translate(-478.763)" fill="#85b5d5"/>
        <path id="Path_146881" data-name="Path 146881" d="M789.09,334.117a188.923,188.923,0,0,0,15.875-12.882c21.235-19.259,33.361-40.8,43.96-61.212,7.778-14.979,17.417-28.727,27.622-43.282,5.368-7.656,10.918-15.572,16.375-23.935,22.828-35.268,34.061-78.912,30.819-119.741-.75-9.445-2.367-18.488-4.079-28.062-1.206-6.741-2.452-13.713-3.384-20.9-1.067-8.242-2.125-16.261-3.22-24.1h-2.925c1.113,7.948,2.186,16.08,3.269,24.443.939,7.253,2.192,14.256,3.4,21.029,1.7,9.508,3.306,18.489,4.046,27.8,3.2,40.255-7.881,83.29-30.39,118.065-5.43,8.321-10.966,16.217-16.321,23.855-10.26,14.633-19.95,28.453-27.812,43.594-10.483,20.189-22.467,41.486-43.357,60.433a186.2,186.2,0,0,1-18.743,14.9Z" transform="translate(-459.502)" fill="#85b5d5"/>
        <path id="Path_146882" data-name="Path 146882" d="M751.866,334.117a173.117,173.117,0,0,0,31.063-23.558c19.532-18.64,29.762-38.941,40.2-61.632,7.539-16.387,17.855-31.052,28.777-46.578,4.544-6.461,9.243-13.141,13.9-20.172a181.419,181.419,0,0,0,24.818-57.811,175.329,175.329,0,0,0,3.8-60.581,259.233,259.233,0,0,0-4.763-25.529c-1.584-7.163-3.222-14.57-4.393-22.29C884.5,10.9,883.739,5.76,883,.793q-.058-.4-.117-.793h-2.51q.084.564.167,1.127c.736,4.969,1.5,10.106,2.267,15.179,1.183,7.8,2.829,15.241,4.421,22.441,1.909,8.635,3.712,16.792,4.725,25.306a173.011,173.011,0,0,1-3.75,59.784,179.105,179.105,0,0,1-24.5,57.07c-4.638,7-9.328,13.667-13.863,20.114-10.985,15.617-21.361,30.367-28.99,46.948-10.336,22.468-20.457,42.558-39.682,60.906a170.462,170.462,0,0,1-34.11,25.242Z" transform="translate(-437.727)" fill="#85b5d5"/>
        <path id="Path_146883" data-name="Path 146883" d="M70.264,821.912c-2.812-.362-5.625-.739-8.391-1.138C41.617,817.849,20.312,814.264,0,808.049v2.5c17.52,5.3,35.716,8.672,53.332,11.367Z" transform="translate(0 -487.795)" fill="#85b5d5"/>
        <path id="Path_146884" data-name="Path 146884" d="M702.734,334.117q5.928-2.522,11.665-5.534a158.985,158.985,0,0,0,38.694-28.557c19.359-19.463,27.678-40.178,36.486-62.11,6.961-17.334,17.646-32.433,28.958-48.417,4.045-5.716,8.228-11.627,12.393-17.844,22.849-34.114,32.734-77.915,26.442-117.168a235.983,235.983,0,0,0-5.421-23.536c-1.973-7.413-4.014-15.077-5.429-23.15h0q-.682-3.893-1.334-7.8h-2.516q.685,4.1,1.4,8.194c1.432,8.17,3.486,15.884,5.472,23.344a234.179,234.179,0,0,1,5.372,23.309c6.2,38.7-3.546,81.884-26.077,115.524-4.148,6.192-8.322,12.09-12.358,17.794-11.394,16.1-22.157,31.309-29.22,48.9-8.716,21.7-16.949,42.2-35.965,61.323a156.243,156.243,0,0,1-54.947,35.731Z" transform="translate(-408.01)" fill="#85b5d5"/>
        <path id="Path_146885" data-name="Path 146885" d="M80.165,789.281c5.828.644,11.854,1.309,17.83,2.128,14.885,2.026,31.146,4.978,49.576,9h10.764c-1.881-.449-3.773-.894-5.681-1.32-20.381-4.55-38.146-7.832-54.308-10.032-6.009-.824-12.052-1.491-17.9-2.136-4.4-.486-8.949-.989-13.36-1.546C43.658,782.411,20.8,778.934,0,772.427v2.514c21.715,6.739,44.836,10.017,66.764,12.79,4.431.56,8.991,1.063,13.4,1.55" transform="translate(0 -466.291)" fill="#85b5d5"/>
        <path id="Path_146886" data-name="Path 146886" d="M72.05,307.351c3.608.388,7.315.741,10.9,1.082,6.419.611,13.055,1.242,19.642,2.12a452.8,452.8,0,0,1,52.626,10.5c5.347,1.364,10.589,2.884,15.658,4.354,8.158,2.366,15.863,4.6,24.015,6.258q7.5,1.525,14.99,2.456H256.5q1.865-.238,3.724-.513a144.94,144.94,0,0,0,46.862-15.46,146.584,146.584,0,0,0,37.722-28.785c17.738-18.807,24.573-38.744,31.81-59.852l.914-2.665c6.283-18.272,17.324-33.733,29.014-50.1,3.6-5.037,7.317-10.246,11.037-15.717,23.035-33.876,32.095-77.164,24.233-115.8a216.324,216.324,0,0,0-6.056-21.9A229.2,229.2,0,0,1,429.345,0h-2.112c0,.016.006.031.009.047A227.884,227.884,0,0,0,433.78,23.9,214.931,214.931,0,0,1,439.786,45.6a147.133,147.133,0,0,1-.428,58.229,156.124,156.124,0,0,1-23.508,56.107c-3.708,5.452-7.421,10.652-11.011,15.68-11.775,16.489-22.9,32.062-29.271,50.6l-.915,2.666c-7.166,20.9-13.935,40.646-31.379,59.142a144.519,144.519,0,0,1-37.192,28.382,142.825,142.825,0,0,1-46.174,15.234,185.7,185.7,0,0,1-64.586-1.925c-8.066-1.641-15.731-3.863-23.846-6.216-5.086-1.475-10.345-3-15.725-4.372a454.924,454.924,0,0,0-52.875-10.543c-6.627-.884-13.284-1.517-19.722-2.129-3.578-.34-7.277-.692-10.872-1.079-20.834-2.241-46.763-5.03-69.643-12.195Q1.307,292.77,0,292.335v2.1c.662.216,1.325.431,1.995.641C25.077,302.3,51.122,305.1,72.05,307.351" transform="translate(0 0.001)" fill="#85b5d5"/>
        <path id="Path_146887" data-name="Path 146887" d="M434.478,35.935A200.218,200.218,0,0,0,427.8,15.4c-1.822-4.987-3.679-10.091-5.285-15.4h-2.152c1.656,5.553,3.588,10.866,5.483,16.053a198.97,198.97,0,0,1,6.623,20.34A136.062,136.062,0,0,1,433.681,93.8a145.7,145.7,0,0,1-22.985,55.6c-3.373,4.885-6.738,9.546-9.993,14.054-12.585,17.431-23.455,32.486-29.008,51.853q-.741,2.586-1.465,5.158c-5.679,20.093-11.042,39.072-27.116,57.07a133.447,133.447,0,0,1-81.987,43.388,172.606,172.606,0,0,1-63.651-3.706c-7.553-1.844-14.692-4.226-22.251-6.747-5.269-1.758-10.719-3.576-16.33-5.2a341.321,341.321,0,0,0-51.462-11.056c-7.111-.921-14.248-1.479-21.15-2.019-2.889-.226-5.877-.46-8.785-.715l-2.538-.222c-22.424-1.961-45.612-3.99-66.955-10.316Q3.876,279.726,0,278.321v2.1c23.544,8.336,50.076,10.659,74.773,12.819l2.537.222c2.919.256,5.911.49,8.806.717,6.875.538,13.985,1.094,21.043,2.008a339.313,339.313,0,0,1,51.139,10.99c5.568,1.609,11,3.42,16.247,5.172,7.6,2.536,14.781,4.931,22.42,6.8a178.585,178.585,0,0,0,42.4,5.187,168.988,168.988,0,0,0,22.046-1.438,135.546,135.546,0,0,0,83.278-44.063c16.378-18.339,21.8-37.527,27.542-57.841q.725-2.569,1.462-5.151c5.46-19.042,16.236-33.968,28.714-51.251,3.261-4.516,6.633-9.186,10.018-14.088a147.654,147.654,0,0,0,23.3-56.346,137.975,137.975,0,0,0-1.241-58.217" fill="#85b5d5"/>
        <path id="Path_146888" data-name="Path 146888" d="M426.938,26.7a189.778,189.778,0,0,0-7.3-19.352C418.629,4.927,417.6,2.484,416.609,0h-1.773c1.07,2.688,2.175,5.327,3.269,7.935a185.748,185.748,0,0,1,7.238,19.194c5.192,17.548,6.182,37.145,2.864,56.674a136.437,136.437,0,0,1-22.493,55.176c-3.122,4.452-6.227,8.7-9.23,12.807-12.794,17.5-23.843,32.613-28.458,52.66-.552,2.4-1.089,4.825-1.61,7.174-4.315,19.489-8.39,37.9-23.3,55.554a123.683,123.683,0,0,1-80.743,43.233,163.185,163.185,0,0,1-62.8-5.493c-7.128-2.045-13.825-4.59-20.916-7.283-5.372-2.041-10.927-4.152-16.681-6.021a268.069,268.069,0,0,0-50.009-11.563c-7.474-.937-14.974-1.386-22.228-1.821-2.356-.141-4.7-.282-7.036-.438q-3.068-.206-6.177-.4C51.017,275.728,23.437,273.938,0,264.4v1.736c23.512,9.392,50.983,11.179,76.412,12.829q3.106.2,6.173.405c2.337.156,4.688.3,7.049.439,7.226.433,14.7.881,22.117,1.811a266.407,266.407,0,0,1,49.69,11.492c5.715,1.857,11.25,3.96,16.6,5.994,7.125,2.707,13.855,5.264,21.051,7.329a167.836,167.836,0,0,0,46.042,6.522,154.632,154.632,0,0,0,17.43-.974A125.354,125.354,0,0,0,344.4,268.172c15.162-17.955,19.277-36.543,23.634-56.223.519-2.345,1.056-4.771,1.607-7.161,4.544-19.738,15.506-34.732,28.2-52.092,3.008-4.114,6.117-8.368,9.248-12.833a137.982,137.982,0,0,0,22.752-55.8c3.357-19.757,2.352-39.591-2.9-57.361" fill="#85b5d5"/>
        <path id="Path_146889" data-name="Path 146889" d="M419.6,17.413A170.226,170.226,0,0,0,412.128,0h-1.82a172.365,172.365,0,0,1,7.716,17.911c5.908,17.106,7.466,36.421,4.505,55.858a127.806,127.806,0,0,1-21.967,54.674c-2.931,4.116-5.84,8.041-8.652,11.836-12.955,17.48-24.144,32.576-27.748,53.251-.514,2.946-.991,5.935-1.452,8.827-3.031,19-5.894,36.947-19.749,54.325a114.723,114.723,0,0,1-79.371,43.01,152.285,152.285,0,0,1-61.87-7.274c-6.758-2.241-13.074-4.951-19.762-7.82-5.412-2.322-11.009-4.723-16.843-6.842a220.575,220.575,0,0,0-48.59-12.077c-7.765-.939-15.553-1.252-23.084-1.554q-2.77-.111-5.519-.23-4.447-.2-9-.375c-26.607-1.063-55.568-2.225-78.921-13.5v1.8c23.488,11.067,52.329,12.22,78.852,13.28,3.029.121,6.03.241,8.991.374q2.753.124,5.527.231c7.5.3,15.25.612,22.948,1.543a218.853,218.853,0,0,1,48.209,11.986c5.788,2.1,11.363,4.494,16.753,6.806,6.426,2.757,13.07,5.607,19.9,7.871a156.318,156.318,0,0,0,48.954,8c4.577,0,9.129-.214,13.623-.642a116.386,116.386,0,0,0,80.523-43.625c14.112-17.7,17.141-36.687,20.07-55.048.46-2.886.937-5.87,1.448-8.805,3.542-20.316,14.629-35.274,27.466-52.594,2.817-3.8,5.73-7.732,8.669-11.86A129.364,129.364,0,0,0,424.167,74c3-19.679,1.417-39.246-4.571-56.584" transform="translate(-0.001)" fill="#85b5d5"/>
        <path id="Path_146890" data-name="Path 146890" d="M412.253,8.129c-1.1-2.759-2.345-5.465-3.662-8.129h-1.826c1.426,2.849,2.756,5.714,3.939,8.692,6.621,16.662,8.744,35.695,6.143,55.042a119.935,119.935,0,0,1-21.441,54.172c-2.788,3.856-5.55,7.528-8.22,11.079-13.072,17.381-24.362,32.393-26.89,53.627-.4,3.4-.74,6.853-1.066,10.194-1.732,17.8-3.523,36.208-16.426,53.382a107.275,107.275,0,0,1-78,42.787,142.488,142.488,0,0,1-60.941-9.055c-6.438-2.438-12.422-5.316-18.757-8.363-5.4-2.6-10.994-5.288-16.855-7.656-16.442-6.642-32.312-10.88-47.171-12.593-8-.933-16.028-1.082-23.788-1.227q-2.085-.039-4.156-.082c-3.669-.08-7.325-.127-11.2-.177-28.087-.362-58.9-.763-81.943-14.751v1.9c23.27,13.676,53.935,14.072,81.921,14.433,3.867.05,7.519.1,11.18.177q2.075.046,4.162.082c7.718.144,15.7.293,23.621,1.216,14.706,1.7,30.426,5.895,46.725,12.48,5.811,2.347,11.375,5.023,16.756,7.612,6.089,2.928,12.384,5.957,18.891,8.42a145.948,145.948,0,0,0,51.418,9.554q5.161,0,10.265-.392a108.947,108.947,0,0,0,79.209-43.441c13.166-17.525,14.979-36.149,16.731-54.161.325-3.334.66-6.782,1.063-10.162,2.479-20.823,13.651-35.678,26.588-52.88,2.675-3.557,5.441-7.235,8.238-11.1a121.49,121.49,0,0,0,21.722-54.873c2.636-19.6.479-38.9-6.238-55.807" fill="#85b5d5"/>
        <path id="Path_146891" data-name="Path 146891" d="M405.193,0h-1.348c7.138,16.11,9.743,34.668,7.527,53.722a112.908,112.908,0,0,1-20.951,53.763c-2.684,3.655-5.338,7.13-7.9,10.489-13.137,17.2-24.482,32.054-25.875,53.732-.243,3.768-.377,7.615-.507,11.335-.614,17.545-1.248,35.688-13.315,52.765a100.413,100.413,0,0,1-76.784,42.649,133.823,133.823,0,0,1-60.108-10.851c-6.168-2.641-12.13-5.837-17.9-8.928-5.353-2.869-10.889-5.836-16.726-8.449-15.827-7.086-31.2-11.491-45.689-13.094a177.53,177.53,0,0,0-19.722-.856q-2.294,0-4.563.013-1.491.007-2.976.011c-4.2.01-8.419.079-12.887.151-30.006.487-63.234,1.021-85.47-17.228v1.583c22.524,17.853,55.594,17.318,85.492,16.834,4.464-.073,8.679-.141,12.869-.151q1.486,0,2.978-.011a209.337,209.337,0,0,1,24.136.835c14.357,1.588,29.6,5.958,45.306,12.989,5.8,2.595,11.311,5.551,16.645,8.41,5.79,3.1,11.777,6.313,18,8.976a136.357,136.357,0,0,0,53.407,11.164q3.653,0,7.284-.212a101.67,101.67,0,0,0,77.737-43.169c12.268-17.362,12.908-35.678,13.527-53.392.13-3.712.264-7.551.505-11.3,1.371-21.331,12.08-35.352,25.638-53.1,2.569-3.364,5.226-6.843,7.917-10.507a114.072,114.072,0,0,0,21.169-54.316c2.218-19.073-.348-37.664-7.414-53.853" fill="#85b5d5"/>
        <path id="Path_146892" data-name="Path 146892" d="M401.834,0H400.52a99.349,99.349,0,0,1,5.147,43.669,106.747,106.747,0,0,1-20.4,53.281c-2.557,3.414-5.08,6.658-7.521,9.8-13.823,17.775-24.742,31.815-24.964,54.034-.041,4.078.074,8.257.185,12.3.475,17.327.966,35.244-10.3,52.231a94.1,94.1,0,0,1-75.42,42.429,125.819,125.819,0,0,1-59.183-12.631c-5.92-2.844-11.611-6.226-17.114-9.5-5.274-3.135-10.729-6.377-16.512-9.237-15.242-7.537-30.134-12.115-44.263-13.608a126.5,126.5,0,0,0-13.419-.628c-3.811,0-7.594.111-11.317.219l-1.862.053c-4.589.13-9.245.35-14.174.583C56.789,224.535,20.239,226.261,0,200.734v1.949c20.759,24.745,57.038,23.031,89.467,21.5,4.923-.233,9.572-.453,14.149-.582l1.863-.054c8.026-.234,16.326-.476,24.561.4,13.977,1.476,28.724,6.013,43.83,13.482,5.739,2.838,11.172,6.068,16.427,9.191,5.527,3.285,11.242,6.683,17.213,9.55a127.966,127.966,0,0,0,55.143,12.849q2.328,0,4.649-.092a95.339,95.339,0,0,0,76.417-42.98c11.468-17.293,10.971-35.394,10.491-52.9-.111-4.031-.225-8.2-.184-12.257.218-21.831,11.03-35.734,24.718-53.335,2.443-3.142,4.97-6.391,7.535-9.815A107.9,107.9,0,0,0,406.9,43.781,100.594,100.594,0,0,0,401.834,0" fill="#85b5d5"/>
        <path id="Path_146893" data-name="Path 146893" d="M398.118,0h-1.28c7.95,28.439,2.01,61.611-16.725,86.415-2.512,3.3-4.987,6.432-7.38,9.459-13.855,17.524-24.8,31.365-23.808,53.979.19,4.339.59,8.8.978,13.122,1.539,17.159,3.13,34.9-7.385,51.838a87.963,87.963,0,0,1-74.055,42.21A118.676,118.676,0,0,1,210.2,242.612c-5.7-3.053-11.152-6.63-16.424-10.09-5.168-3.392-10.512-6.9-16.206-10-14.664-7.99-29.077-12.742-42.838-14.124a101.625,101.625,0,0,0-10.253-.475c-5,0-9.964.277-14.83.548l-.853.048c-4.864.271-9.848.671-15.125,1.094C58.681,212.419,19.017,215.6,2.3,180.951c-.78-1.617-1.547-3.268-2.3-4.909v2.932c.388.829.778,1.657,1.173,2.475,7.626,15.808,20.609,25.3,39.692,29.021,16.612,3.239,35.066,1.758,52.915.325,5.269-.423,10.245-.822,15.093-1.092l.853-.048c8.132-.453,16.542-.922,24.88-.078,13.59,1.365,27.84,6.067,42.354,13.975,5.649,3.078,10.971,6.572,16.118,9.95,5.295,3.475,10.769,7.068,16.52,10.147a120.423,120.423,0,0,0,56.6,14.587c.763,0,1.528-.008,2.29-.024a89.192,89.192,0,0,0,75.1-42.791c10.719-17.266,9.11-35.2,7.555-52.548-.386-4.305-.786-8.757-.974-13.07-.971-22.187,9.853-35.878,23.558-53.212,2.4-3.032,4.875-6.166,7.395-9.478,18.882-25,24.911-58.4,17-87.113" fill="#85b5d5"/>
        <path id="Path_146894" data-name="Path 146894" d="M393.1,0h-.848a92.813,92.813,0,0,1,2.258,26.784,96.3,96.3,0,0,1-19.387,52.385c-2.484,3.215-4.927,6.254-7.291,9.194-13.845,17.219-24.781,30.819-22.558,53.715.442,4.556,1.157,9.265,1.848,13.818,2.589,17.064,5.267,34.71-4.575,51.69a85.152,85.152,0,0,1-29.831,30.454,83.127,83.127,0,0,1-43.04,11.637h-.172a112.619,112.619,0,0,1-57.273-16.221c-5.515-3.273-10.753-7.056-15.82-10.714-5.037-3.637-10.245-7.4-15.815-10.736-14.062-8.428-27.966-13.344-41.324-14.612-2.7-.259-5.4-.363-8.086-.363-5.793,0-11.537.486-17.15.961-5.04.427-10.262,1.028-15.791,1.665C81,201.642,63.157,203.7,47.255,200.967c-18.105-3.106-30.205-12.1-36.991-27.506-1.047-2.376-2.063-4.83-3.046-7.2A163.436,163.436,0,0,0,0,150.455V152.2c2.449,4.7,4.469,9.567,6.448,14.346.985,2.378,2,4.836,3.053,7.22,6.9,15.669,19.205,24.821,37.608,27.978,16.024,2.749,33.925.688,51.237-1.3,5.522-.636,10.738-1.236,15.765-1.662,8.178-.692,16.635-1.407,25.082-.6,13.23,1.256,27.013,6.133,40.966,14.5,5.539,3.32,10.733,7.07,15.756,10.7,5.081,3.669,10.335,7.463,15.882,10.755a113.459,113.459,0,0,0,57.709,16.34h.173a83.97,83.97,0,0,0,43.477-11.757,85.962,85.962,0,0,0,30.118-30.743c9.977-17.214,7.279-34.994,4.67-52.188-.689-4.544-1.4-9.243-1.843-13.778-2.193-22.585,8.656-36.077,22.39-53.158,2.366-2.942,4.812-5.985,7.3-9.207a97.08,97.08,0,0,0,19.547-52.81A93.592,93.592,0,0,0,393.1,0" fill="#85b5d5"/>
        <path id="Path_146895" data-name="Path 146895" d="M387.669,0h-.842a90.851,90.851,0,0,1-16.858,74.58c-2.467,3.145-4.892,6.109-7.237,8.976-13.852,16.935-24.793,30.311-21.312,53.528.711,4.746,1.763,9.671,2.78,14.434,3.623,16.97,7.369,34.517-1.8,51.511a80.473,80.473,0,0,1-28.892,30.72,78.045,78.045,0,0,1-42.622,11.158c-24.6-.4-44.317-10.011-56.524-18.005-5.341-3.5-10.386-7.493-15.265-11.357s-9.948-7.878-15.373-11.449c-13.49-8.88-26.911-13.97-39.89-15.127-2.142-.193-4.3-.273-6.446-.273a157.686,157.686,0,0,0-18.124,1.348c-5.139.594-10.525,1.411-16.226,2.277-15.992,2.429-34.118,5.181-49.5,2.932-17.524-2.562-29.013-11.26-35.124-26.59-.926-2.324-1.817-4.726-2.679-7.049C12.641,153.278,9.442,144.658,3.8,137.25A49.068,49.068,0,0,0,0,132.84v1.179a47.965,47.965,0,0,1,3.131,3.7c5.571,7.315,8.75,15.879,11.823,24.162.864,2.327,1.756,4.733,2.686,7.066,6.226,15.621,17.928,24.483,35.773,27.091,15.509,2.267,33.7-.495,49.754-2.932,5.694-.865,11.071-1.681,16.2-2.273,7.083-.818,15.9-1.836,24.394-1.072,12.837,1.145,26.127,6.188,39.5,14.99,5.394,3.551,10.438,7.545,15.314,11.407,4.893,3.875,9.954,7.882,15.326,11.4,17.639,11.552,37.342,17.826,56.976,18.144.582.011,1.16.017,1.739.017a78.566,78.566,0,0,0,41.341-11.3,81.286,81.286,0,0,0,29.185-31.026c9.3-17.242,5.526-34.929,1.875-52.034-1.015-4.751-2.063-9.664-2.771-14.387-3.431-22.882,7.414-36.141,21.144-52.926,2.347-2.87,4.775-5.838,7.247-8.99A91.645,91.645,0,0,0,387.669,0" fill="#85b5d5"/>
        <path id="Path_146896" data-name="Path 146896" d="M382.1,0h-.421a84.871,84.871,0,0,1,1.665,18.616,86.038,86.038,0,0,1-18.363,51.5c-2.46,3.087-4.874,5.988-7.209,8.793-13.823,16.607-24.741,29.725-20,53.148.992,4.9,2.335,9.788,3.757,14.958,4.656,16.936,9.471,34.449.916,51.549-13.683,27.326-39.983,42.94-70.352,41.776-24.443-.886-43.794-11.272-55.722-19.828-5.161-3.731-10.016-7.932-14.71-11.995-4.748-4.11-9.657-8.359-14.93-12.167-12.887-9.309-25.79-14.559-38.35-15.6-1.73-.145-3.457-.209-5.185-.209a127.651,127.651,0,0,0-18.671,1.76c-5.164.766-10.644,1.81-16.445,2.915-15.59,2.969-33.26,6.334-48.194,4.563-17.075-2.026-28.038-10.479-33.514-25.841-.817-2.292-1.593-4.662-2.343-6.952-2.708-8.268-5.507-16.817-10.938-24.041A48.8,48.8,0,0,0,0,121.12v.474a48.23,48.23,0,0,1,12.752,11.574c5.392,7.172,8.181,15.69,10.879,23.928.751,2.293,1.527,4.664,2.346,6.962,5.533,15.52,16.607,24.059,33.855,26.106,15,1.781,32.705-1.592,48.325-4.567,5.8-1.1,11.272-2.147,16.428-2.912,8.028-1.191,15.886-2.205,23.757-1.548,12.483,1.037,25.313,6.26,38.137,15.524,5.258,3.8,10.16,8.042,14.9,12.145,4.7,4.069,9.563,8.276,14.739,12.018,11.976,8.59,31.405,19.018,55.955,19.908,1.07.041,2.13.061,3.19.061,29.183,0,54.278-15.55,67.552-42.062,8.621-17.231,3.787-34.815-.889-51.821-1.419-5.163-2.76-10.041-3.75-14.933-2.165-10.7-1.234-19.849,2.93-28.8,3.814-8.2,9.92-15.533,16.989-24.027,2.336-2.807,4.751-5.709,7.214-8.8a86.427,86.427,0,0,0,18.448-51.728A85.227,85.227,0,0,0,382.1,0" fill="#85b5d5"/>
        <path id="Path_146897" data-name="Path 146897" d="M376.683,0h-.457a81.21,81.21,0,0,1,1.442,15.312,81.408,81.408,0,0,1-17.846,51.005c-2.457,3.037-4.866,5.881-7.2,8.632-14.361,16.955-24.737,29.206-18.713,52.893,1.284,5.05,2.979,10.093,4.773,15.433,5.675,16.89,11.543,34.355,3.611,51.517A72.376,72.376,0,0,1,315.2,226.08,70.8,70.8,0,0,1,273.3,236.358c-19.013-1.077-38.477-8.754-54.807-21.617-5.042-3.987-9.755-8.441-14.314-12.75s-9.265-8.757-14.328-12.769c-12.313-9.757-24.731-15.178-36.909-16.112-1.389-.107-2.777-.155-4.163-.155a105.909,105.909,0,0,0-19.022,2.183c-5.133.942-10.649,2.216-16.488,3.565-15.206,3.513-32.44,7.495-46.932,6.208-16.588-1.474-26.995-9.649-31.816-24.992-.715-2.276-1.381-4.628-2.025-6.9-2.322-8.195-4.722-16.668-9.948-23.716C17.569,122.591,10.01,117.238,0,113.31v.428c9.858,3.893,17.3,9.179,22.2,15.791,5.183,6.99,7.574,15.43,9.886,23.59.645,2.277,1.312,4.633,2.029,6.914,4.875,15.516,15.4,23.782,32.173,25.272,14.56,1.292,31.831-2.7,47.069-6.217,5.834-1.348,11.345-2.621,16.469-3.561,7.379-1.354,15.239-2.626,23.074-2.022,12.092.928,24.432,6.319,36.679,16.022,5.048,4,9.751,8.446,14.3,12.746,4.564,4.314,9.285,8.776,14.341,12.774,16.4,12.916,35.947,20.625,55.046,21.706q2.3.133,4.569.132a70.474,70.474,0,0,0,37.591-10.474,72.777,72.777,0,0,0,27.245-31.459c8-17.3,2.1-34.839-3.6-51.8-1.791-5.332-3.484-10.369-4.765-15.4-5.976-23.5,4.346-35.683,18.632-52.549,2.331-2.753,4.742-5.6,7.2-8.639A82.029,82.029,0,0,0,376.683,0" fill="#85b5d5"/>
        <path id="Path_146898" data-name="Path 146898" d="M372.407,11.6a78.279,78.279,0,0,0-1.1-11.6h-.419a77.921,77.921,0,0,1,1.1,11.612,77.105,77.105,0,0,1-17.326,50.515c-2.458,2.992-4.867,5.785-7.2,8.487-14.358,16.656-24.733,28.69-17.412,52.62,1.584,5.178,3.642,10.365,5.82,15.857,6.688,16.86,13.6,34.294,6.276,51.536A68.77,68.77,0,0,1,316,222.16c-11.961,7.6-26.309,11-41.495,9.823-18.957-1.466-38.1-9.778-53.893-23.4-4.939-4.261-9.528-8.989-13.966-13.561-4.349-4.481-8.847-9.115-13.677-13.314-11.741-10.2-23.673-15.8-35.466-16.622-1.1-.077-2.2-.113-3.3-.113-6.731,0-13.382,1.329-19.213,2.618-5.05,1.116-10.547,2.619-16.367,4.211-21.378,5.847-45.608,12.474-61.449,3.812-7.147-3.908-11.891-10.482-14.5-20.1-.617-2.272-1.178-4.622-1.72-6.895C39.01,140.51,37.01,132.127,32,125.266c-6.288-8.607-17.048-14.557-32-17.707v.406c14.8,3.133,25.444,9.023,31.658,17.528,4.966,6.8,6.957,15.142,8.882,23.212.543,2.275,1.1,4.628,1.723,6.906,2.605,9.59,7.551,16.435,14.7,20.344,15.993,8.745,40.312,2.093,61.768-3.775,5.815-1.59,11.307-3.093,16.347-4.206,6.754-1.493,14.612-3.042,22.393-2.5,11.7.819,23.547,6.377,35.218,16.521,4.817,4.187,9.309,8.815,13.652,13.29,4.444,4.578,9.039,9.313,13.992,13.586,15.864,13.684,35.09,22.032,54.137,23.5q2.958.229,5.872.228a66.394,66.394,0,0,0,35.885-10.116,69.174,69.174,0,0,0,26.312-31.714c7.389-17.386.444-34.895-6.272-51.826-2.176-5.484-4.23-10.664-5.809-15.828-7.259-23.729,3.057-35.695,17.334-52.257,2.331-2.7,4.74-5.5,7.2-8.494A77.49,77.49,0,0,0,372.407,11.6" fill="#85b5d5"/>
        <path id="Path_146899" data-name="Path 146899" d="M1116.9,492.547a374.706,374.706,0,0,1-13.849,36.33,382.013,382.013,0,0,1-66.779,102.576h2.188a383.486,383.486,0,0,0,66.117-101.959q6.905-15.638,12.323-31.685Z" transform="translate(-607.18 -297.336)" fill="#85b5d5"/>
        <path id="Path_146900" data-name="Path 146900" d="M1136.032,568.013q-2.1,5.153-4.351,10.263a391.233,391.233,0,0,1-62.753,98.733h1.619a392.335,392.335,0,0,0,62.279-98.27q1.648-3.734,3.207-7.492Z" transform="translate(-626.315 -342.892)" fill="#85b5d5"/>
        <path id="Path_146901" data-name="Path 146901" d="M1154.931,632.064a400.894,400.894,0,0,1-53.749,83.611h1.587a402.1,402.1,0,0,0,52.162-80.777Z" transform="translate(-645.215 -381.558)" fill="#85b5d5"/>
        <path id="Path_146902" data-name="Path 146902" d="M1174.381,691.455a411.3,411.3,0,0,1-40,60.073h1.041a412.235,412.235,0,0,0,38.963-58.365Z" transform="translate(-664.664 -417.41)" fill="#85b5d5"/>
        <path id="Path_146903" data-name="Path 146903" d="M1174.381,691.455a411.3,411.3,0,0,1-40,60.073h1.041a412.235,412.235,0,0,0,38.963-58.365Z" transform="translate(-664.664 -417.41)" fill="#85b5d5"/>
        <path id="Path_146904" data-name="Path 146904" d="M1193.557,745.681q-7.528,12.393-15.9,24.279-5.113,7.249-10.552,14.3h1.029q5.249-6.839,10.209-13.859,7.989-11.326,15.214-23.147Z" transform="translate(-683.84 -450.145)" fill="#85b5d5"/>
        <path id="Path_146905" data-name="Path 146905" d="M1213.04,797.476q-3.263,4.9-6.655,9.721-2.961,4.2-6.028,8.332h1.012q2.9-3.917,5.7-7.888,3.038-4.307,5.969-8.686Z" transform="translate(-703.323 -481.412)" fill="#85b5d5"/>
      </g>
    </g>
  </g>
</svg>
