<svg xmlns="http://www.w3.org/2000/svg" width="32.845" height="26" viewBox="0 0 32.845 26">
  <g id="table" transform="translate(-184.802 -140.234)">
    <path id="Path_77688" data-name="Path 77688" d="M215.7,140.236H186.751a1.853,1.853,0,0,0-1.948,1.742v22.51a1.853,1.853,0,0,0,1.948,1.742H215.7a1.853,1.853,0,0,0,1.948-1.742v-22.51a1.853,1.853,0,0,0-1.948-1.742Zm-19.206,17.622v-4.916h9.464v4.916Zm9.464,1.67v5.01h-9.464v-5.01Zm0-13.194v4.916h-9.464v-4.916Zm10.021,0v4.916h-8.351v-4.916Zm-21.155,4.916h-8.351v-4.916h8.351Zm-8.351,1.67h8.351v4.938h-8.351Zm21.155,0h8.351v4.938h-8.351Zm-20.877-11.015H215.7a.605.605,0,0,1,.278.073v2.686H186.472v-2.652a.356.356,0,0,1,.278-.106Zm-.278,22.582v-4.96h8.351v5.01h-8.073a.662.662,0,0,1-.278-.05Zm29.227.072h-8.072v-5.01h8.351v4.927a.357.357,0,0,1-.278.083Z" transform="translate(0 0)" 
      fill="#f45e29"/>
  </g>
</svg>
