<svg xmlns="http://www.w3.org/2000/svg" width="60" height="60" viewBox="0 0 60 60">
  <g id="Group_164490" data-name="Group 164490" transform="translate(-607 -963)">
    <g id="Ellipse_1253" data-name="Ellipse 1253" transform="translate(607 963)" fill="#ffbf61" stroke="#f3b85c" stroke-width="2">
      <circle cx="30" cy="30" r="30" stroke="none"/>
      <circle cx="30" cy="30" r="29" fill="none"/>
    </g>
    <path id="noun-log-in-3769737" d="M197.32,108.348v15.624a3.348,3.348,0,0,1-3.348,3.348H180.58a3.348,3.348,0,0,1-3.348-3.348v-3.348a1.116,1.116,0,1,1,2.232,0v3.348a1.116,1.116,0,0,0,1.116,1.116h13.392a1.116,1.116,0,0,0,1.116-1.116V108.348a1.116,1.116,0,0,0-1.116-1.116H180.58a1.116,1.116,0,0,0-1.116,1.116V111.7a1.116,1.116,0,1,1-2.232,0v-3.348A3.348,3.348,0,0,1,180.58,105h13.392a3.348,3.348,0,0,1,3.348,3.348Zm-13.069,11.483a1.121,1.121,0,1,0,1.585,1.585l4.464-4.464a1.116,1.116,0,0,0,0-1.585l-4.464-4.464a1.121,1.121,0,0,0-1.585,1.585l2.567,2.556h-10.7a1.116,1.116,0,1,0,0,2.232h10.7Z" transform="translate(451 876)" fill="#fff" stroke="#ffbf61" stroke-width="0.5"/>
  </g>
</svg>
