<svg xmlns="http://www.w3.org/2000/svg" xmlns:xlink="http://www.w3.org/1999/xlink" width="71" height="81" viewBox="0 0 71 81">
  <defs>
    <clipPath id="clip-path">
      <path id="Rectangle_18120" data-name="Rectangle 18120" d="M0,0H63a8,8,0,0,1,8,8V81a0,0,0,0,1,0,0H0a0,0,0,0,1,0,0V0A0,0,0,0,1,0,0Z" transform="translate(138.347)" fill="#e46179"/>
    </clipPath>
    <clipPath id="clip-path-2">
      <ellipse id="Ellipse_1962" data-name="Ellipse 1962" cx="68.001" cy="68.227" rx="68.001" ry="68.227" transform="translate(0 0)" fill="#fff" stroke="#707070" stroke-width="1"/>
    </clipPath>
    <filter id="Path_81881" x="-52.042" y="-9.139" width="131.929" height="133.167" filterUnits="userSpaceOnUse">
      <feOffset input="SourceAlpha"/>
      <feGaussianBlur stdDeviation="3" result="blur"/>
      <feFlood flood-opacity="0.102"/>
      <feComposite operator="in" in2="blur"/>
      <feComposite in="SourceGraphic"/>
    </filter>
  </defs>
  <g id="Group_191141" data-name="Group 191141" transform="translate(-284 -362)">
    <g id="Mask_Group_51760" data-name="Mask Group 51760" transform="translate(145.653 362)" clip-path="url(#clip-path)">
      <g id="Mask_Group_51759" data-name="Mask Group 51759" transform="translate(139.617 -56.187)" opacity="0.56" clip-path="url(#clip-path-2)">
        <g transform="matrix(1, 0, 0, 1, -1.27, 56.19)" filter="url(#Path_81881)">
          <path id="Path_81881-2" data-name="Path 81881" d="M7.011,0H109.823c3.872,0,4.106,3.173,4.106,7.087V108.08a7.049,7.049,0,0,1-7.011,7.087H7.011A7.049,7.049,0,0,1,0,108.08V7.087A7.049,7.049,0,0,1,7.011,0Z" transform="translate(-43.04 -0.14)" fill="#ffcc3e"/>
        </g>
      </g>
    </g>
  </g>
</svg>
