<svg xmlns="http://www.w3.org/2000/svg" width="15.15" height="20.865" viewBox="0 0 15.15 20.865">
  <g id="Page-1" transform="translate(-4.749 1.58)">
    <g id="icon-27-one-finger-click" transform="translate(5 -1.272)">
      <path id="one-finger-click" d="M14.263,20.869a4.759,4.759,0,0,0,4.752-4.578h0V12.63a.951.951,0,0,0-1.9,0v.3h-.633V11.413a.951.951,0,0,0-1.9,0v.912h-.633V10.8a.951.951,0,0,0-1.9,0v2.132h-.633V6.529a.951.951,0,0,0-1.9,0v6.894c-1.3-1.343-3.021-2.82-3.724-2.139s1.086,2.505,3.564,6.523c1.117,1.81,2.529,3.062,4.91,3.062Zm5.385-4.578a5.289,5.289,0,0,1-5.384,5.188,6.139,6.139,0,0,1-5.485-3.4C6.711,14.45,4.068,12.07,5.327,10.857c.9-.868,2.314-.035,3.553,1.081h0V6.531a1.585,1.585,0,0,1,3.167,0V9.577a1.619,1.619,0,0,1,.95-.3,1.578,1.578,0,0,1,1.486.994,1.611,1.611,0,0,1,1.048-.383,1.551,1.551,0,0,1,1.584,1.524v.008a1.62,1.62,0,0,1,.95-.3,1.552,1.552,0,0,1,1.584,1.526v3.653Z" transform="translate(-5 -1.172)" fill="#f45e29" stroke="#f45e29" stroke-width="0.5"/>
      <path id="Line_87" data-name="Line 87" d="M-.2.721a.305.305,0,0,1-.3-.231A.305.305,0,0,1-.269.119l2.441-.61a.305.305,0,0,1,.37.222A.305.305,0,0,1,2.321.1L-.121.712A.306.306,0,0,1-.2.721Z" transform="translate(0.5 6.159)" fill="#f45e29" stroke="#f45e29" stroke-linecap="round" stroke-width="0.5"/>
      <path id="Line_87-2" data-name="Line 87" d="M.305,1.221A.305.305,0,0,1,.231.62L2.673.009A.305.305,0,1,1,2.821.6l-2.441.61A.306.306,0,0,1,.305,1.221Z" transform="matrix(0.602, 0.799, -0.799, 0.602, 1.705, 1.632)" fill="#f45e29" stroke="#f45e29" stroke-linecap="round" stroke-width="0.5"/>
      <path id="Line_87-3" data-name="Line 87" d="M.305,1.221A.305.305,0,0,1,.231.62L2.673.009A.305.305,0,1,1,2.821.6l-2.441.61A.306.306,0,0,1,.305,1.221Z" transform="translate(6.783 0.316) rotate(105)" fill="#f45e29" stroke="#f45e29" stroke-linecap="round" stroke-width="0.5"/>
      <path id="Line_87-4" data-name="Line 87" d="M.305,1.221A.305.305,0,0,1,.231.62L2.673.009A.305.305,0,1,1,2.821.6l-2.441.61A.306.306,0,0,1,.305,1.221Z" transform="matrix(-0.927, 0.375, -0.375, -0.927, 10.694, 3.212)" fill="#f45e29" stroke="#f45e29" stroke-linecap="round" stroke-width="0.5"/>
      <path id="Line_87-5" data-name="Line 87" d="M.305,1.221A.305.305,0,0,1,.231.62L2.673.009A.305.305,0,1,1,2.821.6l-2.441.61A.306.306,0,0,1,.305,1.221Z" transform="translate(10.743 7.506) rotate(-153)" fill="#f45e29" stroke="#f45e29" stroke-linecap="round" stroke-width="0.5"/>
    </g>
  </g>
</svg>
