<svg id="dashboard" xmlns="http://www.w3.org/2000/svg" width="17" height="17" viewBox="0 0 17 17">
  <path id="Path_35360" data-name="Path 35360" d="M6.467,5.593H1.223A1.225,1.225,0,0,1,0,4.369V1.223A1.225,1.225,0,0,1,1.223,0H6.467A1.225,1.225,0,0,1,7.69,1.223V4.369A1.225,1.225,0,0,1,6.467,5.593ZM1.223,1.049a.175.175,0,0,0-.175.175V4.369a.175.175,0,0,0,.175.175H6.467a.175.175,0,0,0,.175-.175V1.223a.175.175,0,0,0-.175-.175Zm0,0" fill="#f45e29"/>
  <path id="Path_35361" data-name="Path 35361" d="M6.467,223.12H1.223A1.225,1.225,0,0,1,0,221.9v-7.341a1.225,1.225,0,0,1,1.223-1.224H6.467a1.225,1.225,0,0,1,1.224,1.224V221.9A1.225,1.225,0,0,1,6.467,223.12Zm-5.243-8.739a.175.175,0,0,0-.175.175V221.9a.175.175,0,0,0,.175.175H6.467a.175.175,0,0,0,.175-.175v-7.341a.175.175,0,0,0-.175-.175Zm0,0" transform="translate(0 -206.12)" fill="#f45e29"/>
  <path id="Path_35362" data-name="Path 35362" d="M283.8,346.925h-5.243a1.225,1.225,0,0,1-1.224-1.223v-3.146a1.225,1.225,0,0,1,1.224-1.224H283.8a1.225,1.225,0,0,1,1.223,1.224V345.7A1.225,1.225,0,0,1,283.8,346.925Zm-5.243-4.544a.175.175,0,0,0-.175.175V345.7a.175.175,0,0,0,.175.175H283.8a.175.175,0,0,0,.175-.175v-3.146a.175.175,0,0,0-.175-.175Zm0,0" transform="translate(-268.022 -329.925)" fill="#f45e29"/>
  <path id="Path_35363" data-name="Path 35363" d="M283.8,9.788h-5.243a1.225,1.225,0,0,1-1.224-1.224V1.223A1.225,1.225,0,0,1,278.556,0H283.8a1.225,1.225,0,0,1,1.223,1.223V8.564A1.225,1.225,0,0,1,283.8,9.788Zm-5.243-8.739a.175.175,0,0,0-.175.175V8.564a.175.175,0,0,0,.175.175H283.8a.175.175,0,0,0,.175-.175V1.223a.175.175,0,0,0-.175-.175Zm0,0" transform="translate(-268.022)" fill="#f45e29"/>
</svg>
