<svg xmlns="http://www.w3.org/2000/svg" width="24.118" height="24.118" viewBox="0 0 24.118 24.118">
  <g id="Group_194291" data-name="Group 194291" transform="translate(-17.65 -292.65)">
    <path id="Union_5" data-name="Union 5" d="M15.2,23.384a2.339,2.339,0,0,1-2.339-2.338V17.539A2.338,2.338,0,0,1,15.2,15.2h5.846a2.338,2.338,0,0,1,2.338,2.338v3.507a2.338,2.338,0,0,1-2.338,2.338Zm-1.17-5.846v3.507a1.171,1.171,0,0,0,1.17,1.169h5.846a1.17,1.17,0,0,0,1.169-1.169V17.539a1.17,1.17,0,0,0-1.169-1.169H15.2A1.171,1.171,0,0,0,14.03,17.539ZM2.338,23.384A2.338,2.338,0,0,1,0,21.046V12.861a2.338,2.338,0,0,1,2.338-2.338H8.185a2.338,2.338,0,0,1,2.338,2.338v8.185a2.338,2.338,0,0,1-2.338,2.338ZM1.169,12.861v8.185a1.171,1.171,0,0,0,1.169,1.169H8.185a1.17,1.17,0,0,0,1.169-1.169V12.861a1.171,1.171,0,0,0-1.169-1.169H2.338A1.171,1.171,0,0,0,1.169,12.861Zm14.031,0a2.339,2.339,0,0,1-2.339-2.338V2.338A2.339,2.339,0,0,1,15.2,0h5.846a2.338,2.338,0,0,1,2.338,2.338v8.185a2.338,2.338,0,0,1-2.338,2.338ZM14.03,2.338v8.185a1.171,1.171,0,0,0,1.17,1.169h5.846a1.17,1.17,0,0,0,1.169-1.169V2.338a1.171,1.171,0,0,0-1.169-1.169H15.2A1.172,1.172,0,0,0,14.03,2.338ZM2.338,8.185A2.338,2.338,0,0,1,0,5.847V2.338A2.338,2.338,0,0,1,2.338,0H8.185a2.338,2.338,0,0,1,2.338,2.338V5.847A2.338,2.338,0,0,1,8.185,8.185ZM1.169,2.338V5.847A1.171,1.171,0,0,0,2.338,7.016H8.185A1.171,1.171,0,0,0,9.354,5.847V2.338A1.171,1.171,0,0,0,8.185,1.169H2.338A1.171,1.171,0,0,0,1.169,2.338Z" transform="translate(18.017 293.017)" fill="#858789"/>
    <path id="Union_5_-_Outline" data-name="Union 5 - Outline" d="M21.046,23.634H15.2a2.592,2.592,0,0,1-2.589-2.588V17.539A2.592,2.592,0,0,1,15.2,14.95h5.846a2.591,2.591,0,0,1,2.588,2.588v3.507A2.591,2.591,0,0,1,21.046,23.634ZM15.2,15.45a2.091,2.091,0,0,0-2.089,2.088v3.507A2.091,2.091,0,0,0,15.2,23.134h5.846a2.091,2.091,0,0,0,2.088-2.088V17.539a2.091,2.091,0,0,0-2.088-2.088ZM8.185,23.634H2.338A2.591,2.591,0,0,1-.25,21.046V12.861a2.591,2.591,0,0,1,2.588-2.588H8.185a2.591,2.591,0,0,1,2.588,2.588v8.185A2.591,2.591,0,0,1,8.185,23.634ZM2.338,10.773A2.091,2.091,0,0,0,.25,12.861v8.185a2.091,2.091,0,0,0,2.088,2.088H8.185a2.091,2.091,0,0,0,2.088-2.088V12.861a2.091,2.091,0,0,0-2.088-2.088ZM21.046,22.465H15.2a1.421,1.421,0,0,1-1.42-1.419V17.539A1.421,1.421,0,0,1,15.2,16.12h5.846a1.421,1.421,0,0,1,1.419,1.419v3.507A1.421,1.421,0,0,1,21.046,22.465ZM15.2,16.62a.921.921,0,0,0-.92.919v3.507a.921.921,0,0,0,.92.919h5.846a.92.92,0,0,0,.919-.919V17.539a.92.92,0,0,0-.919-.919ZM8.185,22.465H2.338A1.421,1.421,0,0,1,.919,21.046V12.861a1.421,1.421,0,0,1,1.419-1.419H8.185A1.421,1.421,0,0,1,9.6,12.861v8.185A1.421,1.421,0,0,1,8.185,22.465ZM2.338,11.942a.92.92,0,0,0-.919.919v8.185a.92.92,0,0,0,.919.919H8.185a.92.92,0,0,0,.919-.919V12.861a.92.92,0,0,0-.919-.919Zm18.708,1.169H15.2a2.592,2.592,0,0,1-2.589-2.588V2.338A2.592,2.592,0,0,1,15.2-.25h5.846a2.591,2.591,0,0,1,2.588,2.588v8.185A2.591,2.591,0,0,1,21.046,13.111ZM15.2.25a2.091,2.091,0,0,0-2.089,2.088v8.185A2.091,2.091,0,0,0,15.2,12.611h5.846a2.091,2.091,0,0,0,2.088-2.088V2.338A2.091,2.091,0,0,0,21.046.25Zm5.846,11.692H15.2a1.421,1.421,0,0,1-1.42-1.419V2.338A1.421,1.421,0,0,1,15.2.919h5.846a1.421,1.421,0,0,1,1.419,1.419v8.185A1.421,1.421,0,0,1,21.046,11.942ZM15.2,1.419a.921.921,0,0,0-.92.919v8.185a.921.921,0,0,0,.92.919h5.846a.92.92,0,0,0,.919-.919V2.338a.92.92,0,0,0-.919-.919ZM8.185,8.435H2.338A2.591,2.591,0,0,1-.25,5.847V2.338A2.591,2.591,0,0,1,2.338-.25H8.185a2.591,2.591,0,0,1,2.588,2.588V5.847A2.591,2.591,0,0,1,8.185,8.435ZM2.338.25A2.091,2.091,0,0,0,.25,2.338V5.847A2.091,2.091,0,0,0,2.338,7.935H8.185a2.091,2.091,0,0,0,2.088-2.088V2.338A2.091,2.091,0,0,0,8.185.25ZM8.185,7.266H2.338A1.421,1.421,0,0,1,.919,5.847V2.338A1.421,1.421,0,0,1,2.338.919H8.185A1.421,1.421,0,0,1,9.6,2.338V5.847A1.421,1.421,0,0,1,8.185,7.266ZM2.338,1.419a.92.92,0,0,0-.919.919V5.847a.92.92,0,0,0,.919.919H8.185A.92.92,0,0,0,9.1,5.847V2.338a.92.92,0,0,0-.919-.919Z" transform="translate(18.017 293.017)" fill="#858789"/>
    <path id="Union_5_-_Outline-2" data-name="Union 5 - Outline" d="M-1435.937,213.518h-5.846a2.459,2.459,0,0,1-2.456-2.455v-3.507a2.458,2.458,0,0,1,2.456-2.455h5.846a2.458,2.458,0,0,1,2.455,2.455v3.507A2.458,2.458,0,0,1-1435.937,213.518Zm-5.846-8.184a2.224,2.224,0,0,0-2.222,2.221v3.507a2.224,2.224,0,0,0,2.222,2.221h5.846a2.224,2.224,0,0,0,2.221-2.221v-3.507a2.224,2.224,0,0,0-2.221-2.221Zm-7.016,8.184h-5.847a2.458,2.458,0,0,1-2.455-2.455v-8.185a2.458,2.458,0,0,1,2.455-2.455h5.847a2.458,2.458,0,0,1,2.455,2.455v8.185A2.458,2.458,0,0,1-1448.8,213.518Zm-5.847-12.861a2.224,2.224,0,0,0-2.222,2.221v8.185a2.224,2.224,0,0,0,2.222,2.221h5.847a2.224,2.224,0,0,0,2.221-2.221v-8.185a2.224,2.224,0,0,0-2.221-2.221Zm18.708,11.692h-5.846a1.288,1.288,0,0,1-1.287-1.286v-3.507a1.288,1.288,0,0,1,1.287-1.286h5.846a1.287,1.287,0,0,1,1.286,1.286v3.507A1.287,1.287,0,0,1-1435.937,212.349Zm-5.846-5.846a1.054,1.054,0,0,0-1.053,1.052v3.507a1.054,1.054,0,0,0,1.053,1.052h5.846a1.053,1.053,0,0,0,1.052-1.052v-3.507a1.053,1.053,0,0,0-1.052-1.052Zm-7.016,5.846h-5.847a1.287,1.287,0,0,1-1.286-1.286v-8.185a1.287,1.287,0,0,1,1.286-1.286h5.847a1.287,1.287,0,0,1,1.286,1.286v8.185A1.287,1.287,0,0,1-1448.8,212.349Zm-5.847-10.523a1.053,1.053,0,0,0-1.052,1.052v8.185a1.053,1.053,0,0,0,1.052,1.052h5.847a1.053,1.053,0,0,0,1.052-1.052v-8.185a1.053,1.053,0,0,0-1.052-1.052Zm18.708,1.169h-5.846a2.458,2.458,0,0,1-2.456-2.455v-8.185a2.458,2.458,0,0,1,2.456-2.455h5.846a2.458,2.458,0,0,1,2.455,2.455v8.185A2.458,2.458,0,0,1-1435.937,202.995Zm-5.846-12.861a2.224,2.224,0,0,0-2.222,2.221v8.185a2.224,2.224,0,0,0,2.222,2.221h5.846a2.224,2.224,0,0,0,2.221-2.221v-8.185a2.224,2.224,0,0,0-2.221-2.221Zm5.846,11.692h-5.846a1.288,1.288,0,0,1-1.287-1.286v-8.185a1.288,1.288,0,0,1,1.287-1.286h5.846a1.287,1.287,0,0,1,1.286,1.286v8.185A1.287,1.287,0,0,1-1435.937,201.826Zm-5.846-10.523a1.054,1.054,0,0,0-1.053,1.052v8.185a1.054,1.054,0,0,0,1.053,1.052h5.846a1.053,1.053,0,0,0,1.052-1.052v-8.185a1.053,1.053,0,0,0-1.052-1.052Zm-7.016,7.016h-5.847a2.458,2.458,0,0,1-2.455-2.455v-3.508a2.458,2.458,0,0,1,2.455-2.455h5.847a2.458,2.458,0,0,1,2.455,2.455v3.508A2.458,2.458,0,0,1-1448.8,198.319Zm-5.847-8.185a2.224,2.224,0,0,0-2.222,2.221v3.508a2.224,2.224,0,0,0,2.222,2.221h5.847a2.224,2.224,0,0,0,2.221-2.221v-3.508a2.224,2.224,0,0,0-2.221-2.221Zm5.847,7.016h-5.847a1.287,1.287,0,0,1-1.286-1.286v-3.508a1.287,1.287,0,0,1,1.286-1.286h5.847a1.287,1.287,0,0,1,1.286,1.286v3.508A1.287,1.287,0,0,1-1448.8,197.149Zm-5.847-5.847a1.053,1.053,0,0,0-1.052,1.052v3.508a1.053,1.053,0,0,0,1.052,1.052h5.847a1.053,1.053,0,0,0,1.052-1.052v-3.508a1.053,1.053,0,0,0-1.052-1.052Z" transform="translate(1475 103)" fill="#858789"/>
    <path id="Union_5_-_Outline_-_Outline" data-name="Union 5 - Outline - Outline" d="M-1435.937,213.768h-5.846a2.709,2.709,0,0,1-2.706-2.705v-3.507a2.709,2.709,0,0,1,2.706-2.705h5.846a2.708,2.708,0,0,1,2.705,2.705v3.507A2.708,2.708,0,0,1-1435.937,213.768Zm-5.846-8.184a1.974,1.974,0,0,0-1.972,1.971v3.507a1.974,1.974,0,0,0,1.972,1.971h5.846a1.973,1.973,0,0,0,1.971-1.971v-3.507a1.973,1.973,0,0,0-1.971-1.971Zm-7.016,8.184h-5.847a2.708,2.708,0,0,1-2.705-2.705v-8.185a2.708,2.708,0,0,1,2.705-2.705h5.847a2.708,2.708,0,0,1,2.7,2.705v8.185A2.708,2.708,0,0,1-1448.8,213.768Zm-5.847-12.861a1.974,1.974,0,0,0-1.972,1.971v8.185a1.974,1.974,0,0,0,1.972,1.971h5.847a1.973,1.973,0,0,0,1.971-1.971v-8.185a1.973,1.973,0,0,0-1.971-1.971Zm18.708,11.692h-5.846a1.538,1.538,0,0,1-1.537-1.536v-3.507a1.538,1.538,0,0,1,1.537-1.536h5.846a1.538,1.538,0,0,1,1.536,1.536v3.507A1.538,1.538,0,0,1-1435.937,212.6Zm-12.861,0h-5.847a1.538,1.538,0,0,1-1.536-1.536v-8.185a1.538,1.538,0,0,1,1.536-1.536h5.847a1.538,1.538,0,0,1,1.536,1.536v8.185A1.538,1.538,0,0,1-1448.8,212.6Zm12.861-9.354h-5.846a2.709,2.709,0,0,1-2.706-2.705v-8.185a2.709,2.709,0,0,1,2.706-2.705h5.846a2.708,2.708,0,0,1,2.705,2.705v8.185A2.708,2.708,0,0,1-1435.937,203.245Zm-5.846-12.861a1.974,1.974,0,0,0-1.972,1.971v8.185a1.974,1.974,0,0,0,1.972,1.971h5.846a1.973,1.973,0,0,0,1.971-1.971v-8.185a1.973,1.973,0,0,0-1.971-1.971Zm5.846,11.692h-5.846a1.538,1.538,0,0,1-1.537-1.536v-8.185a1.538,1.538,0,0,1,1.537-1.536h5.846a1.538,1.538,0,0,1,1.536,1.536v8.185A1.538,1.538,0,0,1-1435.937,202.076Zm-12.861-3.507h-5.847a2.708,2.708,0,0,1-2.705-2.705v-3.508a2.708,2.708,0,0,1,2.705-2.705h5.847a2.708,2.708,0,0,1,2.7,2.705v3.508A2.708,2.708,0,0,1-1448.8,198.569Zm-5.847-8.185a1.974,1.974,0,0,0-1.972,1.971v3.508a1.974,1.974,0,0,0,1.972,1.971h5.847a1.973,1.973,0,0,0,1.971-1.971v-3.508a1.973,1.973,0,0,0-1.971-1.971Zm5.847,7.016h-5.847a1.538,1.538,0,0,1-1.536-1.536v-3.508a1.538,1.538,0,0,1,1.536-1.536h5.847a1.538,1.538,0,0,1,1.536,1.536v3.508A1.538,1.538,0,0,1-1448.8,197.4Z" transform="translate(1475 103)" fill="#858789"/>
  </g>
</svg>
