<svg xmlns="http://www.w3.org/2000/svg" width="11.696" height="11.696" viewBox="0 0 11.696 11.696">
  <g id="Group_164469" data-name="Group 164469" transform="translate(-418 -363)">
    <circle id="Ellipse_1983" data-name="Ellipse 1983" cx="4" cy="4" r="4" transform="translate(420 365)" fill="#fff"/>
    <path id="Icon_awesome-check-circle" data-name="Icon awesome-check-circle" d="M12.259,6.411A5.848,5.848,0,1,1,6.411.562,5.848,5.848,0,0,1,12.259,6.411Zm-6.524,3.1,4.339-4.339a.377.377,0,0,0,0-.534L9.539,4.1a.377.377,0,0,0-.534,0L5.467,7.64,3.815,5.987a.377.377,0,0,0-.534,0l-.534.534a.377.377,0,0,0,0,.534L5.2,9.507a.377.377,0,0,0,.534,0Z" transform="translate(417.438 362.438)" fill="#80cc8c"/>
  </g>
</svg>
