<svg xmlns="http://www.w3.org/2000/svg" width="50" height="50" viewBox="0 0 50 50">
  <g id="Group_165838" data-name="Group 165838" transform="translate(116 -467)">
    <circle id="Ellipse_2045" data-name="Ellipse 2045" cx="25" cy="25" r="25" transform="translate(-116 467)" fill="#4482ff"/>
    <path id="school_2_" data-name="school (2)" d="M20.582,6.5H15.514a4.279,4.279,0,0,0-1.431-.663v-.42l3.824-1.79a1.083,1.083,0,0,0,0-1.842L14.44.161a1.773,1.773,0,0,0-2.524,1.612V5.837a4.265,4.265,0,0,0-1.43.663H5.416A5.423,5.423,0,0,0,0,11.917V22.75A3.25,3.25,0,0,0,3.25,26h19.5A3.25,3.25,0,0,0,26,22.75V11.917A5.423,5.423,0,0,0,20.582,6.5Zm3.051,4.333H21.294A3.268,3.268,0,0,1,19,9.881L17.781,8.667h2.8A3.25,3.25,0,0,1,23.633,10.833ZM5.416,8.667h2.8L7,9.881a3.268,3.268,0,0,1-2.3.952H2.366A3.25,3.25,0,0,1,5.416,8.667Zm8.666,15.166H11.916v-3.25a1.083,1.083,0,0,1,2.167,0Zm8.666,0h-6.5v-3.25a3.25,3.25,0,0,0-6.5,0v3.25H3.25A1.083,1.083,0,0,1,2.167,22.75V13H4.7a5.382,5.382,0,0,0,3.829-1.587L11.468,8.48a2.167,2.167,0,0,1,3.064,0l2.934,2.932A5.382,5.382,0,0,0,21.294,13h2.538v9.75A1.083,1.083,0,0,1,22.749,23.833ZM7.583,16.25A1.083,1.083,0,0,1,6.5,17.333H5.416a1.083,1.083,0,1,1,0-2.167H6.5A1.083,1.083,0,0,1,7.583,16.25Zm0,4.333A1.083,1.083,0,0,1,6.5,21.666H5.416a1.083,1.083,0,1,1,0-2.167H6.5A1.083,1.083,0,0,1,7.583,20.583ZM21.666,16.25a1.083,1.083,0,0,1-1.083,1.083H19.5a1.083,1.083,0,0,1,0-2.167h1.083A1.083,1.083,0,0,1,21.666,16.25Zm0,4.333a1.083,1.083,0,0,1-1.083,1.083H19.5a1.083,1.083,0,0,1,0-2.167h1.083A1.083,1.083,0,0,1,21.666,20.583ZM15.166,13A2.167,2.167,0,1,1,13,10.833,2.167,2.167,0,0,1,15.166,13Z" transform="translate(-104.125 478.881)" fill="#fff" stroke="#4482ff" stroke-width="0.6"/>
  </g>
</svg>
