<svg xmlns="http://www.w3.org/2000/svg" xmlns:xlink="http://www.w3.org/1999/xlink" width="335" height="266" viewBox="0 0 335 266">
  <defs>
    <clipPath id="clip-path">
      <rect id="Rectangle_32244" data-name="Rectangle 32244" width="335" height="266" rx="8" transform="translate(20 1475)" fill="#fff5f7"/>
    </clipPath>
  </defs>
  <g id="Mask_Group_192099" data-name="Mask Group 192099" transform="translate(-20 -1475)" clip-path="url(#clip-path)">
    <g id="Group_209780" data-name="Group 209780" transform="translate(-18.551 1475)">
      <path id="Path_181716" data-name="Path 181716" d="M1229.442,0h-1.276q.659,2.655,1.276,5.319Z" transform="translate(-672.625 0)" fill="#ffdde3"/>
      <path id="Path_181717" data-name="Path 181717" d="M1106.92,396.654a344.73,344.73,0,0,1-25.047,71.159c-18.885,39.421-44.886,75.336-77.424,107h2.431a376.646,376.646,0,0,0,76.659-106.375,347.277,347.277,0,0,0,23.381-64.183Z" transform="translate(-550.103 -238.341)" fill="#ffdde3"/>
      <path id="Path_181718" data-name="Path 181718" d="M1088.014,53.563A361.456,361.456,0,0,0,1080.165,0h-2.3a362.626,362.626,0,0,1,8.785,73.627,361.107,361.107,0,0,1-2.963,55.835,308.923,308.923,0,0,1-16.784,66.017,321.11,321.11,0,0,1-30.757,61.084c-15.383,23.823-33.875,46.794-56.53,70.229q-4.792,4.956-9.686,9.676h3.068q4.207-4.107,8.338-8.381c22.75-23.53,41.321-46.6,56.776-70.536a322.994,322.994,0,0,0,30.938-61.444,310.733,310.733,0,0,0,16.882-66.4c.892-6.488,1.586-13.143,2.086-20.02Z" transform="translate(-531.196 0)" fill="#ffdde3"/>
      <path id="Path_181719" data-name="Path 181719" d="M940.834,336.467q9.526-9.22,18.7-19.443c16.218-18.075,37.162-42.374,55.326-70.074a287.567,287.567,0,0,0,45.452-126.593c2.021-19.574,1.7-38.773,1.122-54.972A399.113,399.113,0,0,0,1053.773,0h-2.3a397.236,397.236,0,0,1,7.7,65.449h0c.576,16.139.9,35.261-1.114,54.726A285.725,285.725,0,0,1,1012.9,245.951c-18.091,27.587-38.971,51.812-55.141,69.833q-9.81,10.933-19.992,20.682Z" transform="translate(-513.584 0)" fill="#ffdde3"/>
      <path id="Path_181720" data-name="Path 181720" d="M910.263,336.467a352.847,352.847,0,0,0,28.168-30.391l3.276-3.951c17.16-20.69,34.906-42.085,50.613-65.674a260.85,260.85,0,0,0,43.114-125.43c1.227-18.115.231-36.285-.733-53.858A450.342,450.342,0,0,0,1027.986,0h-2.748a447.93,447.93,0,0,1,6.752,57.28c.96,17.509,1.953,35.614.735,53.6A258.643,258.643,0,0,1,989.979,235.24c-15.637,23.483-33.342,44.828-50.463,65.471l-3.277,3.952a347.045,347.045,0,0,1-29.689,31.8Z" transform="translate(-496.487 0)" fill="#ffdde3"/>
      <path id="Path_181721" data-name="Path 181721" d="M880.983,336.467c12.755-11.707,24.767-25.143,37.189-41.466,5.444-7.154,11.169-14.412,16.705-21.432,11.94-15.139,24.286-30.792,35.73-47.717a242.345,242.345,0,0,0,29.287-60.078,232.49,232.49,0,0,0,11.458-64.108c.442-14.353-.676-28.441-1.86-43.356q-.369-4.64-.729-9.362c-1.292-17.282-3.225-33.532-5.832-48.949h-2.745c2.626,15.456,4.572,31.757,5.869,49.106q.353,4.73.729,9.372c1.179,14.855,2.293,28.886,1.855,43.12a230.352,230.352,0,0,1-11.353,63.515,240.094,240.094,0,0,1-29.012,59.515c-11.394,16.85-23.712,32.469-35.625,47.574-5.543,7.028-11.274,14.295-16.732,21.465-12.921,16.98-25.39,30.806-38.718,42.8Z" transform="translate(-480.413 0)" fill="#ffdde3"/>
      <path id="Path_181722" data-name="Path 181722" d="M851.918,336.467c20.384-17.463,34.564-36.1,45.909-52.438,7.478-10.773,15.412-21.077,23.811-31.986,9-11.685,18.3-23.767,27.17-36.686,24.907-36.516,38.547-80.214,38.409-123.049-.093-12.084-1.412-23.83-2.809-36.264-.56-4.98-1.138-10.13-1.636-15.329-1.4-14.592-3.064-28.073-5.051-40.715h-3.2c2.005,12.7,3.687,26.26,5.092,40.95.5,5.219,1.078,10.379,1.64,15.369,1.39,12.369,2.7,24.051,2.793,36,.137,42.326-13.343,85.51-37.954,121.591-8.825,12.854-18.1,24.906-27.078,36.561-8.421,10.937-16.375,21.268-23.892,32.1-11.674,16.815-26.37,36.073-47.789,53.9Z" transform="translate(-464.059 0)" fill="#ffdde3"/>
      <path id="Path_181723" data-name="Path 181723" d="M821.976,336.467q1.526-1.17,3.033-2.363c22.646-18.013,37.2-37.478,52.079-61.162,8.332-13.26,17.817-25.706,27.859-38.883,7.13-9.355,14.5-19.03,21.663-29.3a205.258,205.258,0,0,0,28.241-59.2,191.788,191.788,0,0,0,7.8-62.614c-.476-10.582-2.022-20.785-3.659-31.587-.925-6.106-1.882-12.42-2.64-18.864C955.037,21.326,953.617,10.5,952.02,0h-3.195c1.615,10.59,3.05,21.508,4.375,32.782.762,6.485,1.722,12.82,2.65,18.947,1.628,10.736,3.165,20.876,3.634,31.328a189.341,189.341,0,0,1-7.7,61.8A202.65,202.65,0,0,1,923.91,203.3c-7.124,10.219-14.479,19.868-21.591,29.2-10.081,13.228-19.6,25.722-28,39.087-14.728,23.439-29.11,42.688-51.429,60.441q-2.855,2.268-5.789,4.439Z" transform="translate(-447.498 0)" fill="#ffdde3"/>
      <path id="Path_181724" data-name="Path 181724" d="M789.539,336.467a204.15,204.15,0,0,0,17.342-12.973c23.2-19.395,36.444-41.087,48.022-61.643,8.5-15.084,19.027-28.929,30.175-43.586,5.863-7.71,11.927-15.681,17.888-24.1,24.937-35.516,37.208-79.467,33.667-120.583-.819-9.511-2.586-18.618-4.456-28.259-1.317-6.789-2.679-13.809-3.7-21.049C927.315,15.971,926.161,7.9,924.963,0h-3.2c1.216,8,2.388,16.193,3.571,24.615,1.026,7.3,2.394,14.356,3.717,21.177,1.858,9.575,3.612,18.619,4.42,28,3.491,40.538-8.61,83.876-33.2,118.9-5.931,8.379-11.98,16.332-17.829,24.023-11.208,14.735-21.793,28.654-30.382,43.9-11.452,20.331-24.543,41.778-47.364,60.858a201.7,201.7,0,0,1-20.475,15Z" transform="translate(-429.495 0)" fill="#ffdde3"/>
      <path id="Path_181725" data-name="Path 181725" d="M752.31,336.467a188.484,188.484,0,0,0,33.933-23.724c21.337-18.771,32.512-39.214,43.917-62.066,8.236-16.5,19.505-31.27,31.437-46.906,4.964-6.506,10.1-13.233,15.187-20.314a175.569,175.569,0,0,0,27.111-58.218,163.141,163.141,0,0,0,4.147-61.008,242.808,242.808,0,0,0-5.2-25.709c-1.73-7.214-3.519-14.673-4.8-22.447C897.2,10.973,896.369,5.8,895.565.8q-.064-.4-.129-.8h-2.741q.092.568.183,1.135c.8,5,1.636,10.178,2.477,15.286,1.292,7.851,3.091,15.348,4.83,22.6A241.279,241.279,0,0,1,905.346,64.5a160.983,160.983,0,0,1-4.1,60.2,173.323,173.323,0,0,1-26.76,57.471c-5.067,7.049-10.19,13.763-15.144,20.255-12,15.726-23.335,30.581-31.668,47.278-11.292,22.626-22.348,42.858-43.349,61.334a186.078,186.078,0,0,1-37.262,25.42Z" transform="translate(-409.142 0)" fill="#ffdde3"/>
      <path id="Path_181726" data-name="Path 181726" d="M76.757,822.01c-3.072-.365-6.145-.744-9.166-1.146-22.128-2.945-45.4-6.556-67.59-12.814v2.514C19.139,815.9,39.016,819.3,58.26,822.01Z" transform="translate(0 -485.542)" fill="#ffdde3"/>
      <path id="Path_181727" data-name="Path 181727" d="M703.324,336.467q6.476-2.54,12.743-5.573a173.568,173.568,0,0,0,42.27-28.758c21.148-19.6,30.236-40.461,39.858-62.547,7.6-17.456,19.276-32.661,31.634-48.758,4.419-5.756,8.989-11.709,13.538-17.97,24.96-34.354,35.758-78.463,28.885-117.992a221.987,221.987,0,0,0-5.922-23.7c-2.155-7.465-4.385-15.183-5.931-23.312h0q-.746-3.92-1.457-7.855h-2.748q.748,4.128,1.529,8.252c1.564,8.228,3.808,16,5.978,23.508a220.337,220.337,0,0,1,5.869,23.473c6.777,38.969-3.873,82.46-28.487,116.336-4.531,6.236-9.091,12.175-13.5,17.919-12.447,16.214-24.2,31.529-31.92,49.242-9.522,21.857-18.515,42.5-39.289,61.754A170.893,170.893,0,0,1,714.76,328.8a176.92,176.92,0,0,1-18.413,7.671Z" transform="translate(-381.366 0)" fill="#ffdde3"/>
      <path id="Path_181728" data-name="Path 181728" d="M87.573,789.4c6.366.648,12.949,1.318,19.478,2.143,16.26,2.041,34.025,5.013,54.157,9.062h11.759c-2.055-.453-4.121-.9-6.206-1.329-22.264-4.582-41.671-7.887-59.326-10.1-6.564-.83-13.166-1.5-19.55-2.151-4.806-.49-9.776-1-14.595-1.557-25.6-2.983-50.564-6.484-73.288-13.037v2.532c23.722,6.786,48.979,10.088,72.933,12.88,4.84.563,9.822,1.07,14.639,1.561" transform="translate(0 -464.137)" fill="#ffdde3"/>
      <path id="Path_181729" data-name="Path 181729" d="M78.708,309.513c3.942.391,7.99.746,11.906,1.089,7.012.615,14.262,1.251,21.457,2.135a531.95,531.95,0,0,1,57.489,10.569c5.841,1.373,11.567,2.9,17.1,4.384,8.912,2.382,17.329,4.632,26.234,6.3q8.194,1.536,16.375,2.474H280.2q2.037-.24,4.068-.516a167.817,167.817,0,0,0,51.192-15.568,159.449,159.449,0,0,0,41.208-28.988c19.378-18.94,26.844-39.017,34.749-60.273l1-2.684c6.863-18.4,18.925-33.971,31.695-50.455,3.93-5.072,7.993-10.318,12.057-15.827,25.164-34.114,35.06-77.706,26.473-116.61a204.638,204.638,0,0,0-6.616-22.053A216.789,216.789,0,0,1,469.019,0h-2.307c0,.016.007.032.01.047a215.518,215.518,0,0,0,7.141,24.019,203.314,203.314,0,0,1,6.562,21.86,136.827,136.827,0,0,1-.468,58.638,150.885,150.885,0,0,1-25.681,56.5c-4.05,5.491-8.106,10.727-12.029,15.79-12.863,16.6-25.012,32.288-31.975,50.957l-1,2.685c-7.828,21.05-15.222,40.932-34.279,59.558a157.2,157.2,0,0,1-40.629,28.582,165.365,165.365,0,0,1-50.441,15.341,219.768,219.768,0,0,1-70.554-1.938c-8.811-1.652-17.185-3.891-26.049-6.26-5.556-1.485-11.3-3.021-17.178-4.4a534.458,534.458,0,0,0-57.761-10.617c-7.239-.89-14.512-1.527-21.545-2.144-3.909-.342-7.95-.7-11.877-1.086-22.76-2.257-51.084-5.065-76.078-12.28q-1.455-.42-2.883-.859v2.11c.723.218,1.447.434,2.179.645,25.214,7.279,53.667,10.1,76.529,12.367" transform="translate(0 0.001)" fill="#ffdde3"/>
      <path id="Path_181730" data-name="Path 181730" d="M474.627,36.188a190.615,190.615,0,0,0-7.3-20.68c-1.99-5.022-4.019-10.162-5.774-15.508H459.2c1.809,5.592,3.919,10.943,5.99,16.166a189.428,189.428,0,0,1,7.235,20.483c4.878,18.086,5.338,38.077,1.329,57.813a140.708,140.708,0,0,1-25.109,55.994c-3.685,4.919-7.361,9.614-10.917,14.153-13.748,17.554-25.622,32.714-31.688,52.217q-.81,2.6-1.6,5.195c-6.2,20.234-12.062,39.347-29.622,57.471-23.288,24-55.1,39.516-89.563,43.693a204.128,204.128,0,0,1-69.533-3.732c-8.251-1.857-16.05-4.255-24.307-6.795-5.756-1.77-11.71-3.6-17.839-5.234a400.416,400.416,0,0,0-56.217-11.134c-7.768-.927-15.565-1.49-23.1-2.033-3.156-.227-6.42-.463-9.6-.72l-2.772-.223c-24.5-1.975-49.827-4.018-73.142-10.388Q4.234,281.693,0,280.278v2.113c25.719,8.394,54.7,10.734,81.682,12.909l2.771.224c3.189.258,6.458.494,9.619.722,7.511.542,15.277,1.1,22.987,2.022a398.068,398.068,0,0,1,55.865,11.067c6.083,1.621,12.013,3.444,17.748,5.208,8.3,2.554,16.147,4.966,24.492,6.844a210.819,210.819,0,0,0,46.318,5.223,200.038,200.038,0,0,0,24.083-1.448c35.016-4.244,67.324-20,90.973-44.373,17.892-18.467,23.815-37.79,30.087-58.248q.792-2.587,1.6-5.188c5.964-19.176,17.736-34.207,31.368-51.611,3.562-4.548,7.246-9.25,10.943-14.187a142.6,142.6,0,0,0,25.449-56.742c4.062-20,3.593-40.277-1.356-58.627" transform="translate(0 0)" fill="#ffdde3"/>
      <path id="Path_181731" data-name="Path 181731" d="M466.389,26.885A182.029,182.029,0,0,0,458.42,7.4c-1.107-2.434-2.226-4.895-3.314-7.4H453.17c1.169,2.707,2.377,5.365,3.571,7.991a178.177,178.177,0,0,1,7.907,19.329c5.671,17.671,6.753,37.406,3.128,57.072a131.669,131.669,0,0,1-24.571,55.564c-3.41,4.484-6.8,8.761-10.083,12.9-13.976,17.623-26.046,32.843-31.087,53.03-.6,2.414-1.19,4.859-1.758,7.224-4.713,19.626-9.165,38.163-25.455,55.945-22.456,24.472-53.781,39.934-88.2,43.537a192.784,192.784,0,0,1-68.6-5.531c-7.786-2.059-15.1-4.622-22.849-7.335-5.869-2.055-11.937-4.181-18.223-6.063a313.991,313.991,0,0,0-54.63-11.644c-8.165-.944-16.358-1.4-24.282-1.834-2.574-.142-5.138-.284-7.687-.441q-3.351-.207-6.748-.408C55.732,277.667,25.6,275.865,0,266.26v1.748c25.685,9.458,55.694,11.258,83.473,12.919q3.393.2,6.744.408c2.553.157,5.121.3,7.7.442,7.893.436,16.055.887,24.161,1.824a312.037,312.037,0,0,1,54.282,11.573c6.243,1.87,12.289,3.988,18.138,6.036,7.783,2.726,15.135,5.3,23,7.38a197.872,197.872,0,0,0,50.3,6.568,183.09,183.09,0,0,0,19.04-.981c34.894-3.653,66.643-19.321,89.4-44.119,16.564-18.081,21.059-36.8,25.818-56.618.567-2.362,1.154-4.8,1.755-7.212,4.964-19.877,16.938-34.976,30.8-52.459,3.286-4.143,6.683-8.427,10.1-12.923a133.161,133.161,0,0,0,24.855-56.2c3.667-19.9,2.57-39.87-3.173-57.764" transform="translate(0 0)" fill="#ffdde3"/>
      <path id="Path_181732" data-name="Path 181732" d="M458.37,17.535A164.588,164.588,0,0,0,450.211,0h-1.988a166.707,166.707,0,0,1,8.429,18.037c6.454,17.226,8.156,36.677,4.921,56.25a123.25,123.25,0,0,1-24,55.059c-3.2,4.145-6.379,8.1-9.451,11.919-14.152,17.6-26.375,32.805-30.312,53.625-.561,2.967-1.082,5.977-1.586,8.889-3.311,19.134-6.439,37.207-21.574,54.707-21.579,24.91-52.371,40.292-86.706,43.312a179.632,179.632,0,0,1-67.587-7.325c-7.383-2.257-14.282-4.986-21.588-7.875-5.912-2.338-12.026-4.756-18.4-6.89a257.9,257.9,0,0,0-53.08-12.162c-8.483-.946-16.991-1.26-25.218-1.565q-3.026-.111-6.029-.232-4.857-.2-9.831-.377c-29.066-1.07-60.7-2.24-86.213-13.591v1.813C25.66,264.738,57.165,265.9,86.139,266.967q4.963.183,9.822.377,3.007.125,6.038.232c8.19.3,16.659.616,25.068,1.554A255.881,255.881,0,0,1,179.73,281.2c6.323,2.117,12.413,4.525,18.3,6.854,7.019,2.776,14.277,5.646,21.735,7.927a183.991,183.991,0,0,0,53.478,8.053c5,0,9.972-.215,14.882-.647,34.838-3.065,66.077-18.667,87.964-43.932,15.416-17.825,18.725-36.945,21.924-55.435.5-2.906,1.024-5.911,1.582-8.867,3.87-20.458,15.981-35.522,30-52.964,3.078-3.828,6.259-7.786,9.47-11.944a124.753,124.753,0,0,0,24.293-55.727C466.638,54.7,464.911,35,458.37,17.535" transform="translate(-0.001 0)" fill="#ffdde3"/>
      <path id="Path_181733" data-name="Path 181733" d="M450.348,8.186c-1.2-2.778-2.562-5.5-4-8.186h-1.995c1.557,2.869,3.011,5.754,4.3,8.753,7.232,16.779,9.552,35.946,6.711,55.429a115.576,115.576,0,0,1-23.422,54.553c-3.046,3.883-6.063,7.581-8.98,11.157-14.28,17.5-26.613,32.621-29.375,54-.441,3.42-.809,6.9-1.164,10.266-1.892,17.926-3.849,36.463-17.944,53.758a115.378,115.378,0,0,1-36.555,29.572,124.2,124.2,0,0,1-48.65,13.516,167.749,167.749,0,0,1-66.573-9.119c-7.033-2.455-13.57-5.354-20.49-8.422-5.9-2.618-12.009-5.325-18.413-7.709-17.961-6.689-35.3-10.956-51.529-12.682-8.744-.939-17.509-1.09-25.986-1.236q-2.278-.039-4.541-.083c-4.008-.081-8-.128-12.23-.178C58.833,251.214,25.171,250.81,0,236.724v1.917c25.42,13.772,58.919,14.171,89.491,14.534,4.224.05,8.214.1,12.213.178q2.266.046,4.547.083c8.431.145,17.149.3,25.8,1.224,16.065,1.708,33.238,5.936,51.043,12.567,6.348,2.364,12.426,5.059,18.3,7.665,6.651,2.949,13.529,6,20.637,8.479a171.462,171.462,0,0,0,56.169,9.621q5.638,0,11.214-.4a126.16,126.16,0,0,0,49.421-13.73,117.111,117.111,0,0,0,37.107-30.016c14.383-17.648,16.363-36.4,18.277-54.542.355-3.357.721-6.829,1.161-10.233,2.708-20.969,14.913-35.929,29.045-53.252,2.923-3.582,5.944-7.285,9-11.18a117.077,117.077,0,0,0,23.729-55.259c2.879-19.742.523-39.176-6.814-56.2" transform="translate(0 0)" fill="#ffdde3"/>
      <path id="Path_181734" data-name="Path 181734" d="M442.636,0h-1.473c7.8,16.223,10.643,34.912,8.223,54.1A108.728,108.728,0,0,1,426.5,108.241c-2.932,3.681-5.831,7.18-8.635,10.563-14.351,17.321-26.744,32.279-28.266,54.11-.265,3.794-.412,7.668-.554,11.415-.67,17.669-1.363,35.939-14.545,53.136A107.642,107.642,0,0,1,338.9,267.335a116.483,116.483,0,0,1-48.285,13.08,157.172,157.172,0,0,1-65.662-10.927c-6.738-2.66-13.251-5.878-19.55-8.991-5.848-2.89-11.9-5.877-18.271-8.509-17.289-7.135-34.082-11.572-49.911-13.186a210.26,210.26,0,0,0-21.544-.862q-2.506,0-4.984.013-1.629.007-3.251.011c-4.587.01-9.2.079-14.078.153-32.779.49-69.077,1.028-93.368-17.349v1.594c24.606,17.978,60.731,17.44,93.392,16.952,4.876-.073,9.481-.142,14.058-.152q1.623,0,3.254-.011a247.979,247.979,0,0,1,26.366.841c15.684,1.6,32.336,6,49.492,13.081,6.331,2.613,12.356,5.59,18.183,8.469,6.325,3.125,12.865,6.358,19.658,9.039a159.846,159.846,0,0,0,58.342,11.243q3.991,0,7.957-.214a117.951,117.951,0,0,0,48.9-13.246,108.941,108.941,0,0,0,36.024-30.226c13.4-17.484,14.1-35.929,14.777-53.768.142-3.739.289-7.6.552-11.381,1.5-21.481,13.2-35.6,28.008-53.477,2.807-3.388,5.709-6.891,8.649-10.581a109.849,109.849,0,0,0,23.126-54.7c2.423-19.208-.38-37.929-8.1-54.232" transform="translate(0 0)" fill="#ffdde3"/>
      <path id="Path_181735" data-name="Path 181735" d="M438.966,0h-1.436a92.768,92.768,0,0,1,5.622,43.976,102.709,102.709,0,0,1-22.284,53.655c-2.794,3.438-5.55,6.705-8.216,9.865-15.1,17.9-27.028,32.039-27.271,54.414-.045,4.107.081,8.315.2,12.386.519,17.449,1.056,35.492-11.249,52.6-18.673,25.917-48.7,41.491-82.389,42.728a147.347,147.347,0,0,1-64.652-12.72c-6.467-2.864-12.683-6.27-18.7-9.564-5.762-3.157-11.72-6.422-18.038-9.3-16.65-7.59-32.919-12.2-48.353-13.7-4.9-.481-9.8-.633-14.659-.633-4.163,0-8.3.111-12.362.22l-2.034.054c-5.013.131-10.1.353-15.483.587C62.037,226.114,22.11,227.852,0,202.146v1.963c22.678,24.919,62.309,23.193,97.734,21.648,5.378-.234,10.457-.456,15.457-.586l2.035-.054c8.768-.236,17.835-.479,26.831.406,15.269,1.487,31.378,6.055,47.88,13.577,6.27,2.858,12.2,6.111,17.945,9.256,6.038,3.308,12.281,6.73,18.8,9.618a149.642,149.642,0,0,0,60.238,12.939q2.544,0,5.079-.093c34.137-1.253,64.564-17.029,83.478-43.282,12.527-17.415,11.985-35.643,11.461-53.271-.121-4.06-.246-8.258-.2-12.343.238-21.984,12.049-35.985,27-53.71,2.669-3.164,5.429-6.436,8.231-9.884A103.823,103.823,0,0,0,444.5,44.089,93.914,93.914,0,0,0,438.966,0" transform="translate(0 0)" fill="#ffdde3"/>
      <path id="Path_181736" data-name="Path 181736" d="M434.907,0h-1.4c8.684,28.639,2.2,62.044-18.27,87.023-2.744,3.325-5.448,6.477-8.062,9.526-15.135,17.647-27.09,31.586-26.008,54.359.207,4.37.645,8.866,1.068,13.214,1.681,17.279,3.419,35.147-8.067,52.2-17.781,26.366-47.268,41.86-80.9,42.507a138.518,138.518,0,0,1-63.643-14.514c-6.229-3.074-12.183-6.677-17.941-10.161-5.646-3.416-11.483-6.948-17.7-10.073-16.019-8.046-31.764-12.832-46.8-14.223-3.738-.349-7.478-.479-11.2-.479-5.461,0-10.885.279-16.2.552l-.932.048c-5.313.273-10.758.675-16.522,1.1-38.229,2.828-81.558,6.035-99.818-28.861C1.661,180.595.823,178.932,0,177.28v2.952c.424.835.85,1.668,1.281,2.492,8.33,15.919,22.513,25.479,43.36,29.225,18.147,3.262,38.307,1.77,57.8.328,5.755-.426,11.192-.828,16.488-1.1l.932-.048c8.884-.457,18.071-.929,27.179-.078,14.846,1.375,30.412,6.109,46.267,14.073,6.171,3.1,11.985,6.618,17.608,10.02,5.784,3.5,11.764,7.117,18.047,10.218a140.437,140.437,0,0,0,61.833,14.69c.834,0,1.669-.008,2.5-.024,34.108-.657,64.008-16.363,82.034-43.092,11.709-17.387,9.952-35.45,8.253-52.918-.422-4.336-.858-8.819-1.064-13.162-1.061-22.343,10.764-36.13,25.735-53.586,2.619-3.053,5.326-6.209,8.078-9.545C436.963,62.552,443.549,28.913,434.907,0" transform="translate(0 0)" fill="#ffdde3"/>
      <path id="Path_181737" data-name="Path 181737" d="M429.428,0H428.5a86.409,86.409,0,0,1,2.467,26.972,92.525,92.525,0,0,1-21.178,52.754c-2.713,3.238-5.383,6.3-7.965,9.258-15.125,17.34-27.071,31.036-24.643,54.092.483,4.588,1.263,9.33,2.018,13.916,2.828,17.184,5.753,34.954-5,52.053a89.531,89.531,0,0,1-32.587,30.669A96.751,96.751,0,0,1,294.6,251.433h-.188A130.942,130.942,0,0,1,231.845,235.1c-6.024-3.3-11.747-7.105-17.281-10.789-5.5-3.663-11.192-7.45-17.276-10.812-15.362-8.487-30.55-13.438-45.142-14.715-2.951-.261-5.9-.366-8.833-.366-6.329,0-12.6.489-18.735.967-5.506.43-11.211,1.035-17.251,1.676-18.845,2-38.333,4.068-55.7,1.32-19.778-3.128-33-12.189-40.41-27.7-1.144-2.393-2.254-4.864-3.327-7.255A158.723,158.723,0,0,0,0,151.513v1.761C2.675,158,4.882,162.908,7.043,167.72c1.076,2.394,2.187,4.87,3.335,7.271,7.542,15.779,20.98,25,41.084,28.175,17.5,2.769,37.06.693,55.972-1.314,6.032-.64,11.73-1.245,17.222-1.673,8.934-.7,18.172-1.417,27.4-.6,14.453,1.265,29.509,6.176,44.752,14.6,6.051,3.343,11.725,7.12,17.212,10.772,5.551,3.695,11.29,7.515,17.35,10.83a131.919,131.919,0,0,0,63.041,16.455h.189a97.732,97.732,0,0,0,47.494-11.84,90.385,90.385,0,0,0,32.9-30.959c10.9-17.335,7.952-35.24,5.1-52.555-.753-4.576-1.532-9.308-2.013-13.875-2.4-22.744,9.456-36.331,24.459-53.532,2.585-2.963,5.257-6.027,7.976-9.271A93.274,93.274,0,0,0,431.87,27.018,87.125,87.125,0,0,0,429.428,0" transform="translate(0 0)" fill="#ffdde3"/>
      <path id="Path_181738" data-name="Path 181738" d="M423.492,0h-.92c6.058,25.339-.232,53.635-18.416,75.1-2.695,3.167-5.344,6.152-7.905,9.04-15.132,17.054-27.084,30.524-23.281,53.9.777,4.779,1.926,9.739,3.036,14.535,3.957,17.089,8.05,34.76-1.965,51.874a84.207,84.207,0,0,1-31.562,30.936c-13.888,7.758-29.555,11.535-46.56,11.236-26.875-.4-48.412-10.081-61.747-18.132-5.834-3.522-11.345-7.546-16.676-11.437s-10.867-7.933-16.794-11.529c-14.736-8.943-29.4-14.068-43.576-15.233-2.34-.194-4.7-.275-7.042-.275a186.586,186.586,0,0,0-19.8,1.357c-5.614.6-11.5,1.421-17.726,2.293-17.47,2.446-37.27,5.218-54.074,2.953-19.143-2.58-31.694-11.339-38.37-26.777-1.012-2.341-1.985-4.759-2.927-7.1-3.379-8.395-6.874-17.075-13.037-24.535A50.794,50.794,0,0,0,0,133.774v1.187a49.536,49.536,0,0,1,3.42,3.724c6.086,7.366,9.558,15.991,12.916,24.332.944,2.344,1.919,4.767,2.935,7.116,6.8,15.73,19.585,24.655,39.078,27.282,16.943,2.283,36.817-.5,54.352-2.953,6.22-.871,12.094-1.693,17.692-2.289,7.738-.824,17.368-1.849,26.648-1.08,14.024,1.153,28.541,6.231,43.149,15.1,5.893,3.576,11.4,7.6,16.729,11.487,5.346,3.9,10.874,7.938,16.742,11.481A124.43,124.43,0,0,0,295.9,247.428c.636.011,1.267.017,1.9.017a91.406,91.406,0,0,0,45.161-11.377,85.058,85.058,0,0,0,31.882-31.244c10.161-17.364,6.036-35.175,2.048-52.4-1.108-4.785-2.254-9.732-3.028-14.488-3.748-23.043,8.1-36.395,23.1-53.3,2.564-2.89,5.216-5.879,7.917-9.053,18.3-21.6,24.653-50.065,18.612-75.584" transform="translate(0 0)" fill="#ffdde3"/>
      <path id="Path_181739" data-name="Path 181739" d="M417.407,0h-.46a78.994,78.994,0,0,1,1.819,18.747,82.553,82.553,0,0,1-20.06,51.858c-2.687,3.109-5.324,6.03-7.875,8.855-15.1,16.724-27.027,29.934-21.849,53.522,1.084,4.939,2.551,9.857,4.1,15.063,5.086,17.056,10.346,34.692,1,51.911-14.947,27.518-43.677,43.242-76.853,42.069-26.7-.892-47.841-11.352-60.871-19.968-5.638-3.757-10.941-7.988-16.069-12.079-5.186-4.138-10.55-8.417-16.309-12.253-14.078-9.374-28.173-14.661-41.894-15.712-1.889-.146-3.776-.211-5.664-.211a150.931,150.931,0,0,0-20.4,1.772c-5.642.772-11.628,1.823-17.964,2.936-17.03,2.99-36.334,6.379-52.647,4.595-18.653-2.04-30.628-10.553-36.611-26.022-.892-2.309-1.74-4.694-2.559-7-2.958-8.326-6.016-16.935-11.948-24.21A52.037,52.037,0,0,0,0,121.972v.477A51.4,51.4,0,0,1,13.93,134.1c5.89,7.222,8.937,15.8,11.884,24.1.82,2.309,1.668,4.7,2.563,7.011,6.044,15.629,18.141,24.228,36.983,26.29,16.386,1.794,35.727-1.6,52.79-4.6,6.333-1.112,12.314-2.162,17.946-2.933,8.769-1.2,17.354-2.221,25.952-1.559,13.636,1.044,27.653,6.3,41.661,15.633,5.744,3.825,11.1,8.1,16.279,12.231,5.136,4.1,10.446,8.334,16.1,12.1,13.083,8.651,34.307,19.152,61.125,20.048,1.169.042,2.327.062,3.484.062,31.879,0,59.293-15.66,73.795-42.358,9.418-17.352,4.137-35.06-.971-52.185-1.551-5.2-3.015-10.111-4.1-15.038-2.365-10.773-1.348-19.989,3.2-29,4.167-8.256,10.837-15.643,18.559-24.2,2.552-2.827,5.191-5.749,7.881-8.862a82.927,82.927,0,0,0,20.152-52.092A79.331,79.331,0,0,0,417.407,0" transform="translate(0 0)" fill="#ffdde3"/>
      <path id="Path_181740" data-name="Path 181740" d="M411.491,0h-.5a75.6,75.6,0,0,1,1.575,15.42,78.063,78.063,0,0,1-19.495,51.364c-2.684,3.058-5.316,5.923-7.861,8.692-15.688,17.075-27.023,29.411-20.442,53.265,1.4,5.085,3.254,10.164,5.215,15.541,6.2,17.008,12.61,34.6,3.944,51.879a75.009,75.009,0,0,1-29.6,31.508c-13.288,7.659-29.12,11.237-45.781,10.35-20.77-1.084-42.033-8.815-59.872-21.769-5.508-4.015-10.657-8.5-15.636-12.84s-10.121-8.818-15.652-12.858c-13.451-9.826-27.016-15.285-40.319-16.226-1.518-.107-3.034-.156-4.548-.156a125.1,125.1,0,0,0-20.78,2.2c-5.607.948-11.633,2.231-18.012,3.59-16.612,3.538-35.438,7.548-51.269,6.251-18.121-1.484-29.489-9.717-34.756-25.168-.781-2.292-1.509-4.661-2.212-6.952-2.536-8.252-5.158-16.785-10.867-23.882-5.433-6.756-13.691-12.147-24.626-16.1v.431c10.769,3.921,18.9,9.244,24.256,15.9,5.662,7.04,8.274,15.538,10.8,23.756.7,2.293,1.433,4.665,2.216,6.962,5.325,15.625,16.822,23.949,35.146,25.45,15.906,1.3,34.773-2.716,51.419-6.261,6.373-1.357,12.394-2.64,17.991-3.586,8.061-1.363,16.647-2.644,25.206-2.036,13.209.935,26.69,6.363,40.068,16.135,5.515,4.029,10.652,8.506,15.622,12.835,4.986,4.344,10.143,8.837,15.667,12.864,17.913,13.006,39.268,20.77,60.132,21.859q2.509.134,4.991.133A81.935,81.935,0,0,0,344.578,228a75.424,75.424,0,0,0,29.763-31.68c8.735-17.422,2.3-35.084-3.928-52.163-1.957-5.37-3.806-10.442-5.205-15.513-6.529-23.662,4.748-35.934,20.354-52.919,2.547-2.772,5.181-5.638,7.867-8.7A77.848,77.848,0,0,0,411.491,0" transform="translate(0 0)" fill="#ffdde3"/>
      <path id="Path_181741" data-name="Path 181741" d="M406.82,11.686A72.862,72.862,0,0,0,405.619,0h-.458a72.517,72.517,0,0,1,1.206,11.693A73.892,73.892,0,0,1,387.44,62.564c-2.685,3.013-5.317,5.826-7.861,8.547C363.893,87.884,352.56,100,360.557,124.1c1.731,5.214,3.978,10.438,6.358,15.968,7.306,16.979,14.86,34.535,6.856,51.9A70.922,70.922,0,0,1,345.2,223.723c-13.066,7.654-28.74,11.075-45.329,9.892-20.709-1.476-41.617-9.847-58.873-23.569-5.4-4.291-10.409-9.052-15.256-13.657-4.751-4.513-9.665-9.179-14.941-13.407-12.826-10.277-25.861-15.908-38.743-16.739q-1.8-.117-3.609-.114c-7.353,0-14.619,1.338-20.988,2.636-5.516,1.123-11.521,2.638-17.879,4.241-23.353,5.888-49.822,12.561-67.128,3.839-7.807-3.935-12.99-10.556-15.843-20.24-.674-2.288-1.287-4.654-1.879-6.943-2.112-8.164-4.3-16.605-9.773-23.515C28.085,117.479,16.331,111.488,0,108.315v.409c16.166,3.155,27.8,9.086,34.584,17.652,5.425,6.846,7.6,15.249,9.7,23.375.593,2.291,1.206,4.661,1.882,6.955,2.846,9.658,8.248,16.551,16.057,20.487C79.7,186,106.263,179.3,129.7,173.39c6.353-1.6,12.352-3.114,17.857-4.236,7.378-1.5,15.962-3.063,24.462-2.514,12.779.825,25.723,6.422,38.472,16.637,5.262,4.217,10.169,8.877,14.913,13.384,4.854,4.611,9.874,9.378,15.285,13.681,17.33,13.781,38.333,22.187,59.14,23.67q3.232.23,6.414.23a77.159,77.159,0,0,0,39.2-10.188,71.34,71.34,0,0,0,28.743-31.937c8.071-17.508.485-35.14-6.852-52.191-2.377-5.523-4.621-10.739-6.346-15.939-7.93-23.9,3.339-35.946,18.936-52.624,2.546-2.722,5.178-5.538,7.867-8.554A74.262,74.262,0,0,0,406.82,11.686" transform="translate(0 0)" fill="#ffdde3"/>
      <path id="Path_181742" data-name="Path 181742" d="M1124.346,492.547a359.55,359.55,0,0,1-15.129,36.586,383.122,383.122,0,0,1-72.949,103.3h2.39a384.434,384.434,0,0,0,72.227-102.676q7.543-15.748,13.462-31.908Z" transform="translate(-567.529 -295.962)" fill="#ffdde3"/>
      <path id="Path_181743" data-name="Path 181743" d="M1142.233,568.013q-2.294,5.189-4.753,10.335a391.372,391.372,0,0,1-68.552,99.428h1.769a392.365,392.365,0,0,0,68.034-98.961q1.8-3.76,3.5-7.545Z" transform="translate(-585.415 -341.308)" fill="#ffdde3"/>
      <path id="Path_181744" data-name="Path 181744" d="M1159.9,632.064a401.466,401.466,0,0,1-58.716,84.2h1.733a402.844,402.844,0,0,0,56.982-81.345Z" transform="translate(-603.08 -379.795)" fill="#ffdde3"/>
      <path id="Path_181745" data-name="Path 181745" d="M1178.077,691.455a413.4,413.4,0,0,1-43.7,60.5h1.137a414.433,414.433,0,0,0,42.563-58.776Z" transform="translate(-621.26 -415.483)" fill="#ffdde3"/>
      <path id="Path_181746" data-name="Path 181746" d="M1178.077,691.455a413.4,413.4,0,0,1-43.7,60.5h1.137a414.433,414.433,0,0,0,42.563-58.776Z" transform="translate(-621.26 -415.483)" fill="#ffdde3"/>
      <path id="Path_181747" data-name="Path 181747" d="M1196,745.681q-8.223,12.48-17.369,24.45-5.586,7.3-11.528,14.4h1.125q5.734-6.887,11.153-13.956,8.727-11.406,16.62-23.31Z" transform="translate(-639.183 -448.066)" fill="#ffdde3"/>
      <path id="Path_181748" data-name="Path 181748" d="M1214.211,797.476q-3.564,4.937-7.27,9.79-3.235,4.227-6.585,8.39h1.105q3.163-3.944,6.23-7.943,3.319-4.338,6.52-8.747Z" transform="translate(-657.394 -479.188)" fill="#ffdde3"/>
    </g>
  </g>
</svg>
