<svg xmlns="http://www.w3.org/2000/svg" width="24" height="24" viewBox="0 0 24 24">
  <g id="Arrow" transform="translate(0 0.357)">
    <rect id="Rectangle_456" data-name="Rectangle 456" width="24" height="24" transform="translate(0 -0.357)" fill="#202124" opacity="0"/>
    <g id="noun_Arrow_18123" transform="translate(4 4)">
      <g id="Group_45534" data-name="Group 45534">
        <path id="Path_70632" data-name="Path 70632" d="M30.4,34.031a1.246,1.246,0,0,1,0,1.762l-5.133,5.134H38.76a1.246,1.246,0,1,1,0,2.492H25.266l5.251,5.251a1.246,1.246,0,0,1-1.762,1.762l-7.143-7.144a1.224,1.224,0,0,1-.1-.116,1.243,1.243,0,0,1-.028-1.977l.018-.02,7.143-7.143A1.246,1.246,0,0,1,30.4,34.031Z" transform="translate(-21.006 -33.667)" fill="#202124" stroke="#fff" stroke-width="0.5"/>
      </g>
    </g>
  </g>
</svg>
