<svg xmlns="http://www.w3.org/2000/svg" width="70.398" height="70.402" viewBox="0 0 70.398 70.402">
  <g id="Group_164730" data-name="Group 164730" transform="translate(-731.667 -414.578)">
    <circle id="Ellipse_1986" data-name="Ellipse 1986" cx="25" cy="25" r="25" transform="translate(742 425)" fill="#fff"/>
    <g id="noun-achievement-426743_1_" data-name="noun-achievement-426743 (1)" transform="translate(509.041 369.753)">
      <path id="Path_82381" data-name="Path 82381" d="M288.268,64.7a4.549,4.549,0,0,0-3.728-5.8l-1.794-.276A4.7,4.7,0,0,1,278.88,54.9l-.276-1.8a4.545,4.545,0,0,0-5.936-3.589l-1.8.552a4.585,4.585,0,0,1-5.108-1.8l-1.1-1.519a4.635,4.635,0,0,0-6.9-.691L256.375,47.3a4.6,4.6,0,0,1-5.384.691l-1.656-.828a4.509,4.509,0,0,0-6.489,2.347l-.691,1.656a4.663,4.663,0,0,1-4.556,2.9l-1.519-.275a4.6,4.6,0,0,0-4.833,4.97l.138,1.8a4.48,4.48,0,0,1-2.9,4.556l-1.656.691a4.523,4.523,0,0,0-2.209,6.489l.967,1.519a4.829,4.829,0,0,1-.552,5.384l-1.242,1.381a4.652,4.652,0,0,0,.828,6.9l1.519.967a4.586,4.586,0,0,1,1.8,5.108l-.552,1.8a4.549,4.549,0,0,0,3.728,5.8l1.8.276a4.7,4.7,0,0,1,3.866,3.728l.276,1.8a4.545,4.545,0,0,0,5.936,3.589l1.8-.552a4.585,4.585,0,0,1,5.108,1.8l1.1,1.519a4.635,4.635,0,0,0,6.9.691l1.381-1.242a4.6,4.6,0,0,1,5.384-.691l1.656.828a4.509,4.509,0,0,0,6.489-2.347l.691-1.656a4.663,4.663,0,0,1,4.556-2.9l1.8.138a4.6,4.6,0,0,0,4.833-4.97l-.138-1.8a4.48,4.48,0,0,1,2.9-4.556l1.656-.691a4.523,4.523,0,0,0,2.209-6.489l-1.245-1.382a4.829,4.829,0,0,1,.552-5.384l1.242-1.381a4.652,4.652,0,0,0-.828-6.9L289.51,71.6a4.586,4.586,0,0,1-1.8-5.108Zm-30.512,38.658a23.333,23.333,0,1,1,23.333-23.333A23.393,23.393,0,0,1,257.756,103.359Zm0-41.281a18.086,18.086,0,1,0,18.086,18.086A18.148,18.148,0,0,0,257.756,62.078Zm1.38,22.78L254.994,89l-8.145-8.145,4.142-4.142,4,4,9.527-9.388,4.142,4.142Z" transform="translate(0)" fill="#80cc8c"/>
    </g>
  </g>
</svg>
