<svg xmlns="http://www.w3.org/2000/svg" width="50" height="50" viewBox="0 0 50 50">
  <g id="Group_43673" data-name="Group 43673" transform="translate(-20 -10)">
    <circle id="Ellipse_1162" data-name="Ellipse 1162" cx="25" cy="25" r="25" transform="translate(20 10)" fill="#f45e29"/>
    <path id="Path_53384" data-name="Path 53384" d="M828.347,251.844a1.874,1.874,0,0,0,1.184-1.471l3.946-26.163a1.874,1.874,0,0,0-2.811-1.891L808.36,235.573a1.875,1.875,0,0,0-.238,3.056l5.059,4.188a1.875,1.875,0,0,0,2.391-2.888l-3.01-2.492,16.618-9.875-2.862,18.976-2.943-2.433a1.874,1.874,0,0,0-1.967-.263l-1.834.829,3.5-4.207a1.874,1.874,0,1,0-2.883-2.4l-8.7,10.468a1.874,1.874,0,0,0,2.214,2.906l8.188-3.7,4.6,3.8a1.873,1.873,0,0,0,1.864.306Z" transform="translate(-777.84 -201.818)" fill="#fff"/>
  </g>
</svg>
