<svg id="Group_194277" data-name="Group 194277" xmlns="http://www.w3.org/2000/svg" xmlns:xlink="http://www.w3.org/1999/xlink" width="155.994" height="116" viewBox="0 0 155.994 116">
  <defs>
    <clipPath id="clip-path">
      <rect id="Rectangle_28404" data-name="Rectangle 28404" width="155.994" height="116" rx="8" fill="#ffe766"/>
    </clipPath>
  </defs>
  <g id="Group_179123" data-name="Group 179123" clip-path="url(#clip-path)">
    <path id="Path_127223" data-name="Path 127223" d="M0,419.071a0,0,0,1,0,.01,0,0,0,0,0,0,0,0,0,0,0,0,0,0,0" transform="translate(0 -306.762)" fill="#ffe766"/>
    <path id="Path_127224" data-name="Path 127224" d="M13.531,397.809a.006.006,0,0,0,.006.006.005.005,0,0,0,.005-.006.006.006,0,1,0-.011,0" transform="translate(-9.894 -291.197)" fill="#ffe766"/>
    <path id="Path_127225" data-name="Path 127225" d="M28.343,377.421a.006.006,0,1,0,.006-.006.006.006,0,0,0-.006.006" transform="translate(-20.724 -276.273)" fill="#ffe766"/>
    <path id="Path_127226" data-name="Path 127226" d="M44.477,358.063a.007.007,0,0,0,.014,0,.007.007,0,1,0-.014,0" transform="translate(-32.521 -262.102)" fill="#ffe766"/>
    <path id="Path_127227" data-name="Path 127227" d="M61.971,339.927a.007.007,0,0,0,.008.008.008.008,0,1,0,0-.015.008.008,0,0,0-.008.008" transform="translate(-45.312 -248.826)" fill="#ffe766"/>
    <path id="Path_127228" data-name="Path 127228" d="M80.856,323.246a.008.008,0,1,0,.008-.008.008.008,0,0,0-.008.008" transform="translate(-59.12 -236.614)" fill="#ffe766"/>
    <path id="Path_127229" data-name="Path 127229" d="M101.134,308.293a.009.009,0,1,0,.009-.009.009.009,0,0,0-.009.009" transform="translate(-73.947 -225.668)" fill="#ffe766"/>
    <path id="Path_127230" data-name="Path 127230" d="M123.07,295.951a.01.01,0,1,0,.01-.01.01.01,0,0,0-.01.01" transform="translate(-89.986 -216.633)" fill="#ffe766"/>
    <path id="Path_127231" data-name="Path 127231" d="M146.913,287.876a.01.01,0,1,0,.011-.01.01.01,0,0,0-.011.01" transform="translate(-107.42 -210.722)" fill="#ffe766"/>
    <path id="Path_127232" data-name="Path 127232" d="M171.7,283.417a.011.011,0,1,0,.011-.011.011.011,0,0,0-.011.011" transform="translate(-125.545 -207.457)" fill="#ffe766"/>
    <path id="Path_127233" data-name="Path 127233" d="M196.822,281.461a.012.012,0,0,0,.024,0,.012.012,0,0,0-.024,0" transform="translate(-143.912 -206.024)" fill="#ffe766"/>
    <path id="Path_127234" data-name="Path 127234" d="M222.017,280.926a.013.013,0,1,0,.012-.012.013.013,0,0,0-.012.012" transform="translate(-162.334 -205.633)" fill="#ffe766"/>
    <path id="Path_127235" data-name="Path 127235" d="M247.219,280.84a.013.013,0,1,0,.013-.013.013.013,0,0,0-.013.013" transform="translate(-180.762 -205.569)" fill="#ffe766"/>
    <path id="Path_127236" data-name="Path 127236" d="M272.412,280.252a.014.014,0,1,0,.014-.014.014.014,0,0,0-.014.014" transform="translate(-199.182 -205.138)" fill="#ffe766"/>
    <path id="Path_127237" data-name="Path 127237" d="M297.517,278.12a.015.015,0,1,0,.014-.014.014.014,0,0,0-.014.014" transform="translate(-217.539 -203.577)" fill="#ffe766"/>
    <path id="Path_127238" data-name="Path 127238" d="M322.219,273.221a.015.015,0,1,0,.03,0,.015.015,0,1,0-.03,0" transform="translate(-235.6 -199.99)" fill="#ffe766"/>
    <path id="Path_127239" data-name="Path 127239" d="M345.731,264.258a.016.016,0,1,0,.016-.016.016.016,0,0,0-.016.016" transform="translate(-252.792 -193.429)" fill="#ffe766"/>
    <path id="Path_127240" data-name="Path 127240" d="M366.746,250.446a.017.017,0,1,0,.017-.017.017.017,0,0,0-.017.017" transform="translate(-268.157 -183.317)" fill="#ffe766"/>
    <path id="Path_127241" data-name="Path 127241" d="M384.233,232.345a.017.017,0,0,0,.034,0,.017.017,0,0,0-.034,0" transform="translate(-280.944 -170.067)" fill="#ffe766"/>
    <path id="Path_127242" data-name="Path 127242" d="M398.86,211.838a.018.018,0,1,0,.018-.017.017.017,0,0,0-.018.017" transform="translate(-291.639 -155.056)" fill="#ffe766"/>
    <path id="Path_127243" data-name="Path 127243" d="M411.2,189.87a.018.018,0,1,0,.018-.018.018.018,0,0,0-.018.018" transform="translate(-300.661 -138.974)" fill="#ffe766"/>
    <path id="Path_127244" data-name="Path 127244" d="M421.913,167.058a.019.019,0,1,0,.019-.018.019.019,0,0,0-.019.018" transform="translate(-308.494 -122.275)" fill="#ffe766"/>
    <path id="Path_127245" data-name="Path 127245" d="M431.727,143.844a.019.019,0,0,0,.019.019.019.019,0,0,0,.019-.019.019.019,0,0,0-.019-.019.019.019,0,0,0-.019.019" transform="translate(-315.67 -105.282)" fill="#ffe766"/>
    <path id="Path_127246" data-name="Path 127246" d="M441.368,120.554a.019.019,0,1,0,.019-.019.019.019,0,0,0-.019.019" transform="translate(-322.72 -88.233)" fill="#ffe766"/>
    <path id="Path_127247" data-name="Path 127247" d="M451.561,97.5a.02.02,0,1,0,.02-.02.02.02,0,0,0-.02.02" transform="translate(-330.173 -71.36)" fill="#ffe766"/>
    <path id="Path_127248" data-name="Path 127248" d="M463.046,75.075a.02.02,0,1,0,.02-.02.02.02,0,0,0-.02.02" transform="translate(-338.57 -54.941)" fill="#ffe766"/>
    <path id="Path_127249" data-name="Path 127249" d="M476.546,53.8a.021.021,0,1,0,.021-.021.021.021,0,0,0-.021.021" transform="translate(-348.441 -39.371)" fill="#ffe766"/>
    <path id="Path_127250" data-name="Path 127250" d="M492.643,34.437a.021.021,0,0,0,.042,0,.021.021,0,1,0-.042,0" transform="translate(-360.211 -25.193)" fill="#ffe766"/>
    <path id="Path_127251" data-name="Path 127251" d="M511.553,17.816a.022.022,0,1,0,.021-.021.022.022,0,0,0-.021.021" transform="translate(-374.037 -13.026)" fill="#ffe766"/>
    <path id="Path_127252" data-name="Path 127252" d="M533.583,5.739a.022.022,0,1,0,.022-.022.022.022,0,0,0-.022.022" transform="translate(-390.145 -4.185)" fill="#ffe766"/>
    <path id="Path_127253" data-name="Path 127253" d="M558.061.023a.023.023,0,0,0,.045,0,.023.023,0,0,0-.045,0" transform="translate(-408.043 0)" fill="#ffe766"/>
    <path id="Path_127254" data-name="Path 127254" d="M24.757,412.466a.068.068,0,1,0,.068.068.068.068,0,0,0-.068-.068" transform="translate(-18.052 -301.93)" fill="#ffe766"/>
    <path id="Path_127255" data-name="Path 127255" d="M39.557,392.059a.073.073,0,1,0,.074.073.073.073,0,0,0-.074-.073" transform="translate(-28.869 -286.992)" fill="#ffe766"/>
    <path id="Path_127256" data-name="Path 127256" d="M55.677,372.68a.079.079,0,1,0,.079.079.079.079,0,0,0-.079-.079" transform="translate(-40.652 -272.807)" fill="#ffe766"/>
    <path id="Path_127257" data-name="Path 127257" d="M73.16,354.525a.085.085,0,1,0,.085.085.085.085,0,0,0-.085-.085" transform="translate(-53.431 -259.517)" fill="#ffe766"/>
    <path id="Path_127258" data-name="Path 127258" d="M92.032,337.824a.09.09,0,1,0,.091.09.091.091,0,0,0-.091-.09" transform="translate(-67.225 -247.292)" fill="#ffe766"/>
    <path id="Path_127259" data-name="Path 127259" d="M112.3,322.851a.1.1,0,1,0,.1.1.1.1,0,0,0-.1-.1" transform="translate(-82.039 -236.331)" fill="#ffe766"/>
    <path id="Path_127260" data-name="Path 127260" d="M134.222,310.489a.1.1,0,1,0,.1.1.1.1,0,0,0-.1-.1" transform="translate(-98.066 -227.282)" fill="#ffe766"/>
    <path id="Path_127261" data-name="Path 127261" d="M158.049,302.4a.107.107,0,1,0,.108.107.107.107,0,0,0-.108-.107" transform="translate(-115.484 -221.359)" fill="#ffe766"/>
    <path id="Path_127262" data-name="Path 127262" d="M182.827,297.918a.113.113,0,1,0,.113.113.113.113,0,0,0-.113-.113" transform="translate(-133.597 -218.08)" fill="#ffe766"/>
    <path id="Path_127263" data-name="Path 127263" d="M207.93,295.942a.119.119,0,1,0,.119.118.119.119,0,0,0-.119-.118" transform="translate(-151.947 -216.633)" fill="#ffe766"/>
    <path id="Path_127264" data-name="Path 127264" d="M233.109,295.389a.124.124,0,1,0,.124.124.124.124,0,0,0-.124-.124" transform="translate(-170.354 -216.229)" fill="#ffe766"/>
    <path id="Path_127265" data-name="Path 127265" d="M258.3,295.283a.13.13,0,1,0,.13.13.13.13,0,0,0-.13-.13" transform="translate(-188.77 -216.151)" fill="#ffe766"/>
    <path id="Path_127266" data-name="Path 127266" d="M283.482,294.676a.135.135,0,1,0,.136.135.136.136,0,0,0-.136-.135" transform="translate(-207.177 -215.707)" fill="#ffe766"/>
    <path id="Path_127267" data-name="Path 127267" d="M308.573,292.526a.141.141,0,1,0,.141.141.141.141,0,0,0-.141-.141" transform="translate(-225.519 -214.133)" fill="#ffe766"/>
    <path id="Path_127268" data-name="Path 127268" d="M333.261,287.61a.147.147,0,1,0,.147.147.147.147,0,0,0-.147-.147" transform="translate(-243.566 -210.534)" fill="#ffe766"/>
    <path id="Path_127269" data-name="Path 127269" d="M356.761,278.63a.152.152,0,1,0,.153.152.152.152,0,0,0-.153-.152" transform="translate(-260.745 -203.961)" fill="#ffe766"/>
    <path id="Path_127270" data-name="Path 127270" d="M377.762,264.8a.158.158,0,1,0,.158.158.158.158,0,0,0-.158-.158" transform="translate(-276.097 -193.837)" fill="#ffe766"/>
    <path id="Path_127271" data-name="Path 127271" d="M395.237,246.681a.164.164,0,1,0,.164.163.164.164,0,0,0-.164-.163" transform="translate(-288.87 -180.574)" fill="#ffe766"/>
    <path id="Path_127272" data-name="Path 127272" d="M409.851,226.156a.169.169,0,1,0,.17.169.169.169,0,0,0-.17-.169" transform="translate(-299.551 -165.549)" fill="#ffe766"/>
    <path id="Path_127273" data-name="Path 127273" d="M422.177,204.168a.175.175,0,1,0,.175.175.175.175,0,0,0-.175-.175" transform="translate(-308.56 -149.454)" fill="#ffe766"/>
    <path id="Path_127274" data-name="Path 127274" d="M432.878,181.339a.18.18,0,1,0,.181.18.181.181,0,0,0-.181-.18" transform="translate(-316.379 -132.743)" fill="#ffe766"/>
    <path id="Path_127275" data-name="Path 127275" d="M442.677,158.1a.186.186,0,1,0,.187.186.187.187,0,0,0-.187-.186" transform="translate(-323.541 -115.735)" fill="#ffe766"/>
    <path id="Path_127276" data-name="Path 127276" d="M452.3,134.8a.192.192,0,1,0,.192.192.192.192,0,0,0-.192-.192" transform="translate(-330.575 -98.674)" fill="#ffe766"/>
    <path id="Path_127277" data-name="Path 127277" d="M462.484,111.728a.2.2,0,1,0,.2.2.2.2,0,0,0-.2-.2" transform="translate(-338.014 -81.786)" fill="#ffe766"/>
    <path id="Path_127278" data-name="Path 127278" d="M473.953,89.277a.2.2,0,1,0,.2.2.2.2,0,0,0-.2-.2" transform="translate(-346.397 -65.352)" fill="#ffe766"/>
    <path id="Path_127279" data-name="Path 127279" d="M487.436,67.989a.208.208,0,1,0,.209.208.209.209,0,0,0-.209-.208" transform="translate(-356.251 -49.769)" fill="#ffe766"/>
    <path id="Path_127280" data-name="Path 127280" d="M503.519,48.6a.214.214,0,1,0,.215.214.215.215,0,0,0-.215-.214" transform="translate(-368.006 -35.576)" fill="#ffe766"/>
    <path id="Path_127281" data-name="Path 127281" d="M522.411,31.958a.22.22,0,1,0,.22.22.22.22,0,0,0-.22-.22" transform="translate(-381.816 -23.394)" fill="#ffe766"/>
    <path id="Path_127282" data-name="Path 127282" d="M544.428,19.856a.225.225,0,1,0,.226.225.226.226,0,0,0-.226-.225" transform="translate(-397.91 -14.535)" fill="#ffe766"/>
    <path id="Path_127283" data-name="Path 127283" d="M568.892,14.115a.231.231,0,1,0,.232.231.231.231,0,0,0-.232-.231" transform="translate(-415.793 -10.332)" fill="#ffe766"/>
    <path id="Path_127284" data-name="Path 127284" d="M35.9,427.011a.161.161,0,1,0,.162.161.161.161,0,0,0-.162-.161" transform="translate(-26.128 -312.578)" fill="#ffe766"/>
    <path id="Path_127285" data-name="Path 127285" d="M50.686,406.589a.17.17,0,1,0,.171.17.17.17,0,0,0-.171-.17" transform="translate(-36.936 -297.628)" fill="#ffe766"/>
    <path id="Path_127286" data-name="Path 127286" d="M66.8,387.2a.179.179,0,1,0,.18.179.18.18,0,0,0-.18-.179" transform="translate(-48.709 -283.434)" fill="#ffe766"/>
    <path id="Path_127287" data-name="Path 127287" d="M84.269,369.029a.189.189,0,1,0,.189.189.189.189,0,0,0-.189-.189" transform="translate(-61.478 -270.134)" fill="#ffe766"/>
    <path id="Path_127288" data-name="Path 127288" d="M103.131,352.315a.2.2,0,1,0,.2.2.2.2,0,0,0-.2-.2" transform="translate(-75.263 -257.899)" fill="#ffe766"/>
    <path id="Path_127289" data-name="Path 127289" d="M123.387,337.328a.207.207,0,1,0,.208.207.207.207,0,0,0-.208-.207" transform="translate(-90.066 -246.928)" fill="#ffe766"/>
    <path id="Path_127290" data-name="Path 127290" d="M145.3,324.953a.216.216,0,1,0,.217.216.217.217,0,0,0-.217-.216" transform="translate(-106.083 -237.87)" fill="#ffe766"/>
    <path id="Path_127291" data-name="Path 127291" d="M169.12,316.848a.226.226,0,1,0,.226.225.226.226,0,0,0-.226-.225" transform="translate(-123.492 -231.937)" fill="#ffe766"/>
    <path id="Path_127292" data-name="Path 127292" d="M193.888,312.355a.235.235,0,1,0,.235.235.235.235,0,0,0-.235-.235" transform="translate(-141.595 -228.648)" fill="#ffe766"/>
    <path id="Path_127293" data-name="Path 127293" d="M218.981,310.366a.244.244,0,1,0,.245.244.244.244,0,0,0-.245-.244" transform="translate(-159.935 -227.192)" fill="#ffe766"/>
    <path id="Path_127294" data-name="Path 127294" d="M244.151,309.8a.253.253,0,1,0,.254.253.253.253,0,0,0-.254-.253" transform="translate(-178.333 -226.777)" fill="#ffe766"/>
    <path id="Path_127295" data-name="Path 127295" d="M269.331,309.68a.262.262,0,1,0,.263.262.263.263,0,0,0-.263-.262" transform="translate(-196.737 -226.69)" fill="#ffe766"/>
    <path id="Path_127296" data-name="Path 127296" d="M294.5,309.06a.271.271,0,1,0,.272.271.272.272,0,0,0-.272-.271" transform="translate(-215.136 -226.236)" fill="#ffe766"/>
    <path id="Path_127297" data-name="Path 127297" d="M319.585,306.9a.281.281,0,1,0,.281.281.281.281,0,0,0-.281-.281" transform="translate(-233.469 -224.653)" fill="#ffe766"/>
    <path id="Path_127298" data-name="Path 127298" d="M344.263,301.967a.29.29,0,1,0,.291.29.29.29,0,0,0-.291-.29" transform="translate(-251.506 -221.044)" fill="#ffe766"/>
    <path id="Path_127299" data-name="Path 127299" d="M367.753,292.973a.3.3,0,1,0,.3.3.3.3,0,0,0-.3-.3" transform="translate(-268.674 -214.46)" fill="#ffe766"/>
    <path id="Path_127300" data-name="Path 127300" d="M388.745,279.13a.308.308,0,1,0,.309.308.309.309,0,0,0-.309-.308" transform="translate(-284.017 -204.327)" fill="#ffe766"/>
    <path id="Path_127301" data-name="Path 127301" d="M406.21,261a.317.317,0,1,0,.319.318.318.318,0,0,0-.319-.318" transform="translate(-296.779 -191.055)" fill="#ffe766"/>
    <path id="Path_127302" data-name="Path 127302" d="M420.814,240.46a.327.327,0,1,0,.328.327.327.327,0,0,0-.328-.327" transform="translate(-307.451 -176.02)" fill="#ffe766"/>
    <path id="Path_127303" data-name="Path 127303" d="M433.131,218.459a.336.336,0,1,0,.337.336.336.336,0,0,0-.337-.336" transform="translate(-316.45 -159.915)" fill="#ffe766"/>
    <path id="Path_127304" data-name="Path 127304" d="M443.821,195.616a.345.345,0,1,0,.346.345.346.346,0,0,0-.346-.345" transform="translate(-324.26 -143.193)" fill="#ffe766"/>
    <path id="Path_127305" data-name="Path 127305" d="M453.611,172.37a.354.354,0,1,0,.355.354.355.355,0,0,0-.355-.354" transform="translate(-331.412 -126.177)" fill="#ffe766"/>
    <path id="Path_127306" data-name="Path 127306" d="M463.228,149.049a.363.363,0,1,0,.365.363.364.364,0,0,0-.365-.363" transform="translate(-338.437 -109.106)" fill="#ffe766"/>
    <path id="Path_127307" data-name="Path 127307" d="M473.4,125.964a.373.373,0,1,0,.374.373.373.373,0,0,0-.374-.373" transform="translate(-345.866 -92.207)" fill="#ffe766"/>
    <path id="Path_127308" data-name="Path 127308" d="M484.858,103.5a.382.382,0,1,0,.383.382.383.383,0,0,0-.383-.382" transform="translate(-354.239 -75.764)" fill="#ffe766"/>
    <path id="Path_127309" data-name="Path 127309" d="M498.331,82.2a.391.391,0,1,0,.392.391.392.392,0,0,0-.392-.391" transform="translate(-364.083 -60.171)" fill="#ffe766"/>
    <path id="Path_127310" data-name="Path 127310" d="M514.4,62.8a.4.4,0,1,0,.4.4.4.4,0,0,0-.4-.4" transform="translate(-375.828 -45.968)" fill="#ffe766"/>
    <path id="Path_127311" data-name="Path 127311" d="M533.287,46.141a.409.409,0,1,0,.411.409.41.41,0,0,0-.411-.409" transform="translate(-389.628 -33.776)" fill="#ffe766"/>
    <path id="Path_127312" data-name="Path 127312" d="M555.294,34.026a.419.419,0,1,0,.42.419.419.419,0,0,0-.42-.419" transform="translate(-405.713 -24.907)" fill="#ffe766"/>
    <path id="Path_127313" data-name="Path 127313" d="M579.318,28.792a.428.428,0,0,0,.262.394V28.4a.428.428,0,0,0-.262.394" transform="translate(-423.586 -20.788)" fill="#ffe766"/>
    <path id="Path_127314" data-name="Path 127314" d="M61.737,421.014a.3.3,0,1,0,.3.3.3.3,0,0,0-.3-.3" transform="translate(-44.924 -308.188)" fill="#ffe766"/>
    <path id="Path_127315" data-name="Path 127315" d="M77.842,401.615a.307.307,0,1,0,.308.307.307.307,0,0,0-.308-.307" transform="translate(-56.691 -293.987)" fill="#ffe766"/>
    <path id="Path_127316" data-name="Path 127316" d="M95.309,383.438a.318.318,0,1,0,.319.318.319.319,0,0,0-.319-.318" transform="translate(-69.455 -280.682)" fill="#ffe766"/>
    <path id="Path_127317" data-name="Path 127317" d="M114.166,366.716a.329.329,0,1,0,.33.329.33.33,0,0,0-.33-.329" transform="translate(-83.235 -268.441)" fill="#ffe766"/>
    <path id="Path_127318" data-name="Path 127318" d="M134.416,351.721a.341.341,0,1,0,.342.341.341.341,0,0,0-.342-.341" transform="translate(-98.032 -257.464)" fill="#ffe766"/>
    <path id="Path_127319" data-name="Path 127319" d="M156.324,339.338a.352.352,0,1,0,.353.352.353.353,0,0,0-.353-.352" transform="translate(-114.043 -248.4)" fill="#ffe766"/>
    <path id="Path_127320" data-name="Path 127320" d="M180.136,331.226a.363.363,0,1,0,.365.363.364.364,0,0,0-.365-.363" transform="translate(-131.446 -242.462)" fill="#ffe766"/>
    <path id="Path_127321" data-name="Path 127321" d="M204.9,326.725a.375.375,0,1,0,.376.375.375.375,0,0,0-.376-.375" transform="translate(-149.543 -239.167)" fill="#ffe766"/>
    <path id="Path_127322" data-name="Path 127322" d="M229.986,324.728a.386.386,0,1,0,.387.386.387.387,0,0,0-.387-.386" transform="translate(-167.878 -237.705)" fill="#ffe766"/>
    <path id="Path_127323" data-name="Path 127323" d="M255.15,324.153a.4.4,0,1,0,.4.4.4.4,0,0,0-.4-.4" transform="translate(-186.27 -237.284)" fill="#ffe766"/>
    <path id="Path_127324" data-name="Path 127324" d="M280.326,324.026a.409.409,0,1,0,.41.408.409.409,0,0,0-.41-.408" transform="translate(-204.669 -237.191)" fill="#ffe766"/>
    <path id="Path_127325" data-name="Path 127325" d="M305.491,323.4a.42.42,0,1,0,.421.42.421.421,0,0,0-.421-.42" transform="translate(-223.061 -236.732)" fill="#ffe766"/>
    <path id="Path_127326" data-name="Path 127326" d="M330.568,321.227a.431.431,0,1,0,.433.431.432.432,0,0,0-.433-.431" transform="translate(-241.388 -235.142)" fill="#ffe766"/>
    <path id="Path_127327" data-name="Path 127327" d="M355.24,316.289a.442.442,0,1,0,.444.442.443.443,0,0,0-.444-.442" transform="translate(-259.42 -231.528)" fill="#ffe766"/>
    <path id="Path_127328" data-name="Path 127328" d="M378.723,307.287a.454.454,0,1,0,.455.454.455.455,0,0,0-.455-.454" transform="translate(-276.582 -224.938)" fill="#ffe766"/>
    <path id="Path_127329" data-name="Path 127329" d="M399.71,293.437a.465.465,0,1,0,.467.465.466.466,0,0,0-.467-.465" transform="translate(-291.919 -214.8)" fill="#ffe766"/>
    <path id="Path_127330" data-name="Path 127330" d="M417.169,275.3a.476.476,0,1,0,.478.477.477.477,0,0,0-.478-.477" transform="translate(-304.676 -201.521)" fill="#ffe766"/>
    <path id="Path_127331" data-name="Path 127331" d="M431.767,254.75a.488.488,0,1,0,.489.488.489.489,0,0,0-.489-.488" transform="translate(-315.342 -186.48)" fill="#ffe766"/>
    <path id="Path_127332" data-name="Path 127332" d="M444.079,232.742a.5.5,0,1,0,.5.5.5.5,0,0,0-.5-.5" transform="translate(-324.335 -170.37)" fill="#ffe766"/>
    <path id="Path_127333" data-name="Path 127333" d="M454.763,209.891a.511.511,0,1,0,.512.51.511.511,0,0,0-.512-.51" transform="translate(-332.139 -153.643)" fill="#ffe766"/>
    <path id="Path_127334" data-name="Path 127334" d="M464.547,186.636a.522.522,0,1,0,.523.522.523.523,0,0,0-.523-.522" transform="translate(-339.285 -136.62)" fill="#ffe766"/>
    <path id="Path_127335" data-name="Path 127335" d="M474.159,163.308a.533.533,0,1,0,.535.533.534.534,0,0,0-.535-.533" transform="translate(-346.305 -119.544)" fill="#ffe766"/>
    <path id="Path_127336" data-name="Path 127336" d="M484.323,140.215a.544.544,0,1,0,.546.544.545.545,0,0,0-.546-.544" transform="translate(-353.728 -102.639)" fill="#ffe766"/>
    <path id="Path_127337" data-name="Path 127337" d="M495.776,117.744a.556.556,0,1,0,.558.556.557.557,0,0,0-.558-.556" transform="translate(-362.094 -86.19)" fill="#ffe766"/>
    <path id="Path_127338" data-name="Path 127338" d="M509.244,96.435a.567.567,0,1,0,.569.567.568.568,0,0,0-.569-.567" transform="translate(-371.933 -70.592)" fill="#ffe766"/>
    <path id="Path_127339" data-name="Path 127339" d="M525.311,77.025a.578.578,0,1,0,.58.578.579.579,0,0,0-.58-.578" transform="translate(-383.673 -56.383)" fill="#ffe766"/>
    <path id="Path_127340" data-name="Path 127340" d="M544.188,60.36a.59.59,0,1,0,.592.59.59.59,0,0,0-.592-.59" transform="translate(-397.467 -44.184)" fill="#ffe766"/>
    <path id="Path_127341" data-name="Path 127341" d="M566.19,48.237a.6.6,0,1,0,.6.6.6.6,0,0,0-.6-.6" transform="translate(-413.546 -35.31)" fill="#ffe766"/>
    <path id="Path_127342" data-name="Path 127342" d="M88.814,415.93a.461.461,0,1,0,.462.461.462.462,0,0,0-.462-.461" transform="translate(-64.601 -304.466)" fill="#ffe766"/>
    <path id="Path_127343" data-name="Path 127343" d="M106.279,397.751a.473.473,0,1,0,.474.473.474.474,0,0,0-.474-.473" transform="translate(-77.363 -291.159)" fill="#ffe766"/>
    <path id="Path_127344" data-name="Path 127344" d="M125.134,381.027a.485.485,0,1,0,.487.485.486.486,0,0,0-.487-.485" transform="translate(-91.139 -278.917)" fill="#ffe766"/>
    <path id="Path_127345" data-name="Path 127345" d="M145.382,366.03a.5.5,0,1,0,.5.5.5.5,0,0,0-.5-.5" transform="translate(-105.936 -267.939)" fill="#ffe766"/>
    <path id="Path_127346" data-name="Path 127346" d="M167.289,353.644a.509.509,0,1,0,.51.509.51.51,0,0,0-.51-.509" transform="translate(-121.945 -258.872)" fill="#ffe766"/>
    <path id="Path_127347" data-name="Path 127347" d="M191.1,345.529a.521.521,0,1,0,.523.521.522.522,0,0,0-.523-.521" transform="translate(-139.346 -252.932)" fill="#ffe766"/>
    <path id="Path_127348" data-name="Path 127348" d="M215.86,341.026a.533.533,0,1,0,.534.533.534.534,0,0,0-.534-.533" transform="translate(-157.442 -249.635)" fill="#ffe766"/>
    <path id="Path_127349" data-name="Path 127349" d="M240.945,339.026a.545.545,0,1,0,.547.545.546.546,0,0,0-.547-.545" transform="translate(-175.775 -248.171)" fill="#ffe766"/>
    <path id="Path_127350" data-name="Path 127350" d="M266.108,338.449a.557.557,0,1,0,.559.557.558.558,0,0,0-.559-.557" transform="translate(-194.164 -247.749)" fill="#ffe766"/>
    <path id="Path_127351" data-name="Path 127351" d="M291.282,338.319a.569.569,0,1,0,.57.569.57.57,0,0,0-.57-.569" transform="translate(-212.563 -247.654)" fill="#ffe766"/>
    <path id="Path_127352" data-name="Path 127352" d="M316.445,337.689a.581.581,0,1,0,.583.581.582.582,0,0,0-.583-.581" transform="translate(-230.953 -247.193)" fill="#ffe766"/>
    <path id="Path_127353" data-name="Path 127353" d="M341.52,335.516a.593.593,0,1,0,.595.592.594.594,0,0,0-.595-.592" transform="translate(-249.278 -245.602)" fill="#ffe766"/>
    <path id="Path_127354" data-name="Path 127354" d="M366.19,330.575a.6.6,0,1,0,.606.6.606.606,0,0,0-.606-.6" transform="translate(-267.308 -241.985)" fill="#ffe766"/>
    <path id="Path_127355" data-name="Path 127355" d="M389.673,321.571a.617.617,0,1,0,.619.617.618.618,0,0,0-.619-.617" transform="translate(-284.469 -235.394)" fill="#ffe766"/>
    <path id="Path_127356" data-name="Path 127356" d="M410.657,307.718a.629.629,0,1,0,.631.629.63.63,0,0,0-.631-.629" transform="translate(-299.803 -225.254)" fill="#ffe766"/>
    <path id="Path_127357" data-name="Path 127357" d="M428.114,289.576a.641.641,0,1,0,.642.64.642.642,0,0,0-.642-.64" transform="translate(-312.558 -211.973)" fill="#ffe766"/>
    <path id="Path_127358" data-name="Path 127358" d="M442.711,269.027a.653.653,0,1,0,.655.653.653.653,0,0,0-.655-.653" transform="translate(-323.223 -196.931)" fill="#ffe766"/>
    <path id="Path_127359" data-name="Path 127359" d="M455.02,247.016a.665.665,0,1,0,.667.665.666.666,0,0,0-.667-.665" transform="translate(-332.214 -180.819)" fill="#ffe766"/>
    <path id="Path_127360" data-name="Path 127360" d="M465.7,224.163a.677.677,0,1,0,.679.676.678.678,0,0,0-.679-.676" transform="translate(-340.016 -164.09)" fill="#ffe766"/>
    <path id="Path_127361" data-name="Path 127361" d="M475.486,200.9a.689.689,0,1,0,.691.688.689.689,0,0,0-.691-.688" transform="translate(-347.161 -147.065)" fill="#ffe766"/>
    <path id="Path_127362" data-name="Path 127362" d="M485.095,177.574a.7.7,0,1,0,.7.7.7.7,0,0,0-.7-.7" transform="translate(-354.178 -129.986)" fill="#ffe766"/>
    <path id="Path_127363" data-name="Path 127363" d="M495.257,154.48a.712.712,0,1,0,.715.712.714.714,0,0,0-.715-.712" transform="translate(-361.599 -113.081)" fill="#ffe766"/>
    <path id="Path_127364" data-name="Path 127364" d="M506.71,132.006a.724.724,0,1,0,.727.724.725.725,0,0,0-.727-.724" transform="translate(-369.965 -96.63)" fill="#ffe766"/>
    <path id="Path_127365" data-name="Path 127365" d="M520.175,110.694a.736.736,0,1,0,.739.736.737.737,0,0,0-.739-.736" transform="translate(-379.801 -81.029)" fill="#ffe766"/>
    <path id="Path_127366" data-name="Path 127366" d="M536.24,91.282a.748.748,0,1,0,.751.748.75.75,0,0,0-.751-.748" transform="translate(-391.539 -66.82)" fill="#ffe766"/>
    <path id="Path_127367" data-name="Path 127367" d="M555.117,74.615a.76.76,0,1,0,.763.76.761.761,0,0,0-.763-.76" transform="translate(-405.333 -54.619)" fill="#ffe766"/>
    <path id="Path_127368" data-name="Path 127368" d="M577.115,62.49a.772.772,0,1,0,.288,1.488V62.547a.773.773,0,0,0-.288-.057" transform="translate(-421.408 -45.743)" fill="#ffe766"/>
    <path id="Path_127369" data-name="Path 127369" d="M99.712,430.146a.643.643,0,0,0-.644.642.624.624,0,0,0,.009.084h1.272a.624.624,0,0,0,.009-.084.643.643,0,0,0-.644-.642" transform="translate(-72.437 -314.872)" fill="#ffe766"/>
    <path id="Path_127370" data-name="Path 127370" d="M117.18,411.969a.653.653,0,1,0,.655.653.655.655,0,0,0-.655-.653" transform="translate(-85.2 -301.567)" fill="#ffe766"/>
    <path id="Path_127371" data-name="Path 127371" d="M136.037,395.248a.665.665,0,1,0,.667.665.666.666,0,0,0-.667-.665" transform="translate(-98.98 -289.327)" fill="#ffe766"/>
    <path id="Path_127372" data-name="Path 127372" d="M156.287,380.254a.676.676,0,1,0,.678.676.677.677,0,0,0-.678-.676" transform="translate(-113.778 -278.351)" fill="#ffe766"/>
    <path id="Path_127373" data-name="Path 127373" d="M178.2,367.871a.687.687,0,1,0,.689.687.688.688,0,0,0-.689-.687" transform="translate(-129.79 -269.286)" fill="#ffe766"/>
    <path id="Path_127374" data-name="Path 127374" d="M202.009,359.759a.7.7,0,1,0,.7.7.7.7,0,0,0-.7-.7" transform="translate(-147.193 -263.348)" fill="#ffe766"/>
    <path id="Path_127375" data-name="Path 127375" d="M226.772,355.259a.709.709,0,1,0,.712.709.71.71,0,0,0-.712-.709" transform="translate(-165.291 -260.054)" fill="#ffe766"/>
    <path id="Path_127376" data-name="Path 127376" d="M251.859,353.262a.72.72,0,1,0,.723.72.722.722,0,0,0-.723-.72" transform="translate(-183.626 -258.592)" fill="#ffe766"/>
    <path id="Path_127377" data-name="Path 127377" d="M277.024,352.688a.732.732,0,1,0,.734.732.733.733,0,0,0-.734-.732" transform="translate(-202.018 -258.172)" fill="#ffe766"/>
    <path id="Path_127378" data-name="Path 127378" d="M302.2,352.562a.743.743,0,1,0,.745.743.744.744,0,0,0-.745-.743" transform="translate(-220.418 -258.08)" fill="#ffe766"/>
    <path id="Path_127379" data-name="Path 127379" d="M327.365,351.934a.754.754,0,1,0,.756.754.755.755,0,0,0-.756-.754" transform="translate(-238.81 -257.62)" fill="#ffe766"/>
    <path id="Path_127380" data-name="Path 127380" d="M352.442,349.764a.765.765,0,1,0,.767.765.766.766,0,0,0-.767-.765" transform="translate(-257.138 -256.032)" fill="#ffe766"/>
    <path id="Path_127381" data-name="Path 127381" d="M377.115,344.827a.776.776,0,1,0,.779.776.778.778,0,0,0-.779-.776" transform="translate(-275.169 -252.418)" fill="#ffe766"/>
    <path id="Path_127382" data-name="Path 127382" d="M400.6,335.825a.787.787,0,1,0,.79.788.789.789,0,0,0-.79-.788" transform="translate(-292.332 -245.828)" fill="#ffe766"/>
    <path id="Path_127383" data-name="Path 127383" d="M421.586,321.975a.8.8,0,1,0,.8.8.8.8,0,0,0-.8-.8" transform="translate(-307.67 -235.69)" fill="#ffe766"/>
    <path id="Path_127384" data-name="Path 127384" d="M439.045,303.836a.81.81,0,1,0,.812.81.811.811,0,0,0-.812-.81" transform="translate(-320.427 -222.412)" fill="#ffe766"/>
    <path id="Path_127385" data-name="Path 127385" d="M453.644,283.29a.821.821,0,1,0,.824.821.822.822,0,0,0-.824-.821" transform="translate(-331.093 -207.372)" fill="#ffe766"/>
    <path id="Path_127386" data-name="Path 127386" d="M465.956,261.282a.832.832,0,1,0,.835.832.833.833,0,0,0-.835-.832" transform="translate(-340.087 -191.262)" fill="#ffe766"/>
    <path id="Path_127387" data-name="Path 127387" d="M476.641,238.432a.843.843,0,1,0,.846.843.845.845,0,0,0-.846-.843" transform="translate(-347.892 -174.535)" fill="#ffe766"/>
    <path id="Path_127388" data-name="Path 127388" d="M486.425,215.177a.855.855,0,1,0,.857.855.856.856,0,0,0-.857-.855" transform="translate(-355.038 -157.512)" fill="#ffe766"/>
    <path id="Path_127389" data-name="Path 127389" d="M496.036,191.85a.866.866,0,1,0,.868.866.867.867,0,0,0-.868-.866" transform="translate(-362.057 -140.437)" fill="#ffe766"/>
    <path id="Path_127390" data-name="Path 127390" d="M506.2,168.758a.877.877,0,1,0,.88.877.878.878,0,0,0-.88-.877" transform="translate(-369.481 -123.533)" fill="#ffe766"/>
    <path id="Path_127391" data-name="Path 127391" d="M517.656,146.287a.888.888,0,1,0,.891.888.89.89,0,0,0-.891-.888" transform="translate(-377.848 -107.084)" fill="#ffe766"/>
    <path id="Path_127392" data-name="Path 127392" d="M531.123,124.978a.9.9,0,1,0,.9.9.9.9,0,0,0-.9-.9" transform="translate(-387.687 -91.486)" fill="#ffe766"/>
    <path id="Path_127393" data-name="Path 127393" d="M547.191,105.568a.91.91,0,1,0,.913.91.912.912,0,0,0-.913-.91" transform="translate(-399.428 -77.277)" fill="#ffe766"/>
    <path id="Path_127394" data-name="Path 127394" d="M566.069,88.9a.922.922,0,1,0,.925.922.923.923,0,0,0-.925-.922" transform="translate(-413.223 -65.08)" fill="#ffe766"/>
    <path id="Path_127395" data-name="Path 127395" d="M128.011,426.092a.86.86,0,1,0,.862.86.861.861,0,0,0-.862-.86" transform="translate(-92.969 -311.905)" fill="#ffe766"/>
    <path id="Path_127396" data-name="Path 127396" d="M146.874,409.379a.868.868,0,1,0,.871.868.87.87,0,0,0-.871-.868" transform="translate(-106.754 -299.671)" fill="#ffe766"/>
    <path id="Path_127397" data-name="Path 127397" d="M167.13,394.394a.877.877,0,1,0,.88.877.879.879,0,0,0-.88-.877" transform="translate(-121.559 -288.702)" fill="#ffe766"/>
    <path id="Path_127398" data-name="Path 127398" d="M189.046,382.02a.886.886,0,1,0,.889.886.888.888,0,0,0-.889-.886" transform="translate(-137.577 -279.644)" fill="#ffe766"/>
    <path id="Path_127399" data-name="Path 127399" d="M212.865,373.916a.9.9,0,1,0,.9.9.9.9,0,0,0-.9-.9" transform="translate(-154.986 -273.711)" fill="#ffe766"/>
    <path id="Path_127400" data-name="Path 127400" d="M237.633,369.424a.9.9,0,1,0,.907.9.906.906,0,0,0-.907-.9" transform="translate(-173.089 -270.423)" fill="#ffe766"/>
    <path id="Path_127401" data-name="Path 127401" d="M262.727,367.436a.913.913,0,1,0,.916.913.914.914,0,0,0-.916-.913" transform="translate(-191.431 -268.968)" fill="#ffe766"/>
    <path id="Path_127402" data-name="Path 127402" d="M287.9,366.87a.922.922,0,1,0,.925.922.923.923,0,0,0-.925-.922" transform="translate(-209.829 -268.554)" fill="#ffe766"/>
    <path id="Path_127403" data-name="Path 127403" d="M313.081,366.752a.931.931,0,1,0,.934.931.932.932,0,0,0-.934-.931" transform="translate(-228.236 -268.467)" fill="#ffe766"/>
    <path id="Path_127404" data-name="Path 127404" d="M338.252,366.133a.94.94,0,1,0,.943.94.941.941,0,0,0-.943-.94" transform="translate(-246.634 -268.014)" fill="#ffe766"/>
    <path id="Path_127405" data-name="Path 127405" d="M363.335,363.971a.949.949,0,1,0,.952.949.95.95,0,0,0-.952-.949" transform="translate(-264.967 -266.432)" fill="#ffe766"/>
    <path id="Path_127406" data-name="Path 127406" d="M388.013,359.042a.958.958,0,1,0,.96.957.959.959,0,0,0-.96-.957" transform="translate(-283.006 -262.823)" fill="#ffe766"/>
    <path id="Path_127407" data-name="Path 127407" d="M411.5,350.049a.966.966,0,1,0,.969.966.968.968,0,0,0-.969-.966" transform="translate(-300.175 -256.24)" fill="#ffe766"/>
    <path id="Path_127408" data-name="Path 127408" d="M432.5,336.208a.975.975,0,1,0,.979.975.977.977,0,0,0-.979-.975" transform="translate(-315.518 -246.109)" fill="#ffe766"/>
    <path id="Path_127409" data-name="Path 127409" d="M449.962,318.077a.984.984,0,1,0,.987.984.986.986,0,0,0-.987-.984" transform="translate(-328.282 -232.837)" fill="#ffe766"/>
    <path id="Path_127410" data-name="Path 127410" d="M464.567,297.54a.993.993,0,1,0,1,.993.995.995,0,0,0-1-.993" transform="translate(-338.954 -217.803)" fill="#ffe766"/>
    <path id="Path_127411" data-name="Path 127411" d="M476.885,275.54a1,1,0,1,0,1.005,1,1,1,0,0,0-1.005-1" transform="translate(-347.954 -201.699)" fill="#ffe766"/>
    <path id="Path_127412" data-name="Path 127412" d="M487.577,252.7a1.011,1.011,0,1,0,1.014,1.011,1.012,1.012,0,0,0-1.014-1.011" transform="translate(-355.765 -184.978)" fill="#ffe766"/>
    <path id="Path_127413" data-name="Path 127413" d="M497.367,229.452a1.02,1.02,0,1,0,1.023,1.02,1.022,1.022,0,0,0-1.023-1.02" transform="translate(-362.917 -167.962)" fill="#ffe766"/>
    <path id="Path_127414" data-name="Path 127414" d="M506.985,206.133a1.029,1.029,0,1,0,1.032,1.029,1.03,1.03,0,0,0-1.032-1.029" transform="translate(-369.943 -150.892)" fill="#ffe766"/>
    <path id="Path_127415" data-name="Path 127415" d="M517.156,183.049a1.038,1.038,0,1,0,1.041,1.038,1.039,1.039,0,0,0-1.041-1.038" transform="translate(-377.373 -133.994)" fill="#ffe766"/>
    <path id="Path_127416" data-name="Path 127416" d="M528.617,160.587a1.047,1.047,0,1,0,1.05,1.046,1.048,1.048,0,0,0-1.05-1.046" transform="translate(-385.747 -117.552)" fill="#ffe766"/>
    <path id="Path_127417" data-name="Path 127417" d="M542.09,139.287a1.055,1.055,0,1,0,1.059,1.056,1.058,1.058,0,0,0-1.059-1.056" transform="translate(-395.591 -101.96)" fill="#ffe766"/>
    <path id="Path_127418" data-name="Path 127418" d="M558.164,119.886a1.064,1.064,0,1,0,1.068,1.064,1.066,1.066,0,0,0-1.068-1.064" transform="translate(-407.338 -87.758)" fill="#ffe766"/>
    <path id="Path_127419" data-name="Path 127419" d="M577.049,103.23a1.073,1.073,0,1,0,0,2.147c.029,0,.057-.006.085-.009v-2.129c-.029,0-.056-.009-.085-.009" transform="translate(-421.139 -75.566)" fill="#ffe766"/>
    <path id="Path_127420" data-name="Path 127420" d="M157.646,423.42a1.1,1.1,0,1,0,1.1,1.1,1.1,1.1,0,0,0-1.1-1.1" transform="translate(-114.463 -309.949)" fill="#ffe766"/>
    <path id="Path_127421" data-name="Path 127421" d="M177.912,408.449a1.1,1.1,0,1,0,1.1,1.1,1.1,1.1,0,0,0-1.1-1.1" transform="translate(-129.278 -298.99)" fill="#ffe766"/>
    <path id="Path_127422" data-name="Path 127422" d="M199.837,396.088a1.107,1.107,0,1,0,1.11,1.107,1.108,1.108,0,0,0-1.11-1.107" transform="translate(-145.305 -289.942)" fill="#ffe766"/>
    <path id="Path_127423" data-name="Path 127423" d="M223.666,388a1.112,1.112,0,1,0,1.115,1.112A1.114,1.114,0,0,0,223.666,388" transform="translate(-162.725 -284.02)" fill="#ffe766"/>
    <path id="Path_127424" data-name="Path 127424" d="M248.445,383.521a1.117,1.117,0,1,0,1.12,1.117,1.119,1.119,0,0,0-1.12-1.117" transform="translate(-180.839 -280.742)" fill="#ffe766"/>
    <path id="Path_127425" data-name="Path 127425" d="M273.549,381.546a1.122,1.122,0,1,0,1.126,1.122,1.124,1.124,0,0,0-1.126-1.122" transform="translate(-199.19 -279.297)" fill="#ffe766"/>
    <path id="Path_127426" data-name="Path 127426" d="M298.73,380.995a1.127,1.127,0,1,0,1.131,1.127,1.129,1.129,0,0,0-1.131-1.127" transform="translate(-217.599 -278.893)" fill="#ffe766"/>
    <path id="Path_127427" data-name="Path 127427" d="M323.923,380.891a1.133,1.133,0,1,0,1.136,1.133,1.134,1.134,0,0,0-1.136-1.133" transform="translate(-236.015 -278.817)" fill="#ffe766"/>
    <path id="Path_127428" data-name="Path 127428" d="M349.1,380.286a1.138,1.138,0,1,0,1.141,1.138,1.14,1.14,0,0,0-1.141-1.138" transform="translate(-254.424 -278.374)" fill="#ffe766"/>
    <path id="Path_127429" data-name="Path 127429" d="M374.2,378.138a1.143,1.143,0,1,0,1.147,1.143,1.145,1.145,0,0,0-1.147-1.143" transform="translate(-272.768 -276.802)" fill="#ffe766"/>
    <path id="Path_127430" data-name="Path 127430" d="M398.887,373.222a1.148,1.148,0,1,0,1.152,1.148,1.15,1.15,0,0,0-1.152-1.148" transform="translate(-290.816 -273.203)" fill="#ffe766"/>
    <path id="Path_127431" data-name="Path 127431" d="M422.387,364.244a1.153,1.153,0,1,0,1.157,1.153,1.155,1.155,0,0,0-1.157-1.153" transform="translate(-307.995 -266.631)" fill="#ffe766"/>
    <path id="Path_127432" data-name="Path 127432" d="M443.39,350.416a1.159,1.159,0,1,0,1.162,1.159,1.16,1.16,0,0,0-1.162-1.159" transform="translate(-323.348 -256.509)" fill="#ffe766"/>
    <path id="Path_127433" data-name="Path 127433" d="M460.866,332.3a1.164,1.164,0,1,0,1.167,1.164,1.165,1.165,0,0,0-1.167-1.164" transform="translate(-336.123 -243.247)" fill="#ffe766"/>
    <path id="Path_127434" data-name="Path 127434" d="M475.481,311.775a1.169,1.169,0,1,0,1.173,1.169,1.171,1.171,0,0,0-1.173-1.169" transform="translate(-346.805 -228.223)" fill="#ffe766"/>
    <path id="Path_127435" data-name="Path 127435" d="M487.809,289.79a1.174,1.174,0,1,0,1.178,1.174,1.176,1.176,0,0,0-1.178-1.174" transform="translate(-355.815 -212.13)" fill="#ffe766"/>
    <path id="Path_127436" data-name="Path 127436" d="M498.51,266.962a1.179,1.179,0,1,0,1.183,1.179,1.181,1.181,0,0,0-1.183-1.179" transform="translate(-363.636 -195.42)" fill="#ffe766"/>
    <path id="Path_127437" data-name="Path 127437" d="M508.311,243.73a1.184,1.184,0,1,0,1.188,1.184,1.186,1.186,0,0,0-1.188-1.184" transform="translate(-370.798 -178.414)" fill="#ffe766"/>
    <path id="Path_127438" data-name="Path 127438" d="M517.939,220.424a1.19,1.19,0,1,0,1.193,1.19,1.191,1.191,0,0,0-1.193-1.19" transform="translate(-377.835 -161.353)" fill="#ffe766"/>
    <path id="Path_127439" data-name="Path 127439" d="M528.12,197.355a1.195,1.195,0,1,0,1.2,1.195,1.2,1.2,0,0,0-1.2-1.195" transform="translate(-385.275 -144.466)" fill="#ffe766"/>
    <path id="Path_127440" data-name="Path 127440" d="M539.591,174.907a1.2,1.2,0,1,0,1.2,1.2,1.2,1.2,0,0,0-1.2-1.2" transform="translate(-393.658 -128.034)" fill="#ffe766"/>
    <path id="Path_127441" data-name="Path 127441" d="M553.076,153.62a1.205,1.205,0,1,0,1.209,1.205,1.207,1.207,0,0,0-1.209-1.205" transform="translate(-403.514 -112.452)" fill="#ffe766"/>
    <path id="Path_127442" data-name="Path 127442" d="M569.158,134.232a1.21,1.21,0,1,0,1.214,1.21,1.212,1.212,0,0,0-1.214-1.21" transform="translate(-415.269 -98.26)" fill="#ffe766"/>
    <path id="Path_127443" data-name="Path 127443" d="M188.631,422.419a1.348,1.348,0,1,0,1.352,1.348,1.35,1.35,0,0,0-1.352-1.348" transform="translate(-136.935 -309.216)" fill="#ffe766"/>
    <path id="Path_127444" data-name="Path 127444" d="M210.571,410.079a1.348,1.348,0,1,0,1.352,1.348,1.35,1.35,0,0,0-1.352-1.348" transform="translate(-152.977 -300.183)" fill="#ffe766"/>
    <path id="Path_127445" data-name="Path 127445" d="M234.414,402.008a1.348,1.348,0,1,0,1.352,1.348,1.35,1.35,0,0,0-1.352-1.348" transform="translate(-170.41 -294.275)" fill="#ffe766"/>
    <path id="Path_127446" data-name="Path 127446" d="M259.207,397.55a1.348,1.348,0,1,0,1.352,1.348,1.35,1.35,0,0,0-1.352-1.348" transform="translate(-188.538 -291.012)" fill="#ffe766"/>
    <path id="Path_127447" data-name="Path 127447" d="M284.325,395.595a1.348,1.348,0,1,0,1.352,1.348,1.35,1.35,0,0,0-1.352-1.348" transform="translate(-206.904 -289.581)" fill="#ffe766"/>
    <path id="Path_127448" data-name="Path 127448" d="M309.52,395.062a1.348,1.348,0,1,0,1.352,1.348,1.35,1.35,0,0,0-1.352-1.348" transform="translate(-225.326 -289.191)" fill="#ffe766"/>
    <path id="Path_127449" data-name="Path 127449" d="M334.727,394.978a1.348,1.348,0,1,0,1.352,1.348,1.35,1.35,0,0,0-1.352-1.348" transform="translate(-243.757 -289.129)" fill="#ffe766"/>
    <path id="Path_127450" data-name="Path 127450" d="M359.923,394.392a1.348,1.348,0,1,0,1.352,1.348,1.35,1.35,0,0,0-1.352-1.348" transform="translate(-262.18 -288.7)" fill="#ffe766"/>
    <path id="Path_127451" data-name="Path 127451" d="M385.03,392.263a1.348,1.348,0,1,0,1.352,1.348,1.35,1.35,0,0,0-1.352-1.348" transform="translate(-280.538 -287.142)" fill="#ffe766"/>
    <path id="Path_127452" data-name="Path 127452" d="M409.733,387.367a1.348,1.348,0,1,0,1.352,1.348,1.35,1.35,0,0,0-1.352-1.348" transform="translate(-298.6 -283.558)" fill="#ffe766"/>
    <path id="Path_127453" data-name="Path 127453" d="M433.248,378.408a1.348,1.348,0,1,0,1.353,1.348,1.35,1.35,0,0,0-1.353-1.348" transform="translate(-315.794 -277)" fill="#ffe766"/>
    <path id="Path_127454" data-name="Path 127454" d="M454.265,364.6a1.348,1.348,0,1,0,1.352,1.348,1.35,1.35,0,0,0-1.352-1.348" transform="translate(-331.161 -266.892)" fill="#ffe766"/>
    <path id="Path_127455" data-name="Path 127455" d="M471.755,346.5a1.348,1.348,0,1,0,1.352,1.348,1.35,1.35,0,0,0-1.352-1.348" transform="translate(-343.949 -253.644)" fill="#ffe766"/>
    <path id="Path_127456" data-name="Path 127456" d="M486.384,326a1.348,1.348,0,1,0,1.352,1.348A1.35,1.35,0,0,0,486.384,326" transform="translate(-354.646 -238.635)" fill="#ffe766"/>
    <path id="Path_127457" data-name="Path 127457" d="M498.726,304.031a1.348,1.348,0,1,0,1.352,1.348,1.35,1.35,0,0,0-1.352-1.348" transform="translate(-363.67 -222.555)" fill="#ffe766"/>
    <path id="Path_127458" data-name="Path 127458" d="M509.442,281.223a1.348,1.348,0,1,0,1.352,1.348,1.35,1.35,0,0,0-1.352-1.348" transform="translate(-371.505 -205.859)" fill="#ffe766"/>
    <path id="Path_127459" data-name="Path 127459" d="M519.257,258.01a1.348,1.348,0,1,0,1.353,1.348,1.35,1.35,0,0,0-1.353-1.348" transform="translate(-378.682 -188.867)" fill="#ffe766"/>
    <path id="Path_127460" data-name="Path 127460" d="M528.9,234.724a1.348,1.348,0,1,0,1.353,1.348,1.35,1.35,0,0,0-1.353-1.348" transform="translate(-385.732 -171.821)" fill="#ffe766"/>
    <path id="Path_127461" data-name="Path 127461" d="M539.094,211.674a1.348,1.348,0,1,0,1.352,1.348,1.35,1.35,0,0,0-1.352-1.348" transform="translate(-393.186 -154.948)" fill="#ffe766"/>
    <path id="Path_127462" data-name="Path 127462" d="M550.579,189.245a1.348,1.348,0,1,0,1.352,1.348,1.35,1.35,0,0,0-1.352-1.348" transform="translate(-401.584 -138.53)" fill="#ffe766"/>
    <path id="Path_127463" data-name="Path 127463" d="M564.077,167.978a1.348,1.348,0,1,0,1.352,1.348,1.35,1.35,0,0,0-1.352-1.348" transform="translate(-411.453 -122.962)" fill="#ffe766"/>
    <path id="Path_127464" data-name="Path 127464" d="M578.823,151.039a1.342,1.342,0,0,0,.4.953v-1.905a1.342,1.342,0,0,0-.4.953" transform="translate(-423.224 -109.865)" fill="#ffe766"/>
    <path id="Path_127465" data-name="Path 127465" d="M221.247,423.99a1.61,1.61,0,0,0-1.422,2.376h2.845a1.61,1.61,0,0,0-1.422-2.376" transform="translate(-160.59 -310.366)" fill="#ffe766"/>
    <path id="Path_127466" data-name="Path 127466" d="M245.108,415.944a1.6,1.6,0,1,0,1.609,1.6,1.607,1.607,0,0,0-1.609-1.6" transform="translate(-178.042 -304.477)" fill="#ffe766"/>
    <path id="Path_127467" data-name="Path 127467" d="M269.92,411.51a1.6,1.6,0,1,0,1.6,1.6,1.6,1.6,0,0,0-1.6-1.6" transform="translate(-196.188 -301.231)" fill="#ffe766"/>
    <path id="Path_127468" data-name="Path 127468" d="M295.056,409.58a1.591,1.591,0,1,0,1.6,1.591,1.594,1.594,0,0,0-1.6-1.591" transform="translate(-214.572 -299.818)" fill="#ffe766"/>
    <path id="Path_127469" data-name="Path 127469" d="M320.268,409.072a1.584,1.584,0,1,0,1.59,1.585,1.587,1.587,0,0,0-1.59-1.585" transform="translate(-233.012 -299.446)" fill="#ffe766"/>
    <path id="Path_127470" data-name="Path 127470" d="M345.494,409.012a1.578,1.578,0,1,0,1.583,1.578,1.58,1.58,0,0,0-1.583-1.578" transform="translate(-251.461 -299.402)" fill="#ffe766"/>
    <path id="Path_127471" data-name="Path 127471" d="M370.708,408.452a1.571,1.571,0,1,0,1.576,1.571,1.574,1.574,0,0,0-1.576-1.571" transform="translate(-269.902 -298.992)" fill="#ffe766"/>
    <path id="Path_127472" data-name="Path 127472" d="M395.833,406.348a1.565,1.565,0,1,0,1.569,1.564,1.567,1.567,0,0,0-1.569-1.564" transform="translate(-288.278 -297.452)" fill="#ffe766"/>
    <path id="Path_127473" data-name="Path 127473" d="M420.555,401.477a1.558,1.558,0,1,0,1.563,1.558,1.56,1.56,0,0,0-1.563-1.558" transform="translate(-306.359 -293.886)" fill="#ffe766"/>
    <path id="Path_127474" data-name="Path 127474" d="M444.087,392.542a1.551,1.551,0,1,0,1.556,1.551,1.554,1.554,0,0,0-1.556-1.551" transform="translate(-323.57 -287.346)" fill="#ffe766"/>
    <path id="Path_127475" data-name="Path 127475" d="M465.122,378.758a1.545,1.545,0,1,0,1.55,1.545,1.547,1.547,0,0,0-1.55-1.545" transform="translate(-338.955 -277.256)" fill="#ffe766"/>
    <path id="Path_127476" data-name="Path 127476" d="M482.631,360.686a1.538,1.538,0,1,0,1.543,1.538,1.54,1.54,0,0,0-1.543-1.538" transform="translate(-351.762 -264.027)" fill="#ffe766"/>
    <path id="Path_127477" data-name="Path 127477" d="M497.278,340.206a1.531,1.531,0,1,0,1.536,1.531,1.534,1.534,0,0,0-1.536-1.531" transform="translate(-362.477 -249.035)" fill="#ffe766"/>
    <path id="Path_127478" data-name="Path 127478" d="M509.637,318.265a1.525,1.525,0,1,0,1.53,1.525,1.527,1.527,0,0,0-1.53-1.525" transform="translate(-371.518 -232.974)" fill="#ffe766"/>
    <path id="Path_127479" data-name="Path 127479" d="M520.372,295.481A1.518,1.518,0,1,0,521.895,297a1.52,1.52,0,0,0-1.523-1.518" transform="translate(-379.372 -216.296)" fill="#ffe766"/>
    <path id="Path_127480" data-name="Path 127480" d="M530.205,272.293a1.511,1.511,0,1,0,1.516,1.511,1.514,1.514,0,0,0-1.516-1.511" transform="translate(-386.567 -199.322)" fill="#ffe766"/>
    <path id="Path_127481" data-name="Path 127481" d="M539.865,249.032a1.5,1.5,0,1,0,1.509,1.5,1.507,1.507,0,0,0-1.509-1.5" transform="translate(-393.635 -182.295)" fill="#ffe766"/>
    <path id="Path_127482" data-name="Path 127482" d="M550.079,226.006a1.5,1.5,0,1,0,1.5,1.5,1.5,1.5,0,0,0-1.5-1.5" transform="translate(-401.108 -165.439)" fill="#ffe766"/>
    <path id="Path_127483" data-name="Path 127483" d="M561.581,203.6a1.492,1.492,0,1,0,1.5,1.492,1.494,1.494,0,0,0-1.5-1.492" transform="translate(-409.523 -149.039)" fill="#ffe766"/>
    <path id="Path_127484" data-name="Path 127484" d="M575.1,182.359a1.485,1.485,0,1,0,.308,2.938v-2.906a1.49,1.49,0,0,0-.308-.032" transform="translate(-419.411 -133.489)" fill="#ffe766"/>
    <path id="Path_127485" data-name="Path 127485" d="M256.648,429.807a1.885,1.885,0,0,0-1.555.817H258.2a1.885,1.885,0,0,0-1.555-.817" transform="translate(-186.519 -314.624)" fill="#ffe766"/>
    <path id="Path_127486" data-name="Path 127486" d="M280.582,425.4a1.868,1.868,0,0,0-1.871,1.865c0,.045,0,.089.007.132h3.729c0-.044.007-.087.007-.132a1.868,1.868,0,0,0-1.871-1.865" transform="translate(-203.788 -311.401)" fill="#ffe766"/>
    <path id="Path_127487" data-name="Path 127487" d="M305.74,423.5a1.847,1.847,0,0,0-1.734,2.507h3.469a1.847,1.847,0,0,0-1.734-2.507" transform="translate(-222.194 -310.01)" fill="#ffe766"/>
    <path id="Path_127488" data-name="Path 127488" d="M330.976,423.025a1.832,1.832,0,0,0-1.656,2.635h3.313a1.832,1.832,0,0,0-1.656-2.635" transform="translate(-240.656 -309.66)" fill="#ffe766"/>
    <path id="Path_127489" data-name="Path 127489" d="M356.223,423a1.818,1.818,0,0,0-1.629,2.643h3.258A1.818,1.818,0,0,0,356.223,423" transform="translate(-259.127 -309.639)" fill="#ffe766"/>
    <path id="Path_127490" data-name="Path 127490" d="M381.459,422.465a1.8,1.8,0,0,0-1.522,2.785h3.044a1.8,1.8,0,0,0-1.522-2.785" transform="translate(-277.59 -309.25)" fill="#ffe766"/>
    <path id="Path_127491" data-name="Path 127491" d="M408.4,422.184a1.8,1.8,0,1,0-2.7,1.549h1.8a1.789,1.789,0,0,0,.9-1.549" transform="translate(-295.988 -307.732)" fill="#ffe766"/>
    <path id="Path_127492" data-name="Path 127492" d="M431.349,415.551a1.777,1.777,0,1,0,1.783,1.777,1.78,1.78,0,0,0-1.783-1.777" transform="translate(-314.091 -304.189)" fill="#ffe766"/>
    <path id="Path_127493" data-name="Path 127493" d="M454.9,406.646a1.762,1.762,0,1,0,1.768,1.762,1.765,1.765,0,0,0-1.768-1.762" transform="translate(-331.325 -297.67)" fill="#ffe766"/>
    <path id="Path_127494" data-name="Path 127494" d="M475.963,392.893a1.748,1.748,0,1,0,1.753,1.748,1.75,1.75,0,0,0-1.753-1.748" transform="translate(-346.733 -287.603)" fill="#ffe766"/>
    <path id="Path_127495" data-name="Path 127495" d="M493.492,374.851a1.733,1.733,0,1,0,1.738,1.733,1.735,1.735,0,0,0-1.738-1.733" transform="translate(-359.561 -274.396)" fill="#ffe766"/>
    <path id="Path_127496" data-name="Path 127496" d="M508.161,354.4a1.718,1.718,0,1,0,1.723,1.718,1.721,1.721,0,0,0-1.723-1.718" transform="translate(-370.297 -259.426)" fill="#ffe766"/>
    <path id="Path_127497" data-name="Path 127497" d="M520.544,332.49a1.7,1.7,0,1,0,1.709,1.7,1.706,1.706,0,0,0-1.709-1.7" transform="translate(-379.362 -243.387)" fill="#ffe766"/>
    <path id="Path_127498" data-name="Path 127498" d="M531.3,309.736a1.689,1.689,0,1,0,1.694,1.689,1.691,1.691,0,0,0-1.694-1.689" transform="translate(-387.238 -226.731)" fill="#ffe766"/>
    <path id="Path_127499" data-name="Path 127499" d="M541.155,286.579a1.674,1.674,0,1,0,1.679,1.674,1.676,1.676,0,0,0-1.679-1.674" transform="translate(-394.454 -209.78)" fill="#ffe766"/>
    <path id="Path_127500" data-name="Path 127500" d="M550.837,263.348a1.659,1.659,0,1,0,1.664,1.659,1.662,1.662,0,0,0-1.664-1.659" transform="translate(-401.544 -192.774)" fill="#ffe766"/>
    <path id="Path_127501" data-name="Path 127501" d="M561.072,240.353A1.644,1.644,0,1,0,562.722,242a1.647,1.647,0,0,0-1.649-1.644" transform="translate(-409.039 -175.942)" fill="#ffe766"/>
    <path id="Path_127502" data-name="Path 127502" d="M572.6,217.979a1.63,1.63,0,1,0,.874,3.005v-2.751a1.631,1.631,0,0,0-.874-.254" transform="translate(-417.477 -159.563)" fill="#ffe766"/>
    <path id="Path_127503" data-name="Path 127503" d="M443.071,429.589a2.011,2.011,0,0,0-1.662.876h3.324a2.011,2.011,0,0,0-1.662-.876" transform="translate(-322.749 -314.465)" fill="#ffe766"/>
    <path id="Path_127504" data-name="Path 127504" d="M465.7,420.721a1.979,1.979,0,0,0-1.524,3.252h3.048a1.98,1.98,0,0,0-1.524-3.252" transform="translate(-339.058 -307.973)" fill="#ffe766"/>
    <path id="Path_127505" data-name="Path 127505" d="M486.783,407a1.957,1.957,0,1,0,1.963,1.957A1.961,1.961,0,0,0,486.783,407" transform="translate(-354.491 -297.931)" fill="#ffe766"/>
    <path id="Path_127506" data-name="Path 127506" d="M504.34,389a1.933,1.933,0,1,0,1.939,1.933A1.936,1.936,0,0,0,504.34,389" transform="translate(-367.346 -284.75)" fill="#ffe766"/>
    <path id="Path_127507" data-name="Path 127507" d="M519.035,368.583a1.908,1.908,0,1,0,1.914,1.908,1.911,1.911,0,0,0-1.914-1.908" transform="translate(-378.109 -269.808)" fill="#ffe766"/>
    <path id="Path_127508" data-name="Path 127508" d="M531.443,346.707a1.884,1.884,0,1,0,1.89,1.884,1.887,1.887,0,0,0-1.89-1.884" transform="translate(-387.199 -253.794)" fill="#ffe766"/>
    <path id="Path_127509" data-name="Path 127509" d="M542.226,323.989a1.86,1.86,0,1,0,1.866,1.86,1.863,1.863,0,0,0-1.866-1.86" transform="translate(-395.101 -237.164)" fill="#ffe766"/>
    <path id="Path_127510" data-name="Path 127510" d="M552.107,300.867a1.835,1.835,0,1,0,1.841,1.836,1.838,1.838,0,0,0-1.841-1.836" transform="translate(-402.344 -220.239)" fill="#ffe766"/>
    <path id="Path_127511" data-name="Path 127511" d="M561.816,277.671a1.811,1.811,0,1,0,1.817,1.811,1.814,1.814,0,0,0-1.817-1.811" transform="translate(-409.46 -203.259)" fill="#ffe766"/>
    <path id="Path_127512" data-name="Path 127512" d="M572.076,254.712a1.787,1.787,0,1,0,.9,3.331v-3.089a1.784,1.784,0,0,0-.9-.243" transform="translate(-416.98 -186.453)" fill="#ffe766"/>
    <path id="Path_127513" data-name="Path 127513" d="M497.588,421.088a2.176,2.176,0,0,0-2.18,2.173,2.154,2.154,0,0,0,.236.981h3.887a2.154,2.154,0,0,0,.237-.981,2.176,2.176,0,0,0-2.18-2.173" transform="translate(-362.233 -308.242)" fill="#ffe766"/>
    <path id="Path_127514" data-name="Path 127514" d="M515.173,403.123a2.138,2.138,0,1,0,2.144,2.138,2.141,2.141,0,0,0-2.144-2.138" transform="translate(-375.117 -295.091)" fill="#ffe766"/>
    <path id="Path_127515" data-name="Path 127515" d="M529.9,382.75a2.1,2.1,0,1,0,2.109,2.1,2.106,2.106,0,0,0-2.109-2.1" transform="translate(-385.91 -280.178)" fill="#ffe766"/>
    <path id="Path_127516" data-name="Path 127516" d="M542.337,360.916a2.067,2.067,0,1,0,2.073,2.067,2.07,2.07,0,0,0-2.073-2.067" transform="translate(-395.03 -264.195)" fill="#ffe766"/>
    <path id="Path_127517" data-name="Path 127517" d="M553.149,338.239a2.032,2.032,0,1,0,2.038,2.032,2.035,2.035,0,0,0-2.038-2.032" transform="translate(-402.961 -247.595)" fill="#ffe766"/>
    <path id="Path_127518" data-name="Path 127518" d="M563.061,315.158a2,2,0,1,0,2,2,2,2,0,0,0-2-2" transform="translate(-410.234 -230.7)" fill="#ffe766"/>
    <path id="Path_127519" data-name="Path 127519" d="M572.8,292a1.961,1.961,0,1,0,.576,3.836v-3.75A1.967,1.967,0,0,0,572.8,292" transform="translate(-417.381 -213.751)" fill="#ffe766"/>
    <path id="Path_127520" data-name="Path 127520" d="M528.348,419.579a2.355,2.355,0,1,0-3.816,1.84h2.921a2.339,2.339,0,0,0,.895-1.84" transform="translate(-382.873 -305.418)" fill="#ffe766"/>
    <path id="Path_127521" data-name="Path 127521" d="M540.752,396.9a2.3,2.3,0,1,0,2.307,2.3,2.3,2.3,0,0,0-2.307-2.3" transform="translate(-393.7 -290.539)" fill="#ffe766"/>
    <path id="Path_127522" data-name="Path 127522" d="M553.225,375.116a2.252,2.252,0,1,0,2.259,2.252,2.256,2.256,0,0,0-2.259-2.252" transform="translate(-402.855 -274.59)" fill="#ffe766"/>
    <path id="Path_127523" data-name="Path 127523" d="M564.071,352.486a2.2,2.2,0,1,0,2.211,2.2,2.208,2.208,0,0,0-2.211-2.2" transform="translate(-410.821 -258.024)" fill="#ffe766"/>
    <path id="Path_127524" data-name="Path 127524" d="M574.017,329.452a2.157,2.157,0,1,0,0,4.313c.036,0,.07,0,.106-.005v-4.3c-.035,0-.07-.005-.106-.005" transform="translate(-418.128 -241.163)" fill="#ffe766"/>
    <path id="Path_127525" data-name="Path 127525" d="M538.6,431.731h2.79a2.568,2.568,0,0,0-2.79,0" transform="translate(-393.815 -315.731)" fill="#ffe766"/>
    <path id="Path_127526" data-name="Path 127526" d="M551.6,411.045a2.5,2.5,0,1,0,2.509,2.5,2.505,2.505,0,0,0-2.509-2.5" transform="translate(-401.482 -300.89)" fill="#ffe766"/>
    <path id="Path_127527" data-name="Path 127527" d="M564.106,389.309a2.44,2.44,0,1,0,2.447,2.44,2.444,2.444,0,0,0-2.447-2.44" transform="translate(-410.674 -284.979)" fill="#ffe766"/>
    <path id="Path_127528" data-name="Path 127528" d="M572.606,369.173a2.379,2.379,0,0,0,2.067,2.354v-4.708a2.379,2.379,0,0,0-2.067,2.354" transform="translate(-418.678 -268.516)" fill="#ffe766"/>
    <path id="Path_127529" data-name="Path 127529" d="M562.652,425.171a2.712,2.712,0,0,0-2.634,2.06h5.267a2.711,2.711,0,0,0-2.633-2.06" transform="translate(-409.474 -311.231)" fill="#ffe766"/>
    <path id="Path_127530" data-name="Path 127530" d="M572.346,406.255a2.631,2.631,0,0,0,2.136,2.58v-5.161a2.631,2.631,0,0,0-2.136,2.58" transform="translate(-418.488 -295.495)" fill="#ffe766"/>
  </g>
</svg>
