<svg xmlns="http://www.w3.org/2000/svg" width="26.522" height="22.6" viewBox="0 0 26.522 22.6">
  <g id="Group" transform="translate(-6.27 -12.8)">
    <path id="Compound_Path" data-name="Compound Path" d="M31.652,20.493a2.981,2.981,0,0,0-.924-.656V18.168a2.981,2.981,0,0,0-2.981-2.981H18.3a1.789,1.789,0,0,1-1.222-.507l-.835-.745a2.981,2.981,0,0,0-2.057-.835H11.262a2.981,2.981,0,0,0-2.981,2.981v3.756a2.951,2.951,0,0,0-1.7,2.892l.656,9.6A2.981,2.981,0,0,0,10.218,35.1H28.85a2.981,2.981,0,0,0,2.981-2.772l.656-9.6A2.981,2.981,0,0,0,31.652,20.493ZM9.473,16.081a1.789,1.789,0,0,1,1.789-1.789h2.921a1.789,1.789,0,0,1,1.222.507l.835.775a2.981,2.981,0,0,0,2.057.835h9.48A1.789,1.789,0,0,1,29.565,18.2v1.371H9.473Zm21.791,6.558-.656,9.6a1.789,1.789,0,0,1-1.789,1.669H10.188A1.789,1.789,0,0,1,8.4,32.238l-.626-9.6a1.789,1.789,0,0,1,1.789-1.908H29.476a1.789,1.789,0,0,1,1.789,1.908Z" fill="#85888a" stroke="#85888a" stroke-width="0.6"/>
  </g>
</svg>
