<svg id="noun_Graph_2197521" xmlns="http://www.w3.org/2000/svg" width="18" height="18" viewBox="0 0 18 18">
  <g id="Group_43698" data-name="Group 43698" transform="translate(0)">
    <g id="Group_43696" data-name="Group 43696" transform="translate(0 2.4)">
      <path id="Path_53392" data-name="Path 53392" d="M12.8,20.6a7.809,7.809,0,0,0,7.8-7.8.6.6,0,0,0-.6-.6H13.4V5.6a.6.6,0,0,0-.6-.6,7.8,7.8,0,0,0,0,15.6Zm6.573-7.2A6.6,6.6,0,1,1,12.2,6.227V12.8a.6.6,0,0,0,.6.6Z" transform="translate(-5 -5)" fill="#f35d29"/>
    </g>
    <g id="Group_43697" data-name="Group 43697" transform="translate(9.6)">
      <path id="Path_53393" data-name="Path 53393" d="M1.6,9.4H8.8a.6.6,0,0,0,.6-.6A7.809,7.809,0,0,0,1.6,1a.6.6,0,0,0-.6.6V8.8A.6.6,0,0,0,1.6,9.4ZM8.173,8.2H2.2V2.227A6.61,6.61,0,0,1,8.173,8.2Z" transform="translate(-1 -1)" fill="#f35d29"/>
    </g>
  </g>
</svg>
