<svg xmlns="http://www.w3.org/2000/svg" width="13.355" height="15.609" viewBox="0 0 13.355 15.609">
  <g id="Group_164503" data-name="Group 164503" transform="translate(1 0)">
    <path id="Path_82320" data-name="Path 82320" d="M36.809,7c-.925,1.426-2.171,2.813-2.548,4.391a6.281,6.281,0,0,0,.873,4.221c-3.73-2.025-3.639-5.275-1.732-8.1.978-1.449,2.574-2.919,2.757-4.584A4.662,4.662,0,0,0,35.134,0c3.632,1.6,3.3,4.5,1.675,7" transform="translate(-29.109 -0.001)" fill="#fa9e2d"/>
    <path id="Path_82321" data-name="Path 82321" d="M2.2,16.54a3.259,3.259,0,0,1,.7,2.054c-.14,1.164-1.268,2.183-1.963,3.191C-.423,23.75-.511,26.024,2.084,27.465a4.391,4.391,0,0,1-.58-2.959,11.015,11.015,0,0,1,1.816-3.057C4.474,19.709,4.73,17.682,2.2,16.54" transform="translate(-1 -14.952)" fill="#fa9e2d"/>
    <path id="Path_82322" data-name="Path 82322" d="M77.236,44.7a3.243,3.243,0,0,1,.621,2.074c-.182,1.159-1.346,2.144-2.077,3.13-1.426,1.924-1.6,4.194.946,5.711a4.379,4.379,0,0,1-.473-2.975,11.106,11.106,0,0,1,1.925-3c1.215-1.7,1.544-3.721-.943-4.939" transform="translate(-66.751 -40.41)" fill="#fa9e2d"/>
  </g>
</svg>
