<svg xmlns="http://www.w3.org/2000/svg" width="24.056" height="24.056" viewBox="0 0 24.056 24.056">
  <g id="Group_194295" data-name="Group 194295" transform="translate(0.25 0.25)">
    <path id="Path_35350" data-name="Path 35350" d="M22.238,4.29H19.956V3.271a.669.669,0,1,0-1.339,0v3.5a1.307,1.307,0,0,0-.669,1.143,1.339,1.339,0,1,0,2.008-1.143V5.631h2.281a2.474,2.474,0,0,1,2.48,2.485v2.062H3.839V8.116a2.49,2.49,0,0,1,2.48-2.485H7.484V4.29H6.319A3.824,3.824,0,0,0,2.5,8.116V22.33a3.824,3.824,0,0,0,3.819,3.827H22.238a3.824,3.824,0,0,0,3.819-3.827V8.116A3.824,3.824,0,0,0,22.238,4.29Zm2.48,18.04a2.474,2.474,0,0,1-2.48,2.485H6.319a2.474,2.474,0,0,1-2.48-2.485V11.521h20.9V22.33Z" transform="translate(-2.5 -2.6)" fill="#858789" stroke="#858789" stroke-width="0.5"/>
    <path id="Path_35351" data-name="Path 35351" d="M20.23,51.967h1.11a1.433,1.433,0,0,0,0-2.867H20.23a1.433,1.433,0,0,0-1.43,1.433A1.449,1.449,0,0,0,20.23,51.967Z" transform="translate(-14.754 -37.537)" fill="#858789" stroke="#858789" stroke-width="0.5"/>
    <path id="Path_35352" data-name="Path 35352" d="M43.43,51.967h1.11a1.433,1.433,0,0,0,0-2.867H43.43a1.433,1.433,0,0,0,0,2.867Z" transform="translate(-32.195 -37.537)" fill="#858789" stroke="#858789" stroke-width="0.5"/>
    <path id="Path_35353" data-name="Path 35353" d="M66.63,51.967h1.11a1.433,1.433,0,0,0,0-2.867H66.63a1.433,1.433,0,0,0,0,2.867Z" transform="translate(-49.636 -37.537)" fill="#858789" stroke="#858789" stroke-width="0.5"/>
    <path id="Path_35354" data-name="Path 35354" d="M20.23,72.467h1.11a1.433,1.433,0,0,0,0-2.867H20.23a1.433,1.433,0,0,0-1.43,1.433A1.449,1.449,0,0,0,20.23,72.467Z" transform="translate(-14.754 -52.939)" fill="#858789" stroke="#858789" stroke-width="0.5"/>
    <path id="Path_35355" data-name="Path 35355" d="M43.43,72.467h1.11a1.433,1.433,0,0,0,0-2.867H43.43a1.433,1.433,0,0,0,0,2.867Z" transform="translate(-32.195 -52.939)" fill="#858789" stroke="#858789" stroke-width="0.5"/>
    <path id="Path_35356" data-name="Path 35356" d="M66.63,72.467h1.11a1.433,1.433,0,0,0,0-2.867H66.63a1.433,1.433,0,0,0,0,2.867Z" transform="translate(-49.636 -52.939)" fill="#858789" stroke="#858789" stroke-width="0.5"/>
    <path id="Path_35357" data-name="Path 35357" d="M25.732,9.2A1.323,1.323,0,0,0,26.4,6.727V5.59h7.547V4.281H26.4V3.267a.666.666,0,1,0-1.332,0V6.752A1.3,1.3,0,0,0,24.4,7.889,1.322,1.322,0,0,0,25.732,9.2Z" transform="translate(-18.95 -2.6)" fill="#858789" stroke="#858789" stroke-width="0.5"/>
  </g>
</svg>
