<svg xmlns="http://www.w3.org/2000/svg" width="34.808" height="26.575" viewBox="0 0 34.808 26.575">
  <g id="image_icon" transform="translate(0.3 0.302)">
    <path id="Path_78520" data-name="Path 78520" d="M1975.357,4667.521a3.052,3.052,0,1,0,3.052,3.052A3.053,3.053,0,0,0,1975.357,4667.521Zm0,5.244a2.193,2.193,0,1,1,2.192-2.193,2.194,2.194,0,0,1-2.192,2.193Z" transform="translate(-1952.515 -4659.287)" fill="#f45e29" stroke="#f45e29" stroke-width="0.6"/>
    <path id="Path_78521" data-name="Path 78521" d="M1798.449,4729.259a.429.429,0,0,0-.6.022l-2.851,2.976-5.527-5.182a.429.429,0,0,0-.587,0l-6.43,6.018a.43.43,0,0,0,.588.628l6.136-5.744,5.543,5.2a.43.43,0,0,0,.6-.017l2.858-2.983,2.473,2.209a.43.43,0,0,0,.572-.642Z" transform="translate(-1778.856 -4712.779)" fill="#f45e29" stroke="#f45e29" stroke-width="0.6"/>
    <path id="Path_78522" data-name="Path 78522" d="M1773.7,4591.2h-23.954a2.5,2.5,0,0,0-2.5,2.5v1.6H1744.5a2.5,2.5,0,0,0-2.5,2.5v16.875a2.5,2.5,0,0,0,2.5,2.5h23.954a2.5,2.5,0,0,0,2.5-2.5v-1.6h2.754a2.5,2.5,0,0,0,2.5-2.5V4593.7a2.5,2.5,0,0,0-2.508-2.5Zm-3.613,23.47a1.639,1.639,0,0,1-1.638,1.638H1744.5a1.639,1.639,0,0,1-1.638-1.638V4597.8a1.639,1.639,0,0,1,1.638-1.639h23.954a1.639,1.639,0,0,1,1.638,1.639Zm5.252-4.1a1.641,1.641,0,0,1-1.639,1.639h-2.754V4597.8a2.5,2.5,0,0,0-2.5-2.5H1748.1v-1.6a1.64,1.64,0,0,1,1.638-1.638H1773.7a1.64,1.64,0,0,1,1.639,1.638Z" transform="translate(-1742 -4591.202)" fill="#f45e29" stroke="#f45e29" stroke-width="0.6"/>
  </g>
</svg>
