<svg xmlns="http://www.w3.org/2000/svg" width="48" height="48" viewBox="0 0 48 48">
  <g id="Group_51458" data-name="Group 51458" transform="translate(-401 -316)">
    <circle id="Ellipse_1354" data-name="Ellipse 1354" cx="24" cy="24" r="24" transform="translate(401 316)" fill="#fff"/>
    <g id="Group_48637" data-name="Group 48637" transform="translate(414 328.939)">
      <path id="Path_79704" data-name="Path 79704" d="M20.706,17.542l-.237-.212c-.909-.823-2.78-1.856-5.1.464-.342.342-1.2-.017-1.55-.187a10.7,10.7,0,0,1-2.686-2.016,10.7,10.7,0,0,1-2.016-2.686c-.17-.352-.53-1.207-.187-1.55,2.322-2.322,1.287-4.192.464-5.1l-.212-.237C8.091,4.795,6.255,2.742,4.34,3.181c-1.119.251-1.952,1.291-2.479,3.086-1.272,4.347.4,8.754,5.122,13.473,3.7,3.7,7.216,5.533,10.656,5.533a9.962,9.962,0,0,0,2.815-.411c1.8-.527,2.836-1.36,3.088-2.479C23.977,20.46,21.929,18.633,20.706,17.542Zm-.724,5.7c-3.753,1.1-7.505-.394-11.808-4.7s-5.8-8.054-4.7-11.807c.33-1.134.769-1.814,1.232-1.92A.818.818,0,0,1,4.877,4.8c.968,0,2.41,1.621,3.048,2.336l.222.247c.557.616.946,1.427-.407,2.78-.56.56-1.038,1.615-.138,3.473a12.441,12.441,0,0,0,2.339,3.142,12.37,12.37,0,0,0,3.143,2.339c1.854.9,2.913.422,3.473-.136,1.351-1.351,2.166-.966,2.78-.407l.247.22c.757.676,2.533,2.258,2.317,3.216-.106.464-.786.9-1.92,1.233ZM13.091,3.763a.845.845,0,0,1,.993-.655,12.238,12.238,0,0,1,9.53,9.53.838.838,0,0,1-.655.993.82.82,0,0,1-.17.017.841.841,0,0,1-.823-.671,10.556,10.556,0,0,0-8.221-8.219A.844.844,0,0,1,13.091,3.763Zm-.68,3.3a.838.838,0,0,1,.989-.655h.005a8.872,8.872,0,0,1,6.913,6.913.841.841,0,0,1-.655.995h0a.825.825,0,0,1-.172.017.841.841,0,0,1-.823-.671,7.185,7.185,0,0,0-5.6-5.6A.842.842,0,0,1,12.411,7.06Z" transform="translate(-1.451 -3.092)" fill="#F45E29"/>
    </g>
  </g>
</svg>
