<svg xmlns="http://www.w3.org/2000/svg" width="32" height="32" viewBox="0 0 32 32">
  <g id="Group_164500" data-name="Group 164500" transform="translate(0 0)">
    <path id="Path_82347" data-name="Path 82347" d="M30.4,19.823a1.5,1.5,0,0,0-1.034-.685L19.91,17.62a1.49,1.49,0,0,0-1.231.359,7.724,7.724,0,0,0-1.788,2.3,13.936,13.936,0,0,1-5.173-5.173,7.724,7.724,0,0,0,2.3-1.788,1.5,1.5,0,0,0,.359-1.231L12.862,2.632A1.5,1.5,0,0,0,12.177,1.6a6.6,6.6,0,0,0-2.156-.87A6.91,6.91,0,0,0,8.225.5,7.733,7.733,0,0,0,.5,8.225,23.3,23.3,0,0,0,23.775,31.5,7.733,7.733,0,0,0,31.5,23.775a6.683,6.683,0,0,0-.207-1.712,6.786,6.786,0,0,0-.89-2.24ZM23.775,28.5A20.3,20.3,0,0,1,3.5,8.225,4.73,4.73,0,0,1,8.225,3.5a4.191,4.191,0,0,1,1.1.145,3.925,3.925,0,0,1,.69.207L11.3,11.807a4.556,4.556,0,0,1-1.986,1,1.5,1.5,0,0,0-1.058,2.05,16.877,16.877,0,0,0,8.889,8.889,1.5,1.5,0,0,0,2.05-1.058,4.546,4.546,0,0,1,1-1.986l7.953,1.276a4.677,4.677,0,0,1,.23.776,3.97,3.97,0,0,1,.124,1.02A4.73,4.73,0,0,1,23.775,28.5Z" fill="#f45e29" stroke="#fff" stroke-width="1"/>
    <path id="Path_82348" data-name="Path 82348" d="M18.334,13.666a1.5,1.5,0,0,0,2.121,0l5.307-5.307.05,2.273a1.5,1.5,0,0,0,3-.067l-.127-5.783a1.548,1.548,0,0,0-1.467-1.467l-5.783-.127a1.5,1.5,0,0,0-.067,3l2.273.05-5.307,5.307a1.5,1.5,0,0,0,0,2.121Z" fill="#f45e29" stroke="#fff" stroke-width="1"/>
  </g>
</svg>
