<svg xmlns="http://www.w3.org/2000/svg" width="44.999" height="44.999" viewBox="0 0 44.999 44.999">
  <g id="Group_164794" data-name="Group 164794" transform="translate(-665.5 -348.5)">
    <g id="noun-file-and-document-1257233" transform="translate(595.5 348.501)">
      <path id="Path_85125" data-name="Path 85125" d="M72.812,40.78V4.218a1.406,1.406,0,0,1,1.406-1.406H95.312V8.437a2.812,2.812,0,0,0,2.812,2.812h5.625v4.219h2.812V9.843a1.407,1.407,0,0,0-.408-1L97.717.407a1.407,1.407,0,0,0-1-.408h-22.5A4.218,4.218,0,0,0,70,4.218V40.78A4.218,4.218,0,0,0,74.218,45H88.281V42.186H74.218a1.406,1.406,0,0,1-1.406-1.406Z" fill="#f45e29"/>
      <path id="Path_85126" data-name="Path 85126" d="M327.657,245a12.656,12.656,0,1,0,8.949,3.707A12.657,12.657,0,0,0,327.657,245Zm0,22.5a9.843,9.843,0,1,1,6.961-2.883A9.844,9.844,0,0,1,327.657,267.5Z" transform="translate(-225.314 -225.313)" fill="#f45e29"/>
      <g id="Group_164793" data-name="Group 164793" transform="translate(0 -1)">
        <path id="Path_85127" data-name="Path 85127" d="M455,332.5h2.812v8.438H455Z" transform="translate(-354.063 -305.782)" fill="#f45e29"/>
        <path id="Path_85128" data-name="Path 85128" d="M455,437.5h2.812v2.812H455Z" transform="translate(-354.063 -400.345)" fill="#f45e29"/>
      </g>
    </g>
    <line id="Line_837" data-name="Line 837" x2="17" transform="translate(671.5 359.5)" fill="none" stroke="#f45e29" stroke-linecap="round" stroke-width="2.5"/>
    <line id="Line_838" data-name="Line 838" x2="17" transform="translate(671.5 366.5)" fill="none" stroke="#f45e29" stroke-linecap="round" stroke-width="2.5"/>
    <line id="Line_839" data-name="Line 839" x2="12" transform="translate(671.5 373.5)" fill="none" stroke="#f45e29" stroke-linecap="round" stroke-width="2.5"/>
    <line id="Line_840" data-name="Line 840" x2="9" transform="translate(671.5 380.5)" fill="none" stroke="#f45e29" stroke-linecap="round" stroke-width="2.5"/>
    <line id="Line_841" data-name="Line 841" x2="9" transform="translate(671.5 386.5)" fill="none" stroke="#f45e29" stroke-linecap="round" stroke-width="2.5"/>
  </g>
</svg>
