<svg xmlns="http://www.w3.org/2000/svg" width="42" height="42" viewBox="0 0 42 42">
  <g id="Group_164829" data-name="Group 164829" transform="translate(-663 -342)">
    <path id="noun-success-4213622" d="M91,0A21,21,0,1,1,70,21,21,21,0,0,1,91,0Zm0,4.2A16.8,16.8,0,1,0,107.8,21,16.8,16.8,0,0,0,91,4.2Zm9.469,9.775.183.163a2.1,2.1,0,0,1,.163,2.787l-.163.183L90.258,27.5a2.1,2.1,0,0,1-2.787.163l-.183-.163-5.94-5.94a2.1,2.1,0,0,1,2.787-3.133l.183.163,4.455,4.455,8.909-8.909a2.1,2.1,0,0,1,2.787-.163Z" transform="translate(593 342)" fill="#f45e29"/>
  </g>
</svg>
