<svg xmlns="http://www.w3.org/2000/svg" width="40" height="40" viewBox="0 0 40 40">
  <g id="Group_164484" data-name="Group 164484" transform="translate(-291 -495)">
    <circle id="Ellipse_1247" data-name="Ellipse 1247" cx="20" cy="20" r="20" transform="translate(291 495)" fill="#4482ff"/>
    <g id="Group_164330" data-name="Group 164330" transform="translate(297 501)">
      <path id="Path_82294" data-name="Path 82294" d="M20.809,25H4.048A1.049,1.049,0,0,1,3,23.952V4.048A1.049,1.049,0,0,1,4.048,3H20.809a1.049,1.049,0,0,1,1.048,1.048V8.762a.524.524,0,1,1-1.048,0V4.048H4.048v19.9H20.809V15.571a.524.524,0,1,1,1.048,0v8.381A1.049,1.049,0,0,1,20.809,25Z" fill="#fff"/>
      <path id="Path_82295" data-name="Path 82295" d="M21.333,10.048H3.524A.524.524,0,0,1,3.524,9H21.333a.524.524,0,0,1,0,1.048Z" transform="translate(0 -2.857)" fill="#fff"/>
      <circle id="Ellipse_1910" data-name="Ellipse 1910" cx="0.5" cy="0.5" r="0.5" transform="translate(6 5)" fill="#fff"/>
      <circle id="Ellipse_1911" data-name="Ellipse 1911" cx="0.5" cy="0.5" r="0.5" transform="translate(8 5)" fill="#fff"/>
      <circle id="Ellipse_1912" data-name="Ellipse 1912" cx="0.5" cy="0.5" r="0.5" transform="translate(10 5)" fill="#fff"/>
      <path id="Path_82296" data-name="Path 82296" d="M10.143,17.19h-2.1A1.049,1.049,0,0,1,7,16.143v-2.1A1.049,1.049,0,0,1,8.048,13h2.1a1.049,1.049,0,0,1,1.048,1.048v2.1A1.049,1.049,0,0,1,10.143,17.19Zm-2.1-3.143v2.1h2.1v-2.1Zm11,.524H12.762a.524.524,0,0,1,0-1.048h6.286a.524.524,0,1,1,0,1.048Zm0,2.1H12.762a.524.524,0,0,1,0-1.048h6.286a.524.524,0,1,1,0,1.048Zm-8.9,5.762h-2.1A1.049,1.049,0,0,1,7,21.381v-2.1a1.049,1.049,0,0,1,1.048-1.048h2.1a1.049,1.049,0,0,1,1.048,1.048v2.1A1.049,1.049,0,0,1,10.143,22.428Zm-2.1-3.143v2.1h2.1v-2.1ZM18,19.809H12.762a.524.524,0,0,1,0-1.048H18a.524.524,0,1,1,0,1.048Zm-1.048,2.1h-4.19a.524.524,0,0,1,0-1.048h4.19a.524.524,0,0,1,0,1.048Zm-6.809,5.762h-2.1A1.049,1.049,0,0,1,7,26.619v-2.1a1.049,1.049,0,0,1,1.048-1.048h2.1a1.049,1.049,0,0,1,1.048,1.048v2.1a1.049,1.049,0,0,1-1.048,1.048Zm-2.1-3.143v2.1h2.1v-2.1Zm7.333.524H12.762a.524.524,0,1,1,0-1.048h2.619a.524.524,0,0,1,0,1.048ZM18,27.143H12.762a.524.524,0,0,1,0-1.048H18a.524.524,0,1,1,0,1.048Z" transform="translate(-1.905 -4.762)" fill="#fff"/>
      <path id="Path_82297" data-name="Path 82297" d="M27.032,26.2a.524.524,0,0,1-.5-.382l-.6-2.139a.524.524,0,0,1,.047-.4l6.144-10.967a1.047,1.047,0,0,1,1.426-.4l1.828,1.024a1.048,1.048,0,0,1,.4,1.426L29.628,25.333a.524.524,0,0,1-.315.248l-2.139.6a.52.52,0,0,1-.142.02ZM29.172,25.077Zm-2.179-1.47.4,1.426,1.426-.4,6.038-10.779L33.03,12.829Z" transform="translate(-10.908 -4.182)" fill="#fff"/>
      <path id="Path_82298" data-name="Path 82298" d="M35.478,17.494a.522.522,0,0,1-.255-.067l-2.742-1.536a.524.524,0,0,1,.512-.914l2.742,1.536a.524.524,0,0,1-.257.981Zm-4.352,7.768a.523.523,0,0,1-.256-.067L28.128,23.66a.524.524,0,1,1,.512-.914l2.742,1.536a.524.524,0,0,1-.257.981Z" transform="translate(-11.839 -5.672)" fill="#fff"/>
    </g>
  </g>
</svg>
