<svg xmlns="http://www.w3.org/2000/svg" width="40" height="40" viewBox="0 0 40 40">
  <g id="Group_164483" data-name="Group 164483" transform="translate(-216 -495)">
    <circle id="Ellipse_1246" data-name="Ellipse 1246" cx="20" cy="20" r="20" transform="translate(216 495)" fill="#f45e29"/>
    <path id="Icon_feather-phone-call" data-name="Icon feather-phone-call" d="M13.684,4.684a4.023,4.023,0,0,1,3.211,3.144M13.684,1.5a7.241,7.241,0,0,1,6.462,6.32m-.813,6.352v2.388a1.577,1.577,0,0,1-.527,1.179,1.647,1.647,0,0,1-1.245.412,16.306,16.306,0,0,1-7.015-2.444A15.69,15.69,0,0,1,5.67,10.932a15.542,15.542,0,0,1-2.5-6.9,1.571,1.571,0,0,1,.418-1.216,1.641,1.641,0,0,1,1.2-.519H7.23A1.615,1.615,0,0,1,8.856,3.665,10.046,10.046,0,0,0,9.425,5.9a1.568,1.568,0,0,1-.366,1.679L8.027,8.592A12.873,12.873,0,0,0,12.9,13.367l1.032-1.011A1.651,1.651,0,0,1,15.651,12a10.619,10.619,0,0,0,2.284.557A1.6,1.6,0,0,1,19.333,14.171Z" transform="translate(224.332 505)" fill="none" stroke="#fff" stroke-linecap="round" stroke-linejoin="round" stroke-width="1.5"/>
  </g>
</svg>
