<svg xmlns="http://www.w3.org/2000/svg" width="18" height="18.001" viewBox="0 0 18 18.001">
  <path id="Union_404" data-name="Union 404" d="M2029.383-4635a2.385,2.385,0,0,1-2.382-2.382v-11.582a2.385,2.385,0,0,1,2.382-2.382h4.417a.726.726,0,0,1,.726.728.725.725,0,0,1-.726.726h-4.417a.931.931,0,0,0-.93.929v11.582a.929.929,0,0,0,.93.928h11.58a.929.929,0,0,0,.93-.928v-4.418a.725.725,0,0,1,.727-.726.725.725,0,0,1,.725.726v4.418a2.385,2.385,0,0,1-2.382,2.382Zm3.307-4.964a.726.726,0,0,1-.726-.727V-4644a.73.73,0,0,1,.213-.515l8.273-8.272a.726.726,0,0,1,1.029,0l3.309,3.309a.735.735,0,0,1,.213.515.729.729,0,0,1-.213.513l-8.274,8.274a.729.729,0,0,1-.513.212Zm.727-3.736v2.282h2.281l7.545-7.546-2.28-2.281Z" transform="translate(-2027.001 4653.001)" fill="#f45e29"/>
</svg>
