<svg xmlns="http://www.w3.org/2000/svg" xmlns:xlink="http://www.w3.org/1999/xlink" width="100" height="90" viewBox="0 0 100 90">
  <defs>
    <linearGradient id="linear-gradient" x1="0.197" y1="0.133" x2="1" y2="1.079" gradientUnits="objectBoundingBox">
      <stop offset="0" stop-color="#f45e29"/>
      <stop offset="0.733" stop-color="#eeaf56"/>
      <stop offset="1" stop-color="#eeaf56"/>
    </linearGradient>
  </defs>
  <g id="Group_50208" data-name="Group 50208" transform="translate(-310 -207)">
    <text id="Generic_Icon" data-name="Generic Icon" transform="translate(359 319)" fill="#202124" font-size="16" font-family="OpenSans-Semibold, Open Sans" font-weight="600"><tspan x="-48.191" y="0">Generic Icon</tspan></text>
    <g id="Group_52175" data-name="Group 52175" transform="translate(74 91)">
      <g id="Ellipse_1289" data-name="Ellipse 1289" transform="translate(240 116)" stroke="#f1f1f1" stroke-width="3" fill="url(#linear-gradient)">
        <circle cx="45" cy="45" r="45" stroke="none"/>
        <circle cx="45" cy="45" r="43.5" fill="none"/>
      </g>
      <g id="noun-study-2025025" transform="translate(127.998 117.234)">
        <path id="Path_87461" data-name="Path 87461" d="M471.436,326.67h-.954a3.816,3.816,0,1,0,0,7.632h.954a2.865,2.865,0,0,0,2.862-2.862v-1.908a2.865,2.865,0,0,0-2.862-2.862Z" transform="translate(-299.956 -279.057)" fill="#4482ff" stroke="#fff" stroke-width="0.7"/>
        <path id="Path_87462" data-name="Path 87462" d="M143.818,334.3a3.816,3.816,0,1,0,0-7.632h-.954A2.865,2.865,0,0,0,140,329.53v1.908a2.865,2.865,0,0,0,2.862,2.862Z" transform="translate(0 -279.055)" fill="#4482ff" stroke="#fff" stroke-width="0.7"/>
        <path id="Path_87463" data-name="Path 87463" d="M191.951,250.513a5.724,5.724,0,0,1,0-11.448h.954a4.807,4.807,0,0,1,.954.1v-4.866a.955.955,0,0,0-.373-.756.971.971,0,0,0-.827-.166L178.6,237.123l-14.062-3.751a.969.969,0,0,0-.827.166.955.955,0,0,0-.373.756v4.866a4.807,4.807,0,0,1,.954-.1h.954a5.724,5.724,0,0,1,0,11.448h-.954a4.786,4.786,0,0,1-.954-.1v2.958a.955.955,0,0,0,.708.922l14.308,3.816a.972.972,0,0,0,.492,0l14.308-3.816a.955.955,0,0,0,.708-.922v-2.958a4.786,4.786,0,0,1-.954.1Z" transform="translate(-21.425 -193.361)" fill="#fff"/>
        <path id="Path_87464" data-name="Path 87464" d="M253.627,39.28a8.662,8.662,0,0,0-4.7-2.88,7.63,7.63,0,1,0-9.427,0,8.664,8.664,0,0,0-4.705,2.88l9.419,2.512Z" transform="translate(-87.037)" fill="#4482ff" stroke="#fff" stroke-width="0.7"/>
      </g>
    </g>
  </g>
</svg>
