<svg id="graph" xmlns="http://www.w3.org/2000/svg" width="20" height="20" viewBox="0 0 20 20">
  <g id="Group_37816" data-name="Group 37816" transform="translate(2.635 11.899)">
    <path id="Path_52933" data-name="Path 52933" d="M219.159,591.7h-3.091a.069.069,0,0,0-.069.069v7.247h3.228v-7.247A.069.069,0,0,0,219.159,591.7Z" transform="translate(-215.664 -591.36)" fill="#f45e29"/>
    <g id="Group_37815" data-name="Group 37815" transform="translate(0 0)">
      <path id="Path_52934" data-name="Path 52934" d="M204.329,576.352H202.06c-.27,0-.549-.018-.82,0a.423.423,0,0,0-.4.447v5.47c0,.567-.013,1.136,0,1.7V584a.338.338,0,0,0,.332.332H204.4a.338.338,0,0,0,.332-.332v-7.07c0-.237-.011-.507-.312-.567a.333.333,0,0,0-.177.643l-.031-.013-.12-.12c-.049-.071-.024-.171-.024-.069V584l.332-.332h-3.228l.332.332v-7.227c0-.06.04,0-.024.1l-.12.12c-.1.066-.16.02-.1.024a.652.652,0,0,0,.066,0h3a.336.336,0,0,0,.332-.332A.343.343,0,0,0,204.329,576.352Z" transform="translate(-200.833 -576.344)" fill="#f45e29"/>
    </g>
  </g>
  <g id="Group_37818" data-name="Group 37818" transform="translate(8.714 4.744)">
    <path id="Path_52935" data-name="Path 52935" d="M470.359,268.4h-3.091a.069.069,0,0,0-.069.069v14.409h3.228V268.469A.068.068,0,0,0,470.359,268.4Z" transform="translate(-466.863 -268.067)" fill="#f45e29"/>
    <g id="Group_37817" data-name="Group 37817" transform="translate(0 0)">
      <path id="Path_52936" data-name="Path 52936" d="M455.474,253.356h-2.862c-.073,0-.148,0-.222,0a.416.416,0,0,0-.408.41c-.011.23,0,.465,0,.7v12.843c0,.275,0,.549,0,.824v.035a.338.338,0,0,0,.332.332h3.228a.338.338,0,0,0,.332-.332V255.426c0-.552.022-1.108,0-1.659a.4.4,0,0,0-.312-.4.333.333,0,1,0-.177.642l-.031-.013-.12-.12c-.055-.082-.022-.164-.024-.093v13.793c0,.188-.009.379,0,.567v.024l.332-.332h-3.228l.332.332v-13.82c0-.188.009-.379,0-.567,0-.066.033.009-.024.1l-.12.12c-.1.066-.16.02-.1.024.022,0,.044,0,.066,0h3a.332.332,0,0,0,0-.665Z" transform="translate(-451.978 -253.355)" fill="#f45e29"/>
    </g>
  </g>
  <g id="Group_37820" data-name="Group 37820" transform="translate(14.718 6.955)">
    <path id="Path_52937" data-name="Path 52937" d="M721.559,368.4h-3.091a.069.069,0,0,0-.069.069v12.194h3.228V368.469A.069.069,0,0,0,721.559,368.4Z" transform="translate(-718.066 -368.063)" fill="#f45e29"/>
    <g id="Group_37819" data-name="Group 37819" transform="translate(0 0)">
      <path id="Path_52938" data-name="Path 52938" d="M706.8,353.183h-2.532c-.184,0-.37-.011-.552,0-.463.024-.408.454-.408.773V365c0,.248,0,.5,0,.742v.033a.338.338,0,0,0,.332.332h3.228a.338.338,0,0,0,.332-.332v-10.8c0-.461.018-.928,0-1.389a.408.408,0,0,0-.312-.4.333.333,0,1,0-.177.642l-.031-.013-.12-.12c-.057-.086-.022-.162-.024-.1v11.673c0,.157-.009.319,0,.476v.022l.332-.332h-3.228l.332.332v-11.7c0-.157.009-.319,0-.476,0-.064.035.009-.024.1l-.12.12c-.1.066-.159.02-.1.024a.66.66,0,0,0,.066,0h3a.331.331,0,1,0,0-.662Z" transform="translate(-703.307 -353.178)" fill="#f45e29"/>
    </g>
  </g>
  <g id="Group_37822" data-name="Group 37822" transform="translate(0 0)">
    <g id="Group_37821" data-name="Group 37821" transform="translate(0 0)">
      <path id="Path_52939" data-name="Path 52939" d="M101.446,101.25H83.155c-.247,0-.5-.007-.744,0h-.033l.465.465V83.425c0-.249,0-.5,0-.744v-.033a.465.465,0,1,0-.93,0v18.29c0,.249,0,.5,0,.744v.033a.473.473,0,0,0,.465.465h18.29c.249,0,.5,0,.744,0h.033a.465.465,0,0,0,0-.93Z" transform="translate(-81.911 -82.182)" fill="#f45e29"/>
    </g>
  </g>
</svg>
