<svg xmlns="http://www.w3.org/2000/svg" width="22.107" height="24" viewBox="0 0 22.107 24">
  <g id="Group_43644" data-name="Group 43644" transform="translate(-287.309 -39.85)">
    <path id="Path_53163" data-name="Path 53163" d="M29.219,17.757h0L27.687,15.94a3.03,3.03,0,0,1-.727-1.966V12.008a7.6,7.6,0,0,0-4.8-7.019v-.1A2.444,2.444,0,0,0,19.662,2.5H18.285a2.444,2.444,0,0,0-2.493,2.389v.1a7.654,7.654,0,0,0-4.8,7.019v1.966a3.08,3.08,0,0,1-.727,1.966L8.728,17.757a2.468,2.468,0,0,0-.39,2.788,2.733,2.733,0,0,0,2.467,1.493h3.376a4.834,4.834,0,0,0,9.557,0h3.376a2.7,2.7,0,0,0,2.467-1.493A2.508,2.508,0,0,0,29.219,17.757ZM18.961,24.881a4.194,4.194,0,0,1-3.346-2.843h6.7A4.165,4.165,0,0,1,18.961,24.881Zm9.221-5.048a1.818,1.818,0,0,1-1.066.712H10.987a2.594,2.594,0,0,1-1.269-.712c-.052-.124-.286-.637,0-.936l1.733-1.972A4.234,4.234,0,0,0,12.527,14l-.08-1.991a6.16,6.16,0,0,1,4.342-5.619c.416-.124.7-.3.7-.728V4.914c0-.249.54-.94.8-.94h1.376c.26,0,.612.691.612.94v.747c0,.423.385.579.775.728a6.1,6.1,0,0,1,4.284,5.619v1.966a4.644,4.644,0,0,0,1.175,3.05l1.374,1.693A1.278,1.278,0,0,1,28.181,19.833Z" transform="translate(279.416 37.527)" fill="#fff"/>
    <path id="Path_53163_-_Outline" data-name="Path 53163 - Outline" d="M18.973,26.35a5.074,5.074,0,0,1-3.329-1.238,4.729,4.729,0,0,1-1.6-2.869H10.829a2.916,2.916,0,0,1-2.622-1.59,2.642,2.642,0,0,1,.414-2.985l1.528-1.814A2.916,2.916,0,0,0,10.834,14V12.035a7.835,7.835,0,0,1,4.8-7.136A2.622,2.622,0,0,1,18.3,2.35h1.375A2.622,2.622,0,0,1,22.34,4.9a7.785,7.785,0,0,1,4.8,7.137V14a2.857,2.857,0,0,0,.684,1.851l1.531,1.818a2.681,2.681,0,0,1,.386,2.982,2.857,2.857,0,0,1-2.622,1.59H23.9A4.906,4.906,0,0,1,18.973,26.35ZM18.3,2.7a2.267,2.267,0,0,0-2.313,2.212v.218l-.109.046a7.488,7.488,0,0,0-4.689,6.855V14a3.269,3.269,0,0,1-.766,2.078L8.89,17.9a2.3,2.3,0,0,0-.367,2.593,2.564,2.564,0,0,0,2.306,1.4h3.53l.018.157A4.6,4.6,0,0,0,18.973,26a4.544,4.544,0,0,0,4.6-3.949l.018-.158h3.53a2.508,2.508,0,0,0,2.3-1.393,2.333,2.333,0,0,0-.338-2.6l-1.531-1.817A3.211,3.211,0,0,1,26.784,14V12.035A7.437,7.437,0,0,0,22.1,5.18l-.11-.045V4.917A2.267,2.267,0,0,0,19.673,2.7Zm.674,22.381A4.383,4.383,0,0,1,15.458,22.1l-.044-.214h7.125l-.044.214A4.314,4.314,0,0,1,18.973,25.086Zm-3.109-2.843a4.078,4.078,0,0,0,3.109,2.488,4.007,4.007,0,0,0,3.115-2.488ZM27.117,20.75H11.011a2.679,2.679,0,0,1-1.417-.8l-.02-.041c-.207-.489-.193-.862.039-1.108l1.728-1.969a4.053,4.053,0,0,0,1.03-2.805l-.08-1.995a6.31,6.31,0,0,1,4.46-5.788c.423-.127.572-.273.572-.559V4.942c0-.324.588-1.117.975-1.117h1.375c.405,0,.789.813.789,1.117v.747c0,.287.247.4.655.561a6.278,6.278,0,0,1,4.4,5.786V14a4.494,4.494,0,0,0,1.132,2.936l1.366,1.685a1.43,1.43,0,0,1,.325,1.323A1.937,1.937,0,0,1,27.117,20.75ZM9.9,19.773a2.538,2.538,0,0,0,1.112.623H27.117c.311,0,.832-.485.9-.607l.008-.016a1.187,1.187,0,0,0-.261-.895l-.02-.021-1.372-1.693A4.837,4.837,0,0,1,25.16,14V12.035a5.915,5.915,0,0,0-4.154-5.45l-.011,0c-.374-.144-.887-.341-.887-.894V4.942a1.307,1.307,0,0,0-.438-.762H18.3a1.576,1.576,0,0,0-.622.762v.747c0,.577-.439.783-.822.9a5.948,5.948,0,0,0-4.21,5.445l.08,1.995a4.44,4.44,0,0,1-1.116,3.04l-1.738,1.98C9.743,19.181,9.752,19.425,9.9,19.773Z" transform="translate(279.389 37.5)" fill="#fff"/>
  </g>
</svg>
