<svg xmlns="http://www.w3.org/2000/svg" width="11.858" height="18.568" viewBox="0 0 11.858 18.568">
  <g id="noun_action_3451742" transform="translate(-3.031 -0.405)">
    <g id="Group_48477" data-name="Group 48477" transform="translate(3.165 0.537)">
      <g id="Group_48476" data-name="Group 48476">
        <path id="Path_71113" data-name="Path 71113" d="M694.158,482.068a4.878,4.878,0,0,0-1.387,9.6v1.415a2.128,2.128,0,0,0-1.525-.645h-.305a.3.3,0,0,0-.289.4,6.481,6.481,0,0,1,.289,1.734v3.355a2.442,2.442,0,0,0,2.44,2.44h1.22v-.61h-1.22a1.82,1.82,0,0,1-1.83-1.83v-3.355a5.787,5.787,0,0,0-.207-1.505,1.51,1.51,0,0,1,1.427,1.505V496.1h.61v-8.541a.61.61,0,1,1,1.22,0v6.1h.61v-1.83a.61.61,0,1,1,1.22,0v2.44h.61v-1.83a.61.61,0,1,1,1.22,0v2.44h.61v-1.83a.61.61,0,1,1,1.22,0v6.1a.606.606,0,0,1-.61.61v.61a1.225,1.225,0,0,0,1.22-1.22v-6.1a1.225,1.225,0,0,0-1.22-1.22,1.212,1.212,0,0,1-1.83-.61.5.5,0,0,1-.942-.219,4.88,4.88,0,0,0-2.552-8.93Zm-.02.609a4.269,4.269,0,0,1,1.977,7.97,1.153,1.153,0,0,0-.9.13v-1.039a3.048,3.048,0,1,0-2.44,0v1.3a4.271,4.271,0,0,1,1.367-8.361Z" transform="translate(-689.11 -482.065)" fill="#f45e29" stroke="#f45e29" stroke-width="0.265"/>
      </g>
    </g>
  </g>
</svg>
