<svg xmlns="http://www.w3.org/2000/svg" width="19.777" height="21.808" viewBox="0 0 19.777 21.808">
  <g id="Group_47077" data-name="Group 47077" transform="translate(-629.973 -611.942)">
    <path id="Path_70953" data-name="Path 70953" d="M28.592,6.046A3.046,3.046,0,1,1,25.546,3,3.046,3.046,0,0,1,28.592,6.046Z" transform="translate(620.408 609.692)" fill="none" stroke="#f45e29" stroke-linecap="round" stroke-linejoin="round" stroke-width="1.5"/>
    <path id="Path_70954" data-name="Path 70954" d="M10.592,16.546A3.046,3.046,0,1,1,7.546,13.5,3.046,3.046,0,0,1,10.592,16.546Z" transform="translate(626.223 606.3)" fill="none" stroke="#f45e29" stroke-linecap="round" stroke-linejoin="round" stroke-width="1.5"/>
    <path id="Path_70955" data-name="Path 70955" d="M28.592,27.046A3.046,3.046,0,1,1,25.546,24,3.046,3.046,0,0,1,28.592,27.046Z" transform="translate(620.408 602.908)" fill="none" stroke="#f45e29" stroke-linecap="round" stroke-linejoin="round" stroke-width="1.5"/>
    <path id="Path_70956" data-name="Path 70956" d="M12.885,20.265l6.935,4.041" transform="translate(623.514 604.115)" fill="none" stroke="#f45e29" stroke-linecap="round" stroke-linejoin="round" stroke-width="1.5"/>
    <path id="Path_70957" data-name="Path 70957" d="M19.81,9.765l-6.925,4.041" transform="translate(623.514 607.507)" fill="none" stroke="#f45e29" stroke-linecap="round" stroke-linejoin="round" stroke-width="1.5"/>
  </g>
</svg>
