<svg xmlns="http://www.w3.org/2000/svg" xmlns:xlink="http://www.w3.org/1999/xlink" width="275" height="90" viewBox="0 0 275 90">
  <defs>
    <linearGradient id="linear-gradient" x1="0.241" y1="0.253" x2="1" y2="1.039" gradientUnits="objectBoundingBox">
      <stop offset="0" stop-color="#eaf1ff"/>
      <stop offset="1" stop-color="#d6e4ff"/>
    </linearGradient>
    <clipPath id="clip-path">
      <rect id="Rectangle_23875" data-name="Rectangle 23875" width="275" height="90" rx="8" transform="translate(0 -52)" fill="url(#linear-gradient)"/>
    </clipPath>
    <clipPath id="clip-path-2">
      <rect id="Rectangle_23874" data-name="Rectangle 23874" width="589.604" height="386.483" fill="#85b5d5"/>
    </clipPath>
  </defs>
  <g id="Mask_Group_76463" data-name="Mask Group 76463" transform="translate(0 52)" clip-path="url(#clip-path)">
    <g id="Group_192154" data-name="Group 192154" transform="translate(-162.248 -146.483)" opacity="0.3">
      <g id="Group_192153" data-name="Group 192153" clip-path="url(#clip-path-2)">
        <path id="Path_146873" data-name="Path 146873" d="M1229.518,0h-1.351q.7,3.049,1.351,6.109Z" transform="translate(-639.915)" fill="#85b5d5"/>
        <path id="Path_146874" data-name="Path 146874" d="M1112.954,396.654a418.772,418.772,0,0,1-26.522,81.737,431.813,431.813,0,0,1-81.983,122.9h2.574A433.482,433.482,0,0,0,1088.2,479.1a421.2,421.2,0,0,0,24.757-73.724Z" transform="translate(-523.351 -214.809)" fill="#85b5d5"/>
        <path id="Path_146875" data-name="Path 146875" d="M1094.967,61.525A448.072,448.072,0,0,0,1086.656,0h-2.44a450.245,450.245,0,0,1,9.3,84.571,449.553,449.553,0,0,1-3.137,64.135,380.48,380.48,0,0,1-50.34,145.994c-16.289,27.364-35.869,53.751-59.859,80.669q-5.073,5.693-10.256,11.114h3.249q4.454-4.717,8.829-9.626c24.089-27.028,43.754-53.531,60.119-81.022a382.73,382.73,0,0,0,50.636-146.851c.945-7.453,1.679-15.1,2.208-23Z" transform="translate(-505.363)" fill="#85b5d5"/>
        <path id="Path_146876" data-name="Path 146876" d="M941.014,386.483q10.087-10.591,19.8-22.334c17.173-20.762,39.35-48.673,58.584-80.49a348.571,348.571,0,0,0,48.129-145.411c2.14-22.484,1.8-44.536,1.188-63.143A495.618,495.618,0,0,0,1060.6,0h-2.432a493.272,493.272,0,0,1,8.151,75.177h0c.611,18.538.948,40.5-1.179,62.861a346.332,346.332,0,0,1-47.818,144.474c-19.156,31.688-41.266,59.513-58.388,80.214q-10.387,12.558-21.169,23.757Z" transform="translate(-488.608)" fill="#85b5d5"/>
        <path id="Path_146877" data-name="Path 146877" d="M910.482,386.483a394.613,394.613,0,0,0,29.827-34.908l3.468-4.538c18.171-23.766,36.961-48.341,53.594-75.436a316.7,316.7,0,0,0,45.653-144.075c1.3-20.808.244-41.679-.776-61.864A559.317,559.317,0,0,0,1035.136,0h-2.91a556.279,556.279,0,0,1,7.15,65.794c1.017,20.112,2.069,40.908.779,61.563a314.02,314.02,0,0,1-45.264,142.851c-16.558,26.974-35.3,51.492-53.434,75.2l-3.47,4.539a387.778,387.778,0,0,1-31.437,36.532Z" transform="translate(-472.342)" fill="#85b5d5"/>
        <path id="Path_146878" data-name="Path 146878" d="M881.206,386.483c13.506-13.447,26.226-28.881,39.379-47.629,5.764-8.217,11.826-16.555,17.689-24.618,12.643-17.389,25.716-35.37,37.834-54.81a290.882,290.882,0,0,0,43.144-142.646c.467-16.487-.716-32.669-1.97-49.8q-.39-5.329-.772-10.753c-1.368-19.851-3.415-38.517-6.175-56.225h-2.907c2.781,17.754,4.842,36.478,6.215,56.406q.374,5.433.772,10.765c1.249,17.063,2.428,33.18,1.964,49.53a288.219,288.219,0,0,1-42.741,141.319c-12.065,19.355-25.109,37.3-37.723,54.645-5.869,8.072-11.938,16.42-17.717,24.656-13.682,19.5-26.885,35.386-41,49.162Z" transform="translate(-457.05)" fill="#85b5d5"/>
        <path id="Path_146879" data-name="Path 146879" d="M852.188,386.483c21.584-20.058,36.6-41.461,48.613-60.233,7.919-12.374,16.319-24.21,25.213-36.741,9.526-13.421,19.376-27.3,28.769-42.14a267.414,267.414,0,0,0,40.671-141.34c-.1-13.881-1.495-27.372-2.974-41.655-.593-5.72-1.205-11.635-1.732-17.607C989.27,30.006,987.5,14.522,985.4,0h-3.385c2.124,14.591,3.9,30.163,5.392,47.038.528,5.995,1.142,11.922,1.736,17.654C990.615,78.9,992,92.318,992.1,106.045A264.254,264.254,0,0,1,951.913,245.71c-9.345,14.765-19.171,28.608-28.672,42-8.917,12.563-17.339,24.43-25.3,36.868-12.361,19.315-27.922,41.435-50.6,61.909Z" transform="translate(-441.49)" fill="#85b5d5"/>
        <path id="Path_146880" data-name="Path 146880" d="M822.263,386.483q1.616-1.344,3.212-2.714c23.979-20.69,39.387-43.049,55.145-70.254,8.823-15.231,18.866-29.527,29.5-44.663,7.55-10.746,15.357-21.858,22.939-33.655a244.991,244.991,0,0,0,29.9-68,237.916,237.916,0,0,0,8.256-71.922c-.5-12.155-2.141-23.875-3.874-36.283-.98-7.014-1.993-14.266-2.8-21.668C963.159,24.5,961.656,12.064,959.965,0h-3.383c1.71,12.164,3.229,24.706,4.632,37.655.807,7.449,1.823,14.726,2.806,21.763,1.723,12.332,3.351,23.98,3.848,35.985a234.872,234.872,0,0,1-8.152,70.991A241.874,241.874,0,0,1,930.2,233.519c-7.544,11.738-15.331,22.822-22.862,33.542-10.675,15.194-20.757,29.546-29.649,44.9-15.6,26.924-30.824,49.034-54.457,69.425q-3.023,2.6-6.13,5.1Z" transform="translate(-425.736)" fill="#85b5d5"/>
        <path id="Path_146881" data-name="Path 146881" d="M789.852,386.483a218.539,218.539,0,0,0,18.363-14.9c24.563-22.278,38.59-47.194,50.85-70.806,9-17.326,20.147-33.229,31.952-50.066,6.209-8.856,12.629-18.012,18.942-27.687,26.406-40.8,39.4-91.28,35.649-138.507-.867-10.925-2.738-21.385-4.718-32.46-1.395-7.8-2.837-15.862-3.914-24.178C935.74,18.346,934.518,9.069,933.25,0h-3.384c1.287,9.194,2.529,18.6,3.781,28.274,1.086,8.39,2.535,16.49,3.936,24.325,1.967,11,3.825,21.387,4.68,32.161,3.7,46.564-9.117,96.344-35.152,136.569-6.281,9.625-12.685,18.759-18.879,27.593-11.867,16.926-23.077,32.913-32.171,50.426-12.126,23.353-25.988,47.988-50.153,69.9a215.389,215.389,0,0,1-21.681,17.231Z" transform="translate(-408.608)" fill="#85b5d5"/>
        <path id="Path_146882" data-name="Path 146882" d="M752.619,386.483a200.248,200.248,0,0,0,35.931-27.25c22.593-21.562,34.427-45.044,46.5-71.292,8.721-18.955,20.654-35.918,33.287-53.878,5.256-7.473,10.692-15.2,16.082-23.334a209.854,209.854,0,0,0,28.708-66.872,202.806,202.806,0,0,0,4.392-70.076,299.825,299.825,0,0,0-5.51-29.53c-1.832-8.286-3.727-16.854-5.082-25.784-.89-5.863-1.77-11.8-2.62-17.549q-.067-.459-.136-.918h-2.9q.1.652.193,1.3c.852,5.748,1.732,11.69,2.622,17.559,1.369,9.018,3.273,17.63,5.114,25.958,2.208,9.989,4.294,19.423,5.466,29.272a200.126,200.126,0,0,1-4.338,69.154,207.176,207.176,0,0,1-28.336,66.014c-5.365,8.1-10.789,15.809-16.035,23.266-12.707,18.064-24.709,35.127-33.533,54.306-11.956,25.989-23.663,49.228-45.9,70.452a197.176,197.176,0,0,1-39.456,29.2Z" transform="translate(-389.245)" fill="#85b5d5"/>
        <path id="Path_146883" data-name="Path 146883" d="M81.276,824.085c-3.253-.419-6.507-.855-9.706-1.317C48.14,819.385,23.5,815.238,0,808.049v2.888c20.266,6.13,41.313,10.031,61.69,13.148Z" transform="translate(0 -437.602)" fill="#85b5d5"/>
        <path id="Path_146884" data-name="Path 146884" d="M703.735,386.483q6.858-2.918,13.493-6.4a183.9,183.9,0,0,0,44.759-33.033c22.393-22.513,32.016-46.475,42.2-71.845,8.052-20.051,20.412-37.516,33.5-56.006,4.679-6.612,9.518-13.449,14.335-20.641,26.43-39.46,37.864-90.126,30.586-135.532A272.979,272.979,0,0,0,876.338,35.8c-2.283-8.574-4.644-17.44-6.28-26.778h0q-.789-4.5-1.543-9.023H865.6q.792,4.741,1.619,9.478c1.656,9.451,4.032,18.374,6.33,27a270.867,270.867,0,0,1,6.214,26.963c7.176,44.762-4.1,94.717-30.164,133.63-4.8,7.163-9.626,13.985-14.295,20.583-13.18,18.624-25.63,36.216-33.8,56.562-10.082,25.105-19.6,48.819-41.6,70.934a180.728,180.728,0,0,1-63.559,41.331Z" transform="translate(-362.819)" fill="#85b5d5"/>
        <path id="Path_146885" data-name="Path 146885" d="M92.729,791.922c6.741.745,13.711,1.514,20.624,2.462,17.217,2.344,36.028,5.759,57.346,10.409h12.451c-2.175-.52-4.364-1.034-6.572-1.527-23.575-5.263-44.124-9.06-62.819-11.6-6.951-.953-13.941-1.725-20.7-2.471-5.089-.562-10.352-1.143-15.454-1.788-27.1-3.426-53.541-7.449-77.6-14.975v2.908c25.119,7.8,51.863,11.587,77.228,14.794,5.125.647,10.4,1.229,15.5,1.793" transform="translate(0 -418.31)" fill="#85b5d5"/>
        <path id="Path_146886" data-name="Path 146886" d="M83.342,355.522c4.174.449,8.461.857,12.607,1.251,7.424.706,15.1,1.436,22.721,2.452a523.769,523.769,0,0,1,60.874,12.14c6.184,1.578,12.248,3.336,18.112,5.036,9.437,2.736,18.35,5.321,27.779,7.239q8.676,1.765,17.34,2.841H296.7q2.157-.276,4.307-.593a167.655,167.655,0,0,0,54.206-17.883,169.557,169.557,0,0,0,43.634-33.3c20.518-21.755,28.425-44.817,36.8-69.233l1.058-3.083c7.267-21.136,20.039-39.02,33.561-57.955,4.161-5.826,8.463-11.851,12.767-18.18C509.678,147.074,520.157,97,511.064,52.314a250.228,250.228,0,0,0-7.005-25.331A265.135,265.135,0,0,1,496.636,0h-2.443c0,.018.007.036.011.055a263.6,263.6,0,0,0,7.561,27.59,248.612,248.612,0,0,1,6.948,25.109c4.329,21.278,4.159,44.569-.5,67.355a180.593,180.593,0,0,1-27.193,64.9c-4.289,6.307-8.584,12.321-12.737,18.137-13.62,19.073-26.485,37.087-33.858,58.532l-1.059,3.084c-8.289,24.179-16.119,47.017-36.3,68.411A167.169,167.169,0,0,1,354.053,366a165.209,165.209,0,0,1-53.411,17.621,214.808,214.808,0,0,1-74.708-2.226c-9.33-1.9-18.2-4.469-27.583-7.191-5.883-1.706-11.967-3.47-18.19-5.058A526.229,526.229,0,0,0,119,356.955c-7.665-1.022-15.366-1.755-22.813-2.463-4.139-.393-8.418-.8-12.576-1.248-24.1-2.592-54.092-5.818-80.558-14.106q-1.541-.483-3.052-.986v2.423c.765.25,1.532.5,2.308.741,26.7,8.361,56.827,11.6,81.035,14.205" transform="translate(0 0.001)" fill="#85b5d5"/>
        <path id="Path_146887" data-name="Path 146887" d="M502.573,41.567a231.6,231.6,0,0,0-7.73-23.754C492.736,12.044,490.587,6.14,488.73,0h-2.49c1.916,6.423,4.15,12.569,6.342,18.569A230.149,230.149,0,0,1,500.243,42.1c5.165,20.775,5.652,43.738,1.408,66.407a168.535,168.535,0,0,1-26.588,64.317c-3.9,5.65-7.794,11.043-11.56,16.257-14.558,20.163-27.131,37.577-33.554,59.979q-.857,2.991-1.694,5.967c-6.569,23.242-12.773,45.2-31.366,66.014a154.362,154.362,0,0,1-94.837,50.188,199.659,199.659,0,0,1-73.627-4.287c-8.737-2.133-16.995-4.888-25.738-7.805-6.1-2.034-12.4-4.137-18.889-6.013a394.817,394.817,0,0,0-59.527-12.789c-8.225-1.065-16.481-1.711-24.465-2.335-3.342-.261-6.8-.532-10.162-.827l-2.936-.257C60.77,334.646,33.948,332.3,9.26,324.982q-4.776-1.416-9.26-3.04v2.427c27.234,9.642,57.924,12.33,86.492,14.828l2.934.257c3.376.3,6.838.567,10.186.829,7.953.623,16.177,1.266,24.341,2.322a392.488,392.488,0,0,1,59.154,12.712c6.441,1.862,12.72,3.956,18.793,5.983,8.792,2.934,17.1,5.7,25.934,7.862a206.575,206.575,0,0,0,49.045,6,195.471,195.471,0,0,0,25.5-1.664,156.79,156.79,0,0,0,96.33-50.969c18.945-21.213,25.218-43.408,31.858-66.906q.839-2.972,1.692-5.959c6.316-22.027,18.781-39.292,33.214-59.283,3.772-5.224,7.672-10.625,11.588-16.3a170.8,170.8,0,0,0,26.947-65.177c4.3-22.977,3.8-46.264-1.435-67.342" fill="#85b5d5"/>
        <path id="Path_146888" data-name="Path 146888" d="M493.851,30.881A219.5,219.5,0,0,0,485.412,8.5C484.24,5.7,483.055,2.873,481.9,0h-2.05c1.238,3.109,2.516,6.162,3.781,9.179a214.854,214.854,0,0,1,8.373,22.2c6.005,20.3,7.151,42.967,3.313,65.556A157.82,157.82,0,0,1,469.3,160.761c-3.611,5.15-7.2,10.063-10.677,14.815-14.8,20.243-27.579,37.725-32.918,60.913-.638,2.773-1.26,5.582-1.862,8.3-4.991,22.543-9.7,43.836-26.954,64.261a143.067,143.067,0,0,1-93.4,50.009A188.762,188.762,0,0,1,230.85,352.7c-8.245-2.365-15.992-5.309-24.194-8.425-6.214-2.361-12.64-4.8-19.3-6.965-20.752-6.743-39.673-11.119-57.847-13.375-8.646-1.084-17.321-1.6-25.712-2.107-2.726-.163-5.44-.326-8.139-.507q-3.548-.238-7.145-.468C59.013,318.943,27.11,316.872,0,305.84v2.008c27.2,10.864,58.973,12.931,88.388,14.839q3.593.233,7.141.469c2.7.181,5.422.344,8.153.507,8.358.5,17,1.019,25.584,2.095,18.047,2.241,36.848,6.589,57.478,13.293,6.61,2.148,13.013,4.581,19.206,6.933,8.242,3.131,16.026,6.089,24.351,8.477a194.141,194.141,0,0,0,53.258,7.545,178.869,178.869,0,0,0,20.161-1.126A145,145,0,0,0,398.381,310.2c17.539-20.769,22.3-42.27,27.339-65.035.6-2.713,1.222-5.518,1.858-8.284,5.257-22.832,17.936-40.175,32.617-60.257,3.479-4.759,7.076-9.679,10.7-14.845a159.608,159.608,0,0,0,26.318-64.551c3.883-22.853,2.721-45.8-3.36-66.351" fill="#85b5d5"/>
        <path id="Path_146889" data-name="Path 146889" d="M485.359,20.142A196.9,196.9,0,0,0,476.719,0h-2.106a199.389,199.389,0,0,1,8.926,20.718c6.834,19.787,8.636,42.129,5.211,64.612a147.837,147.837,0,0,1-25.41,63.243c-3.39,4.761-6.755,9.3-10.008,13.691-14.985,20.219-27.928,37.682-32.1,61.6-.594,3.408-1.146,6.866-1.679,10.211-3.506,21.978-6.818,42.737-22.845,62.839A132.7,132.7,0,0,1,304.9,346.661a176.152,176.152,0,0,1-71.567-8.414c-7.818-2.592-15.123-5.727-22.859-9.046-6.261-2.686-12.734-5.463-19.483-7.914-19.725-7.164-38.636-11.864-56.205-13.97-8.983-1.086-17.991-1.448-26.7-1.8q-3.2-.128-6.384-.266-5.143-.232-10.41-.433C60.514,303.59,27.014,302.247,0,289.208v2.082c27.169,12.8,60.53,14.136,91.21,15.362,3.5.14,6.975.278,10.4.433q3.184.143,6.394.267c8.672.348,17.64.707,26.544,1.785,17.42,2.088,36.181,6.752,55.764,13.865,6.695,2.432,13.143,5.2,19.379,7.873,7.433,3.189,15.118,6.486,23.015,9.1a180.816,180.816,0,0,0,56.627,9.25c5.295,0,10.559-.247,15.758-.743a134.627,134.627,0,0,0,93.143-50.463c16.324-20.475,19.827-42.437,23.215-63.676.533-3.338,1.084-6.79,1.675-10.185,4.1-23.5,16.922-40.8,31.77-60.837,3.259-4.4,6.628-8.943,10.028-13.719a149.638,149.638,0,0,0,25.723-64.011c3.467-22.763,1.639-45.4-5.287-65.453" transform="translate(-0.001)" fill="#85b5d5"/>
        <path id="Path_146890" data-name="Path 146890" d="M476.865,9.4c-1.268-3.191-2.713-6.322-4.236-9.4h-2.112c1.649,3.3,3.188,6.609,4.557,10.055,7.658,19.273,10.115,41.289,7.106,63.668a138.732,138.732,0,0,1-24.8,62.663c-3.225,4.46-6.42,8.708-9.508,12.815-15.121,20.106-28.18,37.47-31.1,62.031-.467,3.929-.856,7.927-1.233,11.792-2,20.591-4.076,41.883-19,61.749a124.088,124.088,0,0,1-90.222,49.493,164.819,164.819,0,0,1-70.493-10.474c-7.447-2.82-14.369-6.15-21.7-9.674-6.252-3.007-12.717-6.117-19.5-8.855-19.018-7.684-37.377-12.585-54.564-14.567-9.259-1.079-18.54-1.252-27.516-1.42q-2.412-.045-4.808-.095c-4.244-.093-8.473-.147-12.95-.2C62.3,288.557,26.653,288.093,0,271.913v2.2c26.917,15.819,62.388,16.278,94.76,16.695,4.473.058,8.7.112,12.932.2q2.4.053,4.815.095c8.927.167,18.159.339,27.323,1.407,17.011,1.962,35.195,6.818,54.049,14.436,6.722,2.715,13.158,5.811,19.382,8.8,7.043,3.387,14.325,6.89,21.852,9.74a168.822,168.822,0,0,0,59.477,11.051q5.97,0,11.874-.454a126.022,126.022,0,0,0,91.623-50.249c15.23-20.271,17.326-41.815,19.354-62.65.376-3.856.764-7.844,1.229-11.755,2.868-24.086,15.791-41.27,30.755-61.168,3.095-4.114,6.294-8.368,9.529-12.842A140.532,140.532,0,0,0,484.08,73.957c3.049-22.677.554-45-7.216-64.554" fill="#85b5d5"/>
        <path id="Path_146891" data-name="Path 146891" d="M468.7,0h-1.56c8.257,18.634,11.27,40.1,8.707,62.142a130.6,130.6,0,0,1-24.234,62.189c-3.105,4.228-6.175,8.247-9.143,12.133-15.2,19.9-28.319,37.077-29.931,62.153-.281,4.358-.436,8.808-.586,13.112-.71,20.295-1.443,41.281-15.4,61.035A116.151,116.151,0,0,1,307.732,322.1,154.8,154.8,0,0,1,238.2,309.547c-7.134-3.055-14.031-6.752-20.7-10.327-6.192-3.319-12.6-6.751-19.347-9.774-18.307-8.2-36.089-13.292-52.849-15.146a205.356,205.356,0,0,0-22.813-.99q-2.654,0-5.278.015-1.725.008-3.442.013c-4.857.012-9.739.091-14.907.175-34.709.563-73.144,1.181-98.866-19.928v1.831c26.054,20.651,64.307,20.033,98.891,19.472,5.163-.084,10.04-.163,14.886-.175q1.719,0,3.445-.013c9.121-.038,18.554-.08,27.919.966,16.607,1.837,34.239,6.892,52.406,15.025,6.7,3,13.084,6.421,19.254,9.728,6.7,3.59,13.623,7.3,20.816,10.382a157.728,157.728,0,0,0,61.777,12.914q4.226,0,8.426-.245a117.6,117.6,0,0,0,89.921-49.935c14.19-20.083,14.931-41.27,15.647-61.76.15-4.294.306-8.734.584-13.073,1.586-24.675,13.973-40.893,29.657-61.426,2.972-3.892,6.046-7.916,9.158-12.154a131.95,131.95,0,0,0,24.487-62.829c2.565-22.063-.4-43.568-8.576-62.294" fill="#85b5d5"/>
        <path id="Path_146892" data-name="Path 146892" d="M464.813,0h-1.52a114.92,114.92,0,0,1,5.954,50.513,123.476,123.476,0,0,1-23.6,61.631c-2.958,3.949-5.876,7.7-8.7,11.331-15.99,20.561-28.62,36.8-28.877,62.5-.047,4.717.085,9.551.214,14.227.549,20.043,1.118,40.768-11.912,60.417A108.851,108.851,0,0,1,309.135,309.7a145.538,145.538,0,0,1-68.459-14.611c-6.847-3.289-13.43-7.2-19.8-10.986-6.1-3.626-12.411-7.376-19.1-10.685-17.631-8.718-34.857-14.014-51.2-15.741a146.324,146.324,0,0,0-15.522-.727c-4.408,0-8.784.128-13.09.253l-2.154.062c-5.308.15-10.693.405-16.4.675C65.69,259.726,23.411,261.722,0,232.195v2.255c24.013,28.623,65.978,26.641,103.489,24.866,5.694-.269,11.073-.524,16.367-.673l2.155-.062c9.284-.271,18.885-.55,28.41.466,16.168,1.708,33.225,6.955,50.7,15.6,6.639,3.283,12.924,7.019,19,10.631,6.393,3.8,13,7.73,19.91,11.047a148.021,148.021,0,0,0,63.785,14.863q2.693,0,5.378-.107a110.281,110.281,0,0,0,88.394-49.716c13.265-20,12.691-40.942,12.136-61.19-.128-4.663-.261-9.485-.213-14.178.252-25.252,12.759-41.334,28.592-61.695,2.826-3.634,5.749-7.392,8.716-11.353a124.814,124.814,0,0,0,23.858-62.3A116.36,116.36,0,0,0,464.813,0" fill="#85b5d5"/>
        <path id="Path_146893" data-name="Path 146893" d="M460.515,0h-1.481c9.2,32.9,2.325,71.267-19.346,99.959-2.906,3.819-5.768,7.44-8.537,10.942-16.026,20.27-28.685,36.281-27.54,62.439.219,5.019.683,10.183,1.131,15.179,1.78,19.848,3.621,40.372-8.542,59.963-18.828,30.286-50.051,48.082-85.661,48.826-22.825.483-46.126-5.289-67.39-16.671-6.6-3.531-12.9-7.669-19-11.672-5.978-3.923-12.16-7.981-18.746-11.57-16.962-9.242-33.634-14.74-49.552-16.338a117.547,117.547,0,0,0-11.86-.55c-5.783,0-11.526.32-17.154.634l-.987.055c-5.626.313-11.391.776-17.5,1.266-40.479,3.249-86.36,6.932-105.7-33.152-.9-1.87-1.79-3.78-2.662-5.678v3.391c.449.959.9,1.916,1.357,2.863,8.821,18.285,23.839,29.266,45.913,33.569,19.215,3.747,40.562,2.034,61.208.376,6.094-.489,11.851-.951,17.458-1.263l.987-.055c9.407-.524,19.135-1.067,28.78-.09,15.72,1.579,32.2,7.017,48.992,16.165,6.535,3.561,12.691,7.6,18.644,11.509,6.125,4.019,12.456,8.175,19.109,11.737a139.3,139.3,0,0,0,65.473,16.874c.883,0,1.767-.009,2.649-.027,36.117-.754,67.777-18.8,86.865-49.5,12.4-19.972,10.538-40.72,8.739-60.784-.447-4.98-.909-10.13-1.127-15.119-1.123-25.664,11.4-41.5,27.25-61.552,2.773-3.507,5.639-7.133,8.553-10.964C462.691,71.851,469.666,33.211,460.515,0" fill="#85b5d5"/>
        <path id="Path_146894" data-name="Path 146894" d="M454.713,0h-.981a107.361,107.361,0,0,1,2.612,30.981,111.394,111.394,0,0,1-22.425,60.6c-2.873,3.719-5.7,7.235-8.434,10.635-16.015,19.918-28.665,35.649-26.094,62.133.512,5.27,1.338,10.717,2.137,15.984,2.995,19.739,6.092,40.15-5.292,59.791a98.5,98.5,0,0,1-34.506,35.227,96.156,96.156,0,0,1-49.786,13.461h-.2c-22.654,0-45.558-6.487-66.249-18.764-6.379-3.786-12.439-8.161-18.3-12.393-5.826-4.207-11.851-8.557-18.294-12.419-16.266-9.748-32.349-15.435-47.8-16.9-3.124-.3-6.245-.42-9.353-.42-6.7,0-13.345.562-19.838,1.111-5.83.494-11.871,1.189-18.266,1.925-19.955,2.3-40.59,4.672-58.984,1.517-20.943-3.593-34.939-14-42.789-31.817-1.211-2.749-2.387-5.588-3.523-8.333A189.051,189.051,0,0,0,0,174.036v2.023c2.833,5.432,5.169,11.066,7.458,16.594C8.6,195.4,9.774,198.246,10.989,201c7.986,18.125,22.215,28.711,43.5,32.363,18.535,3.18,39.242.8,59.267-1.509,6.387-.735,12.421-1.43,18.236-1.922,9.46-.8,19.242-1.628,29.013-.692,15.3,1.453,31.247,7.094,47.387,16.767,6.408,3.84,12.415,8.178,18.226,12.373,5.877,4.244,11.955,8.632,18.371,12.44,20.843,12.368,43.919,18.9,66.753,18.9h.2a97.131,97.131,0,0,0,50.291-13.6,99.434,99.434,0,0,0,34.838-35.561c11.54-19.912,8.42-40.478,5.4-60.367-.8-5.256-1.622-10.691-2.131-15.937-2.537-26.125,10.012-41.731,25.9-61.489,2.737-3.4,5.567-6.923,8.446-10.65A112.3,112.3,0,0,0,457.3,31.034,108.261,108.261,0,0,0,454.713,0" fill="#85b5d5"/>
        <path id="Path_146895" data-name="Path 146895" d="M448.428,0h-.974a105.09,105.09,0,0,1-19.5,86.269c-2.854,3.638-5.659,7.067-8.371,10.383-16.023,19.589-28.679,35.062-24.652,61.917.823,5.49,2.039,11.187,3.215,16.7,4.191,19.629,8.524,39.927-2.081,59.585a93.086,93.086,0,0,1-33.421,35.535,90.276,90.276,0,0,1-49.3,12.907c-28.457-.46-51.263-11.58-65.383-20.827-6.178-4.046-12.013-8.667-17.658-13.137s-11.507-9.113-17.783-13.243c-15.6-10.272-31.129-16.159-46.142-17.5-2.478-.223-4.975-.316-7.457-.316a182.4,182.4,0,0,0-20.964,1.559c-5.945.687-12.174,1.633-18.769,2.634-18.5,2.809-39.465,5.993-57.258,3.392C41.659,222.891,28.369,212.83,21.3,195.1c-1.071-2.689-2.1-5.467-3.1-8.153-3.578-9.643-7.278-19.613-13.8-28.182a56.761,56.761,0,0,0-4.4-5.1v1.364A55.481,55.481,0,0,1,3.621,159.3c6.445,8.461,10.121,18.368,13.676,27.949,1,2.692,2.032,5.475,3.108,8.174,7.2,18.069,20.738,28.32,41.379,31.337,17.94,2.622,38.985-.573,57.552-3.392,6.586-1,12.807-1.945,18.734-2.629,8.193-.946,18.39-2.124,28.217-1.241,14.849,1.324,30.221,7.158,45.689,17.34,6.24,4.108,12.073,8.727,17.714,13.195,5.66,4.482,11.514,9.118,17.728,13.187,20.4,13.362,43.194,20.62,65.906,20.987.673.013,1.342.019,2.011.019a90.879,90.879,0,0,0,47.821-13.068,94.026,94.026,0,0,0,33.76-35.889c10.76-19.945,6.392-40.4,2.168-60.189-1.173-5.5-2.387-11.179-3.206-16.642-3.969-26.468,8.575-41.8,24.458-61.221,2.715-3.32,5.523-6.752,8.383-10.4A106.009,106.009,0,0,0,448.428,0" fill="#85b5d5"/>
        <path id="Path_146896" data-name="Path 146896" d="M441.984,0H441.5a98.17,98.17,0,0,1,1.926,21.534A99.523,99.523,0,0,1,422.182,81.1c-2.845,3.571-5.638,6.926-8.339,10.171-15.989,19.21-28.619,34.384-23.136,61.478,1.148,5.673,2.7,11.322,4.345,17.3,5.386,19.591,10.955,39.849,1.059,59.628-15.828,31.609-46.249,49.67-81.378,48.323-28.274-1.025-50.658-13.039-64.456-22.936-5.97-4.315-11.585-9.175-17.015-13.875-5.492-4.754-11.171-9.669-17.27-14.074-14.906-10.768-29.832-16.841-44.361-18.048-2-.167-4-.242-6-.242a147.656,147.656,0,0,0-21.6,2.036c-5.974.886-12.312,2.094-19.022,3.372-18.033,3.435-38.473,7.327-55.747,5.278-19.751-2.344-32.432-12.121-38.767-29.891-.945-2.652-1.842-5.392-2.71-8.042-3.132-9.564-6.37-19.453-12.652-27.808A56.444,56.444,0,0,0,0,140.1v.548a55.789,55.789,0,0,1,14.75,13.388c6.237,8.3,9.463,18.149,12.584,27.678.868,2.653,1.766,5.4,2.714,8.053,6.4,17.952,19.209,27.83,39.161,30.2,17.351,2.06,37.831-1.841,55.9-5.283,6.706-1.278,13.039-2.484,19-3.369,9.286-1.378,18.376-2.551,27.48-1.79,14.439,1.2,29.281,7.242,44.114,17.957,6.082,4.394,11.753,9.3,17.237,14.049,5.438,4.706,11.061,9.573,17.049,13.9,13.853,9.937,36.327,22,64.724,23.028,1.238.048,2.464.071,3.69.071,33.756,0,62.785-17.988,78.14-48.654,9.972-19.931,4.38-40.272-1.028-59.943-1.642-5.973-3.193-11.614-4.338-17.273-2.5-12.375-1.427-22.96,3.389-33.312,4.412-9.483,11.475-17.968,19.652-27.792,2.7-3.247,5.5-6.6,8.345-10.179A99.973,99.973,0,0,0,443.9,21.543,98.584,98.584,0,0,0,441.984,0" fill="#85b5d5"/>
        <path id="Path_146897" data-name="Path 146897" d="M435.72,0h-.529a93.936,93.936,0,0,1,1.668,17.712,94.167,94.167,0,0,1-20.642,59c-2.842,3.513-5.629,6.8-8.324,9.985-16.612,19.613-28.614,33.783-21.646,61.182,1.485,5.841,3.446,11.675,5.522,17.851,6.564,19.537,13.352,39.739,4.177,59.591a83.719,83.719,0,0,1-31.339,36.192c-14.071,8.8-30.835,12.907-48.477,11.889-21.993-1.246-44.508-10.126-63.4-25-5.832-4.612-11.284-9.764-16.557-14.748s-10.717-10.129-16.574-14.77c-14.243-11.286-28.607-17.557-42.693-18.638-1.607-.123-3.212-.18-4.816-.18-7.5,0-14.944,1.23-22,2.525-5.937,1.089-12.318,2.563-19.072,4.124-17.59,4.064-37.525,8.67-54.288,7.181-19.188-1.7-31.226-11.161-36.8-28.909-.827-2.632-1.6-5.354-2.343-7.985-2.686-9.479-5.462-19.28-11.507-27.433-5.753-7.761-14.5-13.952-26.076-18.5v.495c11.4,4.5,20.015,10.618,25.685,18.266,6,8.086,8.761,17.848,11.435,27.288.746,2.634,1.518,5.359,2.346,8,5.639,17.947,17.812,27.51,37.216,29.233,16.842,1.495,36.82-3.12,54.446-7.192,6.748-1.559,13.123-3.032,19.05-4.119,8.536-1.566,17.627-3.037,26.691-2.339,13.987,1.074,28.261,7.309,42.427,18.534,5.84,4.628,11.28,9.77,16.542,14.743,5.28,4.99,10.74,10.151,16.589,14.776,18.968,14.94,41.581,23.857,63.673,25.108q2.657.153,5.285.153A81.519,81.519,0,0,0,364.868,261.9a84.183,84.183,0,0,0,31.515-36.39c9.249-20.012,2.433-40.3-4.159-59.918-2.072-6.168-4.031-11.994-5.512-17.819-6.913-27.179,5.028-41.275,21.553-60.785,2.7-3.184,5.486-6.476,8.331-9.993A94.886,94.886,0,0,0,435.72,0" fill="#85b5d5"/>
        <path id="Path_146898" data-name="Path 146898" d="M430.774,13.423A90.548,90.548,0,0,0,429.5,0h-.485a90.134,90.134,0,0,1,1.277,13.432,89.19,89.19,0,0,1-20.042,58.433c-2.844,3.46-5.63,6.692-8.324,9.817-16.609,19.266-28.609,33.186-20.141,60.867,1.833,5.99,4.213,11.989,6.732,18.342,7.736,19.5,15.736,39.669,7.259,59.613-6.57,15.459-17.033,28.073-30.257,36.475-13.836,8.792-30.433,12.721-48,11.363-21.928-1.7-44.067-11.31-62.339-27.072-5.713-4.929-11.022-10.4-16.155-15.687-5.031-5.184-10.234-10.544-15.821-15.4-13.581-11.8-27.384-18.273-41.025-19.228-1.274-.089-2.549-.131-3.822-.131-7.786,0-15.479,1.537-22.224,3.028-5.841,1.291-12.2,3.03-18.932,4.871-24.728,6.763-52.756,14.429-71.08,4.409-8.267-4.52-13.755-12.125-16.776-23.249-.714-2.628-1.363-5.346-1.99-7.975-2.237-9.377-4.55-19.074-10.349-27.01C29.739,134.943,17.292,128.06,0,124.416v.469c17.117,3.624,29.432,10.437,36.62,20.276,5.745,7.863,8.047,17.515,10.274,26.849.628,2.632,1.277,5.354,1.993,7.989,3.014,11.093,8.734,19.011,17,23.532,18.5,10.116,46.63,2.421,71.449-4.367,6.727-1.839,13.08-3.577,18.909-4.865,7.812-1.727,16.9-3.519,25.9-2.887,13.531.947,27.238,7.377,40.738,19.11,5.572,4.843,10.768,10.2,15.792,15.373,5.14,5.3,10.456,10.773,16.185,15.715,18.35,15.829,40.59,25.485,62.622,27.189q3.422.265,6.792.264a76.8,76.8,0,0,0,41.51-11.7c13.3-8.454,23.829-21.139,30.436-36.684,8.547-20.111.514-40.363-7.255-59.949-2.517-6.344-4.893-12.335-6.72-18.309-8.4-27.448,3.536-41.289,20.051-60.447,2.7-3.127,5.483-6.361,8.331-9.825a89.635,89.635,0,0,0,20.144-58.725" fill="#85b5d5"/>
        <path id="Path_146899" data-name="Path 146899" d="M1129.532,492.547a433.42,433.42,0,0,1-16.019,42.024,441.886,441.886,0,0,1-77.245,118.652h2.531a443.592,443.592,0,0,0,76.479-117.939q7.988-18.089,14.255-36.651Z" transform="translate(-539.929 -266.74)" fill="#85b5d5"/>
        <path id="Path_146900" data-name="Path 146900" d="M1146.549,568.013q-2.43,5.96-5.033,11.872a452.553,452.553,0,0,1-72.589,114.208h1.872a453.826,453.826,0,0,0,72.04-113.672q1.906-4.319,3.71-8.666Z" transform="translate(-556.946 -307.609)" fill="#85b5d5"/>
        <path id="Path_146901" data-name="Path 146901" d="M1163.355,632.064a463.725,463.725,0,0,1-62.173,96.715h1.836a465.122,465.122,0,0,0,60.338-93.437Z" transform="translate(-573.751 -342.296)" fill="#85b5d5"/>
        <path id="Path_146902" data-name="Path 146902" d="M1180.65,691.455a475.77,475.77,0,0,1-46.273,69.487h1.2a476.832,476.832,0,0,0,45.07-67.512Z" transform="translate(-591.047 -374.46)" fill="#85b5d5"/>
        <path id="Path_146903" data-name="Path 146903" d="M1180.65,691.455a475.77,475.77,0,0,1-46.273,69.487h1.2a476.832,476.832,0,0,0,45.07-67.512Z" transform="translate(-591.047 -374.46)" fill="#85b5d5"/>
        <path id="Path_146904" data-name="Path 146904" d="M1197.7,745.681q-8.708,14.336-18.392,28.084-5.915,8.385-12.206,16.544h1.191q6.071-7.911,11.809-16.031,9.241-13.1,17.6-26.775Z" transform="translate(-608.099 -403.826)" fill="#85b5d5"/>
        <path id="Path_146905" data-name="Path 146905" d="M1215.028,797.476q-3.774,5.671-7.7,11.245-3.425,4.856-6.973,9.638h1.17q3.35-4.531,6.6-9.125,3.514-4.982,6.9-10.047Z" transform="translate(-625.424 -431.876)" fill="#85b5d5"/>
      </g>
    </g>
  </g>
</svg>
