<svg xmlns="http://www.w3.org/2000/svg" width="17.499" height="17.499" viewBox="0 0 17.499 17.499">
  <g id="Icon_feather-settings" data-name="Icon feather-settings" transform="translate(-0.75 -0.75)">
    <path id="Path_71109" data-name="Path 71109" d="M17.863,15.682A2.182,2.182,0,1,1,15.682,13.5,2.182,2.182,0,0,1,17.863,15.682Z" transform="translate(-6.182 -6.182)" fill="none" stroke="#f45e29" stroke-linecap="round" stroke-linejoin="round" stroke-width="1.5"/>
    <path id="Path_71110" data-name="Path 71110" d="M14.881,11.681A1.2,1.2,0,0,0,15.121,13l.044.044a1.455,1.455,0,1,1-2.058,2.058l-.044-.044a1.21,1.21,0,0,0-2.051.858v.124a1.454,1.454,0,0,1-2.909,0v-.065a1.2,1.2,0,0,0-.785-1.1,1.2,1.2,0,0,0-1.324.24l-.044.044a1.455,1.455,0,1,1-2.058-2.058l.044-.044a1.21,1.21,0,0,0-.858-2.051H2.954a1.454,1.454,0,1,1,0-2.909H3.02a1.2,1.2,0,0,0,1.1-.785,1.2,1.2,0,0,0-.24-1.324l-.044-.044A1.455,1.455,0,1,1,5.892,3.893l.044.044a1.2,1.2,0,0,0,1.324.24h.058a1.2,1.2,0,0,0,.727-1.1V2.954a1.454,1.454,0,0,1,2.909,0V3.02A1.21,1.21,0,0,0,13,3.878l.044-.044a1.455,1.455,0,1,1,2.058,2.058l-.044.044a1.2,1.2,0,0,0-.24,1.324v.058a1.2,1.2,0,0,0,1.1.727h.124a1.454,1.454,0,0,1,0,2.909h-.065a1.2,1.2,0,0,0-1.1.727Z" transform="translate(0 0)" fill="none" stroke="#f45e29" stroke-linecap="round" stroke-linejoin="round" stroke-width="1.5"/>
  </g>
</svg>
