<svg xmlns="http://www.w3.org/2000/svg" width="12" height="20" viewBox="0 0 12 16">
  <g id="icon_down" data-name="icon down" >
    <path id="Path_77695" data-name="Path 77695" d="M210.21,174.624l4.48,5.1a1.027,1.027,0,0,0,1.355.127.9.9,0,0,0,.135-1.271l-3.19-3.63h12.05a.9.9,0,1,0,0-1.8H212.99l3.19-3.63a.905.905,0,0,0-.135-1.271,1.027,1.027,0,0,0-1.355.127l-4.48,5.1a.886.886,0,0,0,0,1.144Z"
     transform="translate(180.054 -212.395) rotate(90)" width="12" height="16"
     fill="#80cc8c"/>
  </g>
</svg>
