<svg xmlns="http://www.w3.org/2000/svg" width="11.305" height="16.15" viewBox="0 0 11.305 16.15">
  <g id="Icon_material-location-on" data-name="Icon material-location-on" transform="translate(-7.5 -3)" fill="#fff">
    <path d="M 13.15243816375732 18.38591957092285 C 11.91332149505615 16.92281913757324 8.000003814697266 12.03374099731445 8.000003814697266 8.652345657348633 C 8.000003814697266 5.811325550079346 10.31133365631104 3.499995708465576 13.15234375 3.499995708465576 C 15.99335384368896 3.499995708465576 18.30468368530273 5.811325550079346 18.30468368530273 8.652345657348633 C 18.30468368530273 12.03663349151611 14.39154052734375 16.92353057861328 13.15243816375732 18.38591957092285 Z M 13.15234375 6.133645534515381 C 11.76353359222412 6.133645534515381 10.63365364074707 7.263525485992432 10.63365364074707 8.652345657348633 C 10.63365364074707 10.04115581512451 11.76353359222412 11.17103576660156 13.15234375 11.17103576660156 C 14.54115390777588 11.17103576660156 15.67103385925293 10.04115581512451 15.67103385925293 8.652345657348633 C 15.67103385925293 7.263525485992432 14.54115390777588 6.133645534515381 13.15234375 6.133645534515381 Z" stroke="none"/>
    <path d="M 13.15234375 3.999996185302734 C 10.58703422546387 3.999996185302734 8.500003814697266 6.0870361328125 8.500003814697266 8.652345657348633 C 8.500003814697266 11.37300300598145 11.39310646057129 15.46890830993652 13.15269660949707 17.61291122436523 C 14.91241550445557 15.4704704284668 17.80468368530273 11.37743473052979 17.80468368530273 8.652345657348633 C 17.80468368530273 6.0870361328125 15.71765327453613 3.999996185302734 13.15234375 3.999996185302734 M 13.15234375 11.67103576660156 C 11.48783397674561 11.67103576660156 10.13365364074707 10.31685543060303 10.13365364074707 8.652345657348633 C 10.13365364074707 6.987825393676758 11.48783397674561 5.633646011352539 13.15234375 5.633646011352539 C 14.81685352325439 5.633646011352539 16.17103385925293 6.987825393676758 16.17103385925293 8.652345657348633 C 16.17103385925293 10.31685543060303 14.81685352325439 11.67103576660156 13.15234375 11.67103576660156 M 13.15234375 2.999996185302734 C 16.27728271484375 2.999996185302734 18.80468368530273 5.52740478515625 18.80468368530273 8.652345657348633 C 18.80468368530273 12.8915958404541 13.15234375 19.14955520629883 13.15234375 19.14955520629883 C 13.15234375 19.14955520629883 7.500003814697266 12.8915958404541 7.500003814697266 8.652345657348633 C 7.500003814697266 5.52740478515625 10.02740287780762 2.999996185302734 13.15234375 2.999996185302734 Z M 13.15234375 10.67103576660156 C 14.26666355133057 10.67103576660156 15.17103385925293 9.766665458679199 15.17103385925293 8.652345657348633 C 15.17103385925293 7.538025856018066 14.26666355133057 6.633646011352539 13.15234375 6.633646011352539 C 12.03802394866943 6.633646011352539 11.13365364074707 7.538025856018066 11.13365364074707 8.652345657348633 C 11.13365364074707 9.766665458679199 12.03802394866943 10.67103576660156 13.15234375 10.67103576660156 Z" stroke="none" fill="#f45e29"/>
  </g>
</svg>
