<svg xmlns="http://www.w3.org/2000/svg" xmlns:xlink="http://www.w3.org/1999/xlink" width="61" height="54" viewBox="0 0 61 54">
  <defs>
    <filter id="Rectangle_17635" x="-12" y="-12" width="85" height="78" filterUnits="userSpaceOnUse">
      <feOffset input="SourceAlpha"/>
      <feGaussianBlur stdDeviation="4" result="blur"/>
      <feFlood flood-opacity="0.102"/>
      <feComposite operator="in" in2="blur"/>
      <feComposite in="SourceGraphic"/>
    </filter>
    <!-- <clipPath id="clip-path">
      <g transform="matrix(1, 0, 0, 1, 0, 0)" filter="url(#Rectangle_17635)">
        <path id="Rectangle_17635-2" data-name="Rectangle 17635" d="M0,0H57a4,4,0,0,1,4,4V54a0,0,0,0,1,0,0H0a0,0,0,0,1,0,0V0A0,0,0,0,1,0,0Z" transform="translate(294 500)" fill="#fff"/>
      </g>
    </clipPath> -->
    <clipPath id="clip-path-2">
      <rect id="Rectangle_17636" data-name="Rectangle 17636" width="26.159" height="19.147" fill="#fff"/>
    </clipPath>
  </defs>
  <g id="Group_191142" data-name="Group 191142" transform="translate(-294 -500)">
    <g id="Mask_Group_24" data-name="Mask Group 24" clip-path="url(#clip-path)">
      <g id="Group_75877" data-name="Group 75877" transform="translate(-1760 -14)">
        <g id="Group_53635" data-name="Group 53635" transform="translate(2055.468 476.468)" style="mix-blend-mode: normal;isolation: isolate">
          <circle id="Ellipse_1939" data-name="Ellipse 1939" cx="45.5" cy="45.5" r="45.5" transform="translate(-0.468 -0.468)" fill="#ffc4af" opacity="0.598" style="mix-blend-mode: color-dodge;isolation: isolate"/>
        </g>
        <circle id="Ellipse_1938" data-name="Ellipse 1938" cx="40.5" cy="40.5" r="40.5" transform="translate(2060 481)" fill="#ffa382" opacity="0.48"/>
        <circle id="Ellipse_1937" data-name="Ellipse 1937" cx="35.5" cy="35.5" r="35.5" transform="translate(2065 486)" fill="#ff7240"/>
      </g>
    </g>
    <g id="Group_75880" data-name="Group 75880" transform="translate(322 509)">
      <g id="Group_75879" data-name="Group 75879" clip-path="url(#clip-path-2)">
        <path id="Path_81591" data-name="Path 81591" d="M10.917,169.867v.7h-9V179.1c.063,0,.132.009.2.009q4.189,0,8.377,0a.24.24,0,0,0,.27-.174A5.593,5.593,0,0,1,13.5,176.1a9.786,9.786,0,0,1,3.979-1.031,11.365,11.365,0,0,1,4.359.522,6.757,6.757,0,0,1,3.1,1.99,4.994,4.994,0,0,1,1.214,3.245c.008.508,0,1.015,0,1.539h-.714c0-.1,0-.186,0-.275a17.226,17.226,0,0,0-.075-1.951,4.4,4.4,0,0,0-2.138-3.1,8.028,8.028,0,0,0-3.27-1.16,11.127,11.127,0,0,0-4.48.227,6.815,6.815,0,0,0-2.832,1.436,4.345,4.345,0,0,0-1.547,3.352c0,.424,0,.848,0,1.272v.2h-.706v-.794H.859c-.369,0-.427-.042-.566-.383a3.7,3.7,0,0,1-.285-1.679c.02-.278.139-.394.423-.4.247,0,.494,0,.769,0v-.237q0-4.11,0-8.221c0-.536.242-.787.769-.787q4.384,0,8.769,0ZM.689,179.831c.058.284.113.546.164.81.032.166.118.221.3.221q4.5-.01,9,0h.219l.107-1.026Z" transform="translate(0 -163.217)" fill="#fff"/>
        <path id="Path_81592" data-name="Path 81592" d="M298.067,8.17a1.328,1.328,0,0,1-.841.653,1.262,1.262,0,0,1-1.561-1.208q0-1.135,0-2.271a1.261,1.261,0,0,1,.641-1.115.591.591,0,0,0,.21-.255A6.089,6.089,0,0,1,301.3.093,6.284,6.284,0,0,1,308.19,3.97a.618.618,0,0,0,.228.262,1.245,1.245,0,0,1,.632,1.061q.016,1.155,0,2.31a1.247,1.247,0,0,1-.891,1.2,1.27,1.27,0,0,1-1.439-.523c-.022-.031-.044-.062-.07-.1a4.684,4.684,0,0,1-8.586-.012m4.263-5.778A3.944,3.944,0,1,0,306.3,6.315a3.954,3.954,0,0,0-3.969-3.923m5.107,1.667A5.524,5.524,0,0,0,302.175.723a5.4,5.4,0,0,0-4.9,3.336l.752.541a4.693,4.693,0,0,1,8.674,0l.739-.542M296.372,6.472c0,.364,0,.729,0,1.094a.56.56,0,0,0,.538.579.548.548,0,0,0,.572-.562q.012-1.113,0-2.226a.565.565,0,0,0-.567-.575.572.572,0,0,0-.544.6c0,.364,0,.729,0,1.094m11.977,0c0-.358,0-.716,0-1.074a.581.581,0,0,0-.564-.62.572.572,0,0,0-.553.61q-.007,1.074,0,2.148a.558.558,0,0,0,.552.605.566.566,0,0,0,.565-.614c0-.351,0-.7,0-1.055" transform="translate(-284.088 0)" fill="#fff"/>
        <path id="Path_81593" data-name="Path 81593" d="M116.224,200.917a2.334,2.334,0,1,1-2.328-2.339,2.318,2.318,0,0,1,2.328,2.339m-.708,0a1.626,1.626,0,1,0-3.252.007,1.626,1.626,0,0,0,3.252-.007" transform="translate(-107.189 -190.803)" fill="#fff"/>
        <path id="Path_81594" data-name="Path 81594" d="M77.643,326.04H76.95a2.452,2.452,0,0,1,.819-1.84,3.56,3.56,0,0,1,1.492-.779.422.422,0,0,1,.43.1c.31.279.624.553.95.84.309-.273.621-.539.92-.816a.47.47,0,0,1,.5-.12,3.076,3.076,0,0,1,2.017,1.515,2.382,2.382,0,0,1,.253,1.09h-.7c-.019-.124-.029-.259-.06-.389a1.987,1.987,0,0,0-1.133-1.316c-.3-.156-.54-.208-.8.095a6.192,6.192,0,0,1-.727.652.366.366,0,0,1-.554,0c-.309-.27-.618-.541-.921-.818a.234.234,0,0,0-.277-.059,2.119,2.119,0,0,0-1.426,1.338,4.363,4.363,0,0,0-.1.506" transform="translate(-73.937 -310.739)" fill="#fff"/>
      </g>
    </g>
  </g>
</svg>
