<svg xmlns="http://www.w3.org/2000/svg" width="23.301" height="24" viewBox="0 0 23.301 24">
  <g id="_07" data-name="07" transform="translate(-285.5 -289.557)">
    <path id="Ellipse_24" data-name="Ellipse 24" d="M10.053,2.286a7.767,7.767,0,1,0,7.767,7.767,7.776,7.776,0,0,0-7.767-7.767m0-2.286A10.053,10.053,0,1,1,0,10.053,10.053,10.053,0,0,1,10.053,0Z" transform="translate(285.5 289.557)" fill="#f45e29"/>
    <path id="Line_20" data-name="Line 20" d="M5.506,6.649A1.139,1.139,0,0,1,4.7,6.314L-.665.951A1.143,1.143,0,0,1,.951-.665L6.314,4.7a1.143,1.143,0,0,1-.808,1.951Z" transform="translate(302.152 306.909)" fill="#f45e29"/>
  </g>
</svg>
