<svg xmlns="http://www.w3.org/2000/svg" width="60" height="60" viewBox="0 0 60 60">
  <g id="Group_164492" data-name="Group 164492" transform="translate(-607 -1169)">
    <g id="Ellipse_1893" data-name="Ellipse 1893" transform="translate(607 1169)" fill="#ffab48" stroke="#fa9e2d" stroke-width="2">
      <circle cx="30" cy="30" r="30" stroke="none"/>
      <circle cx="30" cy="30" r="29" fill="none"/>
    </g>
    <g id="noun-access-546457" transform="translate(507.343 1172.332)">
      <path id="Path_82283" data-name="Path 82283" d="M128.822,11.888a2.555,2.555,0,0,1,2.072,0c3.73,2.565,7.1,3.894,10.643,4.123,1.046.046,1.5.55,1.5,1.6,0,.665.046,7.65,0,10.169a11.234,11.234,0,0,1-.318,2.7,12.342,12.342,0,0,1-3.411,5.909c-2.32,2.336-9.233,5.634-9.486,5.634-.182,0-7.1-3.3-9.416-5.634A12.342,12.342,0,0,1,117,30.486a11.235,11.235,0,0,1-.318-2.7c-.046-2.52,0-9.5,0-10.169,0-1.054.455-1.558,1.5-1.6,3.548-.229,6.914-1.558,10.643-4.123Zm.129,3.073a24.057,24.057,0,0,1-7.827,3.3c-.933.2-1.81.28-1.81.28s-.013,8.28,0,9.242a8.64,8.64,0,0,0,.247,2.093,9.724,9.724,0,0,0,2.716,4.659c.788.793,7.577,4.569,7.577,4.569s6.787-3.774,7.577-4.569a9.454,9.454,0,0,0,2.983-6.8c0-.914,0-9.178,0-9.178s-.6-.072-.886-.118a23.367,23.367,0,0,1-8.728-3.454,8.521,8.521,0,0,1-.916-.68s-.486.372-.939.655ZM127.914,31.37a1.386,1.386,0,0,0,1.96,0l6.15-6.15a1.386,1.386,0,0,0-1.96-1.96l-5.156,5.184-2.15-2.151a1.386,1.386,0,1,0-1.96,1.96Z" transform="translate(0)" fill="#fff" stroke="#ffab48" stroke-width="0.5" fill-rule="evenodd"/>
    </g>
  </g>
</svg>
