<svg xmlns="http://www.w3.org/2000/svg" width="28.248" height="26.175" viewBox="0 0 28.248 26.175">
  <path id="Icon_material-favorite-border" data-name="Icon material-favorite-border" d="M22.755,4.5a8.159,8.159,0,0,0-6.131,2.847A8.159,8.159,0,0,0,10.493,4.5,7.42,7.42,0,0,0,3,11.993c0,5.15,4.632,9.346,11.648,15.722L16.624,29.5,18.6,27.7c7.016-6.362,11.648-10.559,11.648-15.708A7.42,7.42,0,0,0,22.755,4.5ZM16.76,25.685l-.136.136-.136-.136C10,19.813,5.725,15.93,5.725,11.993a4.656,4.656,0,0,1,4.768-4.768,5.326,5.326,0,0,1,4.864,3.215H17.9a5.292,5.292,0,0,1,4.85-3.215,4.656,4.656,0,0,1,4.768,4.768C27.523,15.93,23.245,19.813,16.76,25.685Z" transform="translate(-2.5 -4)" fill="#f45e29" stroke="#fff" stroke-width="1"/>
</svg>
