<svg xmlns="http://www.w3.org/2000/svg" width="17.642" height="20.326" viewBox="0 0 17.642 20.326">
  <g id="Delete" transform="translate(34.542 36.077) rotate(180)">
    <path id="Shape" d="M32.43,23.442H30.161l-.786,1.571a2,2,0,0,1-1.8,1.112H23.867a2,2,0,0,1-1.8-1.112l-.786-1.571H19.013A2.013,2.013,0,0,1,17,21.43v-.671a1.342,1.342,0,0,1,1.342-1.342h.067L19.569,7.811a2.007,2.007,0,0,1,2-1.811h8.305a2.007,2.007,0,0,1,2,1.811l1.161,11.606H33.1a1.342,1.342,0,0,1,1.342,1.342v.671A2.013,2.013,0,0,1,32.43,23.442Zm-9.162.971a.667.667,0,0,0,.6.371h3.708a.667.667,0,0,0,.6-.371l.486-.971H22.781ZM30.541,7.945a.671.671,0,0,0-.671-.6h-8.3a.671.671,0,0,0-.667.6L19.754,19.417H31.692ZM32.43,20.759H18.342v.671a.671.671,0,0,0,.671.671H32.43a.671.671,0,0,0,.671-.671v-.671Z" transform="translate(0 9.851)" fill="#f45e29" stroke="#fff" stroke-width="0.2"/>
    <path id="Path" d="M26.671,19a.671.671,0,0,1,.671.671v6.709a.671.671,0,1,1-1.342,0V19.671A.671.671,0,0,1,26.671,19Z" transform="translate(-2.962 0.205)" fill="#f45e29" stroke="#fff" stroke-width="0.2"/>
    <path id="Path-2" data-name="Path" d="M32.671,19a.671.671,0,0,1,.671.671v6.709a.671.671,0,1,1-1.342,0V19.671A.671.671,0,0,1,32.671,19Z" transform="translate(-4.937 0.205)" fill="#f45e29" stroke="#fff" stroke-width="0.2"/>
  </g>
</svg>
