<svg xmlns="http://www.w3.org/2000/svg" xmlns:xlink="http://www.w3.org/1999/xlink" width="335" height="120" viewBox="0 0 335 120">
  <defs>
    <linearGradient id="linear-gradient" x1="1" y1="0.5" x2="0" y2="0.5" gradientUnits="objectBoundingBox">
      <stop offset="0" stop-color="#fa9e2e"/>
      <stop offset="1" stop-color="#ed4480"/>
    </linearGradient>
    <clipPath id="clip-path">
      <rect id="Rectangle_28404" data-name="Rectangle 28404" width="160.874" height="120" rx="8" fill="#fff"/>
    </clipPath>
  </defs>
  <g id="Group_209803" data-name="Group 209803" transform="translate(-20 -212)">
    <rect id="Rectangle_17627" data-name="Rectangle 17627" width="335" height="120" rx="8" transform="translate(20 212)" fill="url(#linear-gradient)"/>
    <g id="Group_191243" data-name="Group 191243" transform="translate(194.126 212)" opacity="0.202">
      <g id="Group_179123" data-name="Group 179123" clip-path="url(#clip-path)">
        <path id="Path_127223" data-name="Path 127223" d="M0,419.071a0,0,0,1,0,0-.005,0,0,0,0,0,0,.005" transform="translate(0 -302.889)" fill="#fff"/>
        <path id="Path_127224" data-name="Path 127224" d="M13.531,397.809a.006.006,0,0,0,.006.006.006.006,0,0,0,.006-.006.006.006,0,1,0-.011,0" transform="translate(-9.78 -287.521)" fill="#fff"/>
        <path id="Path_127225" data-name="Path 127225" d="M28.343,377.421a.006.006,0,1,0,.006-.006.006.006,0,0,0-.006.006" transform="translate(-20.486 -272.785)" fill="#fff"/>
        <path id="Path_127226" data-name="Path 127226" d="M44.477,358.063a.007.007,0,0,0,.014,0,.007.007,0,1,0-.014,0" transform="translate(-32.147 -258.793)" fill="#fff"/>
        <path id="Path_127227" data-name="Path 127227" d="M61.971,339.928a.008.008,0,0,0,.008.008.008.008,0,1,0,0-.016.008.008,0,0,0-.008.008" transform="translate(-44.791 -245.685)" fill="#fff"/>
        <path id="Path_127228" data-name="Path 127228" d="M80.856,323.247a.009.009,0,1,0,.009-.009.009.009,0,0,0-.009.009" transform="translate(-58.44 -233.627)" fill="#fff"/>
        <path id="Path_127229" data-name="Path 127229" d="M101.134,308.293a.009.009,0,1,0,.009-.009.009.009,0,0,0-.009.009" transform="translate(-73.097 -222.819)" fill="#fff"/>
        <path id="Path_127230" data-name="Path 127230" d="M123.07,295.951a.01.01,0,1,0,.01-.01.01.01,0,0,0-.01.01" transform="translate(-88.952 -213.898)" fill="#fff"/>
        <path id="Path_127231" data-name="Path 127231" d="M146.913,287.877a.011.011,0,1,0,.011-.011.011.011,0,0,0-.011.011" transform="translate(-106.185 -208.062)" fill="#fff"/>
        <path id="Path_127232" data-name="Path 127232" d="M171.7,283.418a.011.011,0,1,0,.011-.012.011.011,0,0,0-.011.012" transform="translate(-124.101 -204.838)" fill="#fff"/>
        <path id="Path_127233" data-name="Path 127233" d="M196.822,281.461a.012.012,0,0,0,.024,0,.012.012,0,0,0-.024,0" transform="translate(-142.257 -203.424)" fill="#fff"/>
        <path id="Path_127234" data-name="Path 127234" d="M222.017,280.927a.013.013,0,1,0,.013-.013.013.013,0,0,0-.013.013" transform="translate(-160.468 -203.037)" fill="#fff"/>
        <path id="Path_127235" data-name="Path 127235" d="M247.219,280.841a.014.014,0,1,0,.014-.014.014.014,0,0,0-.014.014" transform="translate(-178.683 -202.974)" fill="#fff"/>
        <path id="Path_127236" data-name="Path 127236" d="M272.412,280.252a.014.014,0,1,0,.014-.014.014.014,0,0,0-.014.014" transform="translate(-196.892 -202.548)" fill="#fff"/>
        <path id="Path_127237" data-name="Path 127237" d="M297.517,278.121a.015.015,0,1,0,.015-.015.015.015,0,0,0-.015.015" transform="translate(-215.037 -201.007)" fill="#fff"/>
        <path id="Path_127238" data-name="Path 127238" d="M322.219,273.222a.016.016,0,1,0,.031,0,.016.016,0,1,0-.031,0" transform="translate(-232.891 -197.466)" fill="#fff"/>
        <path id="Path_127239" data-name="Path 127239" d="M345.731,264.259a.016.016,0,1,0,.016-.017.017.017,0,0,0-.016.017" transform="translate(-249.885 -190.987)" fill="#fff"/>
        <path id="Path_127240" data-name="Path 127240" d="M366.746,250.446a.017.017,0,1,0,.017-.017.017.017,0,0,0-.017.017" transform="translate(-265.074 -181.003)" fill="#fff"/>
        <path id="Path_127241" data-name="Path 127241" d="M384.233,232.346a.018.018,0,1,0,.035,0,.018.018,0,1,0-.035,0" transform="translate(-277.713 -167.92)" fill="#fff"/>
        <path id="Path_127242" data-name="Path 127242" d="M398.86,211.839a.018.018,0,1,0,.018-.018.018.018,0,0,0-.018.018" transform="translate(-288.285 -153.098)" fill="#fff"/>
        <path id="Path_127243" data-name="Path 127243" d="M411.2,189.871a.019.019,0,1,0,.019-.019.019.019,0,0,0-.019.019" transform="translate(-297.203 -137.22)" fill="#fff"/>
        <path id="Path_127244" data-name="Path 127244" d="M421.913,167.059a.019.019,0,1,0,.019-.019.019.019,0,0,0-.019.019" transform="translate(-304.947 -120.732)" fill="#fff"/>
        <path id="Path_127245" data-name="Path 127245" d="M431.727,143.845a.019.019,0,0,0,.019.019.02.02,0,0,0,.02-.019.02.02,0,0,0-.02-.02.019.019,0,0,0-.019.02" transform="translate(-312.04 -103.953)" fill="#fff"/>
        <path id="Path_127246" data-name="Path 127246" d="M441.368,120.555a.02.02,0,1,0,.02-.02.02.02,0,0,0-.02.02" transform="translate(-319.009 -87.119)" fill="#fff"/>
        <path id="Path_127247" data-name="Path 127247" d="M451.561,97.506a.02.02,0,1,0,.021-.021.02.02,0,0,0-.021.021" transform="translate(-326.376 -70.459)" fill="#fff"/>
        <path id="Path_127248" data-name="Path 127248" d="M463.046,75.076a.021.021,0,1,0,.021-.021.021.021,0,0,0-.021.021" transform="translate(-334.677 -54.248)" fill="#fff"/>
        <path id="Path_127249" data-name="Path 127249" d="M476.546,53.805a.021.021,0,1,0,.021-.021.021.021,0,0,0-.021.021" transform="translate(-344.434 -38.874)" fill="#fff"/>
        <path id="Path_127250" data-name="Path 127250" d="M492.643,34.438a.022.022,0,0,0,.044,0,.022.022,0,1,0-.044,0" transform="translate(-356.069 -24.875)" fill="#fff"/>
        <path id="Path_127251" data-name="Path 127251" d="M511.553,17.817a.022.022,0,1,0,.022-.022.022.022,0,0,0-.022.022" transform="translate(-369.736 -12.862)" fill="#fff"/>
        <path id="Path_127252" data-name="Path 127252" d="M533.583,5.74a.023.023,0,1,0,.023-.023.023.023,0,0,0-.023.023" transform="translate(-385.659 -4.132)" fill="#fff"/>
        <path id="Path_127253" data-name="Path 127253" d="M558.061.023a.023.023,0,1,0,.047,0,.023.023,0,1,0-.047,0" transform="translate(-403.351 0)" fill="#fff"/>
        <path id="Path_127254" data-name="Path 127254" d="M24.759,412.466a.07.07,0,1,0,.07.07.07.07,0,0,0-.07-.07" transform="translate(-17.845 -298.119)" fill="#fff"/>
        <path id="Path_127255" data-name="Path 127255" d="M39.559,392.059a.076.076,0,1,0,.076.076.076.076,0,0,0-.076-.076" transform="translate(-28.537 -283.369)" fill="#fff"/>
        <path id="Path_127256" data-name="Path 127256" d="M55.68,372.68a.082.082,0,1,0,.082.082.082.082,0,0,0-.082-.082" transform="translate(-40.185 -269.363)" fill="#fff"/>
        <path id="Path_127257" data-name="Path 127257" d="M73.163,354.525a.088.088,0,1,0,.088.088.088.088,0,0,0-.088-.088" transform="translate(-52.817 -256.241)" fill="#fff"/>
        <path id="Path_127258" data-name="Path 127258" d="M92.034,337.824a.093.093,0,1,0,.093.093.093.093,0,0,0-.093-.093" transform="translate(-66.452 -244.17)" fill="#fff"/>
        <path id="Path_127259" data-name="Path 127259" d="M112.3,322.851a.1.1,0,1,0,.1.1.1.1,0,0,0-.1-.1" transform="translate(-81.096 -233.348)" fill="#fff"/>
        <path id="Path_127260" data-name="Path 127260" d="M134.225,310.489a.105.105,0,1,0,.105.105.105.105,0,0,0-.105-.105" transform="translate(-96.938 -224.413)" fill="#fff"/>
        <path id="Path_127261" data-name="Path 127261" d="M158.053,302.4a.111.111,0,1,0,.111.111.111.111,0,0,0-.111-.111" transform="translate(-114.156 -218.564)" fill="#fff"/>
        <path id="Path_127262" data-name="Path 127262" d="M182.831,297.918a.117.117,0,1,0,.117.117.117.117,0,0,0-.117-.117" transform="translate(-132.061 -215.327)" fill="#fff"/>
        <path id="Path_127263" data-name="Path 127263" d="M207.933,295.942a.123.123,0,1,0,.123.123.123.123,0,0,0-.123-.123" transform="translate(-150.2 -213.899)" fill="#fff"/>
        <path id="Path_127264" data-name="Path 127264" d="M233.113,295.389a.128.128,0,1,0,.128.128.128.128,0,0,0-.128-.128" transform="translate(-168.395 -213.499)" fill="#fff"/>
        <path id="Path_127265" data-name="Path 127265" d="M258.305,295.283a.134.134,0,1,0,.134.134.134.134,0,0,0-.134-.134" transform="translate(-186.599 -213.422)" fill="#fff"/>
        <path id="Path_127266" data-name="Path 127266" d="M283.486,294.676a.14.14,0,1,0,.14.14.14.14,0,0,0-.14-.14" transform="translate(-204.795 -212.984)" fill="#fff"/>
        <path id="Path_127267" data-name="Path 127267" d="M308.578,292.526a.146.146,0,1,0,.146.146.146.146,0,0,0-.146-.146" transform="translate(-222.926 -211.43)" fill="#fff"/>
        <path id="Path_127268" data-name="Path 127268" d="M333.266,287.61a.152.152,0,1,0,.152.152.152.152,0,0,0-.152-.152" transform="translate(-240.766 -207.876)" fill="#fff"/>
        <path id="Path_127269" data-name="Path 127269" d="M356.765,278.63a.157.157,0,1,0,.157.157.157.157,0,0,0-.157-.157" transform="translate(-257.746 -201.386)" fill="#fff"/>
        <path id="Path_127270" data-name="Path 127270" d="M377.767,264.8a.163.163,0,1,0,.163.163.163.163,0,0,0-.163-.163" transform="translate(-272.922 -191.39)" fill="#fff"/>
        <path id="Path_127271" data-name="Path 127271" d="M395.242,246.681a.169.169,0,1,0,.169.169.169.169,0,0,0-.169-.169" transform="translate(-285.548 -178.294)" fill="#fff"/>
        <path id="Path_127272" data-name="Path 127272" d="M409.856,226.156a.175.175,0,1,0,.175.175.175.175,0,0,0-.175-.175" transform="translate(-296.106 -163.459)" fill="#fff"/>
        <path id="Path_127273" data-name="Path 127273" d="M422.183,204.168a.181.181,0,1,0,.181.181.181.181,0,0,0-.181-.181" transform="translate(-305.011 -147.567)" fill="#fff"/>
        <path id="Path_127274" data-name="Path 127274" d="M432.884,181.339a.187.187,0,1,0,.187.187.187.187,0,0,0-.187-.187" transform="translate(-312.741 -131.067)" fill="#fff"/>
        <path id="Path_127275" data-name="Path 127275" d="M442.683,158.1a.192.192,0,1,0,.192.192.193.193,0,0,0-.192-.192" transform="translate(-319.82 -114.274)" fill="#fff"/>
        <path id="Path_127276" data-name="Path 127276" d="M452.31,134.8a.2.2,0,1,0,.2.2.2.2,0,0,0-.2-.2" transform="translate(-326.774 -97.428)" fill="#fff"/>
        <path id="Path_127277" data-name="Path 127277" d="M462.49,111.728a.2.2,0,1,0,.2.2.2.2,0,0,0-.2-.2" transform="translate(-334.127 -80.754)" fill="#fff"/>
        <path id="Path_127278" data-name="Path 127278" d="M473.96,89.277a.21.21,0,1,0,.21.21.21.21,0,0,0-.21-.21" transform="translate(-342.413 -64.527)" fill="#fff"/>
        <path id="Path_127279" data-name="Path 127279" d="M487.443,67.989a.216.216,0,1,0,.216.216.216.216,0,0,0-.216-.216" transform="translate(-352.154 -49.141)" fill="#fff"/>
        <path id="Path_127280" data-name="Path 127280" d="M503.525,48.6a.222.222,0,1,0,.221.222.222.222,0,0,0-.221-.222" transform="translate(-363.774 -35.127)" fill="#fff"/>
        <path id="Path_127281" data-name="Path 127281" d="M522.418,31.958a.227.227,0,1,0,.227.227.227.227,0,0,0-.227-.227" transform="translate(-377.425 -23.098)" fill="#fff"/>
        <path id="Path_127282" data-name="Path 127282" d="M544.435,19.856a.233.233,0,1,0,.233.233.233.233,0,0,0-.233-.233" transform="translate(-393.334 -14.351)" fill="#fff"/>
        <path id="Path_127283" data-name="Path 127283" d="M568.9,14.115a.239.239,0,1,0,.239.239.239.239,0,0,0-.239-.239" transform="translate(-411.012 -10.202)" fill="#fff"/>
        <path id="Path_127284" data-name="Path 127284" d="M35.9,427.011a.167.167,0,1,0,.167.167.167.167,0,0,0-.167-.167" transform="translate(-25.828 -308.632)" fill="#fff"/>
        <path id="Path_127285" data-name="Path 127285" d="M50.691,406.589a.176.176,0,1,0,.176.176.176.176,0,0,0-.176-.176" transform="translate(-36.511 -293.871)" fill="#fff"/>
        <path id="Path_127286" data-name="Path 127286" d="M66.8,387.2a.186.186,0,1,0,.186.185.185.185,0,0,0-.186-.185" transform="translate(-48.149 -279.856)" fill="#fff"/>
        <path id="Path_127287" data-name="Path 127287" d="M84.275,369.029a.2.2,0,1,0,.2.2.2.2,0,0,0-.2-.2" transform="translate(-60.771 -266.724)" fill="#fff"/>
        <path id="Path_127288" data-name="Path 127288" d="M103.138,352.315a.2.2,0,1,0,.2.2.2.2,0,0,0-.2-.2" transform="translate(-74.397 -254.643)" fill="#fff"/>
        <path id="Path_127289" data-name="Path 127289" d="M123.393,337.328a.214.214,0,1,0,.214.214.214.214,0,0,0-.214-.214" transform="translate(-89.03 -243.811)" fill="#fff"/>
        <path id="Path_127290" data-name="Path 127290" d="M145.308,324.953a.224.224,0,1,0,.224.224.224.224,0,0,0-.224-.224" transform="translate(-104.863 -234.867)" fill="#fff"/>
        <path id="Path_127291" data-name="Path 127291" d="M169.127,316.848a.233.233,0,1,0,.233.233.233.233,0,0,0-.233-.233" transform="translate(-122.072 -229.009)" fill="#fff"/>
        <path id="Path_127292" data-name="Path 127292" d="M193.9,312.355a.243.243,0,1,0,.243.243.243.243,0,0,0-.243-.243" transform="translate(-139.967 -225.761)" fill="#fff"/>
        <path id="Path_127293" data-name="Path 127293" d="M218.988,310.366a.252.252,0,1,0,.252.252.252.252,0,0,0-.252-.252" transform="translate(-158.096 -224.324)" fill="#fff"/>
        <path id="Path_127294" data-name="Path 127294" d="M244.159,309.8a.262.262,0,1,0,.262.262.262.262,0,0,0-.262-.262" transform="translate(-176.282 -223.914)" fill="#fff"/>
        <path id="Path_127295" data-name="Path 127295" d="M269.339,309.68a.271.271,0,1,0,.271.271.272.272,0,0,0-.271-.271" transform="translate(-194.475 -223.828)" fill="#fff"/>
        <path id="Path_127296" data-name="Path 127296" d="M294.512,309.06a.281.281,0,1,0,.281.281.281.281,0,0,0-.281-.281" transform="translate(-212.662 -223.38)" fill="#fff"/>
        <path id="Path_127297" data-name="Path 127297" d="M319.594,306.9a.29.29,0,1,0,.29.29.29.29,0,0,0-.29-.29" transform="translate(-230.784 -221.817)" fill="#fff"/>
        <path id="Path_127298" data-name="Path 127298" d="M344.272,301.967a.3.3,0,1,0,.3.3.3.3,0,0,0-.3-.3" transform="translate(-248.613 -218.253)" fill="#fff"/>
        <path id="Path_127299" data-name="Path 127299" d="M367.762,292.973a.309.309,0,1,0,.309.309.31.31,0,0,0-.309-.309" transform="translate(-265.585 -211.753)" fill="#fff"/>
        <path id="Path_127300" data-name="Path 127300" d="M388.755,279.13a.319.319,0,1,0,.319.319.319.319,0,0,0-.319-.319" transform="translate(-280.751 -201.747)" fill="#fff"/>
        <path id="Path_127301" data-name="Path 127301" d="M406.22,261a.328.328,0,1,0,.328.329.329.329,0,0,0-.328-.329" transform="translate(-293.367 -188.643)" fill="#fff"/>
        <path id="Path_127302" data-name="Path 127302" d="M420.824,240.46a.338.338,0,1,0,.338.338.338.338,0,0,0-.338-.338" transform="translate(-303.916 -173.798)" fill="#fff"/>
        <path id="Path_127303" data-name="Path 127303" d="M433.141,218.459a.347.347,0,1,0,.347.347.347.347,0,0,0-.347-.347" transform="translate(-312.811 -157.896)" fill="#fff"/>
        <path id="Path_127304" data-name="Path 127304" d="M443.832,195.616a.357.357,0,1,0,.357.357.357.357,0,0,0-.357-.357" transform="translate(-320.531 -141.386)" fill="#fff"/>
        <path id="Path_127305" data-name="Path 127305" d="M453.622,172.37a.367.367,0,1,0,.366.367.367.367,0,0,0-.366-.367" transform="translate(-327.601 -124.584)" fill="#fff"/>
        <path id="Path_127306" data-name="Path 127306" d="M463.24,149.049a.376.376,0,1,0,.376.376.376.376,0,0,0-.376-.376" transform="translate(-334.545 -107.728)" fill="#fff"/>
        <path id="Path_127307" data-name="Path 127307" d="M473.41,125.964a.385.385,0,1,0,.386.386.386.386,0,0,0-.386-.386" transform="translate(-341.889 -91.043)" fill="#fff"/>
        <path id="Path_127308" data-name="Path 127308" d="M484.87,103.5a.4.4,0,1,0,.4.4.4.4,0,0,0-.4-.4" transform="translate(-350.165 -74.808)" fill="#fff"/>
        <path id="Path_127309" data-name="Path 127309" d="M498.344,82.2a.4.4,0,1,0,.4.4.4.4,0,0,0-.4-.4" transform="translate(-359.896 -59.412)" fill="#fff"/>
        <path id="Path_127310" data-name="Path 127310" d="M514.416,62.8a.414.414,0,1,0,.414.414.414.414,0,0,0-.414-.414" transform="translate(-371.506 -45.388)" fill="#fff"/>
        <path id="Path_127311" data-name="Path 127311" d="M533.3,46.141a.424.424,0,1,0,.424.424.424.424,0,0,0-.424-.424" transform="translate(-385.148 -33.349)" fill="#fff"/>
        <path id="Path_127312" data-name="Path 127312" d="M555.307,34.026a.433.433,0,1,0,.433.433.433.433,0,0,0-.433-.433" transform="translate(-401.048 -24.593)" fill="#fff"/>
        <path id="Path_127313" data-name="Path 127313" d="M579.318,28.806a.442.442,0,0,0,.27.408V28.4a.442.442,0,0,0-.27.408" transform="translate(-418.715 -20.525)" fill="#fff"/>
        <path id="Path_127314" data-name="Path 127314" d="M61.746,421.014a.306.306,0,1,0,.306.306.306.306,0,0,0-.306-.306" transform="translate(-44.408 -304.297)" fill="#fff"/>
        <path id="Path_127315" data-name="Path 127315" d="M77.851,401.615a.317.317,0,1,0,.317.317.317.317,0,0,0-.317-.317" transform="translate(-56.039 -290.276)" fill="#fff"/>
        <path id="Path_127316" data-name="Path 127316" d="M95.319,383.438a.329.329,0,1,0,.329.329.329.329,0,0,0-.329-.329" transform="translate(-68.656 -277.138)" fill="#fff"/>
        <path id="Path_127317" data-name="Path 127317" d="M114.176,366.716a.341.341,0,1,0,.341.341.34.34,0,0,0-.341-.341" transform="translate(-82.277 -265.052)" fill="#fff"/>
        <path id="Path_127318" data-name="Path 127318" d="M134.426,351.721a.352.352,0,1,0,.352.352.352.352,0,0,0-.352-.352" transform="translate(-96.905 -254.214)" fill="#fff"/>
        <path id="Path_127319" data-name="Path 127319" d="M156.335,339.338a.364.364,0,1,0,.364.364.364.364,0,0,0-.364-.364" transform="translate(-112.731 -245.264)" fill="#fff"/>
        <path id="Path_127320" data-name="Path 127320" d="M180.148,331.226a.376.376,0,1,0,.376.376.376.376,0,0,0-.376-.376" transform="translate(-129.934 -239.401)" fill="#fff"/>
        <path id="Path_127321" data-name="Path 127321" d="M204.911,326.725a.388.388,0,1,0,.388.388.388.388,0,0,0-.388-.388" transform="translate(-147.824 -236.148)" fill="#fff"/>
        <path id="Path_127322" data-name="Path 127322" d="M230,324.728a.4.4,0,1,0,.4.4.4.4,0,0,0-.4-.4" transform="translate(-165.948 -234.704)" fill="#fff"/>
        <path id="Path_127323" data-name="Path 127323" d="M255.163,324.153a.411.411,0,1,0,.411.411.411.411,0,0,0-.411-.411" transform="translate(-184.128 -234.289)" fill="#fff"/>
        <path id="Path_127324" data-name="Path 127324" d="M280.339,324.026a.423.423,0,1,0,.423.422.423.423,0,0,0-.423-.422" transform="translate(-202.315 -234.197)" fill="#fff"/>
        <path id="Path_127325" data-name="Path 127325" d="M305.5,323.4a.434.434,0,1,0,.434.434.434.434,0,0,0-.434-.434" transform="translate(-220.496 -233.743)" fill="#fff"/>
        <path id="Path_127326" data-name="Path 127326" d="M330.581,321.227a.446.446,0,1,0,.446.446.446.446,0,0,0-.446-.446" transform="translate(-238.612 -232.174)" fill="#fff"/>
        <path id="Path_127327" data-name="Path 127327" d="M355.254,316.289a.458.458,0,1,0,.458.458.458.458,0,0,0-.458-.458" transform="translate(-256.437 -228.605)" fill="#fff"/>
        <path id="Path_127328" data-name="Path 127328" d="M378.738,307.287a.469.469,0,1,0,.469.469.47.47,0,0,0-.469-.469" transform="translate(-273.402 -222.098)" fill="#fff"/>
        <path id="Path_127329" data-name="Path 127329" d="M399.724,293.437a.481.481,0,1,0,.481.481.481.481,0,0,0-.481-.481" transform="translate(-288.562 -212.088)" fill="#fff"/>
        <path id="Path_127330" data-name="Path 127330" d="M417.184,275.3a.493.493,0,1,0,.493.493.493.493,0,0,0-.493-.493" transform="translate(-301.173 -198.977)" fill="#fff"/>
        <path id="Path_127331" data-name="Path 127331" d="M431.783,254.75a.5.5,0,1,0,.5.5.5.5,0,0,0-.5-.5" transform="translate(-311.716 -184.126)" fill="#fff"/>
        <path id="Path_127332" data-name="Path 127332" d="M444.094,232.742a.516.516,0,1,0,.516.516.516.516,0,0,0-.516-.516" transform="translate(-320.606 -168.219)" fill="#fff"/>
        <path id="Path_127333" data-name="Path 127333" d="M454.779,209.891a.528.528,0,1,0,.528.528.528.528,0,0,0-.528-.528" transform="translate(-328.32 -151.703)" fill="#fff"/>
        <path id="Path_127334" data-name="Path 127334" d="M464.564,186.636a.54.54,0,1,0,.54.54.54.54,0,0,0-.54-.54" transform="translate(-335.384 -134.895)" fill="#fff"/>
        <path id="Path_127335" data-name="Path 127335" d="M474.175,163.308a.551.551,0,1,0,.551.551.551.551,0,0,0-.551-.551" transform="translate(-342.322 -118.034)" fill="#fff"/>
        <path id="Path_127336" data-name="Path 127336" d="M484.34,140.215a.563.563,0,1,0,.563.563.563.563,0,0,0-.563-.563" transform="translate(-349.66 -101.344)" fill="#fff"/>
        <path id="Path_127337" data-name="Path 127337" d="M495.794,117.744a.575.575,0,1,0,.575.575.575.575,0,0,0-.575-.575" transform="translate(-357.931 -85.102)" fill="#fff"/>
        <path id="Path_127338" data-name="Path 127338" d="M509.262,96.435a.586.586,0,1,0,.587.587.587.587,0,0,0-.587-.587" transform="translate(-367.656 -69.701)" fill="#fff"/>
        <path id="Path_127339" data-name="Path 127339" d="M525.329,77.025a.6.6,0,1,0,.6.6.6.6,0,0,0-.6-.6" transform="translate(-379.261 -55.672)" fill="#fff"/>
        <path id="Path_127340" data-name="Path 127340" d="M544.207,60.36a.61.61,0,1,0,.61.61.61.61,0,0,0-.61-.61" transform="translate(-392.897 -43.627)" fill="#fff"/>
        <path id="Path_127341" data-name="Path 127341" d="M566.208,48.237a.622.622,0,1,0,.622.622.622.622,0,0,0-.622-.622" transform="translate(-408.79 -34.864)" fill="#fff"/>
        <path id="Path_127342" data-name="Path 127342" d="M88.829,415.93a.477.477,0,1,0,.477.477.477.477,0,0,0-.477-.477" transform="translate(-63.858 -300.623)" fill="#fff"/>
        <path id="Path_127343" data-name="Path 127343" d="M106.294,397.751a.489.489,0,1,0,.489.489.489.489,0,0,0-.489-.489" transform="translate(-76.473 -287.483)" fill="#fff"/>
        <path id="Path_127344" data-name="Path 127344" d="M125.149,381.027a.5.5,0,1,0,.5.5.5.5,0,0,0-.5-.5" transform="translate(-90.091 -275.396)" fill="#fff"/>
        <path id="Path_127345" data-name="Path 127345" d="M145.4,366.03a.514.514,0,1,0,.514.514.514.514,0,0,0-.514-.514" transform="translate(-104.718 -264.556)" fill="#fff"/>
        <path id="Path_127346" data-name="Path 127346" d="M167.305,353.644a.526.526,0,1,0,.526.526.527.527,0,0,0-.526-.526" transform="translate(-120.543 -255.604)" fill="#fff"/>
        <path id="Path_127347" data-name="Path 127347" d="M191.116,345.529a.539.539,0,1,0,.539.539.539.539,0,0,0-.539-.539" transform="translate(-137.744 -249.739)" fill="#fff"/>
        <path id="Path_127348" data-name="Path 127348" d="M215.877,341.026a.551.551,0,1,0,.551.551.551.551,0,0,0-.551-.551" transform="translate(-155.632 -246.484)" fill="#fff"/>
        <path id="Path_127349" data-name="Path 127349" d="M240.963,339.026a.564.564,0,1,0,.564.564.564.564,0,0,0-.564-.564" transform="translate(-173.754 -245.039)" fill="#fff"/>
        <path id="Path_127350" data-name="Path 127350" d="M266.125,338.449a.576.576,0,1,0,.576.576.576.576,0,0,0-.576-.576" transform="translate(-191.931 -244.622)" fill="#fff"/>
        <path id="Path_127351" data-name="Path 127351" d="M291.3,338.319a.588.588,0,1,0,.588.589.588.588,0,0,0-.588-.589" transform="translate(-210.119 -244.528)" fill="#fff"/>
        <path id="Path_127352" data-name="Path 127352" d="M316.464,337.689a.6.6,0,1,0,.6.6.6.6,0,0,0-.6-.6" transform="translate(-228.297 -244.072)" fill="#fff"/>
        <path id="Path_127353" data-name="Path 127353" d="M341.538,335.516a.613.613,0,1,0,.613.613.613.613,0,0,0-.613-.613" transform="translate(-246.411 -242.502)" fill="#fff"/>
        <path id="Path_127354" data-name="Path 127354" d="M366.209,330.575a.626.626,0,1,0,.625.626.625.625,0,0,0-.625-.626" transform="translate(-264.234 -238.93)" fill="#fff"/>
        <path id="Path_127355" data-name="Path 127355" d="M389.692,321.571a.638.638,0,1,0,.638.638.638.638,0,0,0-.638-.638" transform="translate(-281.197 -232.423)" fill="#fff"/>
        <path id="Path_127356" data-name="Path 127356" d="M410.676,307.718a.65.65,0,1,0,.65.65.65.65,0,0,0-.65-.65" transform="translate(-296.355 -222.41)" fill="#fff"/>
        <path id="Path_127357" data-name="Path 127357" d="M428.134,289.576a.663.663,0,1,0,.663.663.663.663,0,0,0-.663-.663" transform="translate(-308.964 -209.297)" fill="#fff"/>
        <path id="Path_127358" data-name="Path 127358" d="M442.731,269.027a.675.675,0,1,0,.675.675.675.675,0,0,0-.675-.675" transform="translate(-319.506 -194.445)" fill="#fff"/>
        <path id="Path_127359" data-name="Path 127359" d="M455.04,247.016a.688.688,0,1,0,.688.688.687.687,0,0,0-.687-.688" transform="translate(-328.394 -178.536)" fill="#fff"/>
        <path id="Path_127360" data-name="Path 127360" d="M465.724,224.163a.7.7,0,1,0,.7.7.7.7,0,0,0-.7-.7" transform="translate(-336.106 -162.019)" fill="#fff"/>
        <path id="Path_127361" data-name="Path 127361" d="M475.507,200.9a.712.712,0,1,0,.712.712.712.712,0,0,0-.712-.712" transform="translate(-343.169 -145.209)" fill="#fff"/>
        <path id="Path_127362" data-name="Path 127362" d="M485.117,177.574a.725.725,0,1,0,.725.725.725.725,0,0,0-.725-.725" transform="translate(-350.105 -128.346)" fill="#fff"/>
        <path id="Path_127363" data-name="Path 127363" d="M495.279,154.48a.737.737,0,1,0,.737.737.737.737,0,0,0-.737-.737" transform="translate(-357.441 -111.654)" fill="#fff"/>
        <path id="Path_127364" data-name="Path 127364" d="M506.732,132.006a.749.749,0,1,0,.749.749.749.749,0,0,0-.749-.749" transform="translate(-365.71 -95.41)" fill="#fff"/>
        <path id="Path_127365" data-name="Path 127365" d="M520.2,110.694a.762.762,0,1,0,.762.762.762.762,0,0,0-.762-.762" transform="translate(-375.434 -80.007)" fill="#fff"/>
        <path id="Path_127366" data-name="Path 127366" d="M536.263,91.282a.774.774,0,1,0,.774.774.774.774,0,0,0-.774-.774" transform="translate(-387.037 -65.976)" fill="#fff"/>
        <path id="Path_127367" data-name="Path 127367" d="M555.141,74.615a.786.786,0,1,0,.786.786.786.786,0,0,0-.786-.786" transform="translate(-400.672 -53.93)" fill="#fff"/>
        <path id="Path_127368" data-name="Path 127368" d="M577.139,62.49a.8.8,0,0,0,0,1.6.79.79,0,0,0,.3-.058V62.548a.8.8,0,0,0-.3-.058" transform="translate(-416.562 -45.166)" fill="#fff"/>
        <path id="Path_127369" data-name="Path 127369" d="M99.733,430.146a.664.664,0,0,0-.665.665.647.647,0,0,0,.009.087h1.311a.646.646,0,0,0,.009-.087.665.665,0,0,0-.665-.665" transform="translate(-71.604 -310.898)" fill="#fff"/>
        <path id="Path_127370" data-name="Path 127370" d="M117.2,411.969a.676.676,0,1,0,.676.676.676.676,0,0,0-.676-.676" transform="translate(-84.22 -297.76)" fill="#fff"/>
        <path id="Path_127371" data-name="Path 127371" d="M136.058,395.248a.688.688,0,1,0,.688.688.687.687,0,0,0-.688-.688" transform="translate(-97.842 -285.674)" fill="#fff"/>
        <path id="Path_127372" data-name="Path 127372" d="M156.308,380.254a.7.7,0,1,0,.7.7.7.7,0,0,0-.7-.7" transform="translate(-112.47 -274.837)" fill="#fff"/>
        <path id="Path_127373" data-name="Path 127373" d="M178.218,367.871a.711.711,0,1,0,.711.711.711.711,0,0,0-.711-.711" transform="translate(-128.297 -265.887)" fill="#fff"/>
        <path id="Path_127374" data-name="Path 127374" d="M202.031,359.759a.722.722,0,1,0,.722.722.722.722,0,0,0-.722-.722" transform="translate(-145.501 -260.024)" fill="#fff"/>
        <path id="Path_127375" data-name="Path 127375" d="M226.794,355.259a.734.734,0,1,0,.734.734.734.734,0,0,0-.734-.734" transform="translate(-163.39 -256.771)" fill="#fff"/>
        <path id="Path_127376" data-name="Path 127376" d="M251.881,353.262a.745.745,0,1,0,.745.745.745.745,0,0,0-.745-.745" transform="translate(-181.514 -255.328)" fill="#fff"/>
        <path id="Path_127377" data-name="Path 127377" d="M277.047,352.688a.757.757,0,1,0,.757.757.757.757,0,0,0-.757-.757" transform="translate(-199.695 -254.913)" fill="#fff"/>
        <path id="Path_127378" data-name="Path 127378" d="M302.223,352.562a.768.768,0,1,0,.768.768.768.768,0,0,0-.768-.768" transform="translate(-217.883 -254.822)" fill="#fff"/>
        <path id="Path_127379" data-name="Path 127379" d="M327.389,351.934a.78.78,0,1,0,.78.78.78.78,0,0,0-.78-.78" transform="translate(-236.064 -254.368)" fill="#fff"/>
        <path id="Path_127380" data-name="Path 127380" d="M352.466,349.764a.791.791,0,1,0,.791.791.791.791,0,0,0-.791-.791" transform="translate(-254.181 -252.8)" fill="#fff"/>
        <path id="Path_127381" data-name="Path 127381" d="M377.139,344.827a.8.8,0,1,0,.8.8.8.8,0,0,0-.8-.8" transform="translate(-272.005 -249.231)" fill="#fff"/>
        <path id="Path_127382" data-name="Path 127382" d="M400.624,335.825a.815.815,0,1,0,.815.815.815.815,0,0,0-.815-.815" transform="translate(-288.971 -242.725)" fill="#fff"/>
        <path id="Path_127383" data-name="Path 127383" d="M421.611,321.975a.826.826,0,1,0,.826.826.826.826,0,0,0-.826-.826" transform="translate(-304.132 -232.715)" fill="#fff"/>
        <path id="Path_127384" data-name="Path 127384" d="M439.071,303.836a.838.838,0,1,0,.838.838.838.838,0,0,0-.838-.838" transform="translate(-316.743 -219.604)" fill="#fff"/>
        <path id="Path_127385" data-name="Path 127385" d="M453.669,283.29a.849.849,0,1,0,.849.849.849.849,0,0,0-.849-.849" transform="translate(-327.286 -204.754)" fill="#fff"/>
        <path id="Path_127386" data-name="Path 127386" d="M465.982,261.282a.861.861,0,1,0,.861.861.861.861,0,0,0-.861-.861" transform="translate(-336.177 -188.847)" fill="#fff"/>
        <path id="Path_127387" data-name="Path 127387" d="M476.667,238.432a.872.872,0,1,0,.872.872.873.873,0,0,0-.872-.872" transform="translate(-343.891 -172.332)" fill="#fff"/>
        <path id="Path_127388" data-name="Path 127388" d="M486.452,215.177a.884.884,0,1,0,.884.884.884.884,0,0,0-.884-.884" transform="translate(-350.955 -155.524)" fill="#fff"/>
        <path id="Path_127389" data-name="Path 127389" d="M496.064,191.85a.9.9,0,1,0,.9.9.9.9,0,0,0-.9-.9" transform="translate(-357.894 -138.664)" fill="#fff"/>
        <path id="Path_127390" data-name="Path 127390" d="M506.229,168.758a.907.907,0,1,0,.907.907.907.907,0,0,0-.907-.907" transform="translate(-365.233 -121.974)" fill="#fff"/>
        <path id="Path_127391" data-name="Path 127391" d="M517.684,146.287a.919.919,0,1,0,.919.919.919.919,0,0,0-.919-.919" transform="translate(-373.503 -105.732)" fill="#fff"/>
        <path id="Path_127392" data-name="Path 127392" d="M531.152,124.978a.93.93,0,1,0,.93.93.93.93,0,0,0-.93-.93" transform="translate(-383.229 -90.331)" fill="#fff"/>
        <path id="Path_127393" data-name="Path 127393" d="M547.22,105.568a.942.942,0,1,0,.942.942.942.942,0,0,0-.942-.942" transform="translate(-394.835 -76.302)" fill="#fff"/>
        <path id="Path_127394" data-name="Path 127394" d="M566.1,88.9a.953.953,0,1,0,.953.953.953.953,0,0,0-.953-.953" transform="translate(-408.471 -64.258)" fill="#fff"/>
        <path id="Path_127395" data-name="Path 127395" d="M128.038,426.092a.889.889,0,1,0,.889.889.889.889,0,0,0-.889-.889" transform="translate(-91.9 -307.967)" fill="#fff"/>
        <path id="Path_127396" data-name="Path 127396" d="M146.9,409.379a.9.9,0,1,0,.9.9.9.9,0,0,0-.9-.9" transform="translate(-105.527 -295.888)" fill="#fff"/>
        <path id="Path_127397" data-name="Path 127397" d="M167.158,394.394a.908.908,0,1,0,.908.908.908.908,0,0,0-.908-.908" transform="translate(-120.161 -285.057)" fill="#fff"/>
        <path id="Path_127398" data-name="Path 127398" d="M189.074,382.02a.917.917,0,1,0,.917.917.917.917,0,0,0-.917-.917" transform="translate(-135.995 -276.113)" fill="#fff"/>
        <path id="Path_127399" data-name="Path 127399" d="M212.893,373.916a.926.926,0,1,0,.926.926.926.926,0,0,0-.926-.926" transform="translate(-153.204 -270.256)" fill="#fff"/>
        <path id="Path_127400" data-name="Path 127400" d="M237.661,369.424a.935.935,0,1,0,.935.935.935.935,0,0,0-.935-.935" transform="translate(-171.099 -267.009)" fill="#fff"/>
        <path id="Path_127401" data-name="Path 127401" d="M262.755,367.436a.945.945,0,1,0,.945.945.944.944,0,0,0-.945-.945" transform="translate(-189.23 -265.572)" fill="#fff"/>
        <path id="Path_127402" data-name="Path 127402" d="M287.927,366.87a.954.954,0,1,0,.954.954.954.954,0,0,0-.954-.954" transform="translate(-207.416 -265.163)" fill="#fff"/>
        <path id="Path_127403" data-name="Path 127403" d="M313.11,366.752a.963.963,0,1,0,.963.963.963.963,0,0,0-.963-.963" transform="translate(-225.611 -265.078)" fill="#fff"/>
        <path id="Path_127404" data-name="Path 127404" d="M338.281,366.133a.972.972,0,1,0,.972.972.972.972,0,0,0-.972-.972" transform="translate(-243.798 -264.631)" fill="#fff"/>
        <path id="Path_127405" data-name="Path 127405" d="M363.364,363.971a.981.981,0,1,0,.981.981.981.981,0,0,0-.981-.981" transform="translate(-261.92 -263.068)" fill="#fff"/>
        <path id="Path_127406" data-name="Path 127406" d="M388.044,359.042a.991.991,0,1,0,.991.991.991.991,0,0,0-.991-.991" transform="translate(-279.751 -259.506)" fill="#fff"/>
        <path id="Path_127407" data-name="Path 127407" d="M411.535,350.049a1,1,0,1,0,1,1,1,1,0,0,0-1-1" transform="translate(-296.723 -253.006)" fill="#fff"/>
        <path id="Path_127408" data-name="Path 127408" d="M432.528,336.208a1.009,1.009,0,1,0,1.009,1.009,1.009,1.009,0,0,0-1.009-1.009" transform="translate(-311.89 -243.002)" fill="#fff"/>
        <path id="Path_127409" data-name="Path 127409" d="M449.993,318.077a1.018,1.018,0,1,0,1.018,1.018,1.018,1.018,0,0,0-1.018-1.018" transform="translate(-324.507 -229.897)" fill="#fff"/>
        <path id="Path_127410" data-name="Path 127410" d="M464.6,297.54a1.027,1.027,0,1,0,1.027,1.027,1.027,1.027,0,0,0-1.027-1.027" transform="translate(-335.056 -215.054)" fill="#fff"/>
        <path id="Path_127411" data-name="Path 127411" d="M476.917,275.54a1.037,1.037,0,1,0,1.036,1.037,1.036,1.036,0,0,0-1.036-1.037" transform="translate(-343.953 -199.153)" fill="#fff"/>
        <path id="Path_127412" data-name="Path 127412" d="M487.609,252.7a1.046,1.046,0,1,0,1.046,1.046,1.046,1.046,0,0,0-1.046-1.046" transform="translate(-351.674 -182.643)" fill="#fff"/>
        <path id="Path_127413" data-name="Path 127413" d="M497.4,229.452a1.055,1.055,0,1,0,1.055,1.055,1.055,1.055,0,0,0-1.055-1.055" transform="translate(-358.744 -165.841)" fill="#fff"/>
        <path id="Path_127414" data-name="Path 127414" d="M507.017,206.133a1.064,1.064,0,1,0,1.064,1.064,1.064,1.064,0,0,0-1.064-1.064" transform="translate(-365.689 -148.987)" fill="#fff"/>
        <path id="Path_127415" data-name="Path 127415" d="M517.188,183.049a1.074,1.074,0,1,0,1.073,1.074,1.074,1.074,0,0,0-1.073-1.074" transform="translate(-373.034 -132.303)" fill="#fff"/>
        <path id="Path_127416" data-name="Path 127416" d="M528.649,160.587a1.083,1.083,0,1,0,1.083,1.083,1.083,1.083,0,0,0-1.083-1.083" transform="translate(-381.311 -116.068)" fill="#fff"/>
        <path id="Path_127417" data-name="Path 127417" d="M542.123,139.287a1.092,1.092,0,1,0,1.092,1.092,1.092,1.092,0,0,0-1.092-1.092" transform="translate(-391.042 -100.673)" fill="#fff"/>
        <path id="Path_127418" data-name="Path 127418" d="M558.2,119.886a1.1,1.1,0,1,0,1.1,1.1,1.1,1.1,0,0,0-1.1-1.1" transform="translate(-402.653 -86.65)" fill="#fff"/>
        <path id="Path_127419" data-name="Path 127419" d="M577.082,103.23a1.11,1.11,0,0,0,0,2.221c.03,0,.058-.007.088-.009v-2.2c-.029,0-.058-.009-.088-.009" transform="translate(-416.296 -74.612)" fill="#fff"/>
        <path id="Path_127420" data-name="Path 127420" d="M157.68,423.42a1.134,1.134,0,1,0,1.134,1.134,1.134,1.134,0,0,0-1.134-1.134" transform="translate(-113.147 -306.036)" fill="#fff"/>
        <path id="Path_127421" data-name="Path 127421" d="M177.946,408.449a1.14,1.14,0,1,0,1.139,1.139,1.139,1.139,0,0,0-1.139-1.139" transform="translate(-127.791 -295.216)" fill="#fff"/>
        <path id="Path_127422" data-name="Path 127422" d="M199.872,396.088a1.145,1.145,0,1,0,1.145,1.145,1.145,1.145,0,0,0-1.145-1.145" transform="translate(-143.634 -286.281)" fill="#fff"/>
        <path id="Path_127423" data-name="Path 127423" d="M223.7,388a1.15,1.15,0,1,0,1.15,1.15A1.15,1.15,0,0,0,223.7,388" transform="translate(-160.854 -280.435)" fill="#fff"/>
        <path id="Path_127424" data-name="Path 127424" d="M248.48,383.521a1.156,1.156,0,1,0,1.156,1.155,1.155,1.155,0,0,0-1.156-1.155" transform="translate(-178.76 -277.198)" fill="#fff"/>
        <path id="Path_127425" data-name="Path 127425" d="M273.584,381.546a1.161,1.161,0,1,0,1.161,1.161,1.161,1.161,0,0,0-1.161-1.161" transform="translate(-196.9 -275.771)" fill="#fff"/>
        <path id="Path_127426" data-name="Path 127426" d="M298.765,380.995a1.166,1.166,0,1,0,1.166,1.166,1.166,1.166,0,0,0-1.166-1.166" transform="translate(-215.096 -275.373)" fill="#fff"/>
        <path id="Path_127427" data-name="Path 127427" d="M323.959,380.891a1.172,1.172,0,1,0,1.172,1.172,1.172,1.172,0,0,0-1.172-1.172" transform="translate(-233.301 -275.297)" fill="#fff"/>
        <path id="Path_127428" data-name="Path 127428" d="M349.14,380.286a1.177,1.177,0,1,0,1.177,1.177,1.177,1.177,0,0,0-1.177-1.177" transform="translate(-251.498 -274.86)" fill="#fff"/>
        <path id="Path_127429" data-name="Path 127429" d="M374.233,378.138a1.182,1.182,0,1,0,1.182,1.182,1.182,1.182,0,0,0-1.182-1.182" transform="translate(-269.631 -273.308)" fill="#fff"/>
        <path id="Path_127430" data-name="Path 127430" d="M398.923,373.222a1.188,1.188,0,1,0,1.188,1.188,1.188,1.188,0,0,0-1.188-1.188" transform="translate(-287.472 -269.754)" fill="#fff"/>
        <path id="Path_127431" data-name="Path 127431" d="M422.423,364.244a1.193,1.193,0,1,0,1.193,1.193,1.193,1.193,0,0,0-1.193-1.193" transform="translate(-304.453 -263.265)" fill="#fff"/>
        <path id="Path_127432" data-name="Path 127432" d="M443.426,350.416a1.2,1.2,0,1,0,1.2,1.2,1.2,1.2,0,0,0-1.2-1.2" transform="translate(-319.63 -253.271)" fill="#fff"/>
        <path id="Path_127433" data-name="Path 127433" d="M460.9,332.3a1.2,1.2,0,1,0,1.2,1.2,1.2,1.2,0,0,0-1.2-1.2" transform="translate(-332.258 -240.176)" fill="#fff"/>
        <path id="Path_127434" data-name="Path 127434" d="M475.517,311.775a1.209,1.209,0,1,0,1.209,1.209,1.209,1.209,0,0,0-1.209-1.209" transform="translate(-342.817 -225.342)" fill="#fff"/>
        <path id="Path_127435" data-name="Path 127435" d="M487.846,289.79A1.215,1.215,0,1,0,489.06,291a1.214,1.214,0,0,0-1.214-1.215" transform="translate(-351.723 -209.452)" fill="#fff"/>
        <path id="Path_127436" data-name="Path 127436" d="M498.547,266.962a1.22,1.22,0,1,0,1.22,1.22,1.22,1.22,0,0,0-1.22-1.22" transform="translate(-359.454 -192.953)" fill="#fff"/>
        <path id="Path_127437" data-name="Path 127437" d="M508.348,243.73a1.225,1.225,0,1,0,1.225,1.225,1.225,1.225,0,0,0-1.225-1.225" transform="translate(-366.534 -176.161)" fill="#fff"/>
        <path id="Path_127438" data-name="Path 127438" d="M517.977,220.424a1.231,1.231,0,1,0,1.231,1.231,1.23,1.23,0,0,0-1.231-1.231" transform="translate(-373.49 -159.316)" fill="#fff"/>
        <path id="Path_127439" data-name="Path 127439" d="M528.158,197.355a1.236,1.236,0,1,0,1.236,1.236,1.236,1.236,0,0,0-1.236-1.236" transform="translate(-380.845 -142.643)" fill="#fff"/>
        <path id="Path_127440" data-name="Path 127440" d="M539.628,174.907a1.241,1.241,0,1,0,1.241,1.241,1.241,1.241,0,0,0-1.241-1.241" transform="translate(-389.131 -126.418)" fill="#fff"/>
        <path id="Path_127441" data-name="Path 127441" d="M553.114,153.62a1.247,1.247,0,1,0,1.247,1.247,1.247,1.247,0,0,0-1.247-1.247" transform="translate(-398.874 -111.032)" fill="#fff"/>
        <path id="Path_127442" data-name="Path 127442" d="M569.2,134.232a1.252,1.252,0,1,0,1.252,1.252,1.252,1.252,0,0,0-1.252-1.252" transform="translate(-410.494 -97.019)" fill="#fff"/>
        <path id="Path_127443" data-name="Path 127443" d="M188.674,422.419a1.395,1.395,0,1,0,1.395,1.395,1.394,1.394,0,0,0-1.395-1.395" transform="translate(-135.36 -305.313)" fill="#fff"/>
        <path id="Path_127444" data-name="Path 127444" d="M210.614,410.079a1.395,1.395,0,1,0,1.395,1.395,1.395,1.395,0,0,0-1.395-1.395" transform="translate(-151.218 -296.394)" fill="#fff"/>
        <path id="Path_127445" data-name="Path 127445" d="M234.457,402.008a1.395,1.395,0,1,0,1.395,1.395,1.395,1.395,0,0,0-1.395-1.395" transform="translate(-168.451 -290.56)" fill="#fff"/>
        <path id="Path_127446" data-name="Path 127446" d="M259.25,397.55a1.395,1.395,0,1,0,1.395,1.395,1.395,1.395,0,0,0-1.395-1.395" transform="translate(-186.37 -287.338)" fill="#fff"/>
        <path id="Path_127447" data-name="Path 127447" d="M284.368,395.595a1.395,1.395,0,1,0,1.395,1.395,1.395,1.395,0,0,0-1.395-1.395" transform="translate(-204.525 -285.925)" fill="#fff"/>
        <path id="Path_127448" data-name="Path 127448" d="M309.563,395.062a1.395,1.395,0,1,0,1.395,1.395,1.395,1.395,0,0,0-1.395-1.395" transform="translate(-222.735 -285.54)" fill="#fff"/>
        <path id="Path_127449" data-name="Path 127449" d="M334.77,394.978a1.395,1.395,0,1,0,1.395,1.395,1.395,1.395,0,0,0-1.395-1.395" transform="translate(-240.954 -285.479)" fill="#fff"/>
        <path id="Path_127450" data-name="Path 127450" d="M359.966,394.392a1.395,1.395,0,1,0,1.395,1.395,1.395,1.395,0,0,0-1.395-1.395" transform="translate(-259.165 -285.056)" fill="#fff"/>
        <path id="Path_127451" data-name="Path 127451" d="M385.073,392.263a1.395,1.395,0,1,0,1.395,1.395,1.395,1.395,0,0,0-1.395-1.395" transform="translate(-277.312 -283.517)" fill="#fff"/>
        <path id="Path_127452" data-name="Path 127452" d="M409.776,387.367a1.395,1.395,0,1,0,1.395,1.395,1.395,1.395,0,0,0-1.395-1.395" transform="translate(-295.166 -279.978)" fill="#fff"/>
        <path id="Path_127453" data-name="Path 127453" d="M433.291,378.408a1.395,1.395,0,1,0,1.395,1.395,1.395,1.395,0,0,0-1.395-1.395" transform="translate(-312.162 -273.503)" fill="#fff"/>
        <path id="Path_127454" data-name="Path 127454" d="M454.308,364.6a1.395,1.395,0,1,0,1.395,1.395,1.395,1.395,0,0,0-1.395-1.395" transform="translate(-327.353 -263.523)" fill="#fff"/>
        <path id="Path_127455" data-name="Path 127455" d="M471.8,346.5a1.395,1.395,0,1,0,1.395,1.395A1.395,1.395,0,0,0,471.8,346.5" transform="translate(-339.994 -250.442)" fill="#fff"/>
        <path id="Path_127456" data-name="Path 127456" d="M486.427,326a1.395,1.395,0,1,0,1.395,1.395A1.395,1.395,0,0,0,486.427,326" transform="translate(-350.568 -235.622)" fill="#fff"/>
        <path id="Path_127457" data-name="Path 127457" d="M498.769,304.031a1.395,1.395,0,1,0,1.395,1.395,1.395,1.395,0,0,0-1.395-1.395" transform="translate(-359.488 -219.745)" fill="#fff"/>
        <path id="Path_127458" data-name="Path 127458" d="M509.485,281.223a1.395,1.395,0,1,0,1.395,1.395,1.395,1.395,0,0,0-1.395-1.395" transform="translate(-367.233 -203.26)" fill="#fff"/>
        <path id="Path_127459" data-name="Path 127459" d="M519.3,258.01a1.395,1.395,0,1,0,1.395,1.395,1.395,1.395,0,0,0-1.395-1.395" transform="translate(-374.327 -186.482)" fill="#fff"/>
        <path id="Path_127460" data-name="Path 127460" d="M528.942,234.724a1.395,1.395,0,1,0,1.395,1.395,1.395,1.395,0,0,0-1.395-1.395" transform="translate(-381.296 -169.652)" fill="#fff"/>
        <path id="Path_127461" data-name="Path 127461" d="M539.137,211.674a1.395,1.395,0,1,0,1.395,1.395,1.394,1.394,0,0,0-1.395-1.395" transform="translate(-388.665 -152.992)" fill="#fff"/>
        <path id="Path_127462" data-name="Path 127462" d="M550.622,189.245a1.395,1.395,0,1,0,1.395,1.395,1.395,1.395,0,0,0-1.395-1.395" transform="translate(-396.966 -136.781)" fill="#fff"/>
        <path id="Path_127463" data-name="Path 127463" d="M564.12,167.978a1.395,1.395,0,1,0,1.395,1.395,1.395,1.395,0,0,0-1.395-1.395" transform="translate(-406.722 -121.41)" fill="#fff"/>
        <path id="Path_127464" data-name="Path 127464" d="M578.823,151.072a1.39,1.39,0,0,0,.408.986v-1.971a1.39,1.39,0,0,0-.408.986" transform="translate(-418.357 -108.478)" fill="#fff"/>
        <path id="Path_127465" data-name="Path 127465" d="M221.3,423.99a1.667,1.667,0,0,0-1.467,2.458h2.934a1.667,1.667,0,0,0-1.467-2.458" transform="translate(-158.743 -306.448)" fill="#fff"/>
        <path id="Path_127466" data-name="Path 127466" d="M245.159,415.944a1.66,1.66,0,1,0,1.66,1.66,1.66,1.66,0,0,0-1.66-1.66" transform="translate(-175.994 -300.633)" fill="#fff"/>
        <path id="Path_127467" data-name="Path 127467" d="M269.97,411.51a1.653,1.653,0,1,0,1.653,1.653,1.653,1.653,0,0,0-1.653-1.653" transform="translate(-193.932 -297.428)" fill="#fff"/>
        <path id="Path_127468" data-name="Path 127468" d="M295.106,409.58a1.646,1.646,0,1,0,1.646,1.646,1.646,1.646,0,0,0-1.646-1.646" transform="translate(-212.105 -296.033)" fill="#fff"/>
        <path id="Path_127469" data-name="Path 127469" d="M320.318,409.072a1.639,1.639,0,1,0,1.639,1.639,1.639,1.639,0,0,0-1.639-1.639" transform="translate(-230.332 -295.666)" fill="#fff"/>
        <path id="Path_127470" data-name="Path 127470" d="M345.543,409.012a1.632,1.632,0,1,0,1.632,1.632,1.632,1.632,0,0,0-1.632-1.632" transform="translate(-248.569 -295.622)" fill="#fff"/>
        <path id="Path_127471" data-name="Path 127471" d="M370.757,408.452a1.625,1.625,0,1,0,1.625,1.625,1.625,1.625,0,0,0-1.625-1.625" transform="translate(-266.798 -295.218)" fill="#fff"/>
        <path id="Path_127472" data-name="Path 127472" d="M395.882,406.348a1.619,1.619,0,1,0,1.618,1.618,1.618,1.618,0,0,0-1.618-1.618" transform="translate(-284.963 -293.697)" fill="#fff"/>
        <path id="Path_127473" data-name="Path 127473" d="M420.6,401.477a1.612,1.612,0,1,0,1.612,1.612,1.611,1.611,0,0,0-1.612-1.612" transform="translate(-302.836 -290.176)" fill="#fff"/>
        <path id="Path_127474" data-name="Path 127474" d="M444.136,392.542a1.6,1.6,0,1,0,1.6,1.6,1.6,1.6,0,0,0-1.6-1.6" transform="translate(-319.849 -283.718)" fill="#fff"/>
        <path id="Path_127475" data-name="Path 127475" d="M465.171,378.758a1.6,1.6,0,1,0,1.6,1.6,1.6,1.6,0,0,0-1.6-1.6" transform="translate(-335.058 -273.756)" fill="#fff"/>
        <path id="Path_127476" data-name="Path 127476" d="M482.679,360.686a1.591,1.591,0,1,0,1.591,1.591,1.591,1.591,0,0,0-1.591-1.591" transform="translate(-347.717 -260.694)" fill="#fff"/>
        <path id="Path_127477" data-name="Path 127477" d="M497.326,340.206a1.584,1.584,0,1,0,1.584,1.584,1.584,1.584,0,0,0-1.584-1.584" transform="translate(-358.309 -245.891)" fill="#fff"/>
        <path id="Path_127478" data-name="Path 127478" d="M509.685,318.265a1.577,1.577,0,1,0,1.577,1.577,1.577,1.577,0,0,0-1.577-1.577" transform="translate(-367.246 -230.033)" fill="#fff"/>
        <path id="Path_127479" data-name="Path 127479" d="M520.419,295.481a1.57,1.57,0,1,0,1.57,1.57,1.57,1.57,0,0,0-1.57-1.57" transform="translate(-375.01 -213.565)" fill="#fff"/>
        <path id="Path_127480" data-name="Path 127480" d="M530.253,272.293a1.564,1.564,0,1,0,1.564,1.564,1.564,1.564,0,0,0-1.564-1.564" transform="translate(-382.122 -196.806)" fill="#fff"/>
        <path id="Path_127481" data-name="Path 127481" d="M539.913,249.032a1.557,1.557,0,1,0,1.557,1.557,1.557,1.557,0,0,0-1.557-1.557" transform="translate(-389.109 -179.993)" fill="#fff"/>
        <path id="Path_127482" data-name="Path 127482" d="M550.126,226.006a1.55,1.55,0,1,0,1.55,1.55,1.55,1.55,0,0,0-1.55-1.55" transform="translate(-396.495 -163.351)" fill="#fff"/>
        <path id="Path_127483" data-name="Path 127483" d="M561.628,203.6a1.543,1.543,0,1,0,1.543,1.543,1.543,1.543,0,0,0-1.543-1.543" transform="translate(-404.814 -147.158)" fill="#fff"/>
        <path id="Path_127484" data-name="Path 127484" d="M575.144,182.359a1.536,1.536,0,1,0,.317,3.039v-3.006a1.533,1.533,0,0,0-.317-.033" transform="translate(-414.588 -131.804)" fill="#fff"/>
        <path id="Path_127485" data-name="Path 127485" d="M256.7,429.807a1.942,1.942,0,0,0-1.6.846H258.3a1.943,1.943,0,0,0-1.6-.846" transform="translate(-184.374 -310.653)" fill="#fff"/>
        <path id="Path_127486" data-name="Path 127486" d="M280.641,425.4a1.93,1.93,0,0,0-1.93,1.93c0,.046,0,.092.007.137h3.846c0-.045.007-.09.007-.137a1.93,1.93,0,0,0-1.93-1.93" transform="translate(-201.445 -307.469)" fill="#fff"/>
        <path id="Path_127487" data-name="Path 127487" d="M305.8,423.5a1.911,1.911,0,0,0-1.789,2.593h3.577A1.911,1.911,0,0,0,305.8,423.5" transform="translate(-219.639 -306.096)" fill="#fff"/>
        <path id="Path_127488" data-name="Path 127488" d="M331.033,423.025a1.9,1.9,0,0,0-1.708,2.726h3.417a1.9,1.9,0,0,0-1.708-2.726" transform="translate(-237.889 -305.751)" fill="#fff"/>
        <path id="Path_127489" data-name="Path 127489" d="M356.28,423a1.882,1.882,0,0,0-1.68,2.734h3.36A1.882,1.882,0,0,0,356.28,423" transform="translate(-256.148 -305.73)" fill="#fff"/>
        <path id="Path_127490" data-name="Path 127490" d="M381.516,422.465a1.867,1.867,0,0,0-1.57,2.881h3.139a1.867,1.867,0,0,0-1.57-2.881" transform="translate(-274.398 -305.346)" fill="#fff"/>
        <path id="Path_127491" data-name="Path 127491" d="M408.516,422.246a1.854,1.854,0,1,0-2.783,1.6h1.859a1.852,1.852,0,0,0,.924-1.6" transform="translate(-292.585 -303.848)" fill="#fff"/>
        <path id="Path_127492" data-name="Path 127492" d="M431.405,415.551a1.838,1.838,0,1,0,1.838,1.838,1.838,1.838,0,0,0-1.838-1.838" transform="translate(-310.479 -300.349)" fill="#fff"/>
        <path id="Path_127493" data-name="Path 127493" d="M454.96,406.646a1.823,1.823,0,1,0,1.823,1.823,1.823,1.823,0,0,0-1.823-1.823" transform="translate(-327.515 -293.912)" fill="#fff"/>
        <path id="Path_127494" data-name="Path 127494" d="M476.017,392.893a1.808,1.808,0,1,0,1.808,1.808,1.808,1.808,0,0,0-1.808-1.808" transform="translate(-342.746 -283.972)" fill="#fff"/>
        <path id="Path_127495" data-name="Path 127495" d="M493.547,374.851a1.793,1.793,0,1,0,1.793,1.793,1.793,1.793,0,0,0-1.793-1.793" transform="translate(-355.426 -270.932)" fill="#fff"/>
        <path id="Path_127496" data-name="Path 127496" d="M508.215,354.4a1.777,1.777,0,1,0,1.777,1.777,1.777,1.777,0,0,0-1.777-1.777" transform="translate(-366.039 -256.151)" fill="#fff"/>
        <path id="Path_127497" data-name="Path 127497" d="M520.6,332.49a1.762,1.762,0,1,0,1.762,1.762,1.762,1.762,0,0,0-1.762-1.762" transform="translate(-375 -240.315)" fill="#fff"/>
        <path id="Path_127498" data-name="Path 127498" d="M531.353,309.736a1.747,1.747,0,1,0,1.747,1.747,1.747,1.747,0,0,0-1.747-1.747" transform="translate(-382.785 -223.869)" fill="#fff"/>
        <path id="Path_127499" data-name="Path 127499" d="M541.208,286.579a1.732,1.732,0,1,0,1.732,1.732,1.731,1.731,0,0,0-1.732-1.732" transform="translate(-389.918 -207.131)" fill="#fff"/>
        <path id="Path_127500" data-name="Path 127500" d="M550.889,263.348a1.716,1.716,0,1,0,1.716,1.716,1.716,1.716,0,0,0-1.716-1.716" transform="translate(-396.927 -190.341)" fill="#fff"/>
        <path id="Path_127501" data-name="Path 127501" d="M561.124,240.353a1.7,1.7,0,1,0,1.7,1.7,1.7,1.7,0,0,0-1.7-1.7" transform="translate(-404.335 -173.72)" fill="#fff"/>
        <path id="Path_127502" data-name="Path 127502" d="M572.649,217.979a1.686,1.686,0,1,0,.9,3.109v-2.846a1.678,1.678,0,0,0-.9-.263" transform="translate(-412.676 -157.549)" fill="#fff"/>
        <path id="Path_127503" data-name="Path 127503" d="M443.123,429.589a2.072,2.072,0,0,0-1.714.906h3.428a2.072,2.072,0,0,0-1.714-.906" transform="translate(-319.038 -310.495)" fill="#fff"/>
        <path id="Path_127504" data-name="Path 127504" d="M465.763,420.721a2.049,2.049,0,0,0-1.572,3.364h3.143a2.049,2.049,0,0,0-1.572-3.364" transform="translate(-335.159 -304.085)" fill="#fff"/>
        <path id="Path_127505" data-name="Path 127505" d="M486.845,407a2.024,2.024,0,1,0,2.025,2.025A2.025,2.025,0,0,0,486.845,407" transform="translate(-350.414 -294.17)" fill="#fff"/>
        <path id="Path_127506" data-name="Path 127506" d="M504.4,389a2,2,0,1,0,2,2,2,2,0,0,0-2-2" transform="translate(-363.121 -281.155)" fill="#fff"/>
        <path id="Path_127507" data-name="Path 127507" d="M519.1,368.583a1.974,1.974,0,1,0,1.974,1.974,1.974,1.974,0,0,0-1.974-1.974" transform="translate(-373.761 -266.402)" fill="#fff"/>
        <path id="Path_127508" data-name="Path 127508" d="M531.5,346.707a1.949,1.949,0,1,0,1.949,1.949,1.949,1.949,0,0,0-1.949-1.949" transform="translate(-382.746 -250.59)" fill="#fff"/>
        <path id="Path_127509" data-name="Path 127509" d="M542.284,323.989a1.924,1.924,0,1,0,1.924,1.924,1.924,1.924,0,0,0-1.924-1.924" transform="translate(-390.557 -234.17)" fill="#fff"/>
        <path id="Path_127510" data-name="Path 127510" d="M552.165,300.867a1.9,1.9,0,1,0,1.9,1.9,1.9,1.9,0,0,0-1.9-1.9" transform="translate(-397.717 -217.458)" fill="#fff"/>
        <path id="Path_127511" data-name="Path 127511" d="M561.873,277.671a1.874,1.874,0,1,0,1.873,1.874,1.873,1.873,0,0,0-1.873-1.874" transform="translate(-404.752 -200.693)" fill="#fff"/>
        <path id="Path_127512" data-name="Path 127512" d="M572.133,254.712a1.849,1.849,0,1,0,.926,3.446v-3.2a1.836,1.836,0,0,0-.926-.251" transform="translate(-412.185 -184.099)" fill="#fff"/>
        <path id="Path_127513" data-name="Path 127513" d="M497.656,421.088a2.245,2.245,0,0,0-2,3.263h4.008a2.245,2.245,0,0,0-2-3.263" transform="translate(-358.067 -304.351)" fill="#fff"/>
        <path id="Path_127514" data-name="Path 127514" d="M515.24,403.123a2.212,2.212,0,1,0,2.211,2.211,2.211,2.211,0,0,0-2.211-2.211" transform="translate(-370.803 -291.366)" fill="#fff"/>
        <path id="Path_127515" data-name="Path 127515" d="M529.965,382.75a2.175,2.175,0,1,0,2.175,2.175,2.175,2.175,0,0,0-2.175-2.175" transform="translate(-381.472 -276.641)" fill="#fff"/>
        <path id="Path_127516" data-name="Path 127516" d="M542.4,360.916a2.138,2.138,0,1,0,2.138,2.138,2.138,2.138,0,0,0-2.138-2.138" transform="translate(-390.488 -260.86)" fill="#fff"/>
        <path id="Path_127517" data-name="Path 127517" d="M553.213,338.239a2.1,2.1,0,1,0,2.1,2.1,2.1,2.1,0,0,0-2.1-2.1" transform="translate(-398.328 -244.47)" fill="#fff"/>
        <path id="Path_127518" data-name="Path 127518" d="M563.123,315.158a2.065,2.065,0,1,0,2.065,2.065,2.065,2.065,0,0,0-2.065-2.065" transform="translate(-405.517 -227.787)" fill="#fff"/>
        <path id="Path_127519" data-name="Path 127519" d="M572.861,292a2.029,2.029,0,1,0,.594,3.969v-3.88a2.023,2.023,0,0,0-.594-.089" transform="translate(-412.581 -211.052)" fill="#fff"/>
        <path id="Path_127520" data-name="Path 127520" d="M528.495,419.66a2.429,2.429,0,1,0-3.935,1.9h3.013a2.423,2.423,0,0,0,.923-1.9" transform="translate(-378.47 -301.563)" fill="#fff"/>
        <path id="Path_127521" data-name="Path 127521" d="M540.825,396.9a2.379,2.379,0,1,0,2.379,2.379,2.38,2.38,0,0,0-2.379-2.379" transform="translate(-389.173 -286.871)" fill="#fff"/>
        <path id="Path_127522" data-name="Path 127522" d="M553.3,375.116a2.33,2.33,0,1,0,2.33,2.33,2.33,2.33,0,0,0-2.33-2.33" transform="translate(-398.223 -271.123)" fill="#fff"/>
        <path id="Path_127523" data-name="Path 127523" d="M564.14,352.486a2.28,2.28,0,1,0,2.281,2.28,2.28,2.28,0,0,0-2.281-2.28" transform="translate(-406.097 -254.767)" fill="#fff"/>
        <path id="Path_127524" data-name="Path 127524" d="M574.085,329.452a2.231,2.231,0,0,0,0,4.462c.037,0,.073,0,.109-.006v-4.451c-.036,0-.072-.006-.109-.006" transform="translate(-413.32 -238.119)" fill="#fff"/>
        <path id="Path_127525" data-name="Path 127525" d="M538.6,431.745h2.878a2.641,2.641,0,0,0-2.878,0" transform="translate(-389.287 -311.745)" fill="#fff"/>
        <path id="Path_127526" data-name="Path 127526" d="M551.676,411.045a2.588,2.588,0,1,0,2.587,2.588,2.587,2.587,0,0,0-2.587-2.588" transform="translate(-396.866 -297.092)" fill="#fff"/>
        <path id="Path_127527" data-name="Path 127527" d="M564.183,389.309a2.524,2.524,0,1,0,2.524,2.524,2.524,2.524,0,0,0-2.524-2.524" transform="translate(-405.952 -281.382)" fill="#fff"/>
        <path id="Path_127528" data-name="Path 127528" d="M572.606,369.254a2.458,2.458,0,0,0,2.131,2.435v-4.871a2.458,2.458,0,0,0-2.131,2.435" transform="translate(-413.864 -265.127)" fill="#fff"/>
        <path id="Path_127529" data-name="Path 127529" d="M562.734,425.171a2.8,2.8,0,0,0-2.716,2.131h5.432a2.8,2.8,0,0,0-2.716-2.131" transform="translate(-404.765 -307.302)" fill="#fff"/>
        <path id="Path_127530" data-name="Path 127530" d="M572.346,406.344a2.72,2.72,0,0,0,2.2,2.669v-5.339a2.72,2.72,0,0,0-2.2,2.669" transform="translate(-413.676 -291.765)" fill="#fff"/>
      </g>
    </g>
  </g>
</svg>
