<svg xmlns="http://www.w3.org/2000/svg" width="40" height="40" viewBox="0 0 40 40">
  <g id="Group_165838" data-name="Group 165838" transform="translate(116 -467)">
    <circle id="Ellipse_2045" data-name="Ellipse 2045" cx="20" cy="20" r="20" transform="translate(-116 467)" fill="#4482ff"/>
    <path id="school_2_" data-name="school (2)" d="M16.466,5.2H12.411a3.423,3.423,0,0,0-1.145-.53V4.332L14.325,2.9a.867.867,0,0,0,0-1.473L11.552.127a1.419,1.419,0,0,0-2.019,1.29V4.669a3.412,3.412,0,0,0-1.144.53H4.333A4.338,4.338,0,0,0,0,9.532V18.2a2.6,2.6,0,0,0,2.6,2.6H18.2a2.6,2.6,0,0,0,2.6-2.6V9.532A4.338,4.338,0,0,0,16.466,5.2Zm2.44,3.467H17.035A2.615,2.615,0,0,1,15.2,7.9l-.972-.971h2.241A2.6,2.6,0,0,1,18.906,8.666ZM4.333,6.932H6.574L5.6,7.9a2.615,2.615,0,0,1-1.838.762H1.893a2.6,2.6,0,0,1,2.44-1.733Zm6.933,12.133H9.533v-2.6a.867.867,0,0,1,1.733,0Zm6.933,0H13v-2.6a2.6,2.6,0,0,0-5.2,0v2.6H2.6a.867.867,0,0,1-.867-.867V10.4H3.764a4.305,4.305,0,0,0,3.064-1.27L9.174,6.783a1.733,1.733,0,0,1,2.451,0l2.347,2.346a4.305,4.305,0,0,0,3.064,1.27h2.031v7.8A.867.867,0,0,1,18.2,19.065ZM6.066,13a.867.867,0,0,1-.867.867H4.333a.867.867,0,1,1,0-1.733H5.2A.867.867,0,0,1,6.066,13Zm0,3.467a.867.867,0,0,1-.867.867H4.333a.867.867,0,1,1,0-1.733H5.2A.867.867,0,0,1,6.066,16.465ZM17.333,13a.867.867,0,0,1-.867.867H15.6a.867.867,0,1,1,0-1.733h.867A.867.867,0,0,1,17.333,13Zm0,3.467a.867.867,0,0,1-.867.867H15.6a.867.867,0,1,1,0-1.733h.867A.867.867,0,0,1,17.333,16.465Zm-5.2-6.066A1.733,1.733,0,1,1,10.4,8.666,1.733,1.733,0,0,1,12.133,10.4Z" transform="translate(-106.5 476.506)" fill="#fff" stroke="#4482ff" stroke-width="0.6"/>
  </g>
</svg>
