<svg xmlns="http://www.w3.org/2000/svg" width="25.68" height="24" viewBox="0 0 25.68 24">
  <g id="alert_icon" data-name="alert icon" transform="translate(-5 -7.943)">
    <path id="Path_116946" data-name="Path 116946" d="M29.874,25,21.8,10.644a4.628,4.628,0,0,0-3.957-2.7,4.628,4.628,0,0,0-3.958,2.7L5.806,25a4.725,4.725,0,0,0-.266,4.812,4.728,4.728,0,0,0,4.328,2.129H25.813a4.725,4.725,0,0,0,4.327-2.129A4.722,4.722,0,0,0,29.874,25Zm-1.542,3.755a2.748,2.748,0,0,1-2.518,1.09H9.868A2.749,2.749,0,0,1,7.35,28.757a2.747,2.747,0,0,1,.283-2.726L15.71,11.672c.343-.61,1.076-1.633,2.131-1.633s1.787,1.023,2.131,1.632L28.048,26.03A2.75,2.75,0,0,1,28.331,28.757Z" transform="translate(0)" fill="#f45e29"/>
    <path id="Path_116947" data-name="Path 116947" d="M45.736,66.918a1.734,1.734,0,1,0,1.733,1.735A1.736,1.736,0,0,0,45.736,66.918Z" transform="translate(-27.895 -42.183)" fill="#f45e29"/>
    <path id="Path_116948" data-name="Path 116948" d="M44.888,37.713l.013.211a1.157,1.157,0,0,0,2.313,0v-.011c.124-1.87.438-6.638.446-6.8v-.038a1.6,1.6,0,0,0-3.2.025v.042C44.462,31.22,44.614,33.546,44.888,37.713Z" transform="translate(-28.217 -15.453)" fill="#f45e29"/>
  </g>
</svg>
