<svg xmlns="http://www.w3.org/2000/svg" width="18.48" height="18.48" viewBox="0 0 18.48 18.48">
  <g id="Notes" transform="translate(23.601 23.906) rotate(180)">
    <g id="New_Report" data-name="New Report" transform="translate(-10705.679 55.626)">
      <path id="Path_52930" data-name="Path 52930" d="M22.91,7H9.17A2.17,2.17,0,0,0,7,9.17V22.91a2.17,2.17,0,0,0,2.17,2.17H22.91a2.17,2.17,0,0,0,2.17-2.17V9.17A2.17,2.17,0,0,0,22.91,7Zm.723,15.91a.723.723,0,0,1-.723.723H9.17a.723.723,0,0,1-.723-.723V9.17a.723.723,0,0,1,.723-.723H22.91a.723.723,0,0,1,.723.723Z" transform="translate(10704 -57)" fill="#f45e29" stroke="#fff" stroke-width="0.4"/>
      <path id="Path_52931" data-name="Path 52931" d="M27.955,23.616H25.062V20.723a.723.723,0,1,0-1.446,0v2.893H20.723a.723.723,0,1,0,0,1.446h2.893v2.893a.723.723,0,0,0,1.446,0V25.062h2.893a.723.723,0,0,0,0-1.446Z" transform="translate(10695.701 -65.299)" fill="#f45e29" stroke="#fff" stroke-width="0.4"/>
    </g>
  </g>
</svg>
