<svg xmlns="http://www.w3.org/2000/svg" width="18.177" height="18.143" viewBox="0 0 18.177 18.143">
  <g id="Delete" transform="translate(23.466 23.869) rotate(180)">
    <g id="_filter_1454764" transform="translate(34.466 144.219) rotate(180)">
      <path id="Path_70960" data-name="Path 70960" d="M136.977,121.721a.635.635,0,0,1-.079.3l-.032.051-6.4,8.119v5.537a.624.624,0,0,1-.311.539l-.087.043-2.348,1.358-.032.015a.618.618,0,0,1-.26.055.625.625,0,0,1-.626-.624V130.2l-6.395-8.117-.032-.051a.612.612,0,0,1-.079-.3.625.625,0,0,1,.626-.624h15.427A.62.62,0,0,1,136.977,121.721Z" transform="translate(-108.549 0)" fill="none" stroke="#f45e29" stroke-width="1.5"/>
    </g>
  </g>
</svg>
