<svg xmlns="http://www.w3.org/2000/svg" width="28.321" height="30.643" viewBox="0 0 28.321 30.643">
  <path id="Path_53163" data-name="Path 53163" d="M35.388,22.208h0l-1.979-2.347a3.914,3.914,0,0,1-.939-2.54v-2.54a9.82,9.82,0,0,0-6.206-9.067V5.586A3.156,3.156,0,0,0,23.043,2.5H21.265a3.156,3.156,0,0,0-3.221,3.086v.129a9.887,9.887,0,0,0-6.206,9.067v2.54a3.979,3.979,0,0,1-.939,2.54L8.919,22.208a3.188,3.188,0,0,0-.5,3.6A3.53,3.53,0,0,0,11.6,27.738h4.361a6.244,6.244,0,0,0,12.345,0h4.361a3.493,3.493,0,0,0,3.187-1.929A3.239,3.239,0,0,0,35.388,22.208Zm-13.251,9.2c-1.744,0-3.987-2.064-4.323-3.672h8.652C26.131,29.346,23.915,31.41,22.137,31.41Zm11.91-6.521a2.349,2.349,0,0,1-1.376.92H11.838a3.351,3.351,0,0,1-1.639-.92c-.067-.161-.369-.823,0-1.209l2.238-2.547a5.47,5.47,0,0,0,1.389-3.779l-.1-2.572a7.957,7.957,0,0,1,5.609-7.258c.537-.161.9-.394.9-.941V5.619c0-.322.7-1.214,1.033-1.214h1.778c.335,0,.791.892.791,1.214v.965c0,.547.5.748,1,.941a7.884,7.884,0,0,1,5.534,7.258v2.54a6,6,0,0,0,1.518,3.94l1.775,2.187A1.651,1.651,0,0,1,34.048,24.889Z" transform="translate(-7.978 -2.45)" fill="#f45e29" stroke="#fff" stroke-width="0.1"/>
</svg>
