<svg xmlns="http://www.w3.org/2000/svg" width="16.035" height="16.021" viewBox="0 0 16.035 16.021">
  <g id="Group_51369" data-name="Group 51369" transform="translate(0 0.021)">
    <path id="Path_35350" data-name="Path 35350" d="M15.935,3.748H14.382V3.056a.456.456,0,1,0-.911,0v2.38a.887.887,0,0,0-.456.776.911.911,0,1,0,1.367-.776V4.659h1.553a1.682,1.682,0,0,1,1.688,1.688v1.4H3.411v-1.4A1.693,1.693,0,0,1,5.1,4.659h.793V3.748H5.1a2.6,2.6,0,0,0-2.6,2.6V16a2.6,2.6,0,0,0,2.6,2.6H15.935a2.6,2.6,0,0,0,2.6-2.6V6.347a2.6,2.6,0,0,0-2.6-2.6ZM17.622,16a1.682,1.682,0,0,1-1.688,1.688H5.1A1.682,1.682,0,0,1,3.411,16V8.659H17.639V16Z" transform="translate(-2.5 -2.6)" fill="#f45e29"/>
    <path id="Path_35351" data-name="Path 35351" d="M19.78,51.059h.76a.98.98,0,0,0,0-1.959h-.76a.98.98,0,0,0-.98.98A.991.991,0,0,0,19.78,51.059Z" transform="translate(-16.049 -41.253)" fill="#f45e29"/>
    <path id="Path_35352" data-name="Path 35352" d="M42.98,51.059h.76a.98.98,0,0,0,0-1.959h-.76a.98.98,0,0,0,0,1.959Z" transform="translate(-35.334 -41.253)" fill="#f45e29"/>
    <path id="Path_35353" data-name="Path 35353" d="M66.18,51.059h.76a.98.98,0,0,0,0-1.959h-.76a.98.98,0,0,0,0,1.959Z" transform="translate(-54.619 -41.253)" fill="#f45e29"/>
    <path id="Path_35354" data-name="Path 35354" d="M19.78,71.559h.76a.98.98,0,0,0,0-1.959h-.76a.98.98,0,0,0-.98.98.991.991,0,0,0,.98.979Z" transform="translate(-16.049 -58.293)" fill="#f45e29"/>
    <path id="Path_35355" data-name="Path 35355" d="M42.98,71.559h.76a.98.98,0,0,0,0-1.959h-.76a.98.98,0,0,0,0,1.959Z" transform="translate(-35.334 -58.293)" fill="#f45e29"/>
    <path id="Path_35356" data-name="Path 35356" d="M66.18,71.559h.76a.98.98,0,0,0,0-1.959h-.76a.98.98,0,0,0,0,1.959Z" transform="translate(-54.619 -58.293)" fill="#f45e29"/>
    <path id="Path_35357" data-name="Path 35357" d="M25.312,7.109a.9.9,0,0,0,.456-1.689V4.644h5.168v-.9H25.768V3.056a.456.456,0,1,0-.912,0V5.437a.888.888,0,0,0-.456.777.9.9,0,0,0,.912.9Z" transform="translate(-20.706 -2.6)" fill="#f45e29"/>
  </g>
</svg>
