<svg xmlns="http://www.w3.org/2000/svg" width="20.872" height="19.16" viewBox="0 0 20.872 19.16">
  <g id="noun_logout_2028508" transform="translate(0.25 0.25)">
    <g id="Group_46699" data-name="Group 46699">
      <path id="Path_70995" data-name="Path 70995" d="M231.185,85.264a.9.9,0,0,1-.9-.9V82.476a.679.679,0,0,0-.694-.673h-7.114a.661.661,0,0,0-.673.673V96.184a.661.661,0,0,0,.673.673h7.114a.679.679,0,0,0,.694-.673v-1.85a.9.9,0,1,1,1.8,0v1.85a2.486,2.486,0,0,1-2.5,2.476h-7.114A2.468,2.468,0,0,1,220,96.184V82.476A2.468,2.468,0,0,1,222.476,80h7.114a2.486,2.486,0,0,1,2.5,2.476v1.887A.9.9,0,0,1,231.185,85.264Z" transform="translate(-220 -80)" fill="#f45e29" stroke="#fff" stroke-width="0.5"/>
      <path id="Path_70996" data-name="Path 70996" d="M78.994,168.937l-3.414,3.414a.9.9,0,0,1-1.272-1.272l1.946-1.946H64.6a.9.9,0,0,1,0-1.8H76.449l-2.184-2.518a.9.9,0,1,1,1.362-1.182l3.414,3.933a.9.9,0,0,1,.3.668A.887.887,0,0,1,78.994,168.937Z" transform="translate(-58.966 -158.902)" fill="#f45e29" stroke="#fff" stroke-width="0.5"/>
    </g>
  </g>
</svg>
