<svg id="Group_75840" data-name="Group 75840" xmlns="http://www.w3.org/2000/svg" width="20" height="20" viewBox="0 0 20 20">
  <path id="Path_35350" data-name="Path 35350" d="M19.258,4.035H17.321V3.17a.568.568,0,1,0-1.137,0V6.144a1.11,1.11,0,0,0-.568.97,1.137,1.137,0,1,0,1.705-.97v-.97h1.937a2.1,2.1,0,0,1,2.105,2.11V9.035H3.637V7.284a2.114,2.114,0,0,1,2.105-2.11h.989V4.035H5.742A3.247,3.247,0,0,0,2.5,7.284V19.351A3.247,3.247,0,0,0,5.742,22.6H19.258A3.247,3.247,0,0,0,22.5,19.351V7.284A3.247,3.247,0,0,0,19.258,4.035Zm2.105,15.316a2.1,2.1,0,0,1-2.105,2.11H5.742a2.1,2.1,0,0,1-2.105-2.11V10.174H21.384v9.177Z" transform="translate(-2.5 -2.6)" fill="#f45e29"/>
  <path id="Path_35351" data-name="Path 35351" d="M20.014,51.534h.942a1.217,1.217,0,0,0,0-2.434h-.942A1.217,1.217,0,0,0,18.8,50.317,1.23,1.23,0,0,0,20.014,51.534Z" transform="translate(-15.365 -39.282)" fill="#f45e29"/>
  <path id="Path_35352" data-name="Path 35352" d="M43.214,51.534h.942a1.217,1.217,0,0,0,0-2.434h-.942a1.217,1.217,0,0,0,0,2.434Z" transform="translate(-33.675 -39.282)" fill="#f45e29"/>
  <path id="Path_35353" data-name="Path 35353" d="M66.414,51.534h.942a1.217,1.217,0,0,0,0-2.434h-.942a1.217,1.217,0,0,0,0,2.434Z" transform="translate(-51.985 -39.282)" fill="#f45e29"/>
  <path id="Path_35354" data-name="Path 35354" d="M20.014,72.034h.942a1.217,1.217,0,0,0,0-2.434h-.942A1.217,1.217,0,0,0,18.8,70.817,1.23,1.23,0,0,0,20.014,72.034Z" transform="translate(-15.365 -55.454)" fill="#f45e29"/>
  <path id="Path_35355" data-name="Path 35355" d="M43.214,72.034h.942a1.217,1.217,0,0,0,0-2.434h-.942a1.217,1.217,0,0,0,0,2.434Z" transform="translate(-33.675 -55.454)" fill="#f45e29"/>
  <path id="Path_35356" data-name="Path 35356" d="M66.414,72.034h.942a1.217,1.217,0,0,0,0-2.434h-.942a1.217,1.217,0,0,0,0,2.434Z" transform="translate(-51.985 -55.454)" fill="#f45e29"/>
  <path id="Path_35357" data-name="Path 35357" d="M25.531,8.2A1.123,1.123,0,0,0,26.1,6.1V5.139H32.5V4.027H26.1v-.86a.565.565,0,1,0-1.131,0V6.125a1.1,1.1,0,0,0-.565.965A1.123,1.123,0,0,0,25.531,8.2Z" transform="translate(-19.772 -2.6)" fill="#f45e29"/>
</svg>
