<?xml version="1.0" encoding="iso-8859-1"?>
<!-- Generator: Adobe Illustrator 16.0.0, SVG Export Plug-In . SVG Version: 6.00 Build 0)  -->
<!DOCTYPE svg PUBLIC "-//W3C//DTD SVG 1.1//EN" "http://www.w3.org/Graphics/SVG/1.1/DTD/svg11.dtd">
<svg version="1.1" id="Capa_1" xmlns="http://www.w3.org/2000/svg" xmlns:xlink="http://www.w3.org/1999/xlink" x="0px" y="0px"
	 width="598.466px" height="598.466px" viewBox="0 0 598.466 598.466" style="enable-background:new 0 0 598.466 598.466;"
	 xml:space="preserve">
<g>
	<g>
		<path fill="#f45e29" d="M58.64,500.586h211.411c4.544,6.361,9.623,12.359,15.221,17.958c13.026,13.026,28.206,23.258,45.118,30.411
			c17.532,7.416,36.132,11.175,55.28,11.175c19.149,0,37.748-3.76,55.28-11.175c16.912-7.153,32.092-17.385,45.118-30.411
			c5.599-5.599,10.677-11.597,15.221-17.958h38.536c32.059,0,58.141-26.082,58.141-58.141V142.566
			c0-32.059-26.082-58.14-58.141-58.14H323.819l-10.096-17.28c-5.114-8.755-12.467-16.05-21.26-21.096
			c-8.794-5.047-18.801-7.715-28.94-7.715H58.64c-32.059,0-58.14,26.082-58.14,58.14v30.791v298.165v17.015
			C0.5,474.504,26.582,500.586,58.64,500.586z M440.756,500.586c-15.756,10.549-34.701,16.704-55.086,16.704
			s-39.331-6.155-55.086-16.704c-15.684-10.501-28.2-25.357-35.826-42.84c-5.291-12.13-8.232-25.521-8.232-39.6
			c0-54.756,44.388-99.145,99.144-99.145s99.145,44.389,99.145,99.145c0,14.079-2.941,27.47-8.232,39.6
			C468.956,475.228,456.439,490.085,440.756,500.586z M43.34,425.431V127.266V96.475c0-8.45,6.85-15.3,15.3-15.3h204.883
			c5.438,0,10.468,2.886,13.21,7.582l18.069,30.927c2.743,4.695,7.772,7.582,13.211,7.582h231.812c8.449,0,15.3,6.85,15.3,15.3
			v299.879c0,8.45-6.851,15.301-15.3,15.301h-17.78c3.721-12.805,5.608-26.063,5.608-39.6c0-19.149-3.76-37.748-11.175-55.279
			c-7.153-16.913-17.385-32.093-30.411-45.118c-13.025-13.026-28.206-23.258-45.118-30.411
			c-17.531-7.416-36.131-11.175-55.279-11.175c-19.149,0-37.748,3.76-55.28,11.175c-16.912,7.153-32.092,17.385-45.118,30.411
			c-13.026,13.025-23.257,28.206-30.411,45.118c-7.416,17.531-11.175,36.13-11.175,55.279c0,13.536,1.888,26.795,5.609,39.6H58.64
			c-8.45,0-15.3-6.851-15.3-15.301V425.431z"/>
		<path d="M385.67,560.63c-19.219,0-37.883-3.773-55.475-11.214c-16.973-7.18-32.206-17.447-45.277-30.519
			c-5.518-5.518-10.605-11.509-15.125-17.812H58.64C26.306,501.086,0,474.781,0,442.446V96.475c0-32.334,26.306-58.64,58.64-58.64
			h204.883c10.227,0,20.32,2.691,29.189,7.781c8.87,5.091,16.285,12.448,21.442,21.277l9.951,17.032h215.719
			c32.335,0,58.641,26.306,58.641,58.64v299.879c0,32.335-26.306,58.641-58.641,58.641h-38.279
			c-4.52,6.304-9.607,12.295-15.124,17.812c-13.071,13.071-28.305,23.34-45.277,30.519
			C423.551,556.857,404.886,560.63,385.67,560.63z M58.64,38.835C26.857,38.835,1,64.692,1,96.475v345.971
			c0,31.783,25.857,57.641,57.64,57.641h211.668l0.149,0.209c4.525,6.335,9.628,12.355,15.168,17.896
			c12.979,12.98,28.106,23.176,44.958,30.304c17.469,7.39,36.002,11.136,55.086,11.136c19.082,0,37.615-3.746,55.086-11.136
			c16.853-7.128,31.979-17.323,44.959-30.304c5.539-5.539,10.642-11.56,15.167-17.896l0.15-0.209h38.793
			c31.783,0,57.641-25.857,57.641-57.641V142.566c0-31.783-25.857-57.64-57.641-57.64H323.532l-10.24-17.528
			c-5.07-8.678-12.358-15.911-21.077-20.915c-8.718-5.004-18.639-7.648-28.691-7.648H58.64z M385.67,517.791
			c-19.815,0-38.961-5.806-55.364-16.789c-15.918-10.657-28.368-25.546-36.006-43.055c-5.49-12.586-8.273-25.977-8.273-39.8
			c0-54.944,44.7-99.645,99.644-99.645s99.645,44.7,99.645,99.645c0,13.822-2.784,27.213-8.274,39.8
			c-7.638,17.51-20.089,32.397-36.006,43.055C424.629,511.985,405.484,517.791,385.67,517.791z M385.67,319.502
			c-54.393,0-98.644,44.252-98.644,98.645c0,13.685,2.756,26.94,8.19,39.399c7.561,17.334,19.887,32.073,35.646,42.625
			c16.238,10.872,35.19,16.619,54.808,16.619c19.616,0,38.568-5.747,54.808-16.619c15.758-10.552,28.085-25.291,35.646-42.625
			c5.435-12.46,8.19-25.716,8.19-39.399C484.314,363.754,440.062,319.502,385.67,319.502z M539.825,458.247h-18.446l0.186-0.64
			c3.709-12.762,5.589-26.038,5.589-39.46c0-19.082-3.746-37.615-11.136-55.085c-7.128-16.854-17.323-31.979-30.304-44.959
			c-12.979-12.979-28.105-23.175-44.959-30.304c-17.469-7.389-36.002-11.135-55.085-11.135c-19.082,0-37.615,3.747-55.086,11.135
			c-16.853,7.128-31.979,17.325-44.959,30.304c-12.979,12.979-23.175,28.105-30.304,44.959
			c-7.389,17.469-11.135,36.002-11.135,55.085c0,13.423,1.88,26.699,5.589,39.46l0.186,0.64H58.64c-8.712,0-15.8-7.088-15.8-15.801
			V96.475c0-8.712,7.088-15.8,15.8-15.8h204.883c5.594,0,10.821,3,13.642,7.83l18.069,30.926c2.643,4.524,7.54,7.334,12.779,7.334
			h231.812c8.712,0,15.8,7.088,15.8,15.8v299.879C555.625,451.159,548.537,458.247,539.825,458.247z M522.709,457.247h17.116
			c8.16,0,14.8-6.64,14.8-14.801V142.566c0-8.161-6.64-14.8-14.8-14.8H308.014c-5.594,0-10.821-3-13.643-7.83L276.302,89.01
			c-2.643-4.524-7.539-7.334-12.779-7.334H58.64c-8.161,0-14.8,6.639-14.8,14.8v345.971c0,8.161,6.639,14.801,14.8,14.801h189.99
			c-3.613-12.655-5.444-25.807-5.444-39.1c0-19.218,3.773-37.882,11.214-55.474c7.18-16.974,17.447-32.207,30.518-45.277
			c13.071-13.071,28.305-23.339,45.277-30.518c17.594-7.441,36.259-11.214,55.475-11.214c19.218,0,37.882,3.773,55.474,11.214
			c16.974,7.179,32.207,17.447,45.277,30.518c13.072,13.07,23.34,28.304,30.519,45.277c7.44,17.593,11.214,36.257,11.214,55.474
			C528.153,431.439,526.321,444.59,522.709,457.247z"/>
	</g>
	<g>
		<path d="M434.018,396.727h-96.696c-11.83,0-21.42,9.59-21.42,21.42s9.59,21.42,21.42,21.42h96.696c11.83,0,21.42-9.59,21.42-21.42
			S445.848,396.727,434.018,396.727z"/>
		<path d="M434.018,440.067h-96.696c-12.087,0-21.92-9.833-21.92-21.92s9.833-21.92,21.92-21.92h96.696
			c12.087,0,21.92,9.833,21.92,21.92S446.104,440.067,434.018,440.067z M337.321,397.227c-11.535,0-20.92,9.385-20.92,20.92
			s9.385,20.92,20.92,20.92h96.696c11.535,0,20.92-9.385,20.92-20.92s-9.385-20.92-20.92-20.92H337.321z"/>
	</g>
</g>
<g>
</g>
<g>
</g>
<g>
</g>
<g>
</g>
<g>
</g>
<g>
</g>
<g>
</g>
<g>
</g>
<g>
</g>
<g>
</g>
<g>
</g>
<g>
</g>
<g>
</g>
<g>
</g>
<g>
</g>
</svg>
