<svg xmlns="http://www.w3.org/2000/svg" xmlns:xlink="http://www.w3.org/1999/xlink" width="335" height="60" viewBox="0 0 335 60">
  <defs>
    <clipPath id="clip-path">
      <rect id="Rectangle_32241" data-name="Rectangle 32241" width="335" height="60" rx="8" transform="translate(21 1794)" fill="#ffdde3"/>
    </clipPath>
  </defs>
  <g id="Mask_Group_192097" data-name="Mask Group 192097" transform="translate(-21 -1794)" clip-path="url(#clip-path)" style="mix-blend-mode: normal;isolation: isolate">
    <g id="Group_209781" data-name="Group 209781" transform="translate(16 1771.541)">
      <path id="Path_181749" data-name="Path 181749" d="M1229.16,0h-.994q.513,1,.994,2Z" transform="translate(-795.479 0)" fill="#ffdde3"/>
      <path id="Path_181750" data-name="Path 181750" d="M1084.26,396.654q-6.588,13.733-19.508,26.79c-14.709,14.842-34.959,28.363-60.3,40.283h1.894c25.052-11.872,45.1-25.312,59.707-40.049a103.043,103.043,0,0,0,18.21-24.164Z" transform="translate(-650.578 -337.051)" fill="#ffdde3"/>
      <path id="Path_181751" data-name="Path 181751" d="M1061.9,20.166A72.97,72.97,0,0,0,1055.786,0h-1.795a71.131,71.131,0,0,1,6.842,27.72,66.98,66.98,0,0,1-2.307,21.021A74.155,74.155,0,0,1,1045.454,73.6a125.3,125.3,0,0,1-23.955,23c-11.981,8.969-26.384,17.618-44.029,26.44q-3.732,1.866-7.544,3.643h2.389q3.277-1.546,6.494-3.155c17.719-8.859,32.183-17.546,44.22-26.556a126.033,126.033,0,0,0,24.1-23.133,74.592,74.592,0,0,0,13.149-25,60.228,60.228,0,0,0,1.625-7.537Z" transform="translate(-628.218 0)" fill="#ffdde3"/>
      <path id="Path_181752" data-name="Path 181752" d="M940.156,126.676q7.419-3.471,14.564-7.32c12.631-6.805,28.944-15.953,43.091-26.382,19.517-14.431,31.758-30.911,35.4-47.661,1.574-7.369,1.325-14.6.874-20.7A77.918,77.918,0,0,0,1028.119,0h-1.789a77.594,77.594,0,0,1,6,24.641h0c.449,6.076.7,13.275-.868,20.6-3.619,16.642-15.781,33.017-35.172,47.354-14.09,10.386-30.353,19.506-42.947,26.291q-7.641,4.116-15.571,7.787Z" transform="translate(-607.389 0)" fill="#ffdde3"/>
      <path id="Path_181753" data-name="Path 181753" d="M909.442,126.676c7.459-3.439,14.7-7.219,21.939-11.442l2.551-1.487c13.366-7.79,27.187-15.845,39.421-24.726,19.544-14.25,31.156-30.579,33.58-47.223.956-6.82.18-13.661-.571-20.277A87.786,87.786,0,0,0,1001.132,0h-2.14a87.357,87.357,0,0,1,5.259,21.565c.748,6.592,1.521,13.408.573,20.178-2.4,16.5-13.917,32.694-33.293,46.822-12.179,8.841-25.968,16.877-39.3,24.649l-2.552,1.488a253.794,253.794,0,0,1-23.123,11.974Z" transform="translate(-587.17 0)" fill="#ffdde3"/>
      <path id="Path_181754" data-name="Path 181754" d="M880.147,126.676a218.627,218.627,0,0,0,28.965-15.611c4.24-2.693,8.7-5.426,13.011-8.069,9.3-5.7,18.915-11.593,27.829-17.965,9.726-6.992,17.4-14.6,22.81-22.619,5.347-7.923,8.349-16.043,8.924-24.136.344-5.4-.527-10.708-1.449-16.323-.191-1.165-.384-2.339-.568-3.525A103.5,103.5,0,0,0,975.127,0h-2.138a102.981,102.981,0,0,1,4.571,18.488c.183,1.187.376,2.362.568,3.528.918,5.593,1.786,10.875,1.445,16.234-.569,8.016-3.545,16.062-8.843,23.913-5.36,7.942-12.963,15.481-22.6,22.407-8.874,6.344-18.469,12.224-27.747,17.911-4.317,2.646-8.781,5.382-13.032,8.081A216.2,216.2,0,0,1,877.2,126.676Z" transform="translate(-568.16 0)" fill="#ffdde3"/>
      <path id="Path_181755" data-name="Path 181755" d="M850.905,126.676a181.427,181.427,0,0,0,35.757-19.742c5.825-4.056,12-7.935,18.546-12.042,7.007-4.4,14.252-8.948,21.161-13.812,19.4-13.748,30.023-30.2,29.915-46.326-.072-4.55-1.1-8.972-2.188-13.653-.436-1.875-.887-3.814-1.274-5.771A132.873,132.873,0,0,0,948.889,0H946.4a132.147,132.147,0,0,1,3.966,15.417c.389,1.965.84,3.908,1.277,5.786,1.082,4.657,2.1,9.055,2.176,13.554.107,15.935-10.392,32.193-29.561,45.778-6.874,4.839-14.1,9.377-21.09,13.765-6.559,4.118-12.754,8.007-18.609,12.084a179.522,179.522,0,0,1-37.221,20.292Z" transform="translate(-548.818 0)" fill="#ffdde3"/>
      <path id="Path_181756" data-name="Path 181756" d="M820.9,126.676q1.189-.44,2.362-.89c17.638-6.782,28.971-14.11,40.562-23.027,6.489-4.992,13.877-9.678,21.7-14.639,5.553-3.522,11.3-7.164,16.872-11.031,9.768-6.823,17.169-14.322,22-22.288,4.755-7.845,6.8-15.777,6.073-23.574a58.1,58.1,0,0,0-2.85-11.892c-.721-2.3-1.466-4.676-2.056-7.1-1.022-4.2-2.128-8.279-3.372-12.234H919.7c1.258,3.987,2.375,8.1,3.407,12.342.594,2.442,1.341,4.827,2.064,7.133A57.682,57.682,0,0,1,928,31.27c.715,7.694-1.3,15.523-6,23.269-4.767,7.865-12.072,15.268-21.711,22-5.549,3.847-11.277,7.48-16.816,10.994-7.852,4.98-15.268,9.684-21.809,14.716-11.471,8.825-22.672,16.072-40.056,22.755q-2.223.854-4.509,1.671Z" transform="translate(-529.233 0)" fill="#ffdde3"/>
      <path id="Path_181757" data-name="Path 181757" d="M788.365,126.676q7.019-2.27,13.507-4.884c18.068-7.3,28.384-15.469,37.4-23.208,6.618-5.679,14.819-10.891,23.5-16.41,4.567-2.9,9.289-5.9,13.933-9.075,19.422-13.371,28.98-29.918,26.222-45.4a54.833,54.833,0,0,0-3.47-10.639c-1.026-2.556-2.087-5.2-2.879-7.925-.908-3.125-1.808-6.165-2.74-9.138h-2.489c.947,3.013,1.86,6.1,2.781,9.267.8,2.75,1.865,5.4,2.9,7.973a54.444,54.444,0,0,1,3.442,10.541c2.719,15.262-6.706,31.578-25.856,44.763-4.62,3.155-9.33,6.149-13.887,9.044C852,87.136,843.754,92.376,837.065,98.116c-8.92,7.654-19.115,15.729-36.89,22.912-5.059,2.042-10.389,3.926-15.947,5.648Z" transform="translate(-507.942 0)" fill="#ffdde3"/>
      <path id="Path_181758" data-name="Path 181758" d="M751.15,126.676a196.141,196.141,0,0,0,26.429-8.932c16.618-7.067,25.323-14.764,34.2-23.367,6.415-6.213,15.192-11.773,24.484-17.659,3.866-2.449,7.864-4.982,11.829-7.648,9.793-6.643,16.9-14.018,21.116-21.918,4.084-7.647,5.2-15.59,3.23-22.969a53.08,53.08,0,0,0-4.053-9.679,70.162,70.162,0,0,1-3.738-8.451C864,4.131,863.351,2.184,862.725.3l-.1-.3H860.49q.071.214.142.427c.626,1.884,1.274,3.832,1.929,5.755a70.522,70.522,0,0,0,3.761,8.508,52.755,52.755,0,0,1,4.021,9.594c1.944,7.279.841,15.117-3.191,22.666-4.166,7.8-11.179,15.082-20.842,21.637-3.947,2.654-7.936,5.182-11.8,7.626-9.346,5.921-18.175,11.513-24.665,17.8-8.795,8.518-17.406,16.135-33.762,23.092a196.729,196.729,0,0,1-29.022,9.57Z" transform="translate(-483.871 0)" fill="#ffdde3"/>
      <path id="Path_181759" data-name="Path 181759" d="M59.782,813.305c-2.393-.138-4.786-.28-7.139-.432C35.409,811.765,17.282,810.405,0,808.049V809c14.906,2.009,30.388,3.288,45.376,4.31Z" transform="translate(0 -686.629)" fill="#ffdde3"/>
      <path id="Path_181760" data-name="Path 181760" d="M701.781,126.676q5.044-.956,9.925-2.1a183.5,183.5,0,0,0,32.922-10.827c16.472-7.379,23.55-15.233,31.043-23.548,5.923-6.572,15.014-12.3,24.638-18.357,3.442-2.167,7-4.408,10.544-6.765,19.441-12.934,27.851-29.54,22.5-44.423a52.679,52.679,0,0,0-4.612-8.923,61.156,61.156,0,0,1-4.619-8.777h0Q823.539,1.482,822.985,0h-2.14q.583,1.554,1.191,3.107a61.508,61.508,0,0,0,4.656,8.851,52.289,52.289,0,0,1,4.571,8.837c5.278,14.672-3.017,31.045-22.187,43.8-3.529,2.348-7.08,4.584-10.515,6.746-9.694,6.1-18.852,11.87-24.861,18.539-7.416,8.229-14.421,16-30.6,23.25a180.669,180.669,0,0,1-32.41,10.659q-6.995,1.638-14.341,2.888Z" transform="translate(-451.022 0)" fill="#ffdde3"/>
      <path id="Path_181761" data-name="Path 181761" d="M68.207,778.817c4.958.244,10.085.5,15.17.807,12.664.768,26.5,1.887,42.181,3.412h9.158q-2.4-.256-4.834-.5c-17.341-1.725-32.456-2.969-46.207-3.8-5.113-.312-10.254-.565-15.227-.81-3.743-.184-7.614-.375-11.367-.586C37.146,776.212,17.7,774.894,0,772.427v.953c18.476,2.555,38.147,3.8,56.8,4.849,3.77.212,7.65.4,11.4.588" transform="translate(0 -656.359)" fill="#ffdde3"/>
      <path id="Path_181762" data-name="Path 181762" d="M61.3,116.527c3.07.147,6.223.281,9.273.41,5.461.232,11.108.471,16.712.8,13.685.807,28.332,2.109,44.776,3.979,4.549.517,9.009,1.093,13.322,1.651,6.941.9,13.5,1.744,20.433,2.373q6.382.578,12.754.931H218.24q1.586-.09,3.168-.194a243.249,243.249,0,0,0,39.871-5.861,164.728,164.728,0,0,0,32.1-10.913c15.092-7.131,20.908-14.689,27.065-22.692L321.217,86c5.345-6.928,14.74-12.79,24.686-19,3.061-1.91,6.225-3.884,9.391-5.959,19.6-12.843,27.307-29.256,20.619-43.9a53.384,53.384,0,0,0-5.153-8.3A56.429,56.429,0,0,1,365.3,0h-1.8l.008.018a55.987,55.987,0,0,0,5.562,9.043,53.056,53.056,0,0,1,5.111,8.23c3.185,6.974,3.059,14.608-.364,22.077-3.5,7.634-10.415,14.99-20,21.272-3.155,2.067-6.314,4.038-9.369,5.945-10.018,6.251-19.481,12.156-24.9,19.185l-.779,1.011c-6.1,7.925-11.856,15.411-26.7,22.423a162.4,162.4,0,0,1-31.644,10.761,239.7,239.7,0,0,1-39.286,5.776,352.045,352.045,0,0,1-54.952-.73c-6.863-.622-13.384-1.465-20.288-2.357-4.327-.559-8.8-1.137-13.379-1.658-16.515-1.878-31.231-3.186-44.987-4-5.638-.335-11.3-.575-16.78-.807-3.044-.129-6.192-.262-9.25-.409-17.727-.85-39.787-1.907-59.254-4.623Q1.112,111,0,110.834v.794c.563.082,1.127.163,1.7.243,19.638,2.74,41.8,3.8,59.6,4.656" transform="translate(0 0.001)" fill="#ffdde3"/>
      <path id="Path_181763" data-name="Path 181763" d="M369.667,13.624a55.241,55.241,0,0,0-5.685-7.786c-1.55-1.891-3.131-3.826-4.5-5.838h-1.831c1.409,2.105,3.053,4.12,4.665,6.086a54.917,54.917,0,0,1,5.635,7.712,24.1,24.1,0,0,1,1.035,21.766c-3.19,7.593-9.953,14.882-19.557,21.081-2.87,1.852-5.733,3.619-8.5,5.328-10.708,6.609-19.956,12.316-24.681,19.659-.42.654-.834,1.305-1.246,1.956-4.832,7.618-9.395,14.814-23.071,21.637-18.138,9.035-42.912,14.877-69.757,16.45a326,326,0,0,1-54.156-1.4c-6.426-.7-12.5-1.6-18.931-2.558-4.483-.667-9.12-1.356-13.894-1.971-15.86-2.043-30.183-3.414-43.785-4.192-6.05-.349-12.123-.561-18-.765-2.458-.086-5-.174-7.474-.271l-2.159-.084c-19.079-.744-38.808-1.513-56.967-3.911q-3.513-.464-6.811-1v.8c20.032,3.16,42.606,4.041,63.619,4.86l2.158.084c2.483.1,5.029.186,7.492.272,5.85.2,11.9.415,17.9.761,13.509.773,27.742,2.136,43.511,4.167,4.738.61,9.356,1.3,13.823,1.961,6.467.962,12.576,1.87,19.075,2.577a334.028,334.028,0,0,0,36.075,1.966q9.435,0,18.757-.545c27.272-1.6,52.436-7.531,70.855-16.706,13.935-6.953,18.549-14.228,23.433-21.93q.617-.974,1.244-1.953c4.645-7.22,13.814-12.878,24.431-19.431,2.774-1.712,5.643-3.483,8.523-5.341,9.735-6.283,16.589-13.67,19.821-21.363a24.437,24.437,0,0,0-1.056-22.072" transform="translate(0 0)" fill="#ffdde3"/>
      <path id="Path_181764" data-name="Path 181764" d="M363.251,10.122a59.058,59.058,0,0,0-6.207-7.337C356.182,1.868,355.31.942,354.463,0h-1.508c.911,1.019,1.851,2.02,2.781,3.008a57.8,57.8,0,0,1,6.159,7.277,22.779,22.779,0,0,1,2.437,21.487c-2.883,7.56-9.5,14.794-19.138,20.919-2.656,1.688-5.3,3.3-7.853,4.856-10.885,6.635-20.286,12.365-24.213,19.965-.47.909-.927,1.829-1.369,2.72-3.671,7.389-7.138,14.368-19.826,21.063-17.49,9.214-41.887,15.035-68.7,16.391A306.45,306.45,0,0,1,169.8,115.6c-6.065-.775-11.763-1.74-17.8-2.761-4.571-.774-9.3-1.574-14.193-2.283-15.264-2.21-29.182-3.644-42.549-4.384-6.359-.355-12.741-.526-18.912-.69q-3.007-.08-5.987-.166-2.61-.078-5.256-.154c-21.7-.628-45.168-1.306-65.109-4.922v.658c20,3.561,43.377,4.238,65.013,4.864q2.643.076,5.252.154,2.983.089,6,.166c6.148.164,12.5.334,18.818.687,13.274.735,27.1,2.16,42.278,4.357,4.862.7,9.572,1.5,14.127,2.272,6.062,1.026,11.788,2,17.911,2.779a311.721,311.721,0,0,0,39.174,2.473c5,0,9.955-.123,14.83-.369,27.178-1.375,51.905-7.274,69.628-16.61,12.9-6.807,16.4-13.855,20.109-21.316.442-.889.9-1.809,1.367-2.715,3.867-7.483,13.193-13.168,23.991-19.75,2.559-1.56,5.2-3.173,7.869-4.866,9.749-6.2,16.443-13.513,19.358-21.158a23.057,23.057,0,0,0-2.471-21.747" transform="translate(0 0)" fill="#ffdde3"/>
      <path id="Path_181765" data-name="Path 181765" d="M357,6.6A59.707,59.707,0,0,0,350.65,0H349.1a60.684,60.684,0,0,1,6.565,6.791c5.027,6.486,6.352,13.809,3.833,21.178-2.569,7.516-9.032,14.684-18.69,20.729-2.494,1.561-4.968,3.049-7.361,4.487-11.022,6.627-20.542,12.351-23.609,20.189-.437,1.117-.843,2.25-1.235,3.347-2.579,7.2-5.015,14.008-16.8,20.6-16.807,9.378-40.789,15.169-67.531,16.307a283.637,283.637,0,0,1-52.641-2.758c-5.75-.85-11.124-1.877-16.814-2.965-4.6-.88-9.367-1.791-14.33-2.594a391.387,391.387,0,0,0-41.342-4.579c-6.607-.356-13.233-.475-19.641-.589q-2.357-.042-4.7-.087-3.783-.076-7.657-.142C44.511,99.507,19.87,99.066,0,94.793v.682c19.984,4.2,44.523,4.633,67.089,5.035q3.865.069,7.65.142,2.342.047,4.7.087c6.379.114,12.975.232,19.525.585a388.309,388.309,0,0,1,41.017,4.544c4.924.8,9.668,1.7,14.254,2.58,5.467,1.045,11.12,2.126,16.929,2.984a287.749,287.749,0,0,0,41.652,3.032c3.894,0,7.767-.081,11.591-.244,27.134-1.154,51.464-7.028,68.511-16.54C304.928,90.971,307.5,83.772,310,76.811c.392-1.094.8-2.226,1.232-3.338,3.014-7.7,12.447-13.374,23.369-19.94,2.4-1.441,4.875-2.931,7.376-4.5,9.777-6.12,16.321-13.375,18.92-20.981C363.444,20.594,362.1,13.176,357,6.6" transform="translate(-0.001 0)" fill="#ffdde3"/>
      <path id="Path_181766" data-name="Path 181766" d="M350.757,3.082A40.654,40.654,0,0,0,347.641,0h-1.554a40.988,40.988,0,0,1,3.352,3.3c5.633,6.317,7.44,13.533,5.227,20.868-2.254,7.471-8.563,14.574-18.243,20.539-2.372,1.462-4.722,2.854-6.994,4.2-11.122,6.59-20.728,12.281-22.879,20.332-.344,1.288-.63,2.6-.907,3.865-1.474,6.749-3,13.728-13.976,20.239-7.772,4.6-17.351,8.348-28.471,11.133a182.3,182.3,0,0,1-37.891,5.089,262.571,262.571,0,0,1-51.851-3.433c-5.478-.924-10.569-2.016-15.959-3.171-4.6-.986-9.354-2-14.341-2.9a320.994,320.994,0,0,0-40.134-4.774c-6.81-.354-13.637-.41-20.239-.465q-1.774-.015-3.536-.031c-3.122-.03-6.232-.048-9.526-.067C45.823,94.579,19.6,94.427,0,89.124v.722c19.8,5.185,45.89,5.335,69.7,5.472,3.29.019,6.4.037,9.512.067q1.765.017,3.541.031c6.567.055,13.357.111,20.1.461a317.994,317.994,0,0,1,39.755,4.731c4.944.89,9.678,1.9,14.256,2.886,5.18,1.11,10.537,2.258,16.073,3.192a265.868,265.868,0,0,0,43.748,3.622q4.391,0,8.734-.149a185.169,185.169,0,0,0,38.492-5.169c11.29-2.828,21.014-6.63,28.9-11.3,11.2-6.644,12.744-13.705,14.236-20.534.276-1.264.562-2.571.9-3.853,2.109-7.895,11.615-13.527,22.622-20.049,2.276-1.348,4.629-2.743,7.009-4.209,9.808-6.044,16.2-13.238,18.482-20.8,2.242-7.433.407-14.749-5.307-21.159" transform="translate(0 0)" fill="#ffdde3"/>
      <path id="Path_181767" data-name="Path 181767" d="M344.75,0H343.6c6.073,6.108,8.29,13.144,6.4,20.368-1.941,7.438-8.105,14.486-17.826,20.383-2.284,1.386-4.542,2.7-6.725,3.977-11.177,6.521-20.83,12.153-22.015,20.372-.207,1.428-.321,2.887-.431,4.3-.522,6.652-1.061,13.53-11.329,20.005-7.423,4.674-16.751,8.457-27.723,11.245a171.472,171.472,0,0,1-37.607,4.924,243.35,243.35,0,0,1-51.141-4.114c-5.248-1-10.321-2.213-15.227-3.385-4.555-1.088-9.265-2.213-14.231-3.2a267.093,267.093,0,0,0-38.873-4.964c-5.625-.28-11.262-.324-16.78-.324q-1.952,0-3.882,0l-2.532,0c-3.572,0-7.163.03-10.965.057-25.53.185-53.8.387-72.721-6.532v.6c19.164,6.769,47.3,6.566,72.739,6.382,3.8-.027,7.385-.053,10.949-.057l2.534,0c6.709-.013,13.648-.026,20.535.317A264.847,264.847,0,0,1,145.3,95.279c4.931.984,9.624,2.1,14.162,3.188,4.926,1.177,10.02,2.394,15.311,3.4a245.41,245.41,0,0,0,45.44,4.233q3.108,0,6.2-.08a173.631,173.631,0,0,0,38.083-4.987c11.107-2.822,20.546-6.651,28.058-11.38,10.438-6.582,10.983-13.527,11.509-20.243.11-1.408.225-2.863.43-4.285,1.167-8.087,10.278-13.4,21.814-20.133,2.186-1.276,4.447-2.594,6.736-3.984,9.823-5.959,16.051-13.08,18.012-20.593,1.887-7.231-.3-14.28-6.308-20.418" transform="translate(0 0)" fill="#ffdde3"/>
      <path id="Path_181768" data-name="Path 181768" d="M341.892,0h-1.118c4.149,5.089,5.662,10.737,4.379,16.557-1.628,7.383-7.63,14.369-17.356,20.2-2.176,1.294-4.322,2.524-6.4,3.714-11.761,6.739-21.051,12.062-21.24,20.486-.035,1.546.063,3.131.157,4.663.4,6.569.822,13.362-8.762,19.8-14.543,9.757-37.932,15.621-64.17,16.086a225.158,225.158,0,0,1-50.355-4.789c-5.037-1.078-9.879-2.361-14.561-3.6-4.488-1.189-9.129-2.418-14.049-3.5a225.132,225.132,0,0,0-37.66-5.159c-3.814-.181-7.632-.238-11.417-.238-3.242,0-6.461.042-9.628.083l-1.584.02c-3.9.049-7.866.133-12.059.221C48.318,85.129,17.22,85.784,0,76.106v.739c17.663,9.382,48.53,8.732,76.121,8.15,4.189-.088,8.145-.172,12.039-.221l1.585-.02c6.829-.089,13.891-.18,20.9.153a222.941,222.941,0,0,1,37.292,5.112c4.883,1.076,9.506,2.3,13.977,3.485,4.7,1.246,9.565,2.534,14.645,3.621A227.152,227.152,0,0,0,223.472,102q1.981,0,3.956-.035c26.588-.472,50.286-6.411,65.018-16.3,9.757-6.556,9.335-13.419,8.926-20.056-.094-1.528-.192-3.109-.157-4.647.186-8.277,9.385-13.548,21.031-20.221,2.079-1.191,4.229-2.423,6.411-3.721,9.835-5.9,15.9-12.958,17.549-20.42C347.49,10.771,346,5.112,341.892,0" transform="translate(0 0)" fill="#ffdde3"/>
      <path id="Path_181769" data-name="Path 181769" d="M338.731,0h-1.089c6.764,10.782,1.71,23.359-14.23,32.763-2.137,1.252-4.243,2.439-6.279,3.586-11.788,6.644-21.1,11.892-20.257,20.465.161,1.645.5,3.338.832,4.975,1.309,6.506,2.663,13.232-6.283,19.654-13.849,9.927-36.815,15.76-63.008,16a208.406,208.406,0,0,1-49.568-5.464c-4.851-1.157-9.489-2.514-13.974-3.826-4.4-1.286-8.944-2.616-13.789-3.792a191.441,191.441,0,0,0-36.448-5.355c-2.911-.131-5.824-.18-8.724-.18-4.254,0-8.478.1-12.618.208l-.726.018c-4.138.1-8.379.254-12.869.415C49.927,80.536,16.18,81.743,1.958,68.6,1.294,67.992.641,67.366,0,66.744v1.112q.5.472,1,.938c6.488,5.993,17.535,9.592,33.771,11,14.134,1.228,29.836.667,45.021.123,4.483-.16,8.717-.312,12.841-.414l.726-.018c6.919-.172,14.075-.35,21.169-.029a189.312,189.312,0,0,1,36.036,5.3c4.807,1.167,9.335,2.492,13.714,3.772,4.5,1.317,9.162,2.68,14.056,3.847a210.462,210.462,0,0,0,48.159,5.531c.649,0,1.3,0,1.949-.009,26.565-.247,49.853-6.16,63.893-16.224,9.12-6.546,7.751-13.347,6.428-19.923-.329-1.632-.668-3.32-.829-4.955-.826-8.412,8.383-13.6,20.044-20.175,2.04-1.149,4.148-2.338,6.292-3.594C340.332,23.55,345.461,10.885,338.731,0" transform="translate(0 0)" fill="#ffdde3"/>
      <path id="Path_181770" data-name="Path 181770" d="M334.463,0h-.722a16.678,16.678,0,0,1,1.921,10.155c-.972,7.2-6.831,14.253-16.495,19.861-2.113,1.219-4.192,2.371-6.2,3.486-11.78,6.528-21.085,11.685-19.193,20.365a49.151,49.151,0,0,0,1.572,5.239c2.2,6.47,4.481,13.16-3.892,19.6-6.258,4.805-15.035,8.8-25.381,11.546a143.611,143.611,0,0,1-36.62,4.412H229.3a193.429,193.429,0,0,1-48.729-6.15c-4.692-1.241-9.149-2.675-13.46-4.062-4.285-1.379-8.717-2.8-13.456-4.07a163.584,163.584,0,0,0-35.16-5.54c-2.3-.1-4.593-.138-6.88-.138-4.929,0-9.816.184-14.592.364-4.288.162-8.731.39-13.436.631-14.678.753-29.856,1.532-43.385.5C24.8,75.016,14.506,71.6,8.733,65.765c-.891-.9-1.756-1.831-2.592-2.731A61,61,0,0,0,0,57.043v.663a65.508,65.508,0,0,1,5.486,5.439c.838.9,1.7,1.833,2.6,2.737,5.874,5.941,16.341,9.41,32,10.608,13.633,1.042,28.865.261,43.594-.495,4.7-.241,9.136-.469,13.414-.63,6.958-.262,14.153-.534,21.34-.227a162.167,162.167,0,0,1,34.855,5.5c4.713,1.259,9.132,2.681,13.406,4.056,4.323,1.391,8.793,2.829,13.513,4.078a194.878,194.878,0,0,0,49.1,6.2h.147A145.065,145.065,0,0,0,266.442,90.5c10.448-2.776,19.309-6.806,25.625-11.656,8.488-6.526,6.193-13.267,3.973-19.786a49.066,49.066,0,0,1-1.568-5.224c-1.866-8.563,7.365-13.678,19.05-20.154,2.013-1.116,4.095-2.269,6.212-3.491,9.745-5.655,15.651-12.766,16.631-20.022A16.8,16.8,0,0,0,334.463,0" transform="translate(0 0)" fill="#ffdde3"/>
      <path id="Path_181771" data-name="Path 181771" d="M329.84,0h-.717c4.718,9.54-.181,20.193-14.343,28.276-2.1,1.192-4.162,2.316-6.157,3.4-11.786,6.421-21.095,11.492-18.133,20.294a50.253,50.253,0,0,0,2.365,5.472c3.082,6.434,6.27,13.087-1.531,19.53-5.9,4.871-14.4,8.9-24.582,11.647a135.275,135.275,0,0,1-36.264,4.23,177.982,177.982,0,0,1-48.092-6.826c-4.544-1.326-8.836-2.841-12.988-4.306s-8.464-2.987-13.08-4.341a140.773,140.773,0,0,0-33.94-5.735c-1.822-.073-3.659-.1-5.485-.1-5.489,0-10.873.277-15.42.511-4.373.225-8.955.535-13.806.863-13.606.921-29.028,1.964-42.116,1.112-14.91-.971-24.685-4.269-29.885-10.081-.788-.881-1.546-1.792-2.28-2.672-2.632-3.16-5.354-6.429-10.154-9.237Q1.754,51.171,0,50.364v.447q1.429.681,2.664,1.4c4.74,2.773,7.445,6.02,10.06,9.161.735.882,1.494,1.795,2.286,2.679,5.3,5.922,15.254,9.282,30.437,10.271,13.2.859,28.675-.188,42.332-1.112,4.845-.328,9.42-.637,13.78-.862,6.027-.31,13.527-.7,20.755-.407a139.413,139.413,0,0,1,33.607,5.683c4.59,1.346,8.881,2.86,13.03,4.325s8.469,2.988,13.039,4.322a180.145,180.145,0,0,0,48.477,6.879c.5,0,.987.006,1.479.006a135.421,135.421,0,0,0,35.174-4.283c10.285-2.777,18.872-6.845,24.832-11.763,7.914-6.537,4.7-13.243,1.595-19.728a50.114,50.114,0,0,1-2.358-5.455c-2.92-8.675,6.308-13.7,17.99-20.066,2-1.088,4.062-2.213,6.166-3.408C329.6,20.323,334.545,9.608,329.84,0" transform="translate(0 0)" fill="#ffdde3"/>
      <path id="Path_181772" data-name="Path 181772" d="M325.1,0h-.358a15.2,15.2,0,0,1,1.417,7.058c-.328,7.12-5.877,14.054-15.624,19.524-2.093,1.171-4.147,2.27-6.134,3.334-11.761,6.3-21.05,11.27-17.017,20.15a52.538,52.538,0,0,0,3.2,5.671c3.962,6.421,8.058,13.061.779,19.544-11.642,10.36-34.018,16.28-59.857,15.839a165.9,165.9,0,0,1-47.41-7.518c-4.391-1.414-8.522-3.007-12.516-4.548-4.04-1.558-8.217-3.169-12.7-4.613a121.344,121.344,0,0,0-32.63-5.915q-2.207-.082-4.412-.079c-5.262,0-10.53.313-15.886.667-4.394.29-9.056.686-13.992,1.105-13.264,1.126-28.3,2.4-41,1.73-14.528-.768-23.855-3.973-28.515-9.8-.7-.869-1.355-1.767-1.993-2.636-2.3-3.135-4.686-6.376-9.306-9.115A47.183,47.183,0,0,0,0,45.921v.18a46.419,46.419,0,0,1,10.85,4.388c4.587,2.719,6.961,5.949,9.256,9.072.639.869,1.3,1.768,2,2.64,4.707,5.884,14.129,9.122,28.8,9.9,12.763.675,27.826-.6,41.116-1.731,4.932-.419,9.591-.814,13.978-1.1a195.777,195.777,0,0,1,20.213-.587,120.672,120.672,0,0,1,32.448,5.886c4.474,1.44,8.645,3.049,12.679,4.6,4,1.543,8.136,3.138,12.54,4.556a166.589,166.589,0,0,0,47.608,7.548c.91.016,1.812.023,2.714.023,24.829,0,46.181-5.9,57.476-15.947,7.335-6.533,3.222-13.2-.756-19.647a52.569,52.569,0,0,1-3.191-5.661c-1.842-4.056-1.05-7.525,2.493-10.919,3.245-3.108,8.44-5.889,14.455-9.109,1.987-1.064,4.043-2.164,6.138-3.336,9.792-5.5,15.366-12.461,15.7-19.612A15.259,15.259,0,0,0,325.1,0" transform="translate(0 0)" fill="#ffdde3"/>
      <path id="Path_181773" data-name="Path 181773" d="M320.493,0H320.1a14.576,14.576,0,0,1,1.227,5.805c-.007,7.072-5.4,13.94-15.184,19.338-2.091,1.151-4.14,2.23-6.123,3.273-12.219,6.428-21.047,11.073-15.921,20.054a57.489,57.489,0,0,0,4.061,5.851c4.828,6.4,9.821,13.025,3.072,19.532-5.195,5.006-13.166,9.108-23.052,11.862-10.35,2.884-22.681,4.231-35.657,3.9a156.611,156.611,0,0,1-46.632-8.2c-4.29-1.511-8.3-3.2-12.178-4.834s-7.883-3.32-12.191-4.841a105.185,105.185,0,0,0-31.4-6.109q-1.773-.061-3.542-.059c-5.52,0-10.992.4-16.185.828-4.367.357-9.06.84-14.029,1.352-12.938,1.332-27.6,2.842-39.932,2.354-14.114-.559-22.968-3.658-27.07-9.475-.608-.863-1.175-1.755-1.723-2.617-1.975-3.107-4.017-6.319-8.464-8.991C14.948,46.479,8.517,44.449,0,42.96v.162C8.387,44.6,14.722,46.6,18.892,49.109c4.41,2.65,6.444,5.85,8.411,8.944.549.863,1.116,1.756,1.726,2.621,4.148,5.882,13.1,9.017,27.374,9.582,12.388.49,27.083-1.023,40.048-2.357,4.964-.511,9.653-.994,14.012-1.35a170.11,170.11,0,0,1,19.632-.766A104.545,104.545,0,0,1,161.3,71.857c4.3,1.517,8.3,3.2,12.167,4.832s7.9,3.327,12.2,4.843a157.3,157.3,0,0,0,46.835,8.23q1.954.05,3.887.05a120.993,120.993,0,0,0,31.984-3.971c9.943-2.77,17.959-6.895,23.181-11.927,6.8-6.559,1.79-13.209-3.059-19.639a57.566,57.566,0,0,1-4.054-5.84c-5.085-8.908,3.7-13.529,15.853-19.923,1.983-1.044,4.035-2.123,6.128-3.275C319.5,18.023,324.19,8.626,320.493,0" transform="translate(0 0)" fill="#ffdde3"/>
      <path id="Path_181774" data-name="Path 181774" d="M316.854,4.4a14.015,14.015,0,0,0-.935-4.4h-.357a13.955,13.955,0,0,1,.94,4.4c.316,7.024-4.92,13.826-14.742,19.152-2.092,1.134-4.141,2.193-6.123,3.218-12.217,6.315-21.043,10.877-14.815,19.95a64.3,64.3,0,0,0,4.952,6.012c5.69,6.392,11.574,13,5.339,19.539-4.833,5.067-12.529,9.2-22.255,11.955-10.177,2.882-22.385,4.17-35.305,3.724C217.424,87.4,201.14,84.246,187.7,79.08c-4.2-1.615-8.107-3.408-11.883-5.142-3.7-1.7-7.527-3.456-11.637-5.048a91.394,91.394,0,0,0-30.176-6.3q-1.406-.044-2.811-.043c-5.727,0-11.386.5-16.347.992-4.3.423-8.974.993-13.926,1.6-18.189,2.217-38.8,4.729-52.283,1.445C42.559,65.1,38.522,62.606,36.3,58.96c-.525-.861-1-1.752-1.463-2.614-1.645-3.073-3.347-6.252-7.612-8.853C21.875,44.23,12.719,41.974,0,40.779v.154c12.591,1.188,21.648,3.421,26.936,6.646,4.226,2.577,5.919,5.741,7.557,8.8.462.863.939,1.755,1.466,2.618,2.217,3.636,6.424,6.231,12.506,7.713,13.608,3.316,34.3.794,52.554-1.431,4.948-.6,9.621-1.173,13.908-1.595a148.734,148.734,0,0,1,19.053-.946A90.767,90.767,0,0,1,163.944,69c4.1,1.588,7.92,3.342,11.615,5.039,3.781,1.736,7.691,3.531,11.9,5.151,13.5,5.188,29.856,8.353,46.061,8.912q2.517.087,5,.087a113.7,113.7,0,0,0,30.532-3.835c9.786-2.771,17.527-6.929,22.387-12.024,6.287-6.592.378-13.23-5.337-19.649a64.055,64.055,0,0,1-4.943-6c-6.176-9,2.6-13.533,14.748-19.812,1.983-1.025,4.033-2.085,6.128-3.22,9.872-5.354,15.134-12.189,14.817-19.248" transform="translate(0 0)" fill="#ffdde3"/>
      <path id="Path_181775" data-name="Path 181775" d="M1104.868,492.547a117.682,117.682,0,0,1-11.783,13.774c-14.1,14.225-33.163,27.267-56.817,38.89h1.861c23.383-11.572,42.257-24.533,56.254-38.656a120.59,120.59,0,0,0,10.485-12.013Z" transform="translate(-671.187 -418.535)" fill="#ffdde3"/>
      <path id="Path_181776" data-name="Path 181776" d="M1126.021,568.013q-1.787,1.954-3.7,3.891c-13.476,13.6-31.38,26.14-53.393,37.433h1.377c21.821-11.252,39.587-23.735,52.989-37.258.935-.944,1.841-1.891,2.729-2.84Z" transform="translate(-692.34 -482.661)" fill="#ffdde3"/>
      <path id="Path_181777" data-name="Path 181777" d="M1146.913,632.064c-12.215,11.36-27.52,21.965-45.731,31.7h1.35c17.562-9.432,32.41-19.675,44.381-30.625Z" transform="translate(-713.232 -537.088)" fill="#ffdde3"/>
      <path id="Path_181778" data-name="Path 181778" d="M1168.413,691.455a232.62,232.62,0,0,1-34.036,22.776h.885a233.813,233.813,0,0,0,33.151-22.128Z" transform="translate(-734.732 -587.555)" fill="#ffdde3"/>
      <path id="Path_181779" data-name="Path 181779" d="M1168.413,691.455a232.62,232.62,0,0,1-34.036,22.776h.885a233.813,233.813,0,0,0,33.151-22.128Z" transform="translate(-734.732 -587.555)" fill="#ffdde3"/>
      <path id="Path_181780" data-name="Path 181780" d="M1189.61,745.681q-6.4,4.7-13.528,9.2-4.351,2.748-8.979,5.423h.876q4.466-2.593,8.686-5.254,6.8-4.294,12.944-8.776Z" transform="translate(-755.929 -633.633)" fill="#ffdde3"/>
      <path id="Path_181781" data-name="Path 181781" d="M1211.147,797.476q-2.776,1.859-5.662,3.686-2.52,1.591-5.129,3.159h.861q2.464-1.485,4.852-2.991,2.585-1.633,5.078-3.293Z" transform="translate(-777.466 -677.644)" fill="#ffdde3"/>
    </g>
  </g>
</svg>
