<svg xmlns="http://www.w3.org/2000/svg" xmlns:xlink="http://www.w3.org/1999/xlink" width="65" height="65.003" viewBox="0 0 65 65.003">
  <defs>
    <clipPath id="clip-path">
      <path id="Path_77804" data-name="Path 77804" d="M32.5,65A32.5,32.5,0,1,1,65,32.5,32.5,32.5,0,0,1,32.5,65" fill="none"/>
    </clipPath>
    <clipPath id="clip-path-2">
      <rect id="Rectangle_32235" data-name="Rectangle 32235" width="34.001" height="33.998" fill="#fff" stroke="#fff" stroke-width="0.4"/>
    </clipPath>
  </defs>
  <g id="Group_209801" data-name="Group 209801" transform="translate(-243 -410)">
    <path id="Path_77628" data-name="Path 77628" d="M32.5,65A32.5,32.5,0,1,1,65,32.5,32.5,32.5,0,0,1,32.5,65" transform="translate(243 410.003)" fill="#f44040"/>
    <g id="Group_51885" data-name="Group 51885" transform="translate(243 410)" clip-path="url(#clip-path)" style="mix-blend-mode: overlay;isolation: isolate">
      <path id="Path_77629" data-name="Path 77629" d="M20.212,0,0,21.4V0Z" transform="translate(-0.001)" fill="#ccc"/>
      <path id="Path_77630" data-name="Path 77630" d="M20.7,0,0,21.924V21.4L20.213,0Z" transform="translate(0.002)" fill="#ccc"/>
      <path id="Path_77631" data-name="Path 77631" d="M21.2,0,0,22.45v-.526L20.71,0Z" transform="translate(-0.001)" fill="#cbcbcb"/>
      <path id="Path_77632" data-name="Path 77632" d="M21.693,0,0,22.969V22.45L21.2,0Z" transform="translate(0.002)" fill="#cacaca"/>
      <path id="Path_77633" data-name="Path 77633" d="M22.19,0,0,23.5v-.526L21.7,0Z" transform="translate(-0.001)" fill="#c9c9c9"/>
      <path id="Path_77634" data-name="Path 77634" d="M22.682,0,0,24.021v-.526L22.191,0Z" transform="translate(0.002)" fill="#c8c8c8"/>
      <path id="Path_77635" data-name="Path 77635" d="M23.179,0,0,24.54v-.519L22.688,0Z" transform="translate(-0.001)" fill="#c7c7c7"/>
      <path id="Path_77636" data-name="Path 77636" d="M23.67,0,0,25.066V24.54L23.18,0Z" transform="translate(0.002)" fill="#c6c6c6"/>
      <path id="Path_77637" data-name="Path 77637" d="M24.168,0,0,25.585v-.519L23.677,0Z" transform="translate(-0.002)" fill="#c5c5c5"/>
      <path id="Path_77638" data-name="Path 77638" d="M24.659,0,0,26.111v-.526L24.168,0Z" transform="translate(0.001)" fill="#c4c4c4"/>
      <path id="Path_77639" data-name="Path 77639" d="M25.157,0,0,26.637v-.526L24.666,0Z" transform="translate(-0.002)" fill="#c3c3c3"/>
      <path id="Path_77640" data-name="Path 77640" d="M25.648,0,0,27.156v-.519L25.157,0Z" transform="translate(0.001)" fill="#c2c2c2"/>
      <path id="Path_77641" data-name="Path 77641" d="M26.146,0,0,27.682v-.526L25.655,0Z" transform="translate(-0.002)" fill="#c1c1c1"/>
      <path id="Path_77642" data-name="Path 77642" d="M26.637,0,0,28.208v-.526L26.146,0Z" transform="translate(0.001)" fill="silver"/>
      <path id="Path_77643" data-name="Path 77643" d="M27.134,0,0,28.727v-.519L26.644,0Z" transform="translate(-0.002)" fill="#bfbfbf"/>
      <path id="Path_77644" data-name="Path 77644" d="M27.626,0,0,29.253v-.526L27.135,0Z" transform="translate(0.001)" fill="#bebebe"/>
      <path id="Path_77645" data-name="Path 77645" d="M28.123,0,0,29.772v-.519L27.632,0Z" transform="translate(-0.002)" fill="#bdbdbd"/>
      <path id="Path_77646" data-name="Path 77646" d="M28.615,0,0,30.3v-.526L28.124,0Z" transform="translate(0.001)" fill="#bcbcbc"/>
      <path id="Path_77647" data-name="Path 77647" d="M29.112,0,0,30.824V30.3L28.621,0Z" transform="translate(-0.002)" fill="#bbb"/>
      <path id="Path_77648" data-name="Path 77648" d="M29.6,0,0,31.343v-.519L29.113,0Z" transform="translate(0.001)" fill="#bababa"/>
      <path id="Path_77649" data-name="Path 77649" d="M30.1,0,0,31.869v-.526L29.61,0Z" transform="translate(-0.003)" fill="#b9b9b9"/>
      <path id="Path_77650" data-name="Path 77650" d="M30.592,0,0,32.4v-.526L30.1,0Z" fill="#b8b8b8"/>
      <path id="Path_77651" data-name="Path 77651" d="M31.09,0,0,32.914V32.4L30.6,0Z" transform="translate(-0.003)" fill="#b7b7b7"/>
      <path id="Path_77652" data-name="Path 77652" d="M31.581,0,0,33.44v-.526L31.09,0Z" fill="#b6b6b6"/>
      <path id="Path_77653" data-name="Path 77653" d="M32.073,0,0,33.966V33.44L31.582,0Z" transform="translate(0.003)" fill="#b5b5b5"/>
      <path id="Path_77654" data-name="Path 77654" d="M32.57,0,0,34.485v-.519L32.079,0Z" fill="#b4b4b4"/>
      <path id="Path_77655" data-name="Path 77655" d="M33.062,0,0,35.011v-.526L32.571,0Z" transform="translate(0.003)" fill="#b3b3b3"/>
      <path id="Path_77656" data-name="Path 77656" d="M33.559,0,0,35.53v-.519L33.068,0Z" transform="translate(-0.001)" fill="#b2b2b2"/>
      <path id="Path_77657" data-name="Path 77657" d="M34.05,0,0,36.056V35.53L33.559,0Z" transform="translate(0.002)" fill="#b1b1b1"/>
      <path id="Path_77658" data-name="Path 77658" d="M34.548,0,0,36.582v-.526L34.057,0Z" transform="translate(-0.001)" fill="#b0b0b0"/>
      <path id="Path_77659" data-name="Path 77659" d="M35.039,0,0,37.1v-.519L34.548,0Z" transform="translate(0.002)" fill="#b0afaf"/>
      <path id="Path_77660" data-name="Path 77660" d="M35.537,0,0,37.627V37.1L35.046,0Z" transform="translate(-0.001)" fill="#afaeae"/>
      <path id="Path_77661" data-name="Path 77661" d="M36.028,0,0,38.153v-.526L35.537,0Z" transform="translate(0.002)" fill="#aeadad"/>
      <path id="Path_77662" data-name="Path 77662" d="M36.526,0,0,38.672v-.519L36.035,0Z" transform="translate(-0.001)" fill="#adacac"/>
      <path id="Path_77663" data-name="Path 77663" d="M37.017,0,0,39.2v-.526L36.526,0Z" transform="translate(0.002)" fill="#acabab"/>
      <path id="Path_77664" data-name="Path 77664" d="M37.514,0,0,39.717V39.2L37.023,0Z" transform="translate(-0.001)" fill="#abaaaa"/>
      <path id="Path_77665" data-name="Path 77665" d="M38.006,0,0,40.243v-.526L37.515,0Z" transform="translate(0.002)" fill="#aaa9a9"/>
      <path id="Path_77666" data-name="Path 77666" d="M38.5,0,0,40.769v-.526L38.012,0Z" transform="translate(-0.001)" fill="#a9a8a8"/>
      <path id="Path_77667" data-name="Path 77667" d="M38.995,0,0,41.288v-.519L38.5,0Z" transform="translate(0.002)" fill="#a8a7a7"/>
      <path id="Path_77668" data-name="Path 77668" d="M39.492,0,0,41.814v-.526L39,0Z" transform="translate(-0.001)" fill="#a7a6a6"/>
      <path id="Path_77669" data-name="Path 77669" d="M39.983,0,0,42.34v-.526L39.493,0Z" transform="translate(0.001)" fill="#a6a5a5"/>
      <path id="Path_77670" data-name="Path 77670" d="M40.481,0,0,42.859V42.34L39.99,0Z" transform="translate(-0.002)" fill="#a5a4a4"/>
      <path id="Path_77671" data-name="Path 77671" d="M40.972,0,0,43.385v-.526L40.481,0Z" transform="translate(0.001)" fill="#a4a3a3"/>
      <path id="Path_77672" data-name="Path 77672" d="M41.47,0,0,43.9v-.519L40.979,0Z" transform="translate(-0.002)" fill="#a3a2a2"/>
      <path id="Path_77673" data-name="Path 77673" d="M41.961,0,0,44.43V43.9L41.47,0Z" transform="translate(0.001)" fill="#a2a1a1"/>
      <path id="Path_77674" data-name="Path 77674" d="M42.459,0,0,44.956V44.43L41.968,0Z" transform="translate(-0.002)" fill="#a1a0a0"/>
      <path id="Path_77675" data-name="Path 77675" d="M42.95,0,0,45.475v-.519L42.459,0Z" transform="translate(0.001)" fill="#a09f9f"/>
      <path id="Path_77676" data-name="Path 77676" d="M43.447,0,0,46v-.526L42.957,0Z" transform="translate(-0.002)" fill="#9f9e9e"/>
      <path id="Path_77677" data-name="Path 77677" d="M43.939,0,0,46.527V46L43.448,0Z" transform="translate(0.001)" fill="#9e9d9d"/>
      <path id="Path_77678" data-name="Path 77678" d="M44.436,0,0,47.046v-.519L43.945,0Z" transform="translate(-0.002)" fill="#9d9c9c"/>
      <path id="Path_77679" data-name="Path 77679" d="M44.928,0,0,47.572v-.526L44.437,0Z" transform="translate(0.001)" fill="#9c9b9b"/>
      <path id="Path_77680" data-name="Path 77680" d="M45.425,0,0,48.1v-.526L44.934,0Z" transform="translate(-0.002)" fill="#9b9a9a"/>
      <path id="Path_77681" data-name="Path 77681" d="M45.917,0,0,48.617V48.1L45.426,0Z" transform="translate(0.001)" fill="#9a9999"/>
      <path id="Path_77682" data-name="Path 77682" d="M46.414,0,0,49.143v-.526L45.923,0Z" transform="translate(-0.003)" fill="#999898"/>
      <path id="Path_77683" data-name="Path 77683" d="M46.9,0,0,49.662v-.519L46.415,0Z" fill="#989797"/>
      <path id="Path_77684" data-name="Path 77684" d="M47.4,0,0,50.188v-.526L46.912,0Z" transform="translate(-0.003)" fill="#979696"/>
      <path id="Path_77685" data-name="Path 77685" d="M47.894,0,0,50.714v-.526L47.4,0Z" fill="#969595"/>
      <path id="Path_77686" data-name="Path 77686" d="M48.386,0,0,51.233v-.519L47.9,0Z" transform="translate(0.003)" fill="#959494"/>
      <path id="Path_77687" data-name="Path 77687" d="M48.883,0,0,51.759v-.526L48.392,0Z" fill="#949393"/>
      <path id="Path_77688" data-name="Path 77688" d="M49.375,0,0,52.285v-.526L48.884,0Z" transform="translate(0.003)" fill="#939292"/>
      <path id="Path_77689" data-name="Path 77689" d="M49.872,0,0,52.8v-.519L49.381,0Z" transform="translate(-0.001)" fill="#929191"/>
      <path id="Path_77690" data-name="Path 77690" d="M50.363,0,0,53.33V52.8L49.873,0Z" transform="translate(0.002)" fill="#919090"/>
      <path id="Path_77691" data-name="Path 77691" d="M50.861,0,0,53.849V53.33L50.37,0Z" transform="translate(-0.001)" fill="#908f8f"/>
      <path id="Path_77692" data-name="Path 77692" d="M51.352,0,0,54.375v-.526L50.861,0Z" transform="translate(0.002)" fill="#8f8e8e"/>
      <path id="Path_77693" data-name="Path 77693" d="M51.85,0,0,54.9v-.526L51.359,0Z" transform="translate(-0.001)" fill="#8e8d8d"/>
      <path id="Path_77694" data-name="Path 77694" d="M52.341,0,0,55.42V54.9L51.85,0Z" transform="translate(0.002)" fill="#8d8c8c"/>
      <path id="Path_77695" data-name="Path 77695" d="M52.839,0,0,55.946V55.42L52.348,0Z" transform="translate(-0.001)" fill="#8c8b8b"/>
      <path id="Path_77696" data-name="Path 77696" d="M53.33,0,0,56.472v-.526L52.839,0Z" transform="translate(0.002)" fill="#8b8a8a"/>
      <path id="Path_77697" data-name="Path 77697" d="M53.827,0,0,56.991v-.519L53.337,0Z" transform="translate(-0.001)" fill="#8a8989"/>
      <path id="Path_77698" data-name="Path 77698" d="M54.319,0,0,57.517v-.526L53.828,0Z" transform="translate(0.002)" fill="#898888"/>
      <path id="Path_77699" data-name="Path 77699" d="M54.816,0,0,58.043v-.526L54.325,0Z" transform="translate(-0.001)" fill="#888787"/>
      <path id="Path_77700" data-name="Path 77700" d="M55.308,0,0,58.562v-.519L54.817,0Z" transform="translate(0.002)" fill="#878686"/>
      <path id="Path_77701" data-name="Path 77701" d="M55.805,0,0,59.088v-.526L55.314,0Z" transform="translate(-0.001)" fill="#868585"/>
      <path id="Path_77702" data-name="Path 77702" d="M56.3,0,0,59.607v-.519L55.806,0Z" transform="translate(0.001)" fill="#858484"/>
      <path id="Path_77703" data-name="Path 77703" d="M56.794,0,0,60.133v-.526L56.3,0Z" transform="translate(-0.002)" fill="#848383"/>
      <path id="Path_77704" data-name="Path 77704" d="M57.285,0,0,60.659v-.526L56.795,0Z" transform="translate(0.001)" fill="#838282"/>
      <path id="Path_77705" data-name="Path 77705" d="M57.783,0,0,61.178v-.519L57.292,0Z" transform="translate(-0.002)" fill="#828181"/>
      <path id="Path_77706" data-name="Path 77706" d="M58.274,0,0,61.7v-.526L57.783,0Z" transform="translate(0.001)" fill="#818080"/>
      <path id="Path_77707" data-name="Path 77707" d="M58.772,0,0,62.23V61.7L58.281,0Z" transform="translate(-0.002)" fill="#807f7f"/>
      <path id="Path_77708" data-name="Path 77708" d="M59.263,0,0,62.749V62.23L58.772,0Z" transform="translate(0.001)" fill="#7f7e7e"/>
      <path id="Path_77709" data-name="Path 77709" d="M59.761,0,0,63.275v-.526L59.27,0Z" transform="translate(-0.002)" fill="#7e7d7d"/>
      <path id="Path_77710" data-name="Path 77710" d="M60.252,0,0,63.794v-.519L59.761,0Z" transform="translate(0.001)" fill="#7d7c7c"/>
      <path id="Path_77711" data-name="Path 77711" d="M60.75,0,0,64.32v-.526L60.259,0Z" transform="translate(-0.002)" fill="#7c7b7b"/>
      <path id="Path_77712" data-name="Path 77712" d="M61.241,0,0,64.846V64.32L60.75,0Z" transform="translate(0.001)" fill="#7b7a7a"/>
      <path id="Path_77713" data-name="Path 77713" d="M61.738,0,.35,65H0v-.154L61.247,0Z" transform="translate(-0.002)" fill="#7a7979"/>
      <path id="Path_77714" data-name="Path 77714" d="M61.929,0,.541,65H.05L61.438,0Z" transform="translate(0.301)" fill="#797878"/>
      <path id="Path_77715" data-name="Path 77715" d="M62,0,.611,65H.12L61.509,0Z" transform="translate(0.725)" fill="#787777"/>
      <path id="Path_77716" data-name="Path 77716" d="M62.07,0,.682,65H.191L61.579,0Z" transform="translate(1.149)" fill="#787676"/>
      <path id="Path_77717" data-name="Path 77717" d="M62.141,0,.752,65H.262L61.65,0Z" transform="translate(1.573)" fill="#777475"/>
      <path id="Path_77718" data-name="Path 77718" d="M62.211,0,.823,65H.332L61.72,0Z" transform="translate(1.996)" fill="#767374"/>
      <path id="Path_77719" data-name="Path 77719" d="M62.282,0,.893,65H.4L61.791,0Z" transform="translate(2.42)" fill="#757273"/>
      <path id="Path_77720" data-name="Path 77720" d="M62.155.21.971,65h-.5L61.861,0h.295Z" transform="translate(2.842)" fill="#747172"/>
      <path id="Path_77721" data-name="Path 77721" d="M61.728.556,1.035,64.819H.544L61.728.03Z" transform="translate(3.269 0.179)" fill="#737071"/>
      <path id="Path_77722" data-name="Path 77722" d="M61.307.63,1.112,64.368h-.5L61.307.1Z" transform="translate(3.69 0.627)" fill="#726f70"/>
      <path id="Path_77723" data-name="Path 77723" d="M60.88.7,1.176,63.924H.685L60.88.179Z" transform="translate(4.117 1.076)" fill="#716e6f"/>
      <path id="Path_77724" data-name="Path 77724" d="M60.46.779,1.253,63.472h-.5L60.46.253Z" transform="translate(4.538 1.524)" fill="#706d6e"/>
      <path id="Path_77725" data-name="Path 77725" d="M60.033.854,1.317,63.021H.826L60.033.328Z" transform="translate(4.965 1.974)" fill="#6f6c6d"/>
      <path id="Path_77726" data-name="Path 77726" d="M59.612.929,1.394,62.576H.9L59.612.4Z" transform="translate(5.386 2.422)" fill="#6e6b6c"/>
      <path id="Path_77727" data-name="Path 77727" d="M59.185,1,1.458,62.125H.967L59.185.477Z" transform="translate(5.813 2.871)" fill="#6d6a6b"/>
      <path id="Path_77728" data-name="Path 77728" d="M58.764,1.078,1.535,61.681h-.5L58.764.552Z" transform="translate(6.233 3.32)" fill="#6c696a"/>
      <path id="Path_77729" data-name="Path 77729" d="M58.337,1.153,1.6,61.229H1.108L58.337.627Z" transform="translate(6.66 3.769)" fill="#6b6869"/>
      <path id="Path_77730" data-name="Path 77730" d="M57.916,1.227,1.669,60.778H1.178L57.916.7Z" transform="translate(7.081 4.217)" fill="#6a6768"/>
      <path id="Path_77731" data-name="Path 77731" d="M57.495,1.3,1.746,60.334h-.5L57.495.776Z" transform="translate(7.502 4.666)" fill="#696667"/>
      <path id="Path_77732" data-name="Path 77732" d="M57.068,1.377,1.81,59.882H1.319L57.068.851Z" transform="translate(7.929 5.115)" fill="#686566"/>
      <path id="Path_77733" data-name="Path 77733" d="M56.647,1.451,1.887,59.431h-.5L56.647.925Z" transform="translate(8.35 5.564)" fill="#676465"/>
      <path id="Path_77734" data-name="Path 77734" d="M56.22,1.526,1.951,58.987H1.46L56.22,1Z" transform="translate(8.777 6.013)" fill="#666364"/>
      <path id="Path_77735" data-name="Path 77735" d="M55.8,1.6,2.028,58.535h-.5L55.8,1.074Z" transform="translate(9.198 6.461)" fill="#656263"/>
      <path id="Path_77736" data-name="Path 77736" d="M55.372,1.675,2.092,58.084H1.6L55.372,1.149Z" transform="translate(9.625 6.91)" fill="#646162"/>
      <path id="Path_77737" data-name="Path 77737" d="M54.951,1.75,2.169,57.639h-.5L54.951,1.224Z" transform="translate(10.046 7.359)" fill="#636061"/>
      <path id="Path_77738" data-name="Path 77738" d="M54.524,1.824,2.233,57.188H1.742L54.524,1.3Z" transform="translate(10.473 7.808)" fill="#625f60"/>
      <path id="Path_77739" data-name="Path 77739" d="M54.1,1.9,2.31,56.744h-.5L54.1,1.373Z" transform="translate(10.894 8.256)" fill="#615e5f"/>
      <path id="Path_77740" data-name="Path 77740" d="M53.676,1.974,2.374,56.292H1.883L53.676,1.448Z" transform="translate(11.321 8.706)" fill="#605d5e"/>
      <path id="Path_77741" data-name="Path 77741" d="M53.255,2.048,2.451,55.841h-.5l51.3-54.319Z" transform="translate(11.742 9.154)" fill="#5f5c5d"/>
      <path id="Path_77742" data-name="Path 77742" d="M52.829,2.123,2.515,55.4H2.024l50.8-53.8Z" transform="translate(12.169 9.603)" fill="#5e5b5c"/>
      <path id="Path_77743" data-name="Path 77743" d="M52.408,2.2,2.592,54.945h-.5L52.408,1.671Z" transform="translate(12.59 10.051)" fill="#5d5a5b"/>
      <path id="Path_77744" data-name="Path 77744" d="M51.981,2.272,2.656,54.494H2.165L51.981,1.746Z" transform="translate(13.017 10.501)" fill="#5c595a"/>
      <path id="Path_77745" data-name="Path 77745" d="M51.56,2.347,2.733,54.049h-.5L51.56,1.821Z" transform="translate(13.438 10.949)" fill="#5b5859"/>
      <path id="Path_77746" data-name="Path 77746" d="M51.133,2.421,2.8,53.6H2.306L51.133,1.9Z" transform="translate(13.864 11.398)" fill="#5a5758"/>
      <path id="Path_77747" data-name="Path 77747" d="M50.712,2.5,2.874,53.154h-.5L50.712,1.97Z" transform="translate(14.285 11.847)" fill="#595657"/>
      <path id="Path_77748" data-name="Path 77748" d="M50.285,2.571,2.938,52.7H2.447L50.285,2.045Z" transform="translate(14.712 12.296)" fill="#585556"/>
      <path id="Path_77749" data-name="Path 77749" d="M49.864,2.645,3.015,52.251h-.5L49.864,2.119Z" transform="translate(15.133 12.744)" fill="#575455"/>
      <path id="Path_77750" data-name="Path 77750" d="M49.437,2.72,3.079,51.807H2.588L49.437,2.194Z" transform="translate(15.56 13.193)" fill="#565354"/>
      <path id="Path_77751" data-name="Path 77751" d="M49.016,2.8,3.156,51.355h-.5L49.016,2.269Z" transform="translate(15.981 13.642)" fill="#555253"/>
      <path id="Path_77752" data-name="Path 77752" d="M48.589,2.869,3.22,50.9H2.729L48.589,2.343Z" transform="translate(16.408 14.091)" fill="#545152"/>
      <path id="Path_77753" data-name="Path 77753" d="M48.168,2.944,3.3,50.46H2.8L48.168,2.418Z" transform="translate(16.829 14.54)" fill="#535051"/>
      <path id="Path_77754" data-name="Path 77754" d="M47.741,3.018,3.361,50.008H2.87L47.741,2.492Z" transform="translate(17.256 14.988)" fill="#524f50"/>
      <path id="Path_77755" data-name="Path 77755" d="M47.32,3.093,3.438,49.557h-.5L47.32,2.567Z" transform="translate(17.677 15.437)" fill="#514e4f"/>
      <path id="Path_77756" data-name="Path 77756" d="M46.893,3.168,3.5,49.112H3.011L46.893,2.642Z" transform="translate(18.104 15.886)" fill="#504d4e"/>
      <path id="Path_77757" data-name="Path 77757" d="M46.472,3.242,3.579,48.661h-.5L46.472,2.716Z" transform="translate(18.525 16.335)" fill="#4f4c4d"/>
      <path id="Path_77758" data-name="Path 77758" d="M46.045,3.317l-42.4,44.9H3.152L46.045,2.791Z" transform="translate(18.952 16.783)" fill="#4e4b4c"/>
      <path id="Path_77759" data-name="Path 77759" d="M45.625,3.392,3.72,47.765h-.5l42.4-44.9Z" transform="translate(19.373 17.232)" fill="#4d4a4b"/>
      <path id="Path_77760" data-name="Path 77760" d="M45.2,3.466,3.784,47.314H3.293L45.2,2.94Z" transform="translate(19.8 17.681)" fill="#4c494a"/>
      <path id="Path_77761" data-name="Path 77761" d="M44.777,3.541,3.861,46.87h-.5L44.777,3.015Z" transform="translate(20.221 18.13)" fill="#4b4849"/>
      <path id="Path_77762" data-name="Path 77762" d="M44.35,3.615,3.925,46.418H3.434L44.35,3.089Z" transform="translate(20.648 18.578)" fill="#4a4748"/>
      <path id="Path_77763" data-name="Path 77763" d="M43.929,3.69,3.995,45.967H3.5l40.425-42.8Z" transform="translate(21.068 19.028)" fill="#494647"/>
      <path id="Path_77764" data-name="Path 77764" d="M43.508,3.765,4.072,45.522h-.5L43.508,3.239Z" transform="translate(21.489 19.476)" fill="#484546"/>
      <path id="Path_77765" data-name="Path 77765" d="M43.081,3.839,4.136,45.071H3.645L43.081,3.313Z" transform="translate(21.916 19.925)" fill="#474445"/>
      <path id="Path_77766" data-name="Path 77766" d="M42.66,3.914,4.213,44.627h-.5L42.66,3.388Z" transform="translate(22.337 20.373)" fill="#464344"/>
      <path id="Path_77767" data-name="Path 77767" d="M42.233,3.989,4.277,44.175H3.786L42.233,3.463Z" transform="translate(22.764 20.822)" fill="#454243"/>
      <path id="Path_77768" data-name="Path 77768" d="M41.812,4.063,4.354,43.724h-.5L41.812,3.537Z" transform="translate(23.185 21.271)" fill="#444142"/>
      <path id="Path_77769" data-name="Path 77769" d="M41.385,4.138,4.418,43.28H3.927L41.385,3.612Z" transform="translate(23.612 21.72)" fill="#434041"/>
      <path id="Path_77770" data-name="Path 77770" d="M40.964,4.213,4.495,42.828H4L40.964,3.687Z" transform="translate(24.033 22.169)" fill="#423f40"/>
      <path id="Path_77771" data-name="Path 77771" d="M40.537,4.287,4.559,42.377H4.068L40.537,3.761Z" transform="translate(24.46 22.617)" fill="#413e3f"/>
      <path id="Path_77772" data-name="Path 77772" d="M40.116,4.362,4.636,41.932h-.5l35.979-38.1Z" transform="translate(24.881 23.066)" fill="#403d3e"/>
      <path id="Path_77773" data-name="Path 77773" d="M39.689,4.436,4.7,41.481H4.209L39.689,3.91Z" transform="translate(25.308 23.515)" fill="#3f3c3d"/>
      <path id="Path_77774" data-name="Path 77774" d="M39.268,4.511,4.777,41.037h-.5L39.268,3.985Z" transform="translate(25.729 23.964)" fill="#3f3b3c"/>
      <path id="Path_77775" data-name="Path 77775" d="M38.841,4.586l-34,36H4.35L38.841,4.06Z" transform="translate(26.156 24.412)" fill="#3e3a3b"/>
      <path id="Path_77776" data-name="Path 77776" d="M38.42,4.66,4.918,40.134h-.5l34-36Z" transform="translate(26.577 24.862)" fill="#3d393a"/>
      <path id="Path_77777" data-name="Path 77777" d="M37.994,4.735,4.982,39.69H4.491l33.5-35.481Z" transform="translate(27.004 25.31)" fill="#3c3839"/>
      <path id="Path_77778" data-name="Path 77778" d="M37.573,4.81,5.059,39.238h-.5L37.573,4.284Z" transform="translate(27.425 25.759)" fill="#3b3738"/>
      <path id="Path_77779" data-name="Path 77779" d="M37.146,4.884,5.123,38.787H4.632L37.146,4.358Z" transform="translate(27.852 26.207)" fill="#3a3637"/>
      <path id="Path_77780" data-name="Path 77780" d="M36.725,4.959,5.2,38.343H4.7L36.725,4.433Z" transform="translate(28.273 26.657)" fill="#393536"/>
      <path id="Path_77781" data-name="Path 77781" d="M36.3,5.033,5.264,37.891H4.773L36.3,4.507Z" transform="translate(28.699 27.105)" fill="#383435"/>
      <path id="Path_77782" data-name="Path 77782" d="M35.877,5.108,5.341,37.44h-.5L35.877,4.582Z" transform="translate(29.12 27.554)" fill="#373334"/>
      <path id="Path_77783" data-name="Path 77783" d="M35.45,5.183,5.4,37H4.914L35.45,4.657Z" transform="translate(29.547 28.003)" fill="#363233"/>
      <path id="Path_77784" data-name="Path 77784" d="M35.029,5.257,5.482,36.544h-.5L35.029,4.731Z" transform="translate(29.968 28.452)" fill="#353132"/>
      <path id="Path_77785" data-name="Path 77785" d="M34.6,5.332,5.546,36.1H5.055L34.6,4.806Z" transform="translate(30.395 28.9)" fill="#343031"/>
      <path id="Path_77786" data-name="Path 77786" d="M34.181,5.407,5.623,35.648h-.5L34.181,4.881Z" transform="translate(30.816 29.349)" fill="#332f30"/>
      <path id="Path_77787" data-name="Path 77787" d="M33.754,5.481,5.687,35.2H5.2L33.754,4.955Z" transform="translate(31.243 29.798)" fill="#322e2f"/>
      <path id="Path_77788" data-name="Path 77788" d="M33.333,5.556l-27.57,29.2h-.5L33.333,5.03Z" transform="translate(31.664 30.247)" fill="#312d2e"/>
      <path id="Path_77789" data-name="Path 77789" d="M32.906,5.631,5.828,34.3H5.337L32.906,5.1Z" transform="translate(32.091 30.696)" fill="#302c2d"/>
      <path id="Path_77790" data-name="Path 77790" d="M32.485,5.7,5.9,33.85H5.4L32.485,5.179Z" transform="translate(32.512 31.144)" fill="#2f2b2c"/>
      <path id="Path_77791" data-name="Path 77791" d="M32.058,5.78,5.969,33.406H5.478L32.058,5.254Z" transform="translate(32.939 31.593)" fill="#2e2a2b"/>
      <path id="Path_77792" data-name="Path 77792" d="M31.637,5.854,6.046,32.954h-.5L31.637,5.328Z" transform="translate(33.36 32.042)" fill="#2d292a"/>
      <path id="Path_77793" data-name="Path 77793" d="M31.21,5.929,6.11,32.51H5.619L31.21,5.4Z" transform="translate(33.787 32.491)" fill="#2c2829"/>
      <path id="Path_77794" data-name="Path 77794" d="M30.789,6,6.187,32.058h-.5l25.1-26.581Z" transform="translate(34.208 32.939)" fill="#2b2728"/>
      <path id="Path_77795" data-name="Path 77795" d="M30.363,6.078,6.251,31.607H5.76L30.36,5.552Z" transform="translate(34.635 33.388)" fill="#2a2627"/>
      <path id="Path_77796" data-name="Path 77796" d="M29.942,6.153,6.321,31.163H5.83L29.942,5.627Z" transform="translate(35.056 33.837)" fill="#292526"/>
      <path id="Path_77797" data-name="Path 77797" d="M29.521,6.228,6.4,30.711H5.9L29.521,5.7Z" transform="translate(35.477 34.286)" fill="#282425"/>
      <path id="Path_77798" data-name="Path 77798" d="M29.094,6.3,6.462,30.26H5.971L29.094,5.776Z" transform="translate(35.903 34.734)" fill="#272324"/>
      <path id="Path_77799" data-name="Path 77799" d="M28.673,6.377,6.539,29.816h-.5L28.673,5.851Z" transform="translate(36.324 35.184)" fill="#262223"/>
      <path id="Path_77800" data-name="Path 77800" d="M28.246,6.451,6.6,29.364H6.112L28.246,5.925Z" transform="translate(36.751 35.632)" fill="#252122"/>
      <path id="Path_77801" data-name="Path 77801" d="M27.825,6.526,6.68,28.913h-.5L27.825,6Z" transform="translate(37.172 36.081)" fill="#242021"/>
      <path id="Path_77802" data-name="Path 77802" d="M27.4,6.6,6.744,28.469H6.253L27.4,6.075Z" transform="translate(37.599 36.53)" fill="#231f20"/>
      <path id="Path_77803" data-name="Path 77803" d="M6.323,28.017,26.977,6.15V28.017Z" transform="translate(38.023 36.98)" fill="#231f20"/>
    </g>
    <rect id="Rectangle_17566" data-name="Rectangle 17566" width="65" height="65" transform="translate(243 410)" fill="none"/>
    <g id="Group_209757" data-name="Group 209757" transform="translate(260.402 427.404)">
      <g id="Group_209756" data-name="Group 209756" transform="translate(-2 -2.002)" clip-path="url(#clip-path-2)">
        <path id="Path_181713" data-name="Path 181713" d="M23.433,30.3H1.8c-.07-.02-.14-.043-.211-.059a1.974,1.974,0,0,1-1.539-1.6A.921.921,0,0,0,0,28.5V4.415a1.218,1.218,0,0,0,.057-.164,1.95,1.95,0,0,1,1.05-1.405,2.055,2.055,0,0,1,.985-.218q.851,0,1.7,0c.057,0,.113-.005.179-.009V2.44c0-.355-.007-.71,0-1.065A1.759,1.759,0,0,1,4.043.91,1.279,1.279,0,0,1,5.232,0Q5.95,0,6.667,0a1.034,1.034,0,0,1,.22.024A1.3,1.3,0,0,1,7.928,1.311c0,.38,0,.759,0,1.139,0,.053,0,.106,0,.156.166.035,5.148.029,5.265-.006,0-.046,0-.095,0-.144,0-.4-.007-.8,0-1.2A1.288,1.288,0,0,1,14.435.007c.493-.013.986-.006,1.479,0A1.178,1.178,0,0,1,16.67.3a1.323,1.323,0,0,1,.48,1.054c0,.365,0,.73,0,1.094,0,.053,0,.107,0,.169h5.258v-.17c0-.345,0-.69,0-1.035a2.456,2.456,0,0,1,.017-.28A1.288,1.288,0,0,1,23.646.007c.5-.013,1-.01,1.494,0a1.16,1.16,0,0,1,.441.1,1.258,1.258,0,0,1,.78,1.174c.013.389,0,.779,0,1.168,0,.052,0,.1.008.171h.188c.636,0,1.273-.014,1.908.014a1.88,1.88,0,0,1,1.534.9,2,2,0,0,1,.3,1.153q-.006,9.14,0,18.281a7.293,7.293,0,0,1-.091,1.281,7.269,7.269,0,0,1-6.446,5.994c-.112.012-.222.035-.333.054M28.99,10.542H1.347v.225q0,8.69,0,17.38c0,.074,0,.148.005.222a.631.631,0,0,0,.282.481.745.745,0,0,0,.449.118H18.866l.012-.027a7.242,7.242,0,0,1-2.511-3.146,7.117,7.117,0,0,1-.444-4,7.222,7.222,0,0,1,6.555-5.968,7.206,7.206,0,0,1,6.513,3.019ZM7.929,3.95c0,.068,0,.121,0,.174,0,.385,0,.769,0,1.154a1.3,1.3,0,0,1-1.256,1.3c-.483.016-.967.018-1.449,0a1.255,1.255,0,0,1-1.114-.736,1.329,1.329,0,0,1-.137-.615c0-.37,0-.74,0-1.109,0-.053,0-.105-.007-.156a.308.308,0,0,0-.055-.013c-.636,0-1.272,0-1.908,0a.682.682,0,0,0-.284.069.65.65,0,0,0-.372.637q0,2.211,0,4.422c0,.042.007.084.012.127h27.63c0-.051.006-.094.006-.138q0-2.2,0-4.407a.887.887,0,0,0-.013-.176.656.656,0,0,0-.668-.536c-.616,0-1.233,0-1.849,0-.028,0-.056.006-.1.01,0,.06,0,.113,0,.166,0,.394.005.789,0,1.183a1.293,1.293,0,0,1-1.236,1.27c-.492.017-.986.011-1.479,0a1.227,1.227,0,0,1-.885-.418,1.325,1.325,0,0,1-.353-.945q0-.547,0-1.094c0-.053,0-.105-.007-.162H17.151v.172c0,.355,0,.71,0,1.065a1.716,1.716,0,0,1-.038.366,1.292,1.292,0,0,1-1.253,1.02c-.458.011-.917.007-1.375,0a1.334,1.334,0,0,1-.391-.067,1.3,1.3,0,0,1-.9-1.231c0-.389,0-.779,0-1.168,0-.052,0-.1-.007-.161Zm9.223,19.076a5.921,5.921,0,1,0,5.926-5.907,5.9,5.9,0,0,0-5.926,5.907M6.6,1.327A8.7,8.7,0,0,0,5.3,1.338V5.255H6.6Zm7.929-.006V5.254h1.286c.033-.24.02-3.833-.013-3.933ZM25.034,5.258V1.322H23.751c-.031.166-.026,3.821.006,3.936Z" transform="translate(1.848 1.849)" fill="#fff" stroke="#fff" stroke-width="0.4"/>
        <path id="Path_181714" data-name="Path 181714" d="M1514.8,1336.739l.786.395,1.322.659c.07.035.142.07.208.111a.651.651,0,0,1,.258.837.658.658,0,0,1-.8.351,1.056,1.056,0,0,1-.149-.063l-2.5-1.247-.04-.02a.683.683,0,0,1-.4-.652c0-.857,0-1.715,0-2.573a.649.649,0,0,1,.55-.669.656.656,0,0,1,.766.579c.005.059,0,.118,0,.177q0,.968,0,1.937v.178" transform="translate(-1489.219 -1312.26)" fill="#fff" stroke="#fff" stroke-width="0.4"/>
      </g>
    </g>
  </g>
</svg>
