<svg xmlns="http://www.w3.org/2000/svg" width="13.499" height="15.239" viewBox="0 0 13.499 15.239">
  <g id="cold" transform="translate(-241.619 -156.602)">
    <path id="Path_82305" data-name="Path 82305" d="M254.215,166.583c.229,0,.4-.317.391-.674a.674.674,0,0,0-.7-.674l-1.636.057a5.739,5.739,0,0,1-.708,0,3.931,3.931,0,0,1-.034-.691v-.756a3.931,3.931,0,0,1,.034-.691,5.745,5.745,0,0,1,.708,0l1.636.057a.674.674,0,0,0,.7-.651c0-.371-.162-.674-.391-.674s-.152-.165.172-.337l.152-.091h0a.684.684,0,0,0-.675-1.19l-.155.088c-.337.185-.5.172-.388-.03s-.074-.506-.4-.674h0a.674.674,0,0,0-.91.28l-.769,1.447c-.175.337-.337.6-.337.614h0a3.869,3.869,0,0,1-.617-.317l-.668-.384a4.029,4.029,0,0,1-.583-.375,6.434,6.434,0,0,1,.358-.61l.87-1.389h0a.675.675,0,0,0-.216-.931c-.314-.2-.674-.2-.793,0s-.219.051-.219-.32v-.185a.674.674,0,1,0-1.349,0v.179c0,.371-.1.516-.219.32s-.479-.189-.793,0a.675.675,0,0,0-.216.931l.87,1.389h0a6.517,6.517,0,0,1,.358.617,4.028,4.028,0,0,1-.583.375l-.654.378h0a3.871,3.871,0,0,1-.617.317s-.175-.287-.337-.614l-.769-1.447h0a.675.675,0,0,0-.911-.28c-.337.175-.509.482-.4.674s-.068.216-.388.03l-.155-.088a.676.676,0,0,0-.671,1.174l.152.091c.337.185.4.337.172.337s-.4.317-.391.674a.674.674,0,0,0,.681.674l1.636-.057a5.738,5.738,0,0,1,.708,0,3.93,3.93,0,0,1,.034.691v.756a3.929,3.929,0,0,1-.034.691,5.738,5.738,0,0,1-.708,0l-1.636-.057a.674.674,0,0,0-.7.651c0,.371.162.674.391.674s.152.165-.172.337l-.152.091h0a.688.688,0,0,0,.691,1.19l.155-.088c.337-.185.5-.172.388.03s.074.506.4.674h0a.675.675,0,0,0,.911-.28l.769-1.447c.175-.337.337-.6.337-.614h0a3.879,3.879,0,0,1,.617.317l.654.378a3.988,3.988,0,0,1,.58.381,6.433,6.433,0,0,1-.358.61l-.87,1.389h0a.675.675,0,0,0,.216.931c.314.2.674.2.793,0s.219-.051.219.337v.168a.674.674,0,0,0,1.349,0v-.179c0-.371.1-.516.219-.337s.479.189.793,0h0a.675.675,0,0,0,.216-.931l-.87-1.389h0a6.509,6.509,0,0,1-.358-.6,4.029,4.029,0,0,1,.583-.375l.654-.378h0a3.868,3.868,0,0,1,.617-.317s.175.287.337.614l.769,1.447h0a.675.675,0,0,0,.911.28c.337-.175.509-.482.4-.674s.068-.216.388-.03l.155.088a.68.68,0,0,0,.688-1.174l-.152-.091c-.324-.186-.4-.337-.172-.337Zm-3.929-1.922a1.3,1.3,0,0,1-.583,1.012l-.759.439a1.291,1.291,0,0,1-1.167,0l-.766-.439a1.3,1.3,0,0,1-.584-1.012v-.877a1.3,1.3,0,0,1,.584-1.012l.759-.439h0a1.291,1.291,0,0,1,1.167,0l.772.439a1.3,1.3,0,0,1,.584,1.012Z" fill="#4482fb" stroke="#4482ff" stroke-width="0.4"/>
  </g>
</svg>
