<svg xmlns="http://www.w3.org/2000/svg" width="20.566" height="22.757" viewBox="0 0 20.566 22.757">
  <g id="Group_52162" data-name="Group 52162" transform="translate(870.761 -7001.145)">
    <path id="Path_72332" data-name="Path 72332" d="M151.477,64.081a9.587,9.587,0,1,0,13.576,0L164.967,64l1.665-1.665,1.234,1.234h0a.861.861,0,0,0,1.205-1.205L165.4,58.685a.861.861,0,0,0-1.205,1.205l1.234,1.234-1.78,1.78h0a9.5,9.5,0,0,0-4.506-1.579V59.4h1.722a.861.861,0,1,0,0-1.722H155.7a.861.861,0,0,0,0,1.722h1.722v1.923a9.529,9.529,0,0,0-5.941,2.755Zm14.667,6.8a7.865,7.865,0,1,1-2.3-5.568,7.865,7.865,0,0,1,2.3,5.568Z" transform="translate(-1019.439 6943.464)" fill="#f45e29"/>
    <path id="Path_72333" data-name="Path 72333" d="M301.263,201.425v-3.444a.861.861,0,0,0-1.722,0v3.444a1.923,1.923,0,1,0,1.722,0Zm-.718,1.894a.2.2,0,0,1-.287-.287.2.2,0,0,1,.347.144A.2.2,0,0,1,300.546,203.32Z" transform="translate(-1161.562 6811.171)" fill="#f45e29"/>
  </g>
</svg>
