<svg xmlns="http://www.w3.org/2000/svg" width="60" height="60" viewBox="0 0 60 60">
  <g id="Group_164494" data-name="Group 164494" transform="translate(-607 -1375)">
    <g id="Path_82293" data-name="Path 82293" transform="translate(607 1375)" fill="#ffa382">
      <path d="M 30 59 C 26.08457946777344 59 22.28681945800781 58.23337936401367 18.71220016479492 56.72145080566406 C 15.25901985168457 55.26087188720703 12.1575403213501 53.16973114013672 9.493900299072266 50.50609970092773 C 6.830269813537598 47.84246063232422 4.739130020141602 44.7409782409668 3.278549909591675 41.28779983520508 C 1.76662003993988 37.71318054199219 1 33.91542053222656 1 30 C 1 26.08457946777344 1.76662003993988 22.28681945800781 3.278549909591675 18.71220016479492 C 4.739130020141602 15.25901985168457 6.830269813537598 12.1575403213501 9.493900299072266 9.493900299072266 C 12.1575403213501 6.830269813537598 15.25901985168457 4.739130020141602 18.71220016479492 3.278549909591675 C 22.28681945800781 1.76662003993988 26.08457946777344 1 30 1 C 33.91542053222656 1 37.71318054199219 1.76662003993988 41.28779983520508 3.278549909591675 C 44.7409782409668 4.739130020141602 47.84246063232422 6.830269813537598 50.50609970092773 9.493900299072266 C 53.16973114013672 12.1575403213501 55.26087188720703 15.25901985168457 56.72145080566406 18.71220016479492 C 58.23337936401367 22.28681945800781 59 26.08457946777344 59 30 C 59 33.91542053222656 58.23337936401367 37.71318054199219 56.72145080566406 41.28779983520508 C 55.26087188720703 44.7409782409668 53.16973114013672 47.84246063232422 50.50609970092773 50.50609970092773 C 47.84246063232422 53.16973114013672 44.7409782409668 55.26087188720703 41.28779983520508 56.72145080566406 C 37.71318054199219 58.23337936401367 33.91542053222656 59 30 59 Z" stroke="none"/>
      <path d="M 30 2 C 26.21913909912109 2 22.55244064331055 2.740039825439453 19.10174942016602 4.199558258056641 C 15.76776885986328 5.609710693359375 12.77312850952148 7.628890991210938 10.20101165771484 10.20101165771484 C 7.628890991210938 12.77312850952148 5.609710693359375 15.76776885986328 4.199558258056641 19.10174942016602 C 2.740039825439453 22.55244064331055 2 26.21913909912109 2 30 C 2 33.78086090087891 2.740039825439453 37.44755935668945 4.199558258056641 40.89825057983398 C 5.609710693359375 44.23223114013672 7.628890991210938 47.22686767578125 10.20101165771484 49.79898834228516 C 12.77312850952148 52.37110900878906 15.76776885986328 54.39028930664062 19.10174942016602 55.80043792724609 C 22.55244064331055 57.25996017456055 26.21913909912109 58 30 58 C 33.78086090087891 58 37.44755935668945 57.25996017456055 40.89825057983398 55.80043792724609 C 44.23223114013672 54.39028930664062 47.22686767578125 52.37110900878906 49.79898834228516 49.79898834228516 C 52.37110900878906 47.22686767578125 54.39028930664062 44.23223114013672 55.80043792724609 40.89825057983398 C 57.25996017456055 37.44755935668945 58 33.78086090087891 58 30 C 58 26.21913909912109 57.25996017456055 22.55244064331055 55.80043792724609 19.10174942016602 C 54.39028930664062 15.76776885986328 52.37110900878906 12.77312850952148 49.79898834228516 10.20101165771484 C 47.22686767578125 7.628890991210938 44.23223114013672 5.609710693359375 40.89825057983398 4.199558258056641 C 37.44755935668945 2.740039825439453 33.78086090087891 2 30 2 M 30 0 C 46.56853866577148 0 60 13.43146133422852 60 30 C 60 46.56853866577148 46.56853866577148 60 30 60 C 13.43146133422852 60 0 46.56853866577148 0 30 C 0 13.43146133422852 13.43146133422852 0 30 0 Z" stroke="none" fill="#f45e29"/>
    </g>
  </g>
</svg>
