<svg xmlns="http://www.w3.org/2000/svg" width="12.984" height="14.839" viewBox="0 0 12.984 14.839">
  <path id="Icon_awesome-fire-alt" data-name="Icon awesome-fire-alt" d="M9.378,1.484A17.314,17.314,0,0,0,7.748,3.222,22.487,22.487,0,0,0,4.869,0C2.021,2.642,0,6.085,0,8.162a6.587,6.587,0,0,0,6.492,6.678,6.587,6.587,0,0,0,6.492-6.678c0-1.544-1.507-4.728-3.607-6.678Zm-.564,9.873a3.9,3.9,0,0,1-2.238.7,3.569,3.569,0,0,1-3.793-3.63c0-1.119.7-2.105,2.11-3.789.2.231,2.864,3.633,2.864,3.633l1.7-1.938c.12.2.229.393.327.579A3.457,3.457,0,0,1,8.813,11.357Z" fill="#f44040"/>
</svg>
