<svg xmlns="http://www.w3.org/2000/svg" width="42.004" height="26.002" viewBox="0 0 42.004 26.002">
  <g id="Group_48587" data-name="Group 48587" transform="translate(-932.998 -277)">
    <ellipse id="Ellipse_1248" data-name="Ellipse 1248" cx="8" cy="10" rx="8" ry="10" transform="translate(946 280)" fill="#e46179"/>
    <path id="Exclusion_1" data-name="Exclusion 1" d="M-18351-3644a12.865,12.865,0,0,1-8-2.753,12.862,12.862,0,0,1-8,2.753,12.922,12.922,0,0,1-9.2-3.809A12.921,12.921,0,0,1-18380-3657a12.914,12.914,0,0,1,3.809-9.191,12.924,12.924,0,0,1,9.2-3.808,12.866,12.866,0,0,1,8,2.752,12.867,12.867,0,0,1,8-2.752,12.924,12.924,0,0,1,9.2,3.808A12.914,12.914,0,0,1-18338-3657a12.921,12.921,0,0,1-3.809,9.195A12.922,12.922,0,0,1-18351-3644Zm-8-23.249a12.93,12.93,0,0,0-5,10.246,12.936,12.936,0,0,0,5,10.25,12.936,12.936,0,0,0,5-10.25A12.931,12.931,0,0,0-18359-3667.247Z" transform="translate(19313 3947)" fill="#dedede"/>
  </g>
</svg>
