<svg viewBox="0 0 50 30" xmlns="http://www.w3.org/2000/svg"><path d="m36.9 5c-3.1 0-5.9 1.4-7.8 3.7-.2.2-.3.4-.5.7-.1.1-.2.2-.2.4-.1.1-.2.3-.2.4-.1.1-.1.3-.2.4s-.1.3-.2.4-.1.3-.2.4c-.1.2-.1.3-.2.5 0 .1-.1.3-.1.4-.1.2-.1.4-.1.5s-.1.2-.1.4-.1.4-.1.6v2.6c0 .2.1.4.1.6 0 .1.1.2.1.4s.1.4.1.5.1.3.1.4c.1.2.1.3.2.5.1.1.1.3.2.4s.1.3.2.4.1.3.2.4.2.3.2.4c.1.1.1.2.2.4.2.2.3.5.5.7 1.8 2.2 4.6 3.7 7.8 3.7 5.5 0 10-4.5 10-10 0-5.7-4.5-10.2-10-10.2zm-23.8 0c-3.1 0-5.9 1.4-7.7 3.7-.2.2-.4.4-.5.7l-.3.3c-.1.2-.1.3-.2.4s-.1.3-.2.4c-.1.2-.2.3-.2.5-.1.1-.1.3-.2.4-.1.2-.1.3-.2.5 0 .1-.1.3-.1.4-.1.2-.1.4-.1.5s-.1.2-.1.4-.1.4-.1.6v2.6c0 .2.1.4.1.6 0 .1.1.2.1.4s.1.4.1.5.1.3.1.4c.1.2.1.3.2.5.1 0 .1.1.2.2s.1.3.2.4.1.3.2.4.2.3.2.4c.1.1.1.2.2.4.2.2.3.5.5.7 1.9 2.3 4.7 3.7 7.8 3.7 5.5 0 10-4.5 10-10s-4.5-10-10-10z" fill="#ea5177"/></svg>