<svg viewBox="0 0 16 16" xmlns="http://www.w3.org/2000/svg">
    <path d="M7.283 6.83h1.221V1.106H7.283zm0 8.319h1.221V9.426H7.283zm-4.614-4.934H3.89V.982H2.67zm0 4.809H3.89v-2.597H2.67zM13.312 5.79h-1.221v9.234h1.221zm0-4.808h-1.221v2.597h1.221z"></path>
    <path d="M3.3 13.35a1.8 1.8 0 1 1 0-3.6 1.8 1.8 0 0 1 0 3.6zm0-1.05a.8.8 0 1 0 0-1.6.8.8 0 0 0 0 1.6zM7.9 10a1.8 1.8 0 1 1 0-3.6 1.8 1.8 0 0 1 0 3.6zm0-1.05a.8.8 0 1 0 0-1.6.8.8 0 0 0 0 1.6zm4.8-2.6a1.8 1.8 0 1 1 0-3.6 1.8 1.8 0 0 1 0 3.6zm0-1.05a.8.8 0 1 0 0-1.6.8.8 0 0 0 0 1.6z"></path>
</svg>