<svg xmlns="http://www.w3.org/2000/svg" xmlns:xlink="http://www.w3.org/1999/xlink" width="30" height="30" viewBox="0 0 30 30">
  <defs>
    <filter id="Ellipse_1891">
      <feOffset input="SourceAlpha"/>
      <feGaussianBlur stdDeviation="1" result="blur"/>
      <feFlood flood-opacity="0.475" result="color"/>
      <feComposite operator="out" in="SourceGraphic" in2="blur"/>
      <feComposite operator="in" in="color"/>
      <feComposite operator="in" in2="SourceGraphic"/>
    </filter>
    <filter id="Path_81195" x="2.454" y="4.469" width="25.092" height="25.086" filterUnits="userSpaceOnUse">
      <feOffset dy="2" input="SourceAlpha"/>
      <feGaussianBlur stdDeviation="1" result="blur-2"/>
      <feFlood flood-opacity="0.161"/>
      <feComposite operator="in" in2="blur-2"/>
      <feComposite in="SourceGraphic"/>
    </filter>
  </defs>
  <g id="Group_53649" data-name="Group 53649" transform="translate(-232 -22)">
    <g data-type="innerShadowGroup">
      <circle id="Ellipse_1891-2" data-name="Ellipse 1891" cx="15" cy="15" r="15" transform="translate(232 22)" fill="#fa9e2d"/>
      <g transform="matrix(1, 0, 0, 1, 232, 22)" filter="url(#Ellipse_1891)">
        <circle id="Ellipse_1891-3" data-name="Ellipse 1891" cx="15" cy="15" r="15" fill="#fff"/>
      </g>
      <g id="Ellipse_1891-4" data-name="Ellipse 1891" transform="translate(232 22)" fill="none" stroke="#fff" stroke-width="1">
        <circle cx="15" cy="15" r="15" stroke="none"/>
        <circle cx="15" cy="15" r="14.5" fill="none"/>
      </g>
    </g>
    <g transform="matrix(1, 0, 0, 1, 232, 22)" filter="url(#Path_81195)">
      <path id="Path_81195-2" data-name="Path 81195" d="M1.236,12.561l4.622.7,2.062,4.35a1.44,1.44,0,0,0,2.627,0l2.062-4.35,4.6-.7a1.484,1.484,0,0,0,1.18-1.039,1.573,1.573,0,0,0-.368-1.563L14.686,6.574l.789-4.8a1.553,1.553,0,0,0-.59-1.49,1.412,1.412,0,0,0-1.544-.1L9.221,2.439,5.1.182A1.417,1.417,0,0,0,3.575.3a1.558,1.558,0,0,0-.59,1.471l.789,4.8L.438,9.962A1.573,1.573,0,0,0,.07,11.517,1.486,1.486,0,0,0,1.236,12.561Z" transform="translate(24.23 24.23) rotate(180)" fill="#fff" stroke="#fa9e2d" stroke-width="0.6"/>
    </g>
  </g>
</svg>
