<svg xmlns="http://www.w3.org/2000/svg" width="56.956" height="51.559" viewBox="0 0 56.956 51.559">
  <g id="noun-apply-2714905" transform="translate(-84.002 -39.197)">
    <path id="Path_85114" data-name="Path 85114" d="M126.808,85.72V87.7H97.851V63.718a12.065,12.065,0,0,0,6.475-2.878h16.547a1.587,1.587,0,0,0,1.559-1.559,1.548,1.548,0,0,0-1.559-1.559H106.963a12.7,12.7,0,0,0,1.619-4.736h18.225V70.013l3.057-3.417V52.386a2.4,2.4,0,0,0-2.4-2.4H108.522A12.307,12.307,0,1,0,94.793,63.718v24.64a2.4,2.4,0,0,0,2.4,2.4h30.216a2.4,2.4,0,0,0,2.4-2.4V82.722l-1.978,2.158a1.994,1.994,0,0,1-1.019.84ZM87.059,51.548a9.293,9.293,0,1,1,9.293,9.293A9.3,9.3,0,0,1,87.059,51.548Z" fill="#f45e29"/>
    <path id="Path_85115" data-name="Path 85115" d="M255.8,284.239h17.086a1.548,1.548,0,0,0,1.559-1.559,1.512,1.512,0,0,0-1.559-1.559H255.8a1.559,1.559,0,0,0,0,3.117Z" transform="translate(-152.014 -216.025)" fill="#f45e29"/>
    <path id="Path_85116" data-name="Path 85116" d="M274.446,352.116a1.548,1.548,0,0,0-1.559-1.559H255.8a1.559,1.559,0,0,0,0,3.117h17.086a1.63,1.63,0,0,0,1.559-1.559Z" transform="translate(-152.015 -278.027)" fill="#f45e29"/>
    <path id="Path_85117" data-name="Path 85117" d="M254.237,421.467a1.548,1.548,0,0,0,1.559,1.559h14.748l.539-3.057H255.8a1.463,1.463,0,0,0-1.559,1.5Z" transform="translate(-152.009 -340.004)" fill="#f45e29"/>
    <path id="Path_85118" data-name="Path 85118" d="M458.92,304.8l9.121-10.179,4.331,3.88-9.121,10.179Z" transform="translate(-334.78 -228.076)" fill="#f45e29"/>
    <path id="Path_85119" data-name="Path 85119" d="M429.5,410.12l3.657-1.019a.97.97,0,0,0,.42-.24l1.079-1.2-4.317-3.9-1.079,1.2a1.5,1.5,0,0,0-.24.42l-.66,3.776a.9.9,0,0,0,1.139.959Z" transform="translate(-307.489 -325.538)" fill="#f45e29"/>
    <path id="Path_85120" data-name="Path 85120" d="M562.692,262.4l-3-2.7a.927.927,0,0,0-1.259.06l-1.8,2.038,4.317,3.9,1.8-2.038a.869.869,0,0,0-.06-1.259Z" transform="translate(-422.036 -196.705)" fill="#f45e29"/>
    <path id="Path_85121" data-name="Path 85121" d="M157.96,118.914a1.528,1.528,0,0,0-2.278-2.038l-3.717,4.257-1.8-1.8a1.526,1.526,0,1,0-2.158,2.158l2.938,2.938a1.445,1.445,0,0,0,1.079.42h.06a1.281,1.281,0,0,0,1.079-.539Z" transform="translate(-56.752 -68.925)" fill="#f45e29"/>
  </g>
</svg>
