<svg xmlns="http://www.w3.org/2000/svg" width="20.412" height="20.416" viewBox="0 0 20.412 20.416">
  <g id="Group_75464" data-name="Group 75464" transform="translate(-1047.848 -311.731)">
    <g id="Group_51412" data-name="Group 51412" transform="translate(1047.998 314.026)">
      <g id="Group_51411" data-name="Group 51411" transform="translate(0 0)">
        <path id="Path_71169" data-name="Path 71169" d="M17.172,56.761a.8.8,0,0,0-.8.8v4.857a1.021,1.021,0,0,1-1.016,1.02H2.619a1.021,1.021,0,0,1-1.02-1.02V49.684a1.021,1.021,0,0,1,1.02-1.02H7.476a.8.8,0,1,0,0-1.6H2.619A2.622,2.622,0,0,0,0,49.684V62.417a2.622,2.622,0,0,0,2.619,2.618H15.353a2.622,2.622,0,0,0,2.616-2.619V57.56a.8.8,0,0,0-.8-.8Z" transform="translate(0 -47.065)" fill="#f45e29" stroke="#fff" stroke-width="0.3"/>
      </g>
    </g>
    <g id="Group_51414" data-name="Group 51414" transform="translate(1052.025 311.997)">
      <g id="Group_51413" data-name="Group 51413" transform="translate(0 0)">
        <path id="Path_71170" data-name="Path 71170" d="M156.89,4.312,152.834.257a.89.89,0,0,0-1.259,0l-10.13,10.129a.89.89,0,0,0-.264.629v4.055a.89.89,0,0,0,.89.89h4.055a.89.89,0,0,0,.629-.264L156.89,5.571a.89.89,0,0,0,0-1.259Zm-11.126,9.869h-2.793V11.389l9.24-9.239L155,4.943Z" transform="translate(-141.181 0.004)" fill="#f45e29" stroke="#fff" stroke-width="0.4"/>
      </g>
    </g>
  </g>
</svg>
