<svg xmlns="http://www.w3.org/2000/svg" xmlns:xlink="http://www.w3.org/1999/xlink" width="34" height="34" viewBox="0 0 34 34">
  <defs>
    <linearGradient id="linear-gradient" y1="0.5" x2="1" y2="0.5" gradientUnits="objectBoundingBox">
      <stop offset="0.1" stop-color="#f79548"/>
      <stop offset="1" stop-color="#ffc453"/>
    </linearGradient>
  </defs>
  <g id="Report" transform="translate(34 34) rotate(180)">
    <rect id="Rectangle_909" data-name="Rectangle 909" width="34" height="34" transform="translate(0 34) rotate(-90)" opacity="0" fill="url(#linear-gradient)"/>
    <g id="Group_42769" data-name="Group 42769" transform="translate(27 27) rotate(180)">
      <path id="Path_35350" data-name="Path 35350" d="M19.833,4.081h-2V3.188a.588.588,0,0,0-1.176,0v3.07a1.145,1.145,0,0,0-.588,1,1.176,1.176,0,1,0,1.764-1v-1h2A2.17,2.17,0,0,1,22.01,7.434V9.241H3.676V7.434A2.184,2.184,0,0,1,5.853,5.257H6.877V4.081H5.853A3.355,3.355,0,0,0,2.5,7.434V19.889a3.355,3.355,0,0,0,3.353,3.353H19.833a3.355,3.355,0,0,0,3.353-3.353V7.434A3.355,3.355,0,0,0,19.833,4.081ZM22.01,19.889a2.17,2.17,0,0,1-2.177,2.177H5.853a2.17,2.17,0,0,1-2.177-2.177V10.417H22.032v9.472Z" transform="translate(-2.5 -2.6)" fill="#f45e29"/>
      <path id="Path_35351" data-name="Path 35351" d="M20.064,51.628h.981a1.264,1.264,0,0,0,0-2.528h-.981A1.265,1.265,0,0,0,18.8,50.364,1.279,1.279,0,0,0,20.064,51.628Z" transform="translate(-15.251 -38.976)" fill="#f45e29"/>
      <path id="Path_35352" data-name="Path 35352" d="M43.264,51.628h.981a1.264,1.264,0,0,0,0-2.528h-.981a1.264,1.264,0,0,0,0,2.528Z" transform="translate(-33.4 -38.976)" fill="#f45e29"/>
      <path id="Path_35353" data-name="Path 35353" d="M66.464,51.628h.981a1.264,1.264,0,0,0,0-2.528h-.981a1.264,1.264,0,0,0,0,2.528Z" transform="translate(-51.549 -38.976)" fill="#f45e29"/>
      <path id="Path_35354" data-name="Path 35354" d="M20.064,72.128h.981a1.264,1.264,0,0,0,0-2.528h-.981A1.265,1.265,0,0,0,18.8,70.864,1.279,1.279,0,0,0,20.064,72.128Z" transform="translate(-15.251 -55.012)" fill="#f45e29"/>
      <path id="Path_35355" data-name="Path 35355" d="M43.264,72.128h.981a1.264,1.264,0,1,0,0-2.528h-.981a1.264,1.264,0,1,0,0,2.528Z" transform="translate(-33.4 -55.012)" fill="#f45e29"/>
      <path id="Path_35356" data-name="Path 35356" d="M66.464,72.128h.981a1.264,1.264,0,0,0,0-2.528h-.981a1.264,1.264,0,0,0,0,2.528Z" transform="translate(-51.549 -55.012)" fill="#f45e29"/>
      <path id="Path_35357" data-name="Path 35357" d="M25.577,8.418a1.166,1.166,0,0,0,.588-2.179v-1h6.668V4.082H26.165V3.188a.588.588,0,1,0-1.177,0V6.261a1.146,1.146,0,0,0-.588,1A1.167,1.167,0,0,0,25.577,8.418Z" transform="translate(-19.634 -2.6)" fill="#f45e29"/>
    </g>
  </g>
</svg>
