<svg xmlns="http://www.w3.org/2000/svg" width="40" height="40" viewBox="0 0 40 40">
  <g id="Group_164485" data-name="Group 164485" transform="translate(-390 -495)">
    <circle id="Ellipse_1248" data-name="Ellipse 1248" cx="20" cy="20" r="20" transform="translate(390 495)" fill="#4482ff"/>
    <g id="noun-demo-1568660" transform="translate(328.991 478.746)">
      <path id="Path_82290" data-name="Path 82290" d="M84.317,281.943a1.243,1.243,0,0,0-.946.452l-1.355,1.745a15.039,15.039,0,0,0-2.067-2.993,4.146,4.146,0,0,0-1.179-.616,3.044,3.044,0,0,1-.625.509,4,4,0,0,1,1.388.634c.245.194,2.415,3.65,2.415,3.65l.6-.772,1.343-1.729a.566.566,0,0,1,.428-.209.483.483,0,0,1,.328.125.68.68,0,0,1-.043.9l-.013.015-.012.016-2.36,3.1a.63.63,0,0,1-.481.261.481.481,0,0,1-.3-.106l-1.962-3.32V288.8a.756.756,0,0,1-.75.76H74.371a.745.745,0,0,1-.536-.219.676.676,0,0,1-.2-.49l.016-5.43-1.863,4.447a.785.785,0,0,1-.651.5.388.388,0,0,1-.157-.033.756.756,0,0,1-.23-.959l.51-1.284,1.185-2.981a3.819,3.819,0,0,1,2.489-2.1,3.032,3.032,0,0,1-.6-.507,4.5,4.5,0,0,0-2.5,2.33l-1.705,4.291a1.4,1.4,0,0,0,.583,1.821,1.057,1.057,0,0,0,.429.09,1.449,1.449,0,0,0,1.267-.9l.564-1.347-.006,2.06a1.383,1.383,0,0,0,1.405,1.384h4.356a1.427,1.427,0,0,0,1.422-1.432v-2.73l.762,1.291a1.161,1.161,0,0,0,.826.349,1.3,1.3,0,0,0,1.012-.521l2.363-3.1a1.343,1.343,0,0,0-.007-1.831,1.157,1.157,0,0,0-.788-.307Z" transform="translate(0 -243.973)" fill="#fff" stroke="#fff" stroke-width="0.5"/>
      <path id="Path_82291" data-name="Path 82291" d="M216.372,26.254H202.594A1.348,1.348,0,0,0,201.25,27.6v3.773a3,3,0,0,1,.672-.29V27.6a.673.673,0,0,1,.672-.672h13.778a.673.673,0,0,1,.672.672V37.68a.673.673,0,0,1-.672.672h-4.058a2.069,2.069,0,0,1-.011.672h4.069a1.348,1.348,0,0,0,1.344-1.344V27.6a1.348,1.348,0,0,0-1.344-1.344Z" transform="translate(-125.708 0)" fill="#fff" stroke="#fff" stroke-width="0.5"/>
      <path id="Path_82292" data-name="Path 82292" d="M181.862,170.955a2.352,2.352,0,1,0-2.352-2.353A2.352,2.352,0,0,0,181.862,170.955Zm0-4.033a1.68,1.68,0,1,1-1.68,1.68A1.682,1.682,0,0,1,181.862,166.922Z" transform="translate(-105.172 -134.434)" fill="#fff" stroke="#fff" stroke-width="0.5"/>
    </g>
  </g>
</svg>
