<svg xmlns="http://www.w3.org/2000/svg" width="20.137" height="16.652" viewBox="0 0 20.137 16.652">
  <path id="noun-alert-887235" d="M31.276,14.976,22.525.71a1.143,1.143,0,0,0-2.118.013L11.657,14.97c-.582.951-.147,1.686.967,1.686H30.309c1.115,0,1.55-.73.967-1.68ZM21.459,3.868c.56,0,.994.619.965,1.376L22.247,9.8c-.029.756-.384,1.375-.79,1.375s-.762-.619-.791-1.375l-.175-4.559c-.029-.757.406-1.376.968-1.376Zm0,10.744a1.141,1.141,0,0,1-1.178-1.224,1.185,1.185,0,1,1,2.369,0A1.153,1.153,0,0,1,21.459,14.612Z" transform="translate(-11.398 -0.004)" fill="#f3b85c"/>
</svg>
