<svg id="noun_filter_1938478" xmlns="http://www.w3.org/2000/svg" width="14.091" height="10" viewBox="0 0 14.091 10">
  <g id="Слой_2" data-name="Слой 2">
    <g id="Слой_1" data-name="Слой 1">
      <path id="Path_53054" data-name="Path 53054" d="M4.559,0A2.355,2.355,0,0,0,2.267,1.818H.541a.54.54,0,1,0,0,1.081H2.267a2.357,2.357,0,0,0,4.584,0h6.7a.54.54,0,1,0,0-1.081h-6.7A2.355,2.355,0,0,0,4.559,0Zm0,3.637A1.272,1.272,0,1,1,5.832,2.365,1.273,1.273,0,0,1,4.559,3.637Z" transform="translate(0)" fill="#85888a"/>
      <path id="Path_53055" data-name="Path 53055" d="M9.551,8.3a2.355,2.355,0,0,0-2.292,1.818H.541a.54.54,0,1,0,0,1.081h6.7a2.357,2.357,0,0,0,4.584,0h1.725a.54.54,0,1,0,0-1.081H11.824A2.355,2.355,0,0,0,9.551,8.3Zm0,3.624a1.272,1.272,0,1,1,1.273-1.272A1.273,1.273,0,0,1,9.551,11.924Z" transform="translate(0 -3.009)" fill="#85888a"/>
    </g>
  </g>
</svg>
