<svg xmlns="http://www.w3.org/2000/svg" width="16.516" height="7.634" viewBox="0 0 16.516 7.634">
  <g id="link_icon" data-name="link icon" transform="translate(0.164 0.125)">
    <path id="Path_81817" data-name="Path 81817" d="M286.646,163.33h-1.477a.739.739,0,0,0,0,1.477h1.477a2.215,2.215,0,0,1,0,4.43h-2.953a2.217,2.217,0,0,1-2.215-2.215.721.721,0,0,0-.157-.434.857.857,0,0,0-.058-.09.651.651,0,0,0-.1-.067.693.693,0,0,0-.865.017.662.662,0,0,0-.079.05.905.905,0,0,0-.214.524,3.7,3.7,0,0,0,3.692,3.692h2.954a3.692,3.692,0,0,0,0-7.384Z" transform="translate(-274.121 -163.33)" fill="#f45e29" stroke="#fff" stroke-width="0.25"/>
    <path id="Path_81818" data-name="Path 81818" d="M99.373,169.238H97.9a2.215,2.215,0,0,1,0-4.43h2.953a2.218,2.218,0,0,1,2.215,2.215.739.739,0,0,0,1.477,0,3.7,3.7,0,0,0-3.692-3.692H97.9a3.692,3.692,0,0,0,0,7.384h1.477a.739.739,0,0,0,0-1.477Z" transform="translate(-94.232 -163.331)" fill="#f45e29" stroke="#fff" stroke-width="0.25"/>
  </g>
</svg>
