<svg xmlns="http://www.w3.org/2000/svg" width="39.006" height="15.998" viewBox="0 0 39.006 15.998">
  <g id="Group_164315" data-name="Group 164315" transform="translate(-761.327 -767.5)">
    <g id="noun-soundwave-827472" transform="translate(650.139 686.5)">
      <path id="Path_82274" data-name="Path 82274" d="M41.688,213.833h.028v5h-.028Z" transform="translate(70 -127.333)" fill="#dedede" stroke="#f45e29" stroke-linejoin="round" stroke-width="1"/>
      <path id="Path_82275" data-name="Path 82275" d="M101.167,235.883h.028v3.333h-.028Z" transform="translate(12.767 -148.55)" fill="#dedede" stroke="#f45e29" stroke-linejoin="round" stroke-width="1"/>
      <path id="Path_82276" data-name="Path 82276" d="M160.659,147.665h.028v10h-.028Z" transform="translate(-44.477 -63.665)" fill="#dedede" stroke="#f45e29" stroke-linejoin="round" stroke-width="1"/>
      <path id="Path_82277" data-name="Path 82277" d="M220.141,81.5h.028v15h-.028Z" transform="translate(-101.712)" fill="#dedede" stroke="#f45e29" stroke-linejoin="round" stroke-width="1"/>
      <path id="Path_82278" data-name="Path 82278" d="M279.633,125.606h.028v11.665h-.028Z" transform="translate(-158.956 -42.44)" fill="#dedede" stroke="#f45e29" stroke-linejoin="round" stroke-width="1"/>
      <path id="Path_82279" data-name="Path 82279" d="M339.115,169.724h.028v8.332h-.028Z" transform="translate(-216.191 -84.891)" fill="#dedede" stroke="#f45e29" stroke-linejoin="round" stroke-width="1"/>
      <path id="Path_82280" data-name="Path 82280" d="M398.6,213.833h.028v5H398.6Z" transform="translate(-273.427 -127.333)" fill="#dedede" stroke="#f45e29" stroke-linejoin="round" stroke-width="1"/>
      <path id="Path_82281" data-name="Path 82281" d="M458.089,191.774h.028v6.666h-.028Z" transform="translate(-330.67 -106.108)" fill="#dedede" stroke="#f45e29" stroke-linejoin="round" stroke-width="1"/>
      <path id="Path_82282" data-name="Path 82282" d="M517.571,235.883h.028v3.333h-.028Z" transform="translate(-387.906 -148.55)" fill="#dedede" stroke="#f45e29" stroke-linejoin="round" stroke-width="1"/>
    </g>
    <g id="noun-soundwave-827472-2" data-name="noun-soundwave-827472" transform="translate(781.827 768)">
      <path id="Path_82274-2" data-name="Path 82274" d="M41.688,213.833h.028v5h-.028Z" transform="translate(-41.688 -208.833)" fill="#dedede" stroke="#f45e29" stroke-linejoin="round" stroke-width="1"/>
      <path id="Path_82275-2" data-name="Path 82275" d="M101.167,235.883h.028v3.333h-.028Z" transform="translate(-98.92 -230.05)" fill="#dedede" stroke="#f45e29" stroke-linejoin="round" stroke-width="1"/>
      <path id="Path_82276-2" data-name="Path 82276" d="M160.659,147.665h.028v10h-.028Z" transform="translate(-156.164 -145.165)" fill="#dedede" stroke="#f45e29" stroke-linejoin="round" stroke-width="1"/>
      <path id="Path_82277-2" data-name="Path 82277" d="M220.141,81.5h.028v15h-.028Z" transform="translate(-213.4 -81.5)" fill="#dedede" stroke="#f45e29" stroke-linejoin="round" stroke-width="1"/>
      <path id="Path_82278-2" data-name="Path 82278" d="M279.633,125.606h.028v11.665h-.028Z" transform="translate(-270.643 -123.94)" fill="#dedede" stroke="#f45e29" stroke-linejoin="round" stroke-width="1"/>
      <path id="Path_82279-2" data-name="Path 82279" d="M339.115,169.724h.028v8.332h-.028Z" transform="translate(-327.879 -166.391)" fill="#dedede" stroke="#f45e29" stroke-linejoin="round" stroke-width="1"/>
      <path id="Path_82280-2" data-name="Path 82280" d="M398.6,213.833h.028v5H398.6Z" transform="translate(-385.114 -208.833)" fill="#dedede" stroke="#f45e29" stroke-linejoin="round" stroke-width="1"/>
      <path id="Path_82281-2" data-name="Path 82281" d="M458.089,191.774h.028v6.666h-.028Z" transform="translate(-442.358 -187.608)" fill="#dedede" stroke="#f45e29" stroke-linejoin="round" stroke-width="1"/>
      <path id="Path_82282-2" data-name="Path 82282" d="M517.571,235.883h.028v3.333h-.028Z" transform="translate(-499.593 -230.05)" fill="#dedede" stroke="#f45e29" stroke-linejoin="round" stroke-width="1"/>
    </g>
  </g>
</svg>
