<svg xmlns="http://www.w3.org/2000/svg" width="19" height="19" viewBox="0 0 19 19">
  <g id="Group_164480" data-name="Group 164480" transform="translate(-240 -159)">
    <circle id="Ellipse_1354" data-name="Ellipse 1354" cx="9.5" cy="9.5" r="9.5" transform="translate(240 159)" fill="#f45e29"/>
    <path id="check" d="M388.7,3839a.975.975,0,0,0-.691.328c-1.592,1.719-3.045,3.4-4.573,5.086l-1.8-1.552a.958.958,0,0,0-1.414.169,1.143,1.143,0,0,0,.157,1.524h0l2.514,2.168a.953.953,0,0,0,1.341-.084c1.809-1.954,3.429-3.872,5.2-5.781a1.145,1.145,0,0,0,.013-1.533A.969.969,0,0,0,388.7,3839Z" transform="translate(-135 -3673.998)" fill="#fff"/>
  </g>
</svg>
