<svg xmlns="http://www.w3.org/2000/svg" width="81.427" height="39.901" viewBox="0 0 81.427 39.901">
  <path id="Path_69702" data-name="Path 69702" d="M774.009,230.762h-6.143v2.348h5.645v3.772h-5.645V239.8h6.357v3.771H763.643v-16.6h10.366Zm9.179,7.591-3.178,5.218h-4.436v-.64l5.361-8.16-4.791-7.163v-.64h4.341l2.7,4.317h.119l2.775-4.317h4.27v.64l-4.792,7.163,5.384,8.16v.64h-4.459l-3.155-5.218Zm8.064-7.591v-3.8h12.334v3.8h-4.056V243.57h-4.2V230.762Zm28.511,12.192v.617h-4.744l-2.847-4.886h-2.206v4.886H805.72v-16.6H813c6.523.024,7.709,7.875,3.511,10.721ZM813,230.762c-1-.024-2.04,0-3.036,0v4.151H813C815.3,234.913,815.421,230.785,813,230.762ZM778.3,244.92h1.518v16.652h-4.341v-7.4l-3.534,3.7h-.475l-3.51-3.7v7.4h-4.341V244.92h1.565l6.5,7.211Zm12.855-.166,7.5,16.2v.617H794.5l-.973-2.087h-6.547l-.972,2.087h-4.151v-.617l7.472-16.2h1.826m-.925,6.736-1.874,4.364h3.8Zm24.146,9.464v.617h-4.744l-2.846-4.886h-2.206v4.886h-4.246v-16.6h7.282c6.523.024,7.709,7.875,3.51,10.721Zm-6.76-12.192c-1-.024-2.04,0-3.036,0v4.151h3.036C809.918,252.914,810.037,248.786,807.617,248.763Zm8.87,12.809v-16.6H820.8v6.286h.308c4.246,0,4.032-3.179,4.032-6.286h4.365c0,3.392.095,6.523-3.2,8.634l4.507,7.306v.664h-4.72l-3.653-6.428a9.608,9.608,0,0,1-1.637.095v6.333Zm24.431-4.886c0-1.162-1.376-1.423-3.036-1.518-3.606-.261-5.978-1.494-6.025-5.1-.142-7.164,12.761-7.164,12.667,0h-4.033c0-2.206-4.459-2.016-4.6-.047-.095,1.257,1.139,1.518,2.633,1.684,3.3.356,6.523.854,6.523,5,0,6.974-13.521,7.092-13.426-.214h4.1C835.724,258.607,840.919,258.63,840.919,256.685Zm-5.029-13.11a1.354,1.354,0,0,0,.855-1.063l2.851-18.9a1.354,1.354,0,0,0-2.031-1.366l-16.114,9.575a1.354,1.354,0,0,0-.172,2.207l3.655,3.025a1.354,1.354,0,0,0,1.727-2.086l-2.175-1.8,12.005-7.134-2.067,13.709-2.126-1.758a1.354,1.354,0,0,0-1.421-.19l-1.325.6,2.526-3.039A1.354,1.354,0,1,0,830,233.623l-6.287,7.563a1.354,1.354,0,0,0,1.6,2.1l5.915-2.675,3.32,2.744a1.352,1.352,0,0,0,1.346.221Z" transform="translate(-763.619 -222.056)" fill="#fff"/>
</svg>
