<svg xmlns="http://www.w3.org/2000/svg" width="473" height="227" viewBox="0 0 473 227">
  <g id="Group_47094" data-name="Group 47094" transform="translate(-128 -165)">
    <g id="Group_19888" data-name="Group 19888" transform="translate(150.852 235.392)">
      <path id="Rectangle_9653" data-name="Rectangle 9653" d="M3,0H37a3,3,0,0,1,3,3V139a0,0,0,0,1,0,0H0a0,0,0,0,1,0,0V3A3,3,0,0,1,3,0Z" transform="translate(-22.852 17.608)" fill="#4482ff"/>
    </g>
    <g id="Group_37747" data-name="Group 37747" transform="translate(162.573 288.273)">
      <path id="Rectangle_9653-2" data-name="Rectangle 9653" d="M3,0H37a3,3,0,0,1,3,3V84a0,0,0,0,1,0,0H0a0,0,0,0,1,0,0V3A3,3,0,0,1,3,0Z" transform="translate(5.426 19.727)" fill="#e46179"/>
    </g>
    <g id="Group_19888-2" data-name="Group 19888" transform="translate(285.2 187.068)">
      <path id="Rectangle_9653-3" data-name="Rectangle 9653" d="M3,0H37a3,3,0,0,1,3,3V186a0,0,0,0,1,0,0H0a0,0,0,0,1,0,0V3A3,3,0,0,1,3,0Z" transform="translate(-26.2 18.932)" fill="#4482ff"/>
    </g>
    <g id="Group_37747-2" data-name="Group 37747" transform="translate(306.921 263.677)">
      <path id="Rectangle_9653-4" data-name="Rectangle 9653" d="M3,0H37a3,3,0,0,1,3,3V105a0,0,0,0,1,0,0H0a0,0,0,0,1,0,0V3A3,3,0,0,1,3,0Z" transform="translate(-7.921 23.323)" fill="#e46179"/>
    </g>
    <g id="Group_19888-3" data-name="Group 19888" transform="translate(419.389 335.005)">
      <path id="Rectangle_9653-5" data-name="Rectangle 9653" d="M3,0H37a3,3,0,0,1,3,3V38a0,0,0,0,1,0,0H0a0,0,0,0,1,0,0V3A3,3,0,0,1,3,0Z" transform="translate(-29.389 18.995)" fill="#4482ff"/>
    </g>
    <g id="Group_37747-3" data-name="Group 37747" transform="translate(443.392 300.571)">
      <path id="Rectangle_9653-6" data-name="Rectangle 9653" d="M3,0H37a3,3,0,0,1,3,3V70a0,0,0,0,1,0,0H0a0,0,0,0,1,0,0V3A3,3,0,0,1,3,0Z" transform="translate(-13.391 21.429)" fill="#e46179"/>
    </g>
    <g id="Group_19888-4" data-name="Group 19888" transform="translate(551.017 234.162)">
      <path id="Rectangle_9653-7" data-name="Rectangle 9653" d="M3,0H37a3,3,0,0,1,3,3V139a0,0,0,0,1,0,0H0a0,0,0,0,1,0,0V3A3,3,0,0,1,3,0Z" transform="translate(-30.017 18.838)" fill="#4482ff"/>
    </g>
    <g id="Group_37747-4" data-name="Group 37747" transform="translate(576.738 145.617)">
      <path id="Rectangle_9653-8" data-name="Rectangle 9653" d="M3,0H37a3,3,0,0,1,3,3V227a0,0,0,0,1,0,0H0a0,0,0,0,1,0,0V3A3,3,0,0,1,3,0Z" transform="translate(-15.738 19.383)" fill="#e46179"/>
    </g>
  </g>
</svg>
