<svg xmlns="http://www.w3.org/2000/svg" width="460" height="342" viewBox="0 0 460 342">
  <g id="Group_42772" data-name="Group 42772" transform="translate(-159 -85)">
    <g id="Rectangle_10070" data-name="Rectangle 10070" transform="translate(159 101)" fill="#6a9bff" stroke="#fff" stroke-width="1">
      <rect width="274" height="99" stroke="none"/>
      <rect x="0.5" y="0.5" width="273" height="98" fill="none"/>
    </g>
    <g id="Rectangle_10073" data-name="Rectangle 10073" transform="translate(430 85)" fill="#bfd5ff" stroke="#fff" stroke-width="1">
      <rect width="189" height="115" stroke="none"/>
      <rect x="0.5" y="0.5" width="188" height="114" fill="none"/>
    </g>
    <g id="Rectangle_10074" data-name="Rectangle 10074" transform="translate(392 199)" fill="#6a9bff" stroke="#fff" stroke-width="1">
      <rect width="227" height="133" stroke="none"/>
      <rect x="0.5" y="0.5" width="226" height="132" fill="none"/>
    </g>
    <g id="Rectangle_10075" data-name="Rectangle 10075" transform="translate(395 328)" fill="#aac6ff" stroke="#fff" stroke-width="1">
      <rect width="224" height="41" stroke="none"/>
      <rect x="0.5" y="0.5" width="223" height="40" fill="none"/>
    </g>
    <g id="Rectangle_10076" data-name="Rectangle 10076" transform="translate(330 368)" fill="#bfd5ff" stroke="#fff" stroke-width="1">
      <rect width="289" height="59" stroke="none"/>
      <rect x="0.5" y="0.5" width="288" height="58" fill="none"/>
    </g>
    <g id="Rectangle_10071" data-name="Rectangle 10071" transform="translate(159 199)" fill="#4482ff" stroke="#fff" stroke-width="1">
      <rect width="238" height="170" stroke="none"/>
      <rect x="0.5" y="0.5" width="237" height="169" fill="none"/>
    </g>
    <g id="Rectangle_10072" data-name="Rectangle 10072" transform="translate(159 368)" fill="#6a9bff" stroke="#fff" stroke-width="1">
      <rect width="174" height="59" stroke="none"/>
      <rect x="0.5" y="0.5" width="173" height="58" fill="none"/>
    </g>
    <path id="Path_70250" data-name="Path 70250" d="M269.734,68.937a4.936,4.936,0,0,1-4.936,4.937H185.84a4.937,4.937,0,0,1,0-9.875H264.8A4.935,4.935,0,0,1,269.734,68.937Zm-18.1,14.811H199a4.937,4.937,0,0,0,0,9.875h52.639a4.937,4.937,0,0,0,0-9.875Z" transform="translate(71.095 72)" opacity="0.1"/>
    <path id="Path_70251" data-name="Path 70251" d="M269.734,68.937a4.936,4.936,0,0,1-4.936,4.937H185.84a4.937,4.937,0,0,1,0-9.875H264.8A4.935,4.935,0,0,1,269.734,68.937Zm-18.1,14.811H199a4.937,4.937,0,0,0,0,9.875h52.639a4.937,4.937,0,0,0,0-9.875Z" transform="translate(299.095 64)" opacity="0.1"/>
    <path id="Path_70252" data-name="Path 70252" d="M269.734,68.937a4.936,4.936,0,0,1-4.936,4.937H185.84a4.937,4.937,0,0,1,0-9.875H264.8A4.935,4.935,0,0,1,269.734,68.937Zm-18.1,14.811H199a4.937,4.937,0,0,0,0,9.875h52.639a4.937,4.937,0,0,0,0-9.875Z" transform="translate(280.095 187)" opacity="0.1"/>
    <path id="Path_70254" data-name="Path 70254" d="M269.734,68.937a4.936,4.936,0,0,1-4.936,4.937H185.84a4.937,4.937,0,0,1,0-9.875H264.8A4.935,4.935,0,0,1,269.734,68.937Zm-18.1,14.811H199a4.937,4.937,0,0,0,0,9.875h52.639a4.937,4.937,0,0,0,0-9.875Z" transform="translate(249.095 319)" opacity="0.1"/>
    <path id="Path_70256" data-name="Path 70256" d="M269.734,68.937a4.936,4.936,0,0,1-4.936,4.937H185.84a4.937,4.937,0,0,1,0-9.875H264.8A4.935,4.935,0,0,1,269.734,68.937Z" transform="translate(282.095 280)" opacity="0.1"/>
    <path id="Path_70255" data-name="Path 70255" d="M269.734,68.937a4.936,4.936,0,0,1-4.936,4.937H185.84a4.937,4.937,0,0,1,0-9.875H264.8A4.935,4.935,0,0,1,269.734,68.937Zm-18.1,14.811H199a4.937,4.937,0,0,0,0,9.875h52.639a4.937,4.937,0,0,0,0-9.875Z" transform="translate(21.095 319)" opacity="0.1"/>
    <path id="Path_70253" data-name="Path 70253" d="M269.734,68.937a4.936,4.936,0,0,1-4.936,4.937H185.84a4.937,4.937,0,0,1,0-9.875H264.8A4.935,4.935,0,0,1,269.734,68.937Zm-18.1,14.811H199a4.937,4.937,0,0,0,0,9.875h52.639a4.937,4.937,0,0,0,0-9.875Z" transform="translate(53.095 205)" opacity="0.1"/>
  </g>
</svg>
