<svg xmlns="http://www.w3.org/2000/svg" width="444" height="227" viewBox="0 0 444 227">
  <g id="Group_47092" data-name="Group 47092" transform="translate(-63 -90)">
    <g id="Group_47091" data-name="Group 47091" transform="translate(30 4)">
      <g id="Group_19888" data-name="Group 19888" transform="translate(56.852 156.392)">
        <path id="Rectangle_9653" data-name="Rectangle 9653" d="M3,0H15a3,3,0,0,1,3,3V139a0,0,0,0,1,0,0H0a0,0,0,0,1,0,0V3A3,3,0,0,1,3,0Z" transform="translate(0.148 17.608)" fill="#4482ff"/>
      </g>
      <g id="Group_19889" data-name="Group 19889" transform="translate(33.131 72.766)">
        <path id="Rectangle_9652" data-name="Rectangle 9652" d="M3,0H15a3,3,0,0,1,3,3V217a0,0,0,0,1,0,0H0a0,0,0,0,1,0,0V3A3,3,0,0,1,3,0Z" transform="translate(-0.131 23.234)" fill="#fa9e2d"/>
      </g>
      <g id="Group_37747" data-name="Group 37747" transform="translate(80.573 209.273)">
        <path id="Rectangle_9653-2" data-name="Rectangle 9653" d="M3,0H15a3,3,0,0,1,3,3V84a0,0,0,0,1,0,0H0a0,0,0,0,1,0,0V3A3,3,0,0,1,3,0Z" transform="translate(0.427 19.727)" fill="#e46179"/>
      </g>
    </g>
    <g id="Group_47090" data-name="Group 47090" transform="translate(26 4)">
      <g id="Group_19888-2" data-name="Group 19888" transform="translate(187.199 108.068)">
        <path id="Rectangle_9653-3" data-name="Rectangle 9653" d="M3,0H15a3,3,0,0,1,3,3V186a0,0,0,0,1,0,0H0a0,0,0,0,1,0,0V3A3,3,0,0,1,3,0Z" transform="translate(-0.2 18.932)" fill="#4482ff"/>
      </g>
      <g id="Group_19889-2" data-name="Group 19889" transform="translate(163.205 243.707)">
        <path id="Rectangle_9652-2" data-name="Rectangle 9652" d="M3,0H15a3,3,0,0,1,3,3V45a0,0,0,0,1,0,0H0a0,0,0,0,1,0,0V3A3,3,0,0,1,3,0Z" transform="translate(-0.205 24.293)" fill="#fa9e2d"/>
      </g>
      <g id="Group_37747-2" data-name="Group 37747" transform="translate(210.92 184.677)">
        <path id="Rectangle_9653-4" data-name="Rectangle 9653" d="M3,0H15a3,3,0,0,1,3,3V105a0,0,0,0,1,0,0H0a0,0,0,0,1,0,0V3A3,3,0,0,1,3,0Z" transform="translate(0.079 23.323)" fill="#e46179"/>
      </g>
    </g>
    <g id="Group_47089" data-name="Group 47089" transform="translate(20 4)">
      <g id="Group_19888-3" data-name="Group 19888" transform="translate(318.389 256.005)">
        <path id="Rectangle_9653-5" data-name="Rectangle 9653" d="M3,0H15a3,3,0,0,1,3,3V38a0,0,0,0,1,0,0H0a0,0,0,0,1,0,0V3A3,3,0,0,1,3,0Z" transform="translate(0.611 18.995)" fill="#7090e3"/>
      </g>
      <g id="Group_19889-3" data-name="Group 19889" transform="translate(294.949 156.392)">
        <path id="Rectangle_9652-3" data-name="Rectangle 9652" d="M3,0H15a3,3,0,0,1,3,3V136a0,0,0,0,1,0,0H0a0,0,0,0,1,0,0V3A3,3,0,0,1,3,0Z" transform="translate(0.051 20.608)" fill="#fa9e2d"/>
      </g>
      <g id="Group_37747-3" data-name="Group 37747" transform="translate(343.391 221.571)">
        <path id="Rectangle_9653-6" data-name="Rectangle 9653" d="M3,0H15a3,3,0,0,1,3,3V70a0,0,0,0,1,0,0H0a0,0,0,0,1,0,0V3A3,3,0,0,1,3,0Z" transform="translate(-0.391 21.429)" fill="#e46179"/>
      </g>
    </g>
    <g id="Group_47088" data-name="Group 47088" transform="translate(16 4)">
      <g id="Group_19888-4" data-name="Group 19888" transform="translate(449.017 155.162)">
        <path id="Rectangle_9653-7" data-name="Rectangle 9653" d="M3,0H15a3,3,0,0,1,3,3V139a0,0,0,0,1,0,0H0a0,0,0,0,1,0,0V3A3,3,0,0,1,3,0Z" transform="translate(-0.017 18.838)" fill="#4482ff"/>
      </g>
      <g id="Group_19889-4" data-name="Group 19889" transform="translate(425.151 195.745)">
        <path id="Rectangle_9652-4" data-name="Rectangle 9652" d="M3,0H15a3,3,0,0,1,3,3V95a0,0,0,0,1,0,0H0a0,0,0,0,1,0,0V3A3,3,0,0,1,3,0Z" transform="translate(-0.151 22.255)" fill="#fa9e2d"/>
      </g>
      <g id="Group_37747-4" data-name="Group 37747" transform="translate(472.738 66.617)">
        <path id="Rectangle_9653-8" data-name="Rectangle 9653" d="M3,0H15a3,3,0,0,1,3,3V227a0,0,0,0,1,0,0H0a0,0,0,0,1,0,0V3A3,3,0,0,1,3,0Z" transform="translate(0.262 19.383)" fill="#e46179"/>
      </g>
    </g>
  </g>
</svg>
