<svg id="noun_filter_1938478" xmlns="http://www.w3.org/2000/svg" width="15" height="10" viewBox="0 0 15 10">
  <g id="Слой_2" data-name="Слой 2">
    <g id="Слой_1" data-name="Слой 1">
      <path id="Path_53054" data-name="Path 53054" d="M4.53,0A2.343,2.343,0,0,0,2.252,1.818H.538a.54.54,0,0,0,0,1.081H2.252a2.338,2.338,0,0,0,4.555,0h7.655a.54.54,0,0,0,0-1.081H6.807A2.343,2.343,0,0,0,4.53,0Zm0,3.637A1.272,1.272,0,1,1,5.795,2.365,1.268,1.268,0,0,1,4.53,3.637Z" transform="translate(0)" fill="#85888a"/>
      <path id="Path_53055" data-name="Path 53055" d="M9.489,8.3a2.343,2.343,0,0,0-2.277,1.818H.538a.54.54,0,0,0,0,1.081H7.193a2.338,2.338,0,0,0,4.555,0h2.714a.54.54,0,0,0,0-1.081H11.748A2.343,2.343,0,0,0,9.489,8.3Zm0,3.624a1.272,1.272,0,1,1,1.265-1.272A1.268,1.268,0,0,1,9.489,11.924Z" transform="translate(0 -3.009)" fill="#85888a"/>
    </g>
  </g>
</svg>
