<?xml version="1.0" encoding="utf-8"?>
<!-- Generator: Adobe Illustrator 17.1.0, SVG Export Plug-In . SVG Version: 6.00 Build 0)  -->
<!DOCTYPE svg PUBLIC "-//W3C//DTD SVG 1.1//EN" "http://www.w3.org/Graphics/SVG/1.1/DTD/svg11.dtd">
<svg
      xmlns="http://www.w3.org/2000/svg"
      width="35"
      height="34"
      fillRule="evenodd"
      strokeLinecap="round"
      strokeLinejoin="round"
      strokeMiterlimit="1.5"
      clipRule="evenodd"
      viewBox="0 0 2253 2253"
    >
      <path fill="none" d="M0.797 0.83H2250.797V2250.83H0.797z"></path>
      <path
        fill="#3050f3"
        stroke="#000"
        strokeWidth="66.67"
        d="M492.48 896.663H804.98V1854.996H492.48z"
      ></path>
      <path
        fill="#308df8"
        stroke="#000"
        strokeWidth="66.67"
        d="M492.48 709.163H804.98V896.663H492.48z"
      ></path>
      <path
        fill="#4dbe4b"
        stroke="#000"
        strokeWidth="66.67"
        d="M492.48 401.871H804.98V709.163H492.48z"
      ></path>
      <path
        fill="#3050f3"
        stroke="#000"
        strokeWidth="66.67"
        d="M1534.15 1084.16H1846.65V1854.993H1534.15z"
      ></path>
      <path
        fill="#3050f3"
        stroke="#000"
        strokeWidth="66.67"
        d="M1013.31 1230H1325.81V1855H1013.31z"
      ></path>
      <path
        fill="#308df8"
        stroke="#000"
        strokeWidth="66.67"
        d="M1534.15 854.996H1846.65V1084.163H1534.15z"
      ></path>
      <path
        fill="#308df8"
        stroke="#000"
        strokeWidth="66.67"
        d="M1013.31 915.413H1325.81V1229.996H1013.31z"
      ></path>
      <path
        fill="#4dbe4b"
        stroke="#000"
        strokeWidth="66.67"
        d="M1013.31 396.663H1325.81V915.413H1013.31z"
      ></path>
      <path
        fill="#4dbe4b"
        stroke="#000"
        strokeWidth="66.67"
        d="M1534.15 396.663H1846.65V854.9960000000001H1534.15z"
      ></path>
      <path d="M384.146 388.33l-100-200-100 200h200zM1959.15 1963.33l200 100-200 100v-200z"></path>
      <path
        fill="none"
        stroke="#000"
        strokeWidth="66.67"
        d="M284.146 348.33v1715h1715"
      ></path>
    </svg>