<svg xmlns="http://www.w3.org/2000/svg" width="24" height="23.023" viewBox="0 0 24 23.023">
  <g id="Full_screen" data-name="Full screen" transform="translate(-1312.001 -1839)">
    <path id="Path_72320" data-name="Path 72320" d="M23.944.93V7.487a.962.962,0,0,1-1.924,0V3.165L15.476,9.35a.951.951,0,0,1-1.346,0,.878.878,0,0,1,0-1.3l6.5-6.188H16.2a.946.946,0,0,1-.962-.93A.946.946,0,0,1,16.2,0h6.779a1.17,1.17,0,0,1,.384.094h.048c.048.047.1.047.192.094l.1.088.055.051c0,.047.048.047.048.094s.048.047.048.094S23.9.56,23.9.607s0,.047.048.094c0,.047,0,.047.048.094V.932c-.048-.047-.048,0-.048,0ZM10,13.485a.951.951,0,0,0-1.346,0L1.925,19.856v-4.37a.946.946,0,0,0-.962-.93.946.946,0,0,0-.962.93v6.742c0,.047,0,.047.048.094,0,.047,0,.047.048.094,0,.047.048.047.048.094s.048.047.048.094.048.047.048.094l.048.047.1.094a.253.253,0,0,0,.192.094H.624a.931.931,0,0,0,.384.094H7.789a.931.931,0,1,0,0-1.86H3.317L10,14.833a.933.933,0,0,0,0-1.348Z" transform="translate(1312 1839)" fill="#f45e29"/>
  </g>
</svg>
