<svg xmlns="http://www.w3.org/2000/svg" width="27.5" height="30" viewBox="0 0 27.5 30">
  <g id="Group_191071" data-name="Group 191071" transform="translate(-6.458 -2.5)">
    <path id="Path_82411" data-name="Path 82411" d="M46.294,6.4,43.783,3.885A4.751,4.751,0,0,0,40.441,2.5H29.717A3.469,3.469,0,0,0,26.25,5.966V22.983a3.469,3.469,0,0,0,3.466,3.466h14.5a3.469,3.469,0,0,0,3.466-3.466V9.739A4.7,4.7,0,0,0,46.294,6.4Zm-.506,16.587a1.578,1.578,0,0,1-1.576,1.575h-14.5a1.578,1.578,0,0,1-1.575-1.575V5.966a1.578,1.578,0,0,1,1.575-1.576H40.441a2.85,2.85,0,0,1,2.005.832l2.511,2.511a2.818,2.818,0,0,1,.831,2.005Z" transform="translate(-13.721)" fill="#f45e29"/>
    <path id="Path_82412" data-name="Path 82412" d="M27.572,34.249a.941.941,0,0,0-.945.937v.624a1.57,1.57,0,0,1-1.576,1.561H9.925A1.571,1.571,0,0,1,8.349,35.81V15.83a1.571,1.571,0,0,1,1.576-1.561h.63a.937.937,0,1,0,0-1.873h-.63A3.453,3.453,0,0,0,6.458,15.83V35.81a3.453,3.453,0,0,0,3.467,3.434H25.051a3.453,3.453,0,0,0,3.466-3.434v-.624A.941.941,0,0,0,27.572,34.249Z" transform="translate(0 -6.744)" fill="#f45e29"/>
    <path id="Path_82413" data-name="Path 82413" d="M52.483,30.208H43.029a.945.945,0,0,0,0,1.891h9.454a.945.945,0,1,0,0-1.891Z" transform="translate(-24.441 -18.963)" fill="#f45e29"/>
    <path id="Path_82414" data-name="Path 82414" d="M52.483,42.083H43.029a.945.945,0,0,0,0,1.891h9.454a.945.945,0,1,0,0-1.891Z" transform="translate(-24.441 -27.09)" fill="#f45e29"/>
    <path id="Path_82415" data-name="Path 82415" d="M52.483,53.958H43.029a.945.945,0,0,0,0,1.891h9.454a.945.945,0,1,0,0-1.891Z" transform="translate(-24.441 -35.217)" fill="#f45e29"/>
  </g>
</svg>
