<svg xmlns="http://www.w3.org/2000/svg" width="40" height="40" viewBox="0 0 40 40">
  <g id="Group_164484" data-name="Group 164484" transform="translate(-291 -495)">
    <circle id="Ellipse_1247" data-name="Ellipse 1247" cx="20" cy="20" r="20" transform="translate(291 495)" fill="#4482ff"/>
    <g id="meeting" transform="translate(201 453.867)">
      <path id="Path_82347" data-name="Path 82347" d="M344.39,361.069v6.6a.268.268,0,0,0,.537,0v-6.6a.269.269,0,0,0-.537,0Z" transform="translate(-234.6 -295.802)" fill="#fff" stroke="#fff" stroke-width="0.6"/>
      <path id="Path_82348" data-name="Path 82348" d="M238.583,326.229a.268.268,0,0,0-.268-.268H227.06a.268.268,0,0,0,0,.537h11.255a.268.268,0,0,0,.269-.268Z" transform="translate(-122.628 -262.629)" fill="#fff" stroke="#fff" stroke-width="0.6"/>
      <path id="Path_82349" data-name="Path 82349" d="M308.005,52.388a2.255,2.255,0,1,0-2.255,2.254A2.257,2.257,0,0,0,308.005,52.388Zm-3.972,0a1.718,1.718,0,1,1,1.718,1.718A1.72,1.72,0,0,1,304.033,52.388Z" transform="translate(-195.663 0)" fill="#fff" stroke="#fff" stroke-width="0.6"/>
      <path id="Path_82350" data-name="Path 82350" d="M286.16,163.106v4.078a.268.268,0,0,0,.537,0h0v-4.078a1.853,1.853,0,0,1,1.85-1.853h1.334a1.853,1.853,0,0,1,1.839,1.636,1.954,1.954,0,0,1,.013.216V167.2a.268.268,0,1,0,.537,0v-4.094a2.446,2.446,0,0,0-.017-.278,2.39,2.39,0,0,0-2.373-2.112h-1.334a2.39,2.39,0,0,0-2.386,2.389Z" transform="translate(-179.156 -105.293)" fill="#fff" stroke="#fff" stroke-width="0.6"/>
      <path id="Path_82351" data-name="Path 82351" d="M510.6,145.47a2.24,2.24,0,1,0,2.24,2.24A2.243,2.243,0,0,0,510.6,145.47Zm0,3.944a1.7,1.7,0,1,1,1.7-1.7A1.705,1.705,0,0,1,510.6,149.414Z" transform="translate(-390.724 -90.775)" fill="#fff" stroke="#fff" stroke-width="0.6"/>
      <path id="Path_82352" data-name="Path 82352" d="M433.072,255.78h-.549a2.065,2.065,0,0,0-2.063,2.063v2.632h-1.426a2.28,2.28,0,0,0-2.277,2.277V266.8a.871.871,0,0,0,.87.87h1.629a.871.871,0,0,0,.87-.87v-2.821h2.789a2.224,2.224,0,0,0,2.222-2.222v-3.91a2.066,2.066,0,0,0-2.063-2.063Zm1.526,5.973a1.687,1.687,0,0,1-1.685,1.685h-3.057a.268.268,0,0,0-.268.268V266.8a.334.334,0,0,1-.333.333h-1.629a.334.334,0,0,1-.333-.333v-4.043a1.743,1.743,0,0,1,1.741-1.741h1.694a.268.268,0,0,0,.268-.268v-2.9a1.528,1.528,0,0,1,1.526-1.526h.55a1.528,1.528,0,0,1,1.526,1.526Z" transform="translate(-313.025 -195.806)" fill="#fff" stroke="#fff" stroke-width="0.6"/>
      <path id="Path_82353" data-name="Path 82353" d="M100.24,149.951a2.24,2.24,0,1,0-2.24-2.24A2.243,2.243,0,0,0,100.24,149.951Zm0-3.944a1.7,1.7,0,1,1-1.7,1.7A1.705,1.705,0,0,1,100.24,146.007Z" transform="translate(0 -90.775)" fill="#fff" stroke="#fff" stroke-width="0.6"/>
      <path id="Path_82354" data-name="Path 82354" d="M104.039,267.666h1.629a.871.871,0,0,0,.87-.87v-4.043a2.28,2.28,0,0,0-2.277-2.277h-1.426v-2.632a2.065,2.065,0,0,0-2.063-2.063h-.55a2.065,2.065,0,0,0-2.063,2.063v3.91a2.224,2.224,0,0,0,2.222,2.222h2.789V266.8a.87.87,0,0,0,.869.87Zm-3.659-4.228a1.687,1.687,0,0,1-1.685-1.685v-3.91a1.528,1.528,0,0,1,1.526-1.526h.55a1.528,1.528,0,0,1,1.526,1.526v2.9a.268.268,0,0,0,.268.268h1.694A1.743,1.743,0,0,1,106,262.753V266.8a.334.334,0,0,1-.333.333h-1.629a.333.333,0,0,1-.333-.333v-3.089a.268.268,0,0,0-.268-.268h-3.057Z" transform="translate(-0.152 -195.807)" fill="#fff" stroke="#fff" stroke-width="0.6"/>
    </g>
  </g>
</svg>
