<svg xmlns="http://www.w3.org/2000/svg" width="19.699" height="19.734" viewBox="0 0 19.699 19.734">
  <path id="Icon_feather-phone-call" data-name="Icon feather-phone-call" d="M14.326,4.95a4.312,4.312,0,0,1,3.407,3.407M14.326,1.5a7.762,7.762,0,0,1,6.856,6.848M20.32,15.23v2.587a1.725,1.725,0,0,1-1.88,1.725A17.067,17.067,0,0,1,11,16.894,16.817,16.817,0,0,1,5.822,11.72,17.067,17.067,0,0,1,3.175,4.243a1.725,1.725,0,0,1,1.716-1.88H7.478A1.725,1.725,0,0,1,9.2,3.846a11.073,11.073,0,0,0,.6,2.423,1.725,1.725,0,0,1-.388,1.82l-1.1,1.1A13.8,13.8,0,0,0,13.5,14.359l1.1-1.1a1.725,1.725,0,0,1,1.82-.388,11.073,11.073,0,0,0,2.423.6A1.725,1.725,0,0,1,20.32,15.23Z" transform="translate(-2.367 -0.617)" fill="none" stroke="#4482ff" stroke-linecap="round" stroke-linejoin="round" stroke-width="1.6"/>
</svg>
